<?xml version="1.0" encoding="utf-8" standalone="no"?>
<!DOCTYPE svg PUBLIC "-//W3C//DTD SVG 1.1//EN"
  "http://www.w3.org/Graphics/SVG/1.1/DTD/svg11.dtd">
<svg xmlns:xlink="http://www.w3.org/1999/xlink" width="504pt" height="360pt" viewBox="0 0 504 360" xmlns="http://www.w3.org/2000/svg" version="1.1">
 <metadata>
  <rdf:RDF xmlns:dc="http://purl.org/dc/elements/1.1/" xmlns:cc="http://creativecommons.org/ns#" xmlns:rdf="http://www.w3.org/1999/02/22-rdf-syntax-ns#">
   <cc:Work>
    <dc:type rdf:resource="http://purl.org/dc/dcmitype/StillImage"/>
    <dc:date>2026-07-13T19:54:34.824712</dc:date>
    <dc:format>image/svg+xml</dc:format>
    <dc:creator>
     <cc:Agent>
      <dc:title>Matplotlib v3.11.0, https://matplotlib.org/</dc:title>
     </cc:Agent>
    </dc:creator>
   </cc:Work>
  </rdf:RDF>
 </metadata>
 <defs>
  <style type="text/css">*{stroke-linejoin: round; stroke-linecap: butt}</style>
 </defs>
 <g id="figure_1">
  <g id="patch_1">
   <path d="M 0 360 
L 504 360 
L 504 0 
L 0 0 
L 0 360 
z
" style="fill: none"/>
  </g>
  <g id="axes_1">
   <g id="patch_2">
    <path d="M 122.95275 305.792 
L 492.12 305.792 
L 492.12 36.464 
L 122.95275 36.464 
L 122.95275 305.792 
z
" style="fill: none"/>
   </g>
   <g id="matplotlib.axis_1">
    <g id="xtick_1">
     <g id="line2d_1">
      <defs>
       <path id="mc227cc03d0" d="M 0 0 
L 0 3.5 
" style="stroke: #1c2531; stroke-width: 0.8"/>
      </defs>
      <g>
       <use xlink:href="#mc227cc03d0" x="122.95275" y="305.792" style="fill: #1c2531; stroke: #1c2531; stroke-width: 0.8"/>
      </g>
     </g>
     <g id="text_1">
      <!-- 0 -->
      <g style="fill: #1c2531" transform="translate(120.219078 324.056) scale(0.11 -0.11)">
       <defs>
        <path id="SourceSans3-Regular-535" d="M 1594 -77 
Q 979 -77 630 476 
Q 282 1030 282 2054 
Q 282 3085 630 3622 
Q 979 4160 1594 4160 
Q 2202 4160 2550 3619 
Q 2899 3078 2899 2054 
Q 2899 1030 2550 476 
Q 2202 -77 1594 -77 
z
M 1594 346 
Q 1830 346 2009 525 
Q 2189 704 2288 1081 
Q 2387 1459 2387 2054 
Q 2387 2656 2288 3027 
Q 2189 3398 2009 3568 
Q 1830 3738 1594 3738 
Q 1350 3738 1171 3568 
Q 992 3398 893 3027 
Q 794 2656 794 2054 
Q 794 1459 893 1081 
Q 992 704 1171 525 
Q 1350 346 1594 346 
z
" transform="scale(0.015625)"/>
       </defs>
       <use xlink:href="#SourceSans3-Regular-535"/>
      </g>
     </g>
    </g>
    <g id="xtick_2">
     <g id="line2d_2">
      <g>
       <use xlink:href="#mc227cc03d0" x="181.550726" y="305.792" style="fill: #1c2531; stroke: #1c2531; stroke-width: 0.8"/>
      </g>
     </g>
     <g id="text_2">
      <!-- 2 -->
      <g style="fill: #1c2531" transform="translate(178.817054 324.056) scale(0.11 -0.11)">
       <defs>
        <path id="SourceSans3-Regular-537" d="M 256 0 
L 256 320 
Q 864 922 1296 1386 
Q 1728 1850 1952 2227 
Q 2176 2605 2176 2931 
Q 2176 3283 1984 3507 
Q 1792 3731 1402 3731 
Q 1146 3731 928 3590 
Q 710 3450 531 3238 
L 237 3526 
Q 493 3814 784 3987 
Q 1075 4160 1466 4160 
Q 1843 4160 2118 4009 
Q 2394 3859 2541 3590 
Q 2688 3322 2688 2963 
Q 2688 2566 2467 2176 
Q 2246 1786 1862 1357 
Q 1478 928 979 416 
Q 1146 435 1325 444 
Q 1504 454 1664 454 
L 2893 454 
L 2893 0 
L 256 0 
z
" transform="scale(0.015625)"/>
       </defs>
       <use xlink:href="#SourceSans3-Regular-537"/>
      </g>
     </g>
    </g>
    <g id="xtick_3">
     <g id="line2d_3">
      <g>
       <use xlink:href="#mc227cc03d0" x="240.148702" y="305.792" style="fill: #1c2531; stroke: #1c2531; stroke-width: 0.8"/>
      </g>
     </g>
     <g id="text_3">
      <!-- 4 -->
      <g style="fill: #1c2531" transform="translate(237.415031 324.056) scale(0.11 -0.11)">
       <defs>
        <path id="SourceSans3-Regular-539" d="M 1946 0 
L 1946 2733 
Q 1946 2893 1958 3126 
Q 1971 3360 1978 3520 
L 1952 3520 
Q 1875 3373 1792 3235 
Q 1709 3098 1619 2944 
L 666 1549 
L 3002 1549 
L 3002 1126 
L 109 1126 
L 109 1472 
L 1856 4083 
L 2445 4083 
L 2445 0 
L 1946 0 
z
" transform="scale(0.015625)"/>
       </defs>
       <use xlink:href="#SourceSans3-Regular-539"/>
      </g>
     </g>
    </g>
    <g id="xtick_4">
     <g id="line2d_4">
      <g>
       <use xlink:href="#mc227cc03d0" x="298.746679" y="305.792" style="fill: #1c2531; stroke: #1c2531; stroke-width: 0.8"/>
      </g>
     </g>
     <g id="text_4">
      <!-- 6 -->
      <g style="fill: #1c2531" transform="translate(296.013007 324.056) scale(0.11 -0.11)">
       <defs>
        <path id="SourceSans3-Regular-53b" d="M 1715 -77 
Q 1414 -77 1158 44 
Q 902 166 713 412 
Q 525 659 416 1027 
Q 307 1395 307 1888 
Q 307 2502 435 2934 
Q 563 3366 780 3635 
Q 998 3904 1276 4032 
Q 1555 4160 1862 4160 
Q 2195 4160 2435 4035 
Q 2675 3910 2848 3725 
L 2554 3398 
Q 2432 3546 2253 3632 
Q 2074 3718 1882 3718 
Q 1594 3718 1347 3545 
Q 1101 3373 953 2973 
Q 806 2573 806 1888 
Q 806 1382 912 1036 
Q 1018 691 1222 515 
Q 1427 339 1715 339 
Q 1914 339 2077 451 
Q 2240 563 2333 764 
Q 2426 966 2426 1235 
Q 2426 1498 2342 1693 
Q 2259 1888 2092 1993 
Q 1926 2099 1670 2099 
Q 1472 2099 1238 1968 
Q 1005 1837 794 1523 
L 774 1939 
Q 973 2195 1235 2345 
Q 1498 2496 1760 2496 
Q 2112 2496 2374 2355 
Q 2637 2214 2781 1932 
Q 2925 1651 2925 1235 
Q 2925 845 2758 550 
Q 2592 256 2317 89 
Q 2042 -77 1715 -77 
z
" transform="scale(0.015625)"/>
       </defs>
       <use xlink:href="#SourceSans3-Regular-53b"/>
      </g>
     </g>
    </g>
    <g id="xtick_5">
     <g id="line2d_5">
      <g>
       <use xlink:href="#mc227cc03d0" x="357.344655" y="305.792" style="fill: #1c2531; stroke: #1c2531; stroke-width: 0.8"/>
      </g>
     </g>
     <g id="text_5">
      <!-- 8 -->
      <g style="fill: #1c2531" transform="translate(354.610983 324.056) scale(0.11 -0.11)">
       <defs>
        <path id="SourceSans3-Regular-53d" d="M 1600 -77 
Q 1216 -77 912 67 
Q 608 211 435 467 
Q 262 723 262 1043 
Q 262 1312 374 1520 
Q 486 1728 662 1885 
Q 838 2042 1030 2144 
L 1030 2170 
Q 806 2330 633 2560 
Q 461 2790 461 3110 
Q 461 3424 614 3661 
Q 768 3898 1027 4029 
Q 1286 4160 1619 4160 
Q 2150 4160 2460 3856 
Q 2771 3552 2771 3072 
Q 2771 2861 2681 2672 
Q 2592 2483 2464 2332 
Q 2336 2182 2208 2086 
L 2208 2061 
Q 2387 1958 2550 1817 
Q 2714 1677 2816 1481 
Q 2918 1286 2918 1011 
Q 2918 710 2755 464 
Q 2592 218 2294 70 
Q 1997 -77 1600 -77 
z
M 1888 2227 
Q 2099 2413 2208 2617 
Q 2317 2822 2317 3046 
Q 2317 3245 2233 3408 
Q 2150 3571 1990 3670 
Q 1830 3770 1606 3770 
Q 1325 3770 1136 3587 
Q 947 3405 947 3110 
Q 947 2867 1078 2707 
Q 1210 2547 1424 2435 
Q 1638 2323 1888 2227 
z
M 1613 314 
Q 1850 314 2029 403 
Q 2208 493 2310 656 
Q 2413 819 2413 1030 
Q 2413 1293 2259 1459 
Q 2106 1626 1856 1744 
Q 1606 1862 1306 1984 
Q 1062 1824 899 1600 
Q 736 1376 736 1094 
Q 736 870 851 694 
Q 966 518 1164 416 
Q 1363 314 1613 314 
z
" transform="scale(0.015625)"/>
       </defs>
       <use xlink:href="#SourceSans3-Regular-53d"/>
      </g>
     </g>
    </g>
    <g id="xtick_6">
     <g id="line2d_6">
      <g>
       <use xlink:href="#mc227cc03d0" x="415.942631" y="305.792" style="fill: #1c2531; stroke: #1c2531; stroke-width: 0.8"/>
      </g>
     </g>
     <g id="text_6">
      <!-- 10 -->
      <g style="fill: #1c2531" transform="translate(410.475287 324.056) scale(0.11 -0.11)">
       <defs>
        <path id="SourceSans3-Regular-536" d="M 506 0 
L 506 435 
L 1440 435 
L 1440 3443 
L 698 3443 
L 698 3782 
Q 973 3834 1184 3907 
Q 1395 3981 1562 4083 
L 1965 4083 
L 1965 435 
L 2810 435 
L 2810 0 
L 506 0 
z
" transform="scale(0.015625)"/>
       </defs>
       <use xlink:href="#SourceSans3-Regular-536"/>
       <use xlink:href="#SourceSans3-Regular-535" transform="translate(49.703125 0)"/>
      </g>
     </g>
    </g>
    <g id="xtick_7">
     <g id="line2d_7">
      <g>
       <use xlink:href="#mc227cc03d0" x="474.540607" y="305.792" style="fill: #1c2531; stroke: #1c2531; stroke-width: 0.8"/>
      </g>
     </g>
     <g id="text_7">
      <!-- 12 -->
      <g style="fill: #1c2531" transform="translate(469.073263 324.056) scale(0.11 -0.11)">
       <use xlink:href="#SourceSans3-Regular-536"/>
       <use xlink:href="#SourceSans3-Regular-537" transform="translate(49.703125 0)"/>
      </g>
     </g>
    </g>
    <g id="text_8">
     <!-- Count -->
     <g style="fill: #1c2531" transform="translate(293.555203 343.72) scale(0.11 -0.11)">
      <defs>
       <path id="SourceSans3-Regular-4" d="M 2170 -77 
Q 1645 -77 1225 182 
Q 806 442 569 928 
Q 333 1414 333 2099 
Q 333 2605 470 3008 
Q 608 3411 864 3696 
Q 1120 3981 1456 4128 
Q 1792 4275 2195 4275 
Q 2573 4275 2870 4121 
Q 3168 3968 3347 3757 
L 3059 3430 
Q 2893 3610 2678 3709 
Q 2464 3808 2202 3808 
Q 1811 3808 1513 3600 
Q 1216 3392 1049 3011 
Q 883 2630 883 2112 
Q 883 1581 1043 1197 
Q 1203 813 1504 605 
Q 1805 397 2208 397 
Q 2502 397 2736 509 
Q 2970 621 3162 838 
L 3443 525 
Q 3194 237 2886 80 
Q 2579 -77 2170 -77 
z
" transform="scale(0.015625)"/>
       <path id="SourceSans3-Regular-2a" d="M 1734 -77 
Q 1357 -77 1027 115 
Q 698 307 496 672 
Q 294 1037 294 1549 
Q 294 2074 496 2438 
Q 698 2803 1027 2995 
Q 1357 3187 1734 3187 
Q 2118 3187 2444 2995 
Q 2771 2803 2972 2438 
Q 3174 2074 3174 1549 
Q 3174 1037 2972 672 
Q 2771 307 2444 115 
Q 2118 -77 1734 -77 
z
M 1734 358 
Q 2003 358 2208 508 
Q 2413 659 2521 928 
Q 2630 1197 2630 1549 
Q 2630 1907 2521 2179 
Q 2413 2451 2208 2601 
Q 2003 2752 1734 2752 
Q 1466 2752 1264 2601 
Q 1062 2451 950 2179 
Q 838 1907 838 1549 
Q 838 1197 950 928 
Q 1062 659 1264 508 
Q 1466 358 1734 358 
z
" transform="scale(0.015625)"/>
       <path id="SourceSans3-Regular-30" d="M 1434 -77 
Q 941 -77 713 233 
Q 486 544 486 1139 
L 486 3110 
L 1011 3110 
L 1011 1210 
Q 1011 774 1148 579 
Q 1286 384 1594 384 
Q 1830 384 2019 509 
Q 2208 634 2432 902 
L 2432 3110 
L 2957 3110 
L 2957 0 
L 2522 0 
L 2477 486 
L 2458 486 
Q 2246 230 2000 76 
Q 1754 -77 1434 -77 
z
" transform="scale(0.015625)"/>
       <path id="SourceSans3-Regular-29" d="M 525 0 
L 525 3110 
L 960 3110 
L 1005 2662 
L 1024 2662 
Q 1248 2886 1497 3036 
Q 1747 3187 2067 3187 
Q 2560 3187 2787 2876 
Q 3014 2566 3014 1971 
L 3014 0 
L 2490 0 
L 2490 1901 
Q 2490 2342 2352 2537 
Q 2214 2733 1901 2733 
Q 1664 2733 1475 2611 
Q 1286 2490 1050 2253 
L 1050 0 
L 525 0 
z
" transform="scale(0.015625)"/>
       <path id="SourceSans3-Regular-2f" d="M 1504 -58 
Q 1011 -58 812 230 
Q 614 518 614 979 
L 614 2682 
L 154 2682 
L 154 3078 
L 640 3110 
L 704 4109 
L 1146 4109 
L 1146 3110 
L 1990 3110 
L 1990 2682 
L 1146 2682 
L 1146 973 
Q 1146 691 1251 531 
Q 1357 371 1626 371 
Q 1709 371 1798 387 
Q 1888 403 1978 448 
L 2093 77 
Q 1971 19 1817 -19 
Q 1664 -58 1504 -58 
z
" transform="scale(0.015625)"/>
      </defs>
      <use xlink:href="#SourceSans3-Regular-4"/>
      <use xlink:href="#SourceSans3-Regular-2a" transform="translate(57.09375 0)"/>
      <use xlink:href="#SourceSans3-Regular-30" transform="translate(111.296875 0)"/>
      <use xlink:href="#SourceSans3-Regular-29" transform="translate(165.703125 0)"/>
      <use xlink:href="#SourceSans3-Regular-2f" transform="translate(220.40625 0)"/>
     </g>
    </g>
   </g>
   <g id="matplotlib.axis_2">
    <g id="ytick_1">
     <g id="line2d_8">
      <defs>
       <path id="mc2537edbf1" d="M 0 0 
L -3.5 0 
" style="stroke: #1c2531; stroke-width: 0.8"/>
      </defs>
      <g>
       <use xlink:href="#mc2537edbf1" x="122.95275" y="279.147251" style="fill: #1c2531; stroke: #1c2531; stroke-width: 0.8"/>
      </g>
     </g>
     <g id="text_9">
      <!-- Stan -->
      <g style="fill: #1c2531" transform="translate(95.293375 284.779251) scale(0.11 -0.11)">
       <defs>
        <path id="SourceSans3-Regular-14" d="M 1741 -77 
Q 1293 -77 921 92 
Q 550 262 269 550 
L 570 896 
Q 794 659 1104 524 
Q 1414 390 1747 390 
Q 2163 390 2393 579 
Q 2624 768 2624 1075 
Q 2624 1293 2531 1421 
Q 2438 1549 2281 1638 
Q 2125 1728 1926 1818 
L 1325 2080 
Q 1120 2170 925 2304 
Q 730 2438 602 2646 
Q 474 2854 474 3162 
Q 474 3482 643 3734 
Q 813 3987 1110 4131 
Q 1408 4275 1792 4275 
Q 2176 4275 2496 4134 
Q 2816 3994 3034 3770 
L 2746 3424 
Q 2547 3597 2310 3702 
Q 2074 3808 1792 3808 
Q 1440 3808 1225 3641 
Q 1011 3475 1011 3194 
Q 1011 2995 1113 2867 
Q 1216 2739 1379 2656 
Q 1542 2573 1709 2496 
L 2304 2240 
Q 2554 2131 2749 1990 
Q 2944 1850 3056 1638 
Q 3168 1427 3168 1120 
Q 3168 787 2998 515 
Q 2829 243 2505 83 
Q 2182 -77 1741 -77 
z
" transform="scale(0.015625)"/>
        <path id="SourceSans3-Regular-1c" d="M 1242 -77 
Q 986 -77 778 28 
Q 570 134 448 329 
Q 326 525 326 806 
Q 326 1331 787 1600 
Q 1248 1869 2246 1978 
Q 2240 2170 2185 2349 
Q 2131 2528 1990 2637 
Q 1850 2746 1600 2746 
Q 1331 2746 1094 2646 
Q 858 2547 672 2426 
L 467 2784 
Q 608 2880 800 2973 
Q 992 3066 1216 3126 
Q 1440 3187 1690 3187 
Q 2067 3187 2307 3030 
Q 2547 2874 2659 2586 
Q 2771 2298 2771 1907 
L 2771 0 
L 2336 0 
L 2291 371 
L 2272 371 
Q 2048 186 1792 54 
Q 1536 -77 1242 -77 
z
M 1389 358 
Q 1619 358 1820 460 
Q 2022 563 2246 762 
L 2246 1600 
Q 1722 1536 1418 1437 
Q 1114 1338 979 1190 
Q 845 1043 845 838 
Q 845 582 1005 470 
Q 1165 358 1389 358 
z
" transform="scale(0.015625)"/>
       </defs>
       <use xlink:href="#SourceSans3-Regular-14"/>
       <use xlink:href="#SourceSans3-Regular-2f" transform="translate(51 0)"/>
       <use xlink:href="#SourceSans3-Regular-1c" transform="translate(82.703125 0)"/>
       <use xlink:href="#SourceSans3-Regular-29" transform="translate(133.109375 0)"/>
      </g>
     </g>
    </g>
    <g id="ytick_2">
     <g id="line2d_9">
      <g>
       <use xlink:href="#mc2537edbf1" x="122.95275" y="243.140834" style="fill: #1c2531; stroke: #1c2531; stroke-width: 0.8"/>
      </g>
     </g>
     <g id="text_10">
      <!-- Jupyter Notebook -->
      <g style="fill: #1c2531" transform="translate(33.102125 248.772834) scale(0.11 -0.11)">
       <defs>
        <path id="SourceSans3-Regular-b" d="M 1325 -77 
Q 947 -77 665 92 
Q 384 262 211 602 
L 570 838 
Q 698 608 880 502 
Q 1062 397 1293 397 
Q 1638 397 1808 605 
Q 1978 813 1978 1299 
L 1978 4198 
L 2509 4198 
L 2509 1248 
Q 2509 883 2390 582 
Q 2272 282 2009 102 
Q 1747 -77 1325 -77 
z
" transform="scale(0.015625)"/>
        <path id="SourceSans3-Regular-2b" d="M 525 -1312 
L 525 3110 
L 960 3110 
L 1005 2752 
L 1024 2752 
Q 1235 2931 1491 3059 
Q 1747 3187 2016 3187 
Q 2413 3187 2688 2992 
Q 2963 2797 3104 2441 
Q 3245 2086 3245 1600 
Q 3245 1075 3056 697 
Q 2867 320 2560 121 
Q 2253 -77 1901 -77 
Q 1690 -77 1472 19 
Q 1254 115 1037 282 
L 1050 -262 
L 1050 -1312 
L 525 -1312 
z
M 1811 365 
Q 2067 365 2268 512 
Q 2470 659 2585 937 
Q 2701 1216 2701 1600 
Q 2701 1939 2617 2198 
Q 2534 2458 2355 2602 
Q 2176 2746 1882 2746 
Q 1690 2746 1485 2640 
Q 1280 2534 1050 2323 
L 1050 691 
Q 1267 512 1462 438 
Q 1658 365 1811 365 
z
" transform="scale(0.015625)"/>
        <path id="SourceSans3-Regular-34" d="M 576 -1338 
Q 474 -1338 381 -1318 
Q 288 -1299 211 -1274 
L 326 -864 
Q 384 -883 441 -892 
Q 499 -902 550 -902 
Q 819 -902 988 -713 
Q 1158 -525 1254 -237 
L 1325 -6 
L 77 3110 
L 621 3110 
L 1254 1389 
Q 1331 1190 1408 960 
Q 1485 730 1555 512 
L 1581 512 
Q 1651 730 1718 957 
Q 1786 1184 1843 1389 
L 2400 3110 
L 2912 3110 
L 1741 -256 
Q 1632 -563 1478 -809 
Q 1325 -1056 1107 -1197 
Q 890 -1338 576 -1338 
z
" transform="scale(0.015625)"/>
        <path id="SourceSans3-Regular-20" d="M 1786 -77 
Q 1370 -77 1027 118 
Q 685 314 486 675 
Q 288 1037 288 1555 
Q 288 2061 493 2425 
Q 698 2790 1018 2988 
Q 1338 3187 1696 3187 
Q 2093 3187 2371 3004 
Q 2650 2822 2790 2496 
Q 2931 2170 2931 1728 
Q 2931 1645 2928 1568 
Q 2925 1491 2906 1414 
L 666 1414 
L 666 1830 
L 2458 1830 
Q 2458 2278 2262 2518 
Q 2067 2758 1702 2758 
Q 1491 2758 1286 2640 
Q 1082 2522 950 2259 
Q 819 1997 819 1562 
Q 819 1165 956 896 
Q 1094 627 1331 489 
Q 1568 352 1850 352 
Q 2074 352 2269 416 
Q 2464 480 2624 589 
L 2816 243 
Q 2611 102 2358 12 
Q 2106 -77 1786 -77 
z
" transform="scale(0.015625)"/>
        <path id="SourceSans3-Regular-2d" d="M 525 0 
L 525 3110 
L 960 3110 
L 1005 2547 
L 1024 2547 
Q 1178 2842 1408 3014 
Q 1638 3187 1907 3187 
Q 2010 3187 2086 3174 
Q 2163 3162 2240 3123 
L 2125 2675 
Q 2054 2694 1993 2704 
Q 1933 2714 1837 2714 
Q 1638 2714 1424 2554 
Q 1210 2394 1050 1997 
L 1050 0 
L 525 0 
z
" transform="scale(0.015625)"/>
        <path id="SourceSans3-Regular-1" transform="scale(0.015625)"/>
        <path id="SourceSans3-Regular-f" d="M 576 0 
L 576 4198 
L 1158 4198 
L 2650 1587 
Q 2771 1376 2880 1149 
Q 2989 922 3098 685 
L 3123 685 
Q 3104 1011 3078 1353 
Q 3053 1696 3053 2016 
L 3053 4198 
L 3565 4198 
L 3565 0 
L 2982 0 
L 1491 2611 
Q 1376 2822 1257 3052 
Q 1139 3283 1037 3514 
L 1011 3514 
Q 1037 3200 1059 2867 
Q 1082 2534 1082 2195 
L 1082 0 
L 576 0 
z
" transform="scale(0.015625)"/>
        <path id="SourceSans3-Regular-1d" d="M 1901 -77 
Q 1683 -77 1452 28 
Q 1222 134 1011 320 
L 992 320 
L 947 0 
L 525 0 
L 525 4557 
L 1050 4557 
L 1050 3315 
L 1037 2752 
Q 1248 2938 1501 3062 
Q 1754 3187 2010 3187 
Q 2413 3187 2688 2992 
Q 2963 2797 3104 2441 
Q 3245 2086 3245 1606 
Q 3245 1075 3056 697 
Q 2867 320 2560 121 
Q 2253 -77 1901 -77 
z
M 1811 365 
Q 2067 365 2268 512 
Q 2470 659 2585 937 
Q 2701 1216 2701 1600 
Q 2701 1939 2617 2198 
Q 2534 2458 2355 2602 
Q 2176 2746 1882 2746 
Q 1690 2746 1482 2640 
Q 1274 2534 1050 2323 
L 1050 691 
Q 1254 512 1456 438 
Q 1658 365 1811 365 
z
" transform="scale(0.015625)"/>
        <path id="SourceSans3-Regular-26" d="M 525 0 
L 525 4557 
L 1050 4557 
L 1050 1478 
L 1062 1478 
L 2381 3110 
L 2970 3110 
L 1933 1856 
L 3110 0 
L 2534 0 
L 1626 1498 
L 1050 819 
L 1050 0 
L 525 0 
z
" transform="scale(0.015625)"/>
       </defs>
       <use xlink:href="#SourceSans3-Regular-b"/>
       <use xlink:href="#SourceSans3-Regular-30" transform="translate(47.90625 0)"/>
       <use xlink:href="#SourceSans3-Regular-2b" transform="translate(102.3125 0)"/>
       <use xlink:href="#SourceSans3-Regular-34" transform="translate(157.40625 0)"/>
       <use xlink:href="#SourceSans3-Regular-2f" transform="translate(204.109375 0)"/>
       <use xlink:href="#SourceSans3-Regular-20" transform="translate(236.5 0)"/>
       <use xlink:href="#SourceSans3-Regular-2d" transform="translate(286.09375 0)"/>
       <use xlink:href="#SourceSans3-Regular-1" transform="translate(320.796875 0)"/>
       <use xlink:href="#SourceSans3-Regular-f" transform="translate(340.796875 0)"/>
       <use xlink:href="#SourceSans3-Regular-2a" transform="translate(405.5 0)"/>
       <use xlink:href="#SourceSans3-Regular-2f" transform="translate(458 0)"/>
       <use xlink:href="#SourceSans3-Regular-20" transform="translate(490.390625 0)"/>
       <use xlink:href="#SourceSans3-Regular-1d" transform="translate(539.984375 0)"/>
       <use xlink:href="#SourceSans3-Regular-2a" transform="translate(595.28125 0)"/>
       <use xlink:href="#SourceSans3-Regular-2a" transform="translate(649.484375 0)"/>
       <use xlink:href="#SourceSans3-Regular-26" transform="translate(703.6875 0)"/>
      </g>
     </g>
    </g>
    <g id="ytick_3">
     <g id="line2d_10">
      <g>
       <use xlink:href="#mc2537edbf1" x="122.95275" y="207.134417" style="fill: #1c2531; stroke: #1c2531; stroke-width: 0.8"/>
      </g>
     </g>
     <g id="text_11">
      <!-- Makefile -->
      <g style="fill: #1c2531" transform="translate(77.552438 212.766417) scale(0.11 -0.11)">
       <defs>
        <path id="SourceSans3-Regular-e" d="M 576 0 
L 576 4198 
L 1248 4198 
L 2042 1952 
Q 2118 1741 2185 1529 
Q 2253 1318 2323 1082 
L 2349 1082 
Q 2419 1318 2483 1529 
Q 2547 1741 2618 1952 
L 3411 4198 
L 4077 4198 
L 4077 0 
L 3578 0 
L 3578 2310 
Q 3578 2496 3590 2726 
Q 3603 2957 3619 3184 
Q 3635 3411 3654 3597 
L 3629 3597 
L 3302 2586 
L 2515 416 
L 2125 416 
L 1338 2586 
L 1011 3597 
L 986 3597 
Q 1005 3411 1021 3184 
Q 1037 2957 1049 2726 
Q 1062 2496 1062 2310 
L 1062 0 
L 576 0 
z
" transform="scale(0.015625)"/>
        <path id="SourceSans3-Regular-21" d="M 614 0 
L 614 3603 
Q 614 3917 710 4150 
Q 806 4384 1008 4509 
Q 1210 4634 1523 4634 
Q 1664 4634 1801 4605 
Q 1939 4576 2042 4531 
L 1926 4147 
Q 1741 4205 1574 4205 
Q 1357 4205 1248 4054 
Q 1139 3904 1139 3603 
L 1139 0 
L 614 0 
z
M 154 2682 
L 154 3078 
L 640 3110 
L 1798 3110 
L 1798 2682 
L 154 2682 
z
" transform="scale(0.015625)"/>
        <path id="SourceSans3-Regular-24" d="M 525 0 
L 525 3110 
L 1050 3110 
L 1050 0 
L 525 0 
z
M 787 3750 
Q 633 3750 534 3846 
Q 435 3942 435 4096 
Q 435 4250 534 4346 
Q 633 4442 787 4442 
Q 941 4442 1040 4346 
Q 1139 4250 1139 4096 
Q 1139 3942 1040 3846 
Q 941 3750 787 3750 
z
" transform="scale(0.015625)"/>
        <path id="SourceSans3-Regular-27" d="M 1082 -58 
Q 883 -58 761 22 
Q 640 102 582 259 
Q 525 416 525 640 
L 525 4557 
L 1050 4557 
L 1050 602 
Q 1050 474 1094 426 
Q 1139 378 1203 378 
Q 1229 378 1251 381 
Q 1274 384 1312 390 
L 1389 -6 
Q 1331 -26 1257 -42 
Q 1184 -58 1082 -58 
z
" transform="scale(0.015625)"/>
       </defs>
       <use xlink:href="#SourceSans3-Regular-e"/>
       <use xlink:href="#SourceSans3-Regular-1c" transform="translate(72.703125 0)"/>
       <use xlink:href="#SourceSans3-Regular-26" transform="translate(123.109375 0)"/>
       <use xlink:href="#SourceSans3-Regular-20" transform="translate(170.8125 0)"/>
       <use xlink:href="#SourceSans3-Regular-21" transform="translate(220.203125 0)"/>
       <use xlink:href="#SourceSans3-Regular-24" transform="translate(249.40625 0)"/>
       <use xlink:href="#SourceSans3-Regular-27" transform="translate(274 0)"/>
       <use xlink:href="#SourceSans3-Regular-20" transform="translate(299.5 0)"/>
      </g>
     </g>
    </g>
    <g id="ytick_4">
     <g id="line2d_11">
      <g>
       <use xlink:href="#mc2537edbf1" x="122.95275" y="171.128" style="fill: #1c2531; stroke: #1c2531; stroke-width: 0.8"/>
      </g>
     </g>
     <g id="text_12">
      <!-- HTML -->
      <g style="fill: #1c2531" transform="translate(89.542438 176.76) scale(0.11 -0.11)">
       <defs>
        <path id="SourceSans3-Regular-9" d="M 576 0 
L 576 4198 
L 1107 4198 
L 1107 2438 
L 3066 2438 
L 3066 4198 
L 3597 4198 
L 3597 0 
L 3066 0 
L 3066 1978 
L 1107 1978 
L 1107 0 
L 576 0 
z
" transform="scale(0.015625)"/>
        <path id="SourceSans3-Regular-15" d="M 1446 0 
L 1446 3744 
L 179 3744 
L 179 4198 
L 3251 4198 
L 3251 3744 
L 1984 3744 
L 1984 0 
L 1446 0 
z
" transform="scale(0.015625)"/>
        <path id="SourceSans3-Regular-d" d="M 576 0 
L 576 4198 
L 1107 4198 
L 1107 454 
L 2944 454 
L 2944 0 
L 576 0 
z
" transform="scale(0.015625)"/>
       </defs>
       <use xlink:href="#SourceSans3-Regular-9"/>
       <use xlink:href="#SourceSans3-Regular-15" transform="translate(65.203125 0)"/>
       <use xlink:href="#SourceSans3-Regular-e" transform="translate(118.796875 0)"/>
       <use xlink:href="#SourceSans3-Regular-d" transform="translate(191.5 0)"/>
      </g>
     </g>
    </g>
    <g id="ytick_5">
     <g id="line2d_12">
      <g>
       <use xlink:href="#mc2537edbf1" x="122.95275" y="135.121583" style="fill: #1c2531; stroke: #1c2531; stroke-width: 0.8"/>
      </g>
     </g>
     <g id="text_13">
      <!-- TeX -->
      <g style="fill: #1c2531" transform="translate(99.684781 140.753583) scale(0.11 -0.11)">
       <defs>
        <path id="SourceSans3-Regular-19" d="M 96 0 
L 1318 2170 
L 179 4198 
L 768 4198 
L 1338 3123 
Q 1421 2982 1494 2841 
Q 1568 2701 1664 2515 
L 1690 2515 
Q 1779 2701 1846 2841 
Q 1914 2982 1990 3123 
L 2547 4198 
L 3110 4198 
L 1965 2144 
L 3187 0 
L 2598 0 
L 1984 1133 
Q 1901 1286 1814 1449 
Q 1728 1613 1626 1805 
L 1600 1805 
Q 1510 1613 1430 1449 
Q 1350 1286 1267 1133 
L 659 0 
L 96 0 
z
" transform="scale(0.015625)"/>
       </defs>
       <use xlink:href="#SourceSans3-Regular-15"/>
       <use xlink:href="#SourceSans3-Regular-20" transform="translate(47 0)"/>
       <use xlink:href="#SourceSans3-Regular-19" transform="translate(96.59375 0)"/>
      </g>
     </g>
    </g>
    <g id="ytick_6">
     <g id="line2d_13">
      <g>
       <use xlink:href="#mc2537edbf1" x="122.95275" y="99.115166" style="fill: #1c2531; stroke: #1c2531; stroke-width: 0.8"/>
      </g>
     </g>
     <g id="text_14">
      <!-- Python -->
      <g style="fill: #1c2531" transform="translate(82.908062 104.747166) scale(0.11 -0.11)">
       <defs>
        <path id="SourceSans3-Regular-11" d="M 576 0 
L 576 4198 
L 1773 4198 
Q 2246 4198 2598 4080 
Q 2950 3962 3148 3693 
Q 3347 3424 3347 2963 
Q 3347 2522 3152 2237 
Q 2957 1952 2608 1808 
Q 2259 1664 1798 1664 
L 1107 1664 
L 1107 0 
L 576 0 
z
M 1107 2099 
L 1734 2099 
Q 2285 2099 2550 2310 
Q 2816 2522 2816 2963 
Q 2816 3418 2537 3594 
Q 2259 3770 1709 3770 
L 1107 3770 
L 1107 2099 
z
" transform="scale(0.015625)"/>
        <path id="SourceSans3-Regular-23" d="M 525 0 
L 525 4557 
L 1050 4557 
L 1050 3315 
L 1030 2675 
Q 1254 2886 1500 3036 
Q 1747 3187 2067 3187 
Q 2560 3187 2787 2876 
Q 3014 2566 3014 1971 
L 3014 0 
L 2490 0 
L 2490 1901 
Q 2490 2342 2352 2537 
Q 2214 2733 1901 2733 
Q 1664 2733 1475 2611 
Q 1286 2490 1050 2253 
L 1050 0 
L 525 0 
z
" transform="scale(0.015625)"/>
       </defs>
       <use xlink:href="#SourceSans3-Regular-11"/>
       <use xlink:href="#SourceSans3-Regular-34" transform="translate(56.59375 0)"/>
       <use xlink:href="#SourceSans3-Regular-2f" transform="translate(103.296875 0)"/>
       <use xlink:href="#SourceSans3-Regular-23" transform="translate(137.09375 0)"/>
       <use xlink:href="#SourceSans3-Regular-2a" transform="translate(191.5 0)"/>
       <use xlink:href="#SourceSans3-Regular-29" transform="translate(245.703125 0)"/>
      </g>
     </g>
    </g>
    <g id="ytick_7">
     <g id="line2d_14">
      <g>
       <use xlink:href="#mc2537edbf1" x="122.95275" y="63.108749" style="fill: #1c2531; stroke: #1c2531; stroke-width: 0.8"/>
      </g>
     </g>
     <g id="text_15">
      <!-- R -->
      <g style="fill: #1c2531" transform="translate(109.693063 68.740749) scale(0.11 -0.11)">
       <defs>
        <path id="SourceSans3-Regular-13" d="M 576 0 
L 576 4198 
L 1888 4198 
Q 2317 4198 2649 4086 
Q 2982 3974 3171 3715 
Q 3360 3456 3360 3021 
Q 3360 2598 3171 2323 
Q 2982 2048 2649 1910 
Q 2317 1773 1888 1773 
L 1107 1773 
L 1107 0 
L 576 0 
z
M 1107 2208 
L 1811 2208 
Q 2304 2208 2566 2409 
Q 2829 2611 2829 3021 
Q 2829 3430 2566 3600 
Q 2304 3770 1811 3770 
L 1107 3770 
L 1107 2208 
z
M 2880 0 
L 1786 1920 
L 2202 2202 
L 3482 0 
L 2880 0 
z
" transform="scale(0.015625)"/>
       </defs>
       <use xlink:href="#SourceSans3-Regular-13"/>
      </g>
     </g>
    </g>
    <g id="text_16">
     <!-- Language -->
     <g style="fill: #1c2531" transform="translate(24.702125 193.541359) rotate(-90) scale(0.11 -0.11)">
      <defs>
       <path id="SourceSans3-Regular-22" d="M 1574 -1434 
Q 1197 -1434 905 -1334 
Q 614 -1235 451 -1049 
Q 288 -864 288 -595 
Q 288 -397 409 -214 
Q 531 -32 742 109 
L 742 134 
Q 627 211 547 336 
Q 467 461 467 640 
Q 467 838 579 985 
Q 691 1133 806 1216 
L 806 1242 
Q 659 1370 531 1587 
Q 403 1805 403 2080 
Q 403 2419 566 2668 
Q 730 2918 995 3052 
Q 1261 3187 1574 3187 
Q 1702 3187 1817 3164 
Q 1933 3142 2016 3110 
L 3098 3110 
L 3098 2707 
L 2451 2707 
L 2451 2682 
Q 2566 2579 2640 2425 
Q 2714 2272 2714 2061 
Q 2714 1728 2560 1488 
Q 2406 1248 2150 1117 
Q 1894 986 1574 986 
Q 1459 986 1337 1014 
Q 1216 1043 1107 1094 
Q 1030 1024 969 941 
Q 909 858 909 723 
Q 909 576 1027 480 
Q 1146 384 1459 384 
L 2061 384 
Q 2605 384 2877 208 
Q 3149 32 3149 -358 
Q 3149 -646 2957 -889 
Q 2765 -1133 2409 -1283 
Q 2054 -1434 1574 -1434 
z
M 1574 1338 
Q 1754 1338 1904 1430 
Q 2054 1523 2144 1689 
Q 2234 1856 2234 2080 
Q 2234 2426 2042 2614 
Q 1850 2803 1574 2803 
Q 1299 2803 1107 2614 
Q 915 2426 915 2080 
Q 915 1856 1004 1689 
Q 1094 1523 1244 1430 
Q 1395 1338 1574 1338 
z
M 1651 -1069 
Q 1946 -1069 2166 -979 
Q 2387 -890 2512 -742 
Q 2637 -595 2637 -435 
Q 2637 -218 2473 -134 
Q 2310 -51 2010 -51 
L 1472 -51 
Q 1382 -51 1276 -38 
Q 1171 -26 1069 0 
Q 896 -122 822 -256 
Q 749 -390 749 -525 
Q 749 -774 989 -921 
Q 1229 -1069 1651 -1069 
z
" transform="scale(0.015625)"/>
      </defs>
      <use xlink:href="#SourceSans3-Regular-d"/>
      <use xlink:href="#SourceSans3-Regular-1c" transform="translate(48.59375 0)"/>
      <use xlink:href="#SourceSans3-Regular-29" transform="translate(99 0)"/>
      <use xlink:href="#SourceSans3-Regular-22" transform="translate(153.703125 0)"/>
      <use xlink:href="#SourceSans3-Regular-30" transform="translate(204.109375 0)"/>
      <use xlink:href="#SourceSans3-Regular-1c" transform="translate(258.515625 0)"/>
      <use xlink:href="#SourceSans3-Regular-22" transform="translate(308.921875 0)"/>
      <use xlink:href="#SourceSans3-Regular-20" transform="translate(357.921875 0)"/>
     </g>
    </g>
   </g>
   <g id="patch_3">
    <path d="M 122.95275 293.549818 
L 152.251738 293.549818 
L 152.251738 264.744684 
L 122.95275 264.744684 
z
" clip-path="url(#pb511df5899)" style="fill: #002d72"/>
   </g>
   <g id="patch_4">
    <path d="M 122.95275 257.543401 
L 152.251738 257.543401 
L 152.251738 228.738267 
L 122.95275 228.738267 
z
" clip-path="url(#pb511df5899)" style="fill: #002d72"/>
   </g>
   <g id="patch_5">
    <path d="M 122.95275 221.536984 
L 152.251738 221.536984 
L 152.251738 192.73185 
L 122.95275 192.73185 
z
" clip-path="url(#pb511df5899)" style="fill: #002d72"/>
   </g>
   <g id="patch_6">
    <path d="M 122.95275 185.530567 
L 152.251738 185.530567 
L 152.251738 156.725433 
L 122.95275 156.725433 
z
" clip-path="url(#pb511df5899)" style="fill: #002d72"/>
   </g>
   <g id="patch_7">
    <path d="M 122.95275 149.52415 
L 240.148702 149.52415 
L 240.148702 120.719016 
L 122.95275 120.719016 
z
" clip-path="url(#pb511df5899)" style="fill: #002d72"/>
   </g>
   <g id="patch_8">
    <path d="M 122.95275 113.517733 
L 415.942631 113.517733 
L 415.942631 84.712599 
L 122.95275 84.712599 
z
" clip-path="url(#pb511df5899)" style="fill: #002d72"/>
   </g>
   <g id="patch_9">
    <path d="M 122.95275 77.511316 
L 474.540607 77.511316 
L 474.540607 48.706182 
L 122.95275 48.706182 
z
" clip-path="url(#pb511df5899)" style="fill: #002d72"/>
   </g>
   <g id="patch_10">
    <path d="M 122.95275 305.792 
L 122.95275 36.464 
" style="fill: none; stroke: #8a8a8a; stroke-linejoin: miter; stroke-linecap: square"/>
   </g>
   <g id="patch_11">
    <path d="M 122.95275 305.792 
L 492.12 305.792 
" style="fill: none; stroke: #8a8a8a; stroke-linejoin: miter; stroke-linecap: square"/>
   </g>
   <g id="text_17">
    <!-- Repositories by language -->
    <g style="fill: #002d72" transform="translate(221.109734 24.464) scale(0.13 -0.13)">
     <defs>
      <path id="Montserrat-Bold-100" d="M 531 0 
L 531 4480 
L 2445 4480 
Q 3379 4480 3897 4048 
Q 4416 3616 4416 2854 
Q 4416 2355 4179 1993 
Q 3942 1632 3507 1440 
Q 3072 1248 2470 1248 
L 1107 1248 
L 1568 1702 
L 1568 0 
L 531 0 
z
M 3379 0 
L 2259 1626 
L 3366 1626 
L 4499 0 
L 3379 0 
z
M 1568 1587 
L 1107 2074 
L 2413 2074 
Q 2893 2074 3129 2282 
Q 3366 2490 3366 2854 
Q 3366 3226 3129 3430 
Q 2893 3635 2413 3635 
L 1107 3635 
L 1568 4128 
L 1568 1587 
z
" transform="scale(0.015625)"/>
      <path id="Montserrat-Bold-295" d="M 2170 -51 
Q 1581 -51 1136 179 
Q 691 410 448 810 
Q 205 1210 205 1722 
Q 205 2240 445 2640 
Q 685 3040 1101 3267 
Q 1517 3494 2042 3494 
Q 2547 3494 2953 3280 
Q 3360 3066 3597 2666 
Q 3834 2266 3834 1709 
Q 3834 1651 3827 1577 
Q 3821 1504 3814 1440 
L 1018 1440 
L 1018 2022 
L 3290 2022 
L 2906 1850 
Q 2906 2118 2797 2316 
Q 2688 2515 2496 2627 
Q 2304 2739 2048 2739 
Q 1792 2739 1597 2627 
Q 1402 2515 1293 2313 
Q 1184 2112 1184 1837 
L 1184 1683 
Q 1184 1402 1309 1187 
Q 1434 973 1661 861 
Q 1888 749 2195 749 
Q 2470 749 2678 832 
Q 2886 915 3059 1082 
L 3590 506 
Q 3354 237 2995 93 
Q 2637 -51 2170 -51 
z
" transform="scale(0.015625)"/>
      <path id="Montserrat-Bold-351" d="M 2496 -51 
Q 2061 -51 1734 141 
Q 1408 333 1225 726 
Q 1043 1120 1043 1722 
Q 1043 2330 1216 2720 
Q 1389 3110 1715 3302 
Q 2042 3494 2496 3494 
Q 2982 3494 3369 3273 
Q 3757 3053 3984 2656 
Q 4211 2259 4211 1722 
Q 4211 1178 3984 781 
Q 3757 384 3369 166 
Q 2982 -51 2496 -51 
z
M 461 -1242 
L 461 3443 
L 1414 3443 
L 1414 2739 
L 1395 1715 
L 1459 698 
L 1459 -1242 
L 461 -1242 
z
M 2323 768 
Q 2573 768 2768 883 
Q 2963 998 3081 1212 
Q 3200 1427 3200 1722 
Q 3200 2022 3081 2233 
Q 2963 2445 2768 2560 
Q 2573 2675 2323 2675 
Q 2074 2675 1875 2560 
Q 1677 2445 1561 2233 
Q 1446 2022 1446 1722 
Q 1446 1427 1561 1212 
Q 1677 998 1875 883 
Q 2074 768 2323 768 
z
" transform="scale(0.015625)"/>
      <path id="Montserrat-Bold-327" d="M 2099 -51 
Q 1549 -51 1123 179 
Q 698 410 451 810 
Q 205 1210 205 1722 
Q 205 2240 451 2640 
Q 698 3040 1123 3267 
Q 1549 3494 2099 3494 
Q 2643 3494 3072 3267 
Q 3501 3040 3744 2643 
Q 3987 2246 3987 1722 
Q 3987 1210 3744 810 
Q 3501 410 3072 179 
Q 2643 -51 2099 -51 
z
M 2099 768 
Q 2349 768 2547 883 
Q 2746 998 2861 1212 
Q 2976 1427 2976 1722 
Q 2976 2022 2861 2233 
Q 2746 2445 2547 2560 
Q 2349 2675 2099 2675 
Q 1850 2675 1651 2560 
Q 1453 2445 1334 2233 
Q 1216 2022 1216 1722 
Q 1216 1427 1334 1212 
Q 1453 998 1651 883 
Q 1850 768 2099 768 
z
" transform="scale(0.015625)"/>
      <path id="Montserrat-Bold-367" d="M 1619 -51 
Q 1178 -51 771 54 
Q 365 160 128 320 
L 461 1037 
Q 698 890 1021 797 
Q 1344 704 1658 704 
Q 2003 704 2147 787 
Q 2291 870 2291 1018 
Q 2291 1139 2179 1200 
Q 2067 1261 1881 1293 
Q 1696 1325 1475 1357 
Q 1254 1389 1030 1443 
Q 806 1498 620 1606 
Q 435 1715 323 1900 
Q 211 2086 211 2381 
Q 211 2707 400 2956 
Q 589 3206 947 3350 
Q 1306 3494 1805 3494 
Q 2157 3494 2521 3417 
Q 2886 3341 3130 3194 
L 2797 2483 
Q 2547 2630 2294 2684 
Q 2042 2739 1805 2739 
Q 1472 2739 1318 2649 
Q 1165 2560 1165 2419 
Q 1165 2291 1277 2227 
Q 1389 2163 1574 2124 
Q 1760 2086 1981 2057 
Q 2202 2029 2426 1971 
Q 2650 1914 2832 1808 
Q 3014 1702 3129 1520 
Q 3245 1338 3245 1043 
Q 3245 723 3053 476 
Q 2861 230 2499 89 
Q 2138 -51 1619 -51 
z
" transform="scale(0.015625)"/>
      <path id="Montserrat-Bold-2d7" d="M 461 0 
L 461 3443 
L 1459 3443 
L 1459 0 
L 461 0 
z
M 960 3923 
Q 685 3923 512 4083 
Q 339 4243 339 4480 
Q 339 4717 512 4877 
Q 685 5037 960 5037 
Q 1235 5037 1408 4886 
Q 1581 4736 1581 4499 
Q 1581 4250 1411 4086 
Q 1242 3923 960 3923 
z
" transform="scale(0.015625)"/>
      <path id="Montserrat-Bold-375" d="M 1869 -51 
Q 1261 -51 921 259 
Q 582 570 582 1184 
L 582 4205 
L 1581 4205 
L 1581 1197 
Q 1581 979 1696 860 
Q 1811 742 2010 742 
Q 2246 742 2413 870 
L 2682 166 
Q 2528 58 2313 3 
Q 2099 -51 1869 -51 
z
M 51 2675 
L 51 3443 
L 2438 3443 
L 2438 2675 
L 51 2675 
z
" transform="scale(0.015625)"/>
      <path id="Montserrat-Bold-359" d="M 461 0 
L 461 3443 
L 1414 3443 
L 1414 2470 
L 1280 2752 
Q 1434 3117 1773 3305 
Q 2112 3494 2598 3494 
L 2598 2573 
Q 2534 2579 2483 2582 
Q 2432 2586 2374 2586 
Q 1965 2586 1712 2352 
Q 1459 2118 1459 1626 
L 1459 0 
L 461 0 
z
" transform="scale(0.015625)"/>
      <path id="Montserrat-Bold-8bd" transform="scale(0.015625)"/>
      <path id="Montserrat-Bold-271" d="M 2496 -51 
Q 2042 -51 1715 141 
Q 1389 333 1216 726 
Q 1043 1120 1043 1722 
Q 1043 2330 1225 2720 
Q 1408 3110 1734 3302 
Q 2061 3494 2496 3494 
Q 2982 3494 3369 3276 
Q 3757 3059 3984 2662 
Q 4211 2266 4211 1722 
Q 4211 1184 3984 787 
Q 3757 390 3369 169 
Q 2982 -51 2496 -51 
z
M 461 0 
L 461 4749 
L 1459 4749 
L 1459 2746 
L 1395 1728 
L 1414 704 
L 1414 0 
L 461 0 
z
M 2323 768 
Q 2573 768 2768 883 
Q 2963 998 3081 1212 
Q 3200 1427 3200 1722 
Q 3200 2022 3081 2233 
Q 2963 2445 2768 2560 
Q 2573 2675 2323 2675 
Q 2074 2675 1875 2560 
Q 1677 2445 1561 2233 
Q 1446 2022 1446 1722 
Q 1446 1427 1561 1212 
Q 1677 998 1875 883 
Q 2074 768 2323 768 
z
" transform="scale(0.015625)"/>
      <path id="Montserrat-Bold-3b5" d="M 896 -1293 
Q 627 -1293 364 -1209 
Q 102 -1126 -64 -979 
L 301 -269 
Q 416 -371 566 -428 
Q 717 -486 864 -486 
Q 1075 -486 1200 -387 
Q 1325 -288 1427 -58 
L 1606 365 
L 1683 474 
L 2918 3443 
L 3878 3443 
L 2323 -211 
Q 2157 -627 1942 -864 
Q 1728 -1101 1469 -1197 
Q 1210 -1293 896 -1293 
z
M 1485 -134 
L -51 3443 
L 979 3443 
L 2170 563 
L 1485 -134 
z
" transform="scale(0.015625)"/>
      <path id="Montserrat-Bold-301" d="M 461 0 
L 461 4749 
L 1459 4749 
L 1459 0 
L 461 0 
z
" transform="scale(0.015625)"/>
      <path id="Montserrat-Bold-24c" d="M 2573 0 
L 2573 672 
L 2509 819 
L 2509 2022 
Q 2509 2342 2313 2521 
Q 2118 2701 1715 2701 
Q 1440 2701 1174 2614 
Q 909 2528 723 2381 
L 365 3078 
Q 646 3277 1043 3385 
Q 1440 3494 1850 3494 
Q 2637 3494 3072 3123 
Q 3507 2752 3507 1965 
L 3507 0 
L 2573 0 
z
M 1523 -51 
Q 1120 -51 832 86 
Q 544 224 390 461 
Q 237 698 237 992 
Q 237 1299 387 1529 
Q 538 1760 864 1891 
Q 1190 2022 1715 2022 
L 2630 2022 
L 2630 1440 
L 1824 1440 
Q 1472 1440 1341 1325 
Q 1210 1210 1210 1037 
Q 1210 845 1360 733 
Q 1510 621 1773 621 
Q 2022 621 2220 739 
Q 2419 858 2509 1088 
L 2662 627 
Q 2554 294 2266 121 
Q 1978 -51 1523 -51 
z
" transform="scale(0.015625)"/>
      <path id="Montserrat-Bold-318" d="M 461 0 
L 461 3443 
L 1414 3443 
L 1414 2490 
L 1235 2778 
Q 1421 3123 1766 3308 
Q 2112 3494 2554 3494 
Q 2963 3494 3286 3331 
Q 3610 3168 3795 2832 
Q 3981 2496 3981 1971 
L 3981 0 
L 2982 0 
L 2982 1818 
Q 2982 2234 2800 2432 
Q 2618 2630 2285 2630 
Q 2048 2630 1859 2531 
Q 1670 2432 1564 2227 
Q 1459 2022 1459 1702 
L 1459 0 
L 461 0 
z
" transform="scale(0.015625)"/>
      <path id="Montserrat-Bold-2bb" d="M 2080 -1293 
Q 1594 -1293 1142 -1174 
Q 691 -1056 390 -819 
L 787 -102 
Q 1005 -282 1341 -387 
Q 1677 -493 2003 -493 
Q 2534 -493 2774 -256 
Q 3014 -19 3014 448 
L 3014 966 
L 3078 1830 
L 3066 2701 
L 3066 3443 
L 4013 3443 
L 4013 576 
Q 4013 -384 3513 -838 
Q 3014 -1293 2080 -1293 
z
M 1926 166 
Q 1446 166 1059 374 
Q 672 582 438 956 
Q 205 1331 205 1830 
Q 205 2336 438 2710 
Q 672 3085 1059 3289 
Q 1446 3494 1926 3494 
Q 2362 3494 2694 3318 
Q 3027 3142 3212 2774 
Q 3398 2406 3398 1830 
Q 3398 1261 3212 893 
Q 3027 525 2694 345 
Q 2362 166 1926 166 
z
M 2125 986 
Q 2387 986 2592 1091 
Q 2797 1197 2912 1389 
Q 3027 1581 3027 1830 
Q 3027 2086 2912 2275 
Q 2797 2464 2592 2569 
Q 2387 2675 2125 2675 
Q 1862 2675 1657 2569 
Q 1453 2464 1334 2275 
Q 1216 2086 1216 1830 
Q 1216 1581 1334 1389 
Q 1453 1197 1657 1091 
Q 1862 986 2125 986 
z
" transform="scale(0.015625)"/>
      <path id="Montserrat-Bold-383" d="M 1914 -51 
Q 1485 -51 1149 115 
Q 813 282 627 624 
Q 442 966 442 1498 
L 442 3443 
L 1440 3443 
L 1440 1645 
Q 1440 1216 1622 1014 
Q 1805 813 2138 813 
Q 2368 813 2547 912 
Q 2726 1011 2828 1219 
Q 2931 1427 2931 1741 
L 2931 3443 
L 3930 3443 
L 3930 0 
L 2982 0 
L 2982 947 
L 3155 672 
Q 2982 314 2646 131 
Q 2310 -51 1914 -51 
z
" transform="scale(0.015625)"/>
     </defs>
     <use xlink:href="#Montserrat-Bold-100"/>
     <use xlink:href="#Montserrat-Bold-295" transform="translate(73.5 0)"/>
     <use xlink:href="#Montserrat-Bold-351" transform="translate(136.59375 0)"/>
     <use xlink:href="#Montserrat-Bold-327" transform="translate(205.59375 0)"/>
     <use xlink:href="#Montserrat-Bold-367" transform="translate(271.09375 0)"/>
     <use xlink:href="#Montserrat-Bold-2d7" transform="translate(324.1875 0)"/>
     <use xlink:href="#Montserrat-Bold-375" transform="translate(354.28125 0)"/>
     <use xlink:href="#Montserrat-Bold-327" transform="translate(396.078125 0)"/>
     <use xlink:href="#Montserrat-Bold-359" transform="translate(461.578125 0)"/>
     <use xlink:href="#Montserrat-Bold-2d7" transform="translate(504.265625 0)"/>
     <use xlink:href="#Montserrat-Bold-295" transform="translate(534.359375 0)"/>
     <use xlink:href="#Montserrat-Bold-367" transform="translate(597.453125 0)"/>
     <use xlink:href="#Montserrat-Bold-8bd" transform="translate(650.546875 0)"/>
     <use xlink:href="#Montserrat-Bold-271" transform="translate(678.84375 0)"/>
     <use xlink:href="#Montserrat-Bold-3b5" transform="translate(746.34375 0)"/>
     <use xlink:href="#Montserrat-Bold-8bd" transform="translate(806.140625 0)"/>
     <use xlink:href="#Montserrat-Bold-301" transform="translate(834.4375 0)"/>
     <use xlink:href="#Montserrat-Bold-24c" transform="translate(864.53125 0)"/>
     <use xlink:href="#Montserrat-Bold-318" transform="translate(926.234375 0)"/>
     <use xlink:href="#Montserrat-Bold-2bb" transform="translate(995.734375 0)"/>
     <use xlink:href="#Montserrat-Bold-383" transform="translate(1065.734375 0)"/>
     <use xlink:href="#Montserrat-Bold-24c" transform="translate(1134.4375 0)"/>
     <use xlink:href="#Montserrat-Bold-2bb" transform="translate(1196.546875 0)"/>
     <use xlink:href="#Montserrat-Bold-295" transform="translate(1266.546875 0)"/>
    </g>
   </g>
  </g>
 </g>
 <defs>
  <clipPath id="pb511df5899">
   <rect x="122.95275" y="36.464" width="369.16725" height="269.328"/>
  </clipPath>
 </defs>
</svg>
