<?xml version="1.0" encoding="utf-8" standalone="no"?>
<!DOCTYPE svg PUBLIC "-//W3C//DTD SVG 1.1//EN"
  "http://www.w3.org/Graphics/SVG/1.1/DTD/svg11.dtd">
<svg xmlns:xlink="http://www.w3.org/1999/xlink" width="504pt" height="360pt" viewBox="0 0 504 360" xmlns="http://www.w3.org/2000/svg" version="1.1">
 <metadata>
  <rdf:RDF xmlns:dc="http://purl.org/dc/elements/1.1/" xmlns:cc="http://creativecommons.org/ns#" xmlns:rdf="http://www.w3.org/1999/02/22-rdf-syntax-ns#">
   <cc:Work>
    <dc:type rdf:resource="http://purl.org/dc/dcmitype/StillImage"/>
    <dc:date>2026-07-23T08:05:38.124722</dc:date>
    <dc:format>image/svg+xml</dc:format>
    <dc:creator>
     <cc:Agent>
      <dc:title>Matplotlib v3.11.1, https://matplotlib.org/</dc:title>
     </cc:Agent>
    </dc:creator>
   </cc:Work>
  </rdf:RDF>
 </metadata>
 <defs>
  <style type="text/css">*{stroke-linejoin: round; stroke-linecap: butt}</style>
 </defs>
 <g id="figure_1">
  <g id="patch_1">
   <path d="M 0 360 
L 504 360 
L 504 0 
L 0 0 
L 0 360 
z
" style="fill: none"/>
  </g>
  <g id="axes_1">
   <g id="patch_2">
    <path d="M 61.584 305.792 
L 492.12 305.792 
L 492.12 36.464 
L 61.584 36.464 
L 61.584 305.792 
z
" style="fill: none"/>
   </g>
   <g id="matplotlib.axis_1">
    <g id="xtick_1">
     <g id="line2d_1">
      <defs>
       <path id="mdec5ca38d5" d="M 0 0 
L 0 3.5 
" style="stroke: #1c2531; stroke-width: 0.8"/>
      </defs>
      <g>
       <use xlink:href="#mdec5ca38d5" x="102.915209" y="305.792" style="fill: #1c2531; stroke: #1c2531; stroke-width: 0.8"/>
      </g>
     </g>
     <g id="text_1">
      <!-- 2020 -->
      <g style="fill: #1c2531" transform="translate(91.980522 324.056) scale(0.11 -0.11)">
       <defs>
        <path id="SourceSans3-Regular-537" d="M 256 0 
L 256 320 
Q 864 922 1296 1386 
Q 1728 1850 1952 2227 
Q 2176 2605 2176 2931 
Q 2176 3283 1984 3507 
Q 1792 3731 1402 3731 
Q 1146 3731 928 3590 
Q 710 3450 531 3238 
L 237 3526 
Q 493 3814 784 3987 
Q 1075 4160 1466 4160 
Q 1843 4160 2118 4009 
Q 2394 3859 2541 3590 
Q 2688 3322 2688 2963 
Q 2688 2566 2467 2176 
Q 2246 1786 1862 1357 
Q 1478 928 979 416 
Q 1146 435 1325 444 
Q 1504 454 1664 454 
L 2893 454 
L 2893 0 
L 256 0 
z
" transform="scale(0.015625)"/>
        <path id="SourceSans3-Regular-535" d="M 1594 -77 
Q 979 -77 630 476 
Q 282 1030 282 2054 
Q 282 3085 630 3622 
Q 979 4160 1594 4160 
Q 2202 4160 2550 3619 
Q 2899 3078 2899 2054 
Q 2899 1030 2550 476 
Q 2202 -77 1594 -77 
z
M 1594 346 
Q 1830 346 2009 525 
Q 2189 704 2288 1081 
Q 2387 1459 2387 2054 
Q 2387 2656 2288 3027 
Q 2189 3398 2009 3568 
Q 1830 3738 1594 3738 
Q 1350 3738 1171 3568 
Q 992 3398 893 3027 
Q 794 2656 794 2054 
Q 794 1459 893 1081 
Q 992 704 1171 525 
Q 1350 346 1594 346 
z
" transform="scale(0.015625)"/>
       </defs>
       <use xlink:href="#SourceSans3-Regular-537"/>
       <use xlink:href="#SourceSans3-Regular-535" transform="translate(49.703125 0)"/>
       <use xlink:href="#SourceSans3-Regular-537" transform="translate(99.40625 0)"/>
       <use xlink:href="#SourceSans3-Regular-535" transform="translate(149.109375 0)"/>
      </g>
     </g>
    </g>
    <g id="xtick_2">
     <g id="line2d_2">
      <g>
       <use xlink:href="#mdec5ca38d5" x="159.402224" y="305.792" style="fill: #1c2531; stroke: #1c2531; stroke-width: 0.8"/>
      </g>
     </g>
     <g id="text_2">
      <!-- 2021 -->
      <g style="fill: #1c2531" transform="translate(148.467536 324.056) scale(0.11 -0.11)">
       <defs>
        <path id="SourceSans3-Regular-536" d="M 506 0 
L 506 435 
L 1440 435 
L 1440 3443 
L 698 3443 
L 698 3782 
Q 973 3834 1184 3907 
Q 1395 3981 1562 4083 
L 1965 4083 
L 1965 435 
L 2810 435 
L 2810 0 
L 506 0 
z
" transform="scale(0.015625)"/>
       </defs>
       <use xlink:href="#SourceSans3-Regular-537"/>
       <use xlink:href="#SourceSans3-Regular-535" transform="translate(49.703125 0)"/>
       <use xlink:href="#SourceSans3-Regular-537" transform="translate(99.40625 0)"/>
       <use xlink:href="#SourceSans3-Regular-536" transform="translate(149.109375 0)"/>
      </g>
     </g>
    </g>
    <g id="xtick_3">
     <g id="line2d_3">
      <g>
       <use xlink:href="#mdec5ca38d5" x="215.734902" y="305.792" style="fill: #1c2531; stroke: #1c2531; stroke-width: 0.8"/>
      </g>
     </g>
     <g id="text_3">
      <!-- 2022 -->
      <g style="fill: #1c2531" transform="translate(204.800215 324.056) scale(0.11 -0.11)">
       <use xlink:href="#SourceSans3-Regular-537"/>
       <use xlink:href="#SourceSans3-Regular-535" transform="translate(49.703125 0)"/>
       <use xlink:href="#SourceSans3-Regular-537" transform="translate(99.40625 0)"/>
       <use xlink:href="#SourceSans3-Regular-537" transform="translate(149.109375 0)"/>
      </g>
     </g>
    </g>
    <g id="xtick_4">
     <g id="line2d_4">
      <g>
       <use xlink:href="#mdec5ca38d5" x="272.067581" y="305.792" style="fill: #1c2531; stroke: #1c2531; stroke-width: 0.8"/>
      </g>
     </g>
     <g id="text_4">
      <!-- 2023 -->
      <g style="fill: #1c2531" transform="translate(261.132893 324.056) scale(0.11 -0.11)">
       <defs>
        <path id="SourceSans3-Regular-538" d="M 1510 -77 
Q 1184 -77 931 6 
Q 678 90 492 218 
Q 307 346 166 499 
L 435 845 
Q 621 653 867 505 
Q 1114 358 1478 358 
Q 1850 358 2086 563 
Q 2323 768 2323 1107 
Q 2323 1350 2198 1532 
Q 2074 1715 1789 1817 
Q 1504 1920 1018 1920 
L 1018 2323 
Q 1453 2323 1705 2425 
Q 1958 2528 2067 2697 
Q 2176 2867 2176 3085 
Q 2176 3386 1987 3558 
Q 1798 3731 1472 3731 
Q 1216 3731 998 3616 
Q 781 3501 602 3315 
L 320 3648 
Q 557 3872 845 4016 
Q 1133 4160 1491 4160 
Q 1850 4160 2125 4038 
Q 2400 3917 2557 3686 
Q 2714 3456 2714 3123 
Q 2714 2752 2509 2515 
Q 2304 2278 1971 2150 
L 1971 2125 
Q 2221 2067 2419 1929 
Q 2618 1792 2736 1581 
Q 2854 1370 2854 1088 
Q 2854 723 2675 464 
Q 2496 205 2189 64 
Q 1882 -77 1510 -77 
z
" transform="scale(0.015625)"/>
       </defs>
       <use xlink:href="#SourceSans3-Regular-537"/>
       <use xlink:href="#SourceSans3-Regular-535" transform="translate(49.703125 0)"/>
       <use xlink:href="#SourceSans3-Regular-537" transform="translate(99.40625 0)"/>
       <use xlink:href="#SourceSans3-Regular-538" transform="translate(149.109375 0)"/>
      </g>
     </g>
    </g>
    <g id="xtick_5">
     <g id="line2d_5">
      <g>
       <use xlink:href="#mdec5ca38d5" x="328.400259" y="305.792" style="fill: #1c2531; stroke: #1c2531; stroke-width: 0.8"/>
      </g>
     </g>
     <g id="text_5">
      <!-- 2024 -->
      <g style="fill: #1c2531" transform="translate(317.465572 324.056) scale(0.11 -0.11)">
       <defs>
        <path id="SourceSans3-Regular-539" d="M 1946 0 
L 1946 2733 
Q 1946 2893 1958 3126 
Q 1971 3360 1978 3520 
L 1952 3520 
Q 1875 3373 1792 3235 
Q 1709 3098 1619 2944 
L 666 1549 
L 3002 1549 
L 3002 1126 
L 109 1126 
L 109 1472 
L 1856 4083 
L 2445 4083 
L 2445 0 
L 1946 0 
z
" transform="scale(0.015625)"/>
       </defs>
       <use xlink:href="#SourceSans3-Regular-537"/>
       <use xlink:href="#SourceSans3-Regular-535" transform="translate(49.703125 0)"/>
       <use xlink:href="#SourceSans3-Regular-537" transform="translate(99.40625 0)"/>
       <use xlink:href="#SourceSans3-Regular-539" transform="translate(149.109375 0)"/>
      </g>
     </g>
    </g>
    <g id="xtick_6">
     <g id="line2d_6">
      <g>
       <use xlink:href="#mdec5ca38d5" x="384.887274" y="305.792" style="fill: #1c2531; stroke: #1c2531; stroke-width: 0.8"/>
      </g>
     </g>
     <g id="text_6">
      <!-- 2025 -->
      <g style="fill: #1c2531" transform="translate(373.952586 324.056) scale(0.11 -0.11)">
       <defs>
        <path id="SourceSans3-Regular-53a" d="M 1498 -77 
Q 1171 -77 921 3 
Q 672 83 486 211 
Q 301 339 160 480 
L 416 826 
Q 602 646 845 502 
Q 1088 358 1446 358 
Q 1696 358 1897 473 
Q 2099 589 2220 797 
Q 2342 1005 2342 1293 
Q 2342 1715 2105 1952 
Q 1869 2189 1472 2189 
Q 1267 2189 1113 2125 
Q 960 2061 774 1939 
L 493 2118 
L 627 4083 
L 2669 4083 
L 2669 3629 
L 1088 3629 
L 979 2419 
Q 1126 2496 1273 2541 
Q 1421 2586 1606 2586 
Q 1958 2586 2246 2451 
Q 2534 2317 2704 2032 
Q 2874 1747 2874 1306 
Q 2874 864 2678 553 
Q 2483 243 2169 83 
Q 1856 -77 1498 -77 
z
" transform="scale(0.015625)"/>
       </defs>
       <use xlink:href="#SourceSans3-Regular-537"/>
       <use xlink:href="#SourceSans3-Regular-535" transform="translate(49.703125 0)"/>
       <use xlink:href="#SourceSans3-Regular-537" transform="translate(99.40625 0)"/>
       <use xlink:href="#SourceSans3-Regular-53a" transform="translate(149.109375 0)"/>
      </g>
     </g>
    </g>
    <g id="xtick_7">
     <g id="line2d_7">
      <g>
       <use xlink:href="#mdec5ca38d5" x="441.219952" y="305.792" style="fill: #1c2531; stroke: #1c2531; stroke-width: 0.8"/>
      </g>
     </g>
     <g id="text_7">
      <!-- 2026 -->
      <g style="fill: #1c2531" transform="translate(430.285265 324.056) scale(0.11 -0.11)">
       <defs>
        <path id="SourceSans3-Regular-53b" d="M 1715 -77 
Q 1414 -77 1158 44 
Q 902 166 713 412 
Q 525 659 416 1027 
Q 307 1395 307 1888 
Q 307 2502 435 2934 
Q 563 3366 780 3635 
Q 998 3904 1276 4032 
Q 1555 4160 1862 4160 
Q 2195 4160 2435 4035 
Q 2675 3910 2848 3725 
L 2554 3398 
Q 2432 3546 2253 3632 
Q 2074 3718 1882 3718 
Q 1594 3718 1347 3545 
Q 1101 3373 953 2973 
Q 806 2573 806 1888 
Q 806 1382 912 1036 
Q 1018 691 1222 515 
Q 1427 339 1715 339 
Q 1914 339 2077 451 
Q 2240 563 2333 764 
Q 2426 966 2426 1235 
Q 2426 1498 2342 1693 
Q 2259 1888 2092 1993 
Q 1926 2099 1670 2099 
Q 1472 2099 1238 1968 
Q 1005 1837 794 1523 
L 774 1939 
Q 973 2195 1235 2345 
Q 1498 2496 1760 2496 
Q 2112 2496 2374 2355 
Q 2637 2214 2781 1932 
Q 2925 1651 2925 1235 
Q 2925 845 2758 550 
Q 2592 256 2317 89 
Q 2042 -77 1715 -77 
z
" transform="scale(0.015625)"/>
       </defs>
       <use xlink:href="#SourceSans3-Regular-537"/>
       <use xlink:href="#SourceSans3-Regular-535" transform="translate(49.703125 0)"/>
       <use xlink:href="#SourceSans3-Regular-537" transform="translate(99.40625 0)"/>
       <use xlink:href="#SourceSans3-Regular-53b" transform="translate(149.109375 0)"/>
      </g>
     </g>
    </g>
    <g id="text_8">
     <!-- Date -->
     <g style="fill: #1c2531" transform="translate(266.265359 343.72) scale(0.11 -0.11)">
      <defs>
       <path id="SourceSans3-Regular-5" d="M 576 0 
L 576 4198 
L 1626 4198 
Q 2272 4198 2713 3955 
Q 3155 3712 3382 3248 
Q 3610 2784 3610 2118 
Q 3610 1453 3382 976 
Q 3155 499 2720 249 
Q 2285 0 1651 0 
L 576 0 
z
M 1107 435 
L 1587 435 
Q 2080 435 2406 636 
Q 2733 838 2893 1209 
Q 3053 1581 3053 2118 
Q 3053 2643 2893 3014 
Q 2733 3386 2406 3574 
Q 2080 3763 1587 3763 
L 1107 3763 
L 1107 435 
z
" transform="scale(0.015625)"/>
       <path id="SourceSans3-Regular-1c" d="M 1242 -77 
Q 986 -77 778 28 
Q 570 134 448 329 
Q 326 525 326 806 
Q 326 1331 787 1600 
Q 1248 1869 2246 1978 
Q 2240 2170 2185 2349 
Q 2131 2528 1990 2637 
Q 1850 2746 1600 2746 
Q 1331 2746 1094 2646 
Q 858 2547 672 2426 
L 467 2784 
Q 608 2880 800 2973 
Q 992 3066 1216 3126 
Q 1440 3187 1690 3187 
Q 2067 3187 2307 3030 
Q 2547 2874 2659 2586 
Q 2771 2298 2771 1907 
L 2771 0 
L 2336 0 
L 2291 371 
L 2272 371 
Q 2048 186 1792 54 
Q 1536 -77 1242 -77 
z
M 1389 358 
Q 1619 358 1820 460 
Q 2022 563 2246 762 
L 2246 1600 
Q 1722 1536 1418 1437 
Q 1114 1338 979 1190 
Q 845 1043 845 838 
Q 845 582 1005 470 
Q 1165 358 1389 358 
z
" transform="scale(0.015625)"/>
       <path id="SourceSans3-Regular-2f" d="M 1504 -58 
Q 1011 -58 812 230 
Q 614 518 614 979 
L 614 2682 
L 154 2682 
L 154 3078 
L 640 3110 
L 704 4109 
L 1146 4109 
L 1146 3110 
L 1990 3110 
L 1990 2682 
L 1146 2682 
L 1146 973 
Q 1146 691 1251 531 
Q 1357 371 1626 371 
Q 1709 371 1798 387 
Q 1888 403 1978 448 
L 2093 77 
Q 1971 19 1817 -19 
Q 1664 -58 1504 -58 
z
" transform="scale(0.015625)"/>
       <path id="SourceSans3-Regular-20" d="M 1786 -77 
Q 1370 -77 1027 118 
Q 685 314 486 675 
Q 288 1037 288 1555 
Q 288 2061 493 2425 
Q 698 2790 1018 2988 
Q 1338 3187 1696 3187 
Q 2093 3187 2371 3004 
Q 2650 2822 2790 2496 
Q 2931 2170 2931 1728 
Q 2931 1645 2928 1568 
Q 2925 1491 2906 1414 
L 666 1414 
L 666 1830 
L 2458 1830 
Q 2458 2278 2262 2518 
Q 2067 2758 1702 2758 
Q 1491 2758 1286 2640 
Q 1082 2522 950 2259 
Q 819 1997 819 1562 
Q 819 1165 956 896 
Q 1094 627 1331 489 
Q 1568 352 1850 352 
Q 2074 352 2269 416 
Q 2464 480 2624 589 
L 2816 243 
Q 2611 102 2358 12 
Q 2106 -77 1786 -77 
z
" transform="scale(0.015625)"/>
      </defs>
      <use xlink:href="#SourceSans3-Regular-5"/>
      <use xlink:href="#SourceSans3-Regular-1c" transform="translate(61.5 0)"/>
      <use xlink:href="#SourceSans3-Regular-2f" transform="translate(110.5 0)"/>
      <use xlink:href="#SourceSans3-Regular-20" transform="translate(142.890625 0)"/>
     </g>
    </g>
   </g>
   <g id="matplotlib.axis_2">
    <g id="ytick_1">
     <g id="line2d_8">
      <defs>
       <path id="m2f98c5633f" d="M 0 0 
L -3.5 0 
" style="stroke: #1c2531; stroke-width: 0.8"/>
      </defs>
      <g>
       <use xlink:href="#m2f98c5633f" x="61.584" y="275.519351" style="fill: #1c2531; stroke: #1c2531; stroke-width: 0.8"/>
      </g>
     </g>
     <g id="text_9">
      <!-- 1000 -->
      <g style="fill: #1c2531" transform="translate(32.714625 281.151351) scale(0.11 -0.11)">
       <use xlink:href="#SourceSans3-Regular-536"/>
       <use xlink:href="#SourceSans3-Regular-535" transform="translate(49.703125 0)"/>
       <use xlink:href="#SourceSans3-Regular-535" transform="translate(99.40625 0)"/>
       <use xlink:href="#SourceSans3-Regular-535" transform="translate(149.109375 0)"/>
      </g>
     </g>
    </g>
    <g id="ytick_2">
     <g id="line2d_9">
      <g>
       <use xlink:href="#m2f98c5633f" x="61.584" y="219.349671" style="fill: #1c2531; stroke: #1c2531; stroke-width: 0.8"/>
      </g>
     </g>
     <g id="text_10">
      <!-- 2000 -->
      <g style="fill: #1c2531" transform="translate(32.714625 224.981671) scale(0.11 -0.11)">
       <use xlink:href="#SourceSans3-Regular-537"/>
       <use xlink:href="#SourceSans3-Regular-535" transform="translate(49.703125 0)"/>
       <use xlink:href="#SourceSans3-Regular-535" transform="translate(99.40625 0)"/>
       <use xlink:href="#SourceSans3-Regular-535" transform="translate(149.109375 0)"/>
      </g>
     </g>
    </g>
    <g id="ytick_3">
     <g id="line2d_10">
      <g>
       <use xlink:href="#m2f98c5633f" x="61.584" y="163.17999" style="fill: #1c2531; stroke: #1c2531; stroke-width: 0.8"/>
      </g>
     </g>
     <g id="text_11">
      <!-- 3000 -->
      <g style="fill: #1c2531" transform="translate(32.714625 168.81199) scale(0.11 -0.11)">
       <use xlink:href="#SourceSans3-Regular-538"/>
       <use xlink:href="#SourceSans3-Regular-535" transform="translate(49.703125 0)"/>
       <use xlink:href="#SourceSans3-Regular-535" transform="translate(99.40625 0)"/>
       <use xlink:href="#SourceSans3-Regular-535" transform="translate(149.109375 0)"/>
      </g>
     </g>
    </g>
    <g id="ytick_4">
     <g id="line2d_11">
      <g>
       <use xlink:href="#m2f98c5633f" x="61.584" y="107.01031" style="fill: #1c2531; stroke: #1c2531; stroke-width: 0.8"/>
      </g>
     </g>
     <g id="text_12">
      <!-- 4000 -->
      <g style="fill: #1c2531" transform="translate(32.714625 112.64231) scale(0.11 -0.11)">
       <use xlink:href="#SourceSans3-Regular-539"/>
       <use xlink:href="#SourceSans3-Regular-535" transform="translate(49.703125 0)"/>
       <use xlink:href="#SourceSans3-Regular-535" transform="translate(99.40625 0)"/>
       <use xlink:href="#SourceSans3-Regular-535" transform="translate(149.109375 0)"/>
      </g>
     </g>
    </g>
    <g id="ytick_5">
     <g id="line2d_12">
      <g>
       <use xlink:href="#m2f98c5633f" x="61.584" y="50.84063" style="fill: #1c2531; stroke: #1c2531; stroke-width: 0.8"/>
      </g>
     </g>
     <g id="text_13">
      <!-- 5000 -->
      <g style="fill: #1c2531" transform="translate(32.714625 56.47263) scale(0.11 -0.11)">
       <use xlink:href="#SourceSans3-Regular-53a"/>
       <use xlink:href="#SourceSans3-Regular-535" transform="translate(49.703125 0)"/>
       <use xlink:href="#SourceSans3-Regular-535" transform="translate(99.40625 0)"/>
       <use xlink:href="#SourceSans3-Regular-535" transform="translate(149.109375 0)"/>
      </g>
     </g>
    </g>
    <g id="text_14">
     <!-- Cumulative commits -->
     <g style="fill: #1c2531" transform="translate(24.314625 218.395344) rotate(-90) scale(0.11 -0.11)">
      <defs>
       <path id="SourceSans3-Regular-4" d="M 2170 -77 
Q 1645 -77 1225 182 
Q 806 442 569 928 
Q 333 1414 333 2099 
Q 333 2605 470 3008 
Q 608 3411 864 3696 
Q 1120 3981 1456 4128 
Q 1792 4275 2195 4275 
Q 2573 4275 2870 4121 
Q 3168 3968 3347 3757 
L 3059 3430 
Q 2893 3610 2678 3709 
Q 2464 3808 2202 3808 
Q 1811 3808 1513 3600 
Q 1216 3392 1049 3011 
Q 883 2630 883 2112 
Q 883 1581 1043 1197 
Q 1203 813 1504 605 
Q 1805 397 2208 397 
Q 2502 397 2736 509 
Q 2970 621 3162 838 
L 3443 525 
Q 3194 237 2886 80 
Q 2579 -77 2170 -77 
z
" transform="scale(0.015625)"/>
       <path id="SourceSans3-Regular-30" d="M 1434 -77 
Q 941 -77 713 233 
Q 486 544 486 1139 
L 486 3110 
L 1011 3110 
L 1011 1210 
Q 1011 774 1148 579 
Q 1286 384 1594 384 
Q 1830 384 2019 509 
Q 2208 634 2432 902 
L 2432 3110 
L 2957 3110 
L 2957 0 
L 2522 0 
L 2477 486 
L 2458 486 
Q 2246 230 2000 76 
Q 1754 -77 1434 -77 
z
" transform="scale(0.015625)"/>
       <path id="SourceSans3-Regular-28" d="M 525 0 
L 525 3110 
L 960 3110 
L 1005 2662 
L 1024 2662 
Q 1229 2880 1469 3033 
Q 1709 3187 1990 3187 
Q 2349 3187 2550 3027 
Q 2752 2867 2848 2592 
Q 3091 2861 3340 3024 
Q 3590 3187 3872 3187 
Q 4358 3187 4588 2876 
Q 4819 2566 4819 1971 
L 4819 0 
L 4294 0 
L 4294 1901 
Q 4294 2342 4153 2537 
Q 4013 2733 3718 2733 
Q 3533 2733 3344 2614 
Q 3155 2496 2938 2253 
L 2938 0 
L 2413 0 
L 2413 1901 
Q 2413 2342 2272 2537 
Q 2131 2733 1830 2733 
Q 1478 2733 1050 2253 
L 1050 0 
L 525 0 
z
" transform="scale(0.015625)"/>
       <path id="SourceSans3-Regular-27" d="M 1082 -58 
Q 883 -58 761 22 
Q 640 102 582 259 
Q 525 416 525 640 
L 525 4557 
L 1050 4557 
L 1050 602 
Q 1050 474 1094 426 
Q 1139 378 1203 378 
Q 1229 378 1251 381 
Q 1274 384 1312 390 
L 1389 -6 
Q 1331 -26 1257 -42 
Q 1184 -58 1082 -58 
z
" transform="scale(0.015625)"/>
       <path id="SourceSans3-Regular-24" d="M 525 0 
L 525 3110 
L 1050 3110 
L 1050 0 
L 525 0 
z
M 787 3750 
Q 633 3750 534 3846 
Q 435 3942 435 4096 
Q 435 4250 534 4346 
Q 633 4442 787 4442 
Q 941 4442 1040 4346 
Q 1139 4250 1139 4096 
Q 1139 3942 1040 3846 
Q 941 3750 787 3750 
z
" transform="scale(0.015625)"/>
       <path id="SourceSans3-Regular-31" d="M 1197 0 
L 77 3110 
L 621 3110 
L 1210 1344 
Q 1280 1120 1353 886 
Q 1427 653 1498 429 
L 1523 429 
Q 1587 653 1664 886 
Q 1741 1120 1805 1344 
L 2394 3110 
L 2912 3110 
L 1811 0 
L 1197 0 
z
" transform="scale(0.015625)"/>
       <path id="SourceSans3-Regular-1" transform="scale(0.015625)"/>
       <path id="SourceSans3-Regular-1e" d="M 1760 -77 
Q 1344 -77 1011 115 
Q 678 307 486 672 
Q 294 1037 294 1549 
Q 294 2074 502 2438 
Q 710 2803 1052 2995 
Q 1395 3187 1792 3187 
Q 2099 3187 2320 3084 
Q 2541 2982 2701 2822 
L 2438 2496 
Q 2323 2611 2166 2678 
Q 2010 2746 1811 2746 
Q 1536 2746 1315 2595 
Q 1094 2445 966 2176 
Q 838 1907 838 1549 
Q 838 1197 960 928 
Q 1082 659 1299 508 
Q 1517 358 1805 358 
Q 2022 358 2208 441 
Q 2394 525 2528 653 
L 2758 333 
Q 2560 147 2310 35 
Q 2061 -77 1760 -77 
z
" transform="scale(0.015625)"/>
       <path id="SourceSans3-Regular-2a" d="M 1734 -77 
Q 1357 -77 1027 115 
Q 698 307 496 672 
Q 294 1037 294 1549 
Q 294 2074 496 2438 
Q 698 2803 1027 2995 
Q 1357 3187 1734 3187 
Q 2118 3187 2444 2995 
Q 2771 2803 2972 2438 
Q 3174 2074 3174 1549 
Q 3174 1037 2972 672 
Q 2771 307 2444 115 
Q 2118 -77 1734 -77 
z
M 1734 358 
Q 2003 358 2208 508 
Q 2413 659 2521 928 
Q 2630 1197 2630 1549 
Q 2630 1907 2521 2179 
Q 2413 2451 2208 2601 
Q 2003 2752 1734 2752 
Q 1466 2752 1264 2601 
Q 1062 2451 950 2179 
Q 838 1907 838 1549 
Q 838 1197 950 928 
Q 1062 659 1264 508 
Q 1466 358 1734 358 
z
" transform="scale(0.015625)"/>
       <path id="SourceSans3-Regular-2e" d="M 1338 -77 
Q 998 -77 694 41 
Q 390 160 179 371 
L 422 678 
Q 627 512 848 422 
Q 1069 333 1357 333 
Q 1664 333 1817 477 
Q 1971 621 1971 819 
Q 1971 979 1865 1084 
Q 1760 1190 1603 1264 
Q 1446 1338 1267 1402 
Q 1037 1485 825 1597 
Q 614 1709 483 1878 
Q 352 2048 352 2304 
Q 352 2682 637 2934 
Q 922 3187 1427 3187 
Q 1715 3187 1964 3088 
Q 2214 2989 2394 2835 
L 2150 2534 
Q 1984 2650 1811 2714 
Q 1638 2778 1427 2778 
Q 1133 2778 995 2643 
Q 858 2509 858 2330 
Q 858 2189 941 2096 
Q 1024 2003 1174 1932 
Q 1325 1862 1517 1798 
Q 1760 1709 1981 1597 
Q 2202 1485 2339 1309 
Q 2477 1133 2477 851 
Q 2477 595 2345 387 
Q 2214 179 1961 51 
Q 1709 -77 1338 -77 
z
" transform="scale(0.015625)"/>
      </defs>
      <use xlink:href="#SourceSans3-Regular-4"/>
      <use xlink:href="#SourceSans3-Regular-30" transform="translate(56.09375 0)"/>
      <use xlink:href="#SourceSans3-Regular-28" transform="translate(110.5 0)"/>
      <use xlink:href="#SourceSans3-Regular-30" transform="translate(193.40625 0)"/>
      <use xlink:href="#SourceSans3-Regular-27" transform="translate(247.8125 0)"/>
      <use xlink:href="#SourceSans3-Regular-1c" transform="translate(273.3125 0)"/>
      <use xlink:href="#SourceSans3-Regular-2f" transform="translate(322.3125 0)"/>
      <use xlink:href="#SourceSans3-Regular-24" transform="translate(356.109375 0)"/>
      <use xlink:href="#SourceSans3-Regular-31" transform="translate(380.703125 0)"/>
      <use xlink:href="#SourceSans3-Regular-20" transform="translate(427 0)"/>
      <use xlink:href="#SourceSans3-Regular-1" transform="translate(476.59375 0)"/>
      <use xlink:href="#SourceSans3-Regular-1e" transform="translate(496.59375 0)"/>
      <use xlink:href="#SourceSans3-Regular-2a" transform="translate(540.09375 0)"/>
      <use xlink:href="#SourceSans3-Regular-28" transform="translate(594.296875 0)"/>
      <use xlink:href="#SourceSans3-Regular-28" transform="translate(677.203125 0)"/>
      <use xlink:href="#SourceSans3-Regular-24" transform="translate(760.109375 0)"/>
      <use xlink:href="#SourceSans3-Regular-2f" transform="translate(784.703125 0)"/>
      <use xlink:href="#SourceSans3-Regular-2e" transform="translate(817.5 0)"/>
     </g>
    </g>
   </g>
   <g id="line2d_13">
    <path d="M 81.153818 293.549818 
L 81.46249 292.763443 
L 81.616826 292.651103 
L 82.388507 292.314085 
L 82.697179 291.52771 
L 89.02496 291.303031 
L 89.179296 290.966013 
L 92.883362 290.348146 
L 93.192034 289.73028 
L 93.500707 289.056244 
L 95.044068 288.831565 
L 95.35274 287.820511 
L 96.896101 287.595832 
L 97.359109 286.921796 
L 98.593798 286.023081 
L 98.748134 285.742233 
L 99.056806 285.686063 
L 101.217512 285.405215 
L 101.68052 285.292875 
L 102.143529 285.236705 
L 104.45857 285.124366 
L 104.612906 284.731178 
L 104.921578 284.39416 
L 105.384587 284.281821 
L 105.847595 283.888633 
L 106.156267 283.607785 
L 106.619276 283.439276 
L 106.927948 283.102258 
L 108.162637 282.315882 
L 109.551662 281.866525 
L 109.705998 281.698016 
L 110.323342 281.473337 
L 110.477678 281.248658 
L 110.940687 281.136319 
L 112.175375 280.349943 
L 112.947056 279.956756 
L 113.255728 279.451228 
L 114.644753 279.11421 
L 115.57077 278.889532 
L 116.033778 278.159326 
L 117.577139 277.42912 
L 117.731475 277.092102 
L 118.040147 276.923593 
L 118.657492 276.811253 
L 120.200853 276.642744 
L 122.361558 276.137217 
L 122.515894 275.856369 
L 123.441911 275.74403 
L 123.750583 275.519351 
L 124.367928 274.957654 
L 124.6766 274.452127 
L 125.44828 274.227448 
L 125.756953 273.665751 
L 126.837305 273.328733 
L 129.461019 272.991715 
L 129.615355 272.879376 
L 130.078364 272.710867 
L 131.313052 268.217292 
L 131.467389 267.655596 
L 132.702077 267.430917 
L 133.473758 267.150068 
L 136.251808 266.588372 
L 136.406144 266.419863 
L 137.795169 266.082845 
L 137.949505 265.914335 
L 139.33853 265.577317 
L 139.955874 265.07179 
L 140.573219 265.015621 
L 140.881891 264.678603 
L 141.653572 264.510093 
L 142.425252 264.453924 
L 142.579588 263.948397 
L 143.042597 263.44287 
L 146.129319 262.656494 
L 149.061705 262.487985 
L 152.302763 262.038628 
L 152.457099 261.926288 
L 157.087182 261.757779 
L 161.408593 261.308422 
L 162.180274 260.634386 
L 162.33461 260.465876 
L 163.414962 260.241198 
L 164.495315 259.735671 
L 164.958323 259.510992 
L 165.421332 259.398653 
L 166.193012 259.230144 
L 166.501685 259.005465 
L 166.810357 258.949295 
L 167.119029 258.612277 
L 169.588407 258.219089 
L 170.977432 257.994411 
L 172.21212 257.657392 
L 172.520793 257.151865 
L 172.829465 257.039526 
L 174.99017 256.871017 
L 176.99654 256.646338 
L 178.231229 256.36549 
L 179.620254 255.859963 
L 180.854942 255.691454 
L 181.317951 255.579114 
L 181.472287 255.298266 
L 181.780959 253.837854 
L 183.787328 253.051479 
L 183.941664 252.714461 
L 184.250337 252.658291 
L 184.559009 251.984255 
L 185.176353 251.703406 
L 185.330689 251.254049 
L 185.639362 250.973201 
L 186.565378 250.748522 
L 186.719714 250.636182 
L 187.337059 250.467673 
L 188.263075 249.512789 
L 188.571748 248.838753 
L 188.88042 248.557904 
L 189.497764 247.883868 
L 189.960773 247.771529 
L 191.349798 246.985153 
L 192.275814 246.816644 
L 192.893159 246.142608 
L 193.201831 245.075384 
L 193.510503 244.738366 
L 193.664839 244.569857 
L 194.127847 243.109445 
L 194.282184 242.884767 
L 194.43652 242.435409 
L 194.745192 242.2669 
L 195.362536 241.817543 
L 195.979881 241.480525 
L 196.288553 241.255846 
L 196.442889 240.862658 
L 197.060233 240.52564 
L 197.368906 240.188622 
L 197.523242 239.851604 
L 197.98625 239.570755 
L 198.449258 238.166513 
L 198.603594 238.110344 
L 199.066603 237.604817 
L 199.375275 237.492477 
L 199.683947 237.04312 
L 200.146956 236.200575 
L 200.7643 236.088235 
L 201.072972 235.751217 
L 201.690317 235.695047 
L 202.153325 235.18952 
L 202.461997 235.077181 
L 202.616333 234.796333 
L 202.925005 234.740163 
L 204.31403 234.627824 
L 204.468367 234.009957 
L 204.931375 233.897618 
L 205.240047 233.672939 
L 206.3204 233.50443 
L 206.629072 233.335921 
L 207.400753 233.167412 
L 209.561458 232.381036 
L 209.715794 231.987849 
L 210.024466 231.81934 
L 210.641811 231.650831 
L 210.796147 231.313812 
L 211.567827 231.201473 
L 211.8765 230.864455 
L 213.728533 230.639776 
L 214.808886 230.583607 
L 216.352247 230.246589 
L 217.123927 229.96574 
L 217.278263 229.572552 
L 217.432599 229.516383 
L 218.20428 228.392989 
L 219.438969 227.999801 
L 219.747641 227.775123 
L 219.901977 227.494274 
L 220.519321 227.269595 
L 220.98233 227.157256 
L 221.291002 226.314711 
L 221.599674 226.090032 
L 222.525691 224.236433 
L 222.680027 224.124093 
L 223.143035 223.337718 
L 223.451707 223.056869 
L 223.606044 222.382833 
L 223.914716 222.101985 
L 224.53206 220.641573 
L 224.686396 220.585403 
L 224.840732 220.360725 
L 224.995069 219.855198 
L 225.303741 219.686689 
L 225.612413 218.844143 
L 225.921085 218.338616 
L 226.229757 218.226277 
L 226.847102 216.878205 
L 227.155774 216.428847 
L 227.464446 216.372677 
L 228.390463 215.361623 
L 228.544799 214.912266 
L 229.779488 214.406739 
L 229.933824 214.013551 
L 230.08816 213.957381 
L 230.242496 213.564193 
L 230.396832 213.508024 
L 231.785857 213.339515 
L 231.940193 213.114836 
L 232.403202 213.058666 
L 232.557538 212.553139 
L 233.174882 212.4408 
L 234.255235 212.38463 
L 235.335588 211.822933 
L 236.878949 211.654424 
L 237.496293 211.542085 
L 238.113638 211.205067 
L 239.656999 211.092728 
L 240.737351 210.69954 
L 241.20036 208.90211 
L 241.97204 208.789771 
L 242.435048 208.171904 
L 243.052393 208.059565 
L 243.361065 207.891056 
L 245.058762 207.778716 
L 246.447787 207.441698 
L 247.219468 207.385529 
L 248.608493 206.992341 
L 255.707954 206.430644 
L 255.86229 206.262135 
L 256.942642 206.093626 
L 257.251315 205.644269 
L 257.714323 203.56599 
L 257.868659 203.341312 
L 258.486003 203.116633 
L 258.64034 202.386427 
L 258.794676 202.274088 
L 258.949012 201.8809 
L 259.103348 201.82473 
L 259.41202 201.487712 
L 259.875028 200.027301 
L 260.183701 199.409434 
L 260.801045 199.072416 
L 260.955381 198.791568 
L 261.109717 198.173701 
L 261.572726 197.724344 
L 261.727062 197.443495 
L 262.035734 196.54478 
L 262.19007 196.432441 
L 262.807414 193.904805 
L 263.887767 188.568686 
L 264.505112 186.153389 
L 264.813784 185.760202 
L 265.122456 185.535523 
L 265.431128 184.131281 
L 265.7398 183.850433 
L 266.202809 183.513415 
L 266.665817 182.446191 
L 266.974489 181.996833 
L 267.283161 181.210458 
L 267.74617 180.480252 
L 269.135195 179.356858 
L 269.598203 178.401974 
L 269.906875 178.008786 
L 270.987228 177.896446 
L 272.067581 177.840277 
L 272.376253 177.671768 
L 273.456606 177.559428 
L 274.228286 177.110071 
L 274.845631 176.885392 
L 275.771647 175.705829 
L 275.925983 175.53732 
L 276.388992 174.807114 
L 276.697664 174.526266 
L 277.006336 174.301587 
L 277.778017 172.728836 
L 278.395361 171.94246 
L 279.321378 170.594388 
L 279.63005 169.920352 
L 279.938722 169.751843 
L 280.247394 168.909298 
L 281.482083 167.168038 
L 282.871108 166.77485 
L 283.17978 164.808911 
L 283.488453 164.640402 
L 283.797125 164.078705 
L 284.414469 163.741687 
L 284.568805 163.460839 
L 284.877477 163.29233 
L 285.18615 162.674463 
L 285.340486 160.708524 
L 285.95783 159.922149 
L 286.112166 159.865979 
L 286.266502 158.967264 
L 286.420839 158.742585 
L 286.883847 158.630246 
L 287.038183 157.90004 
L 287.346855 157.731531 
L 287.655527 156.888986 
L 287.9642 156.551968 
L 288.272872 156.439629 
L 289.198888 156.383459 
L 290.124905 156.21495 
L 291.205258 156.15878 
L 296.452685 155.428574 
L 296.607022 155.203896 
L 296.915694 154.305181 
L 297.07003 154.249011 
L 297.533038 153.574975 
L 297.84171 151.552866 
L 297.996046 150.87883 
L 298.150383 150.710321 
L 298.613391 149.474588 
L 298.922063 149.0814 
L 299.230735 148.744382 
L 299.539408 148.575873 
L 299.693744 148.295025 
L 300.311088 146.272916 
L 300.928432 143.801451 
L 301.545777 143.464432 
L 301.854449 143.015075 
L 302.163121 142.397209 
L 306.330196 142.284869 
L 307.101877 141.835512 
L 308.027893 141.723172 
L 308.336566 141.049136 
L 308.799574 140.936797 
L 309.262582 140.712118 
L 309.879927 139.532555 
L 310.342935 139.251706 
L 310.497271 138.858519 
L 310.960279 138.802349 
L 311.268952 138.57767 
L 311.577624 137.678955 
L 311.886296 136.724071 
L 312.040632 136.667901 
L 312.50364 136.330883 
L 313.120985 136.218544 
L 318.522748 135.881526 
L 319.603101 135.713017 
L 320.374782 135.544508 
L 321.763807 135.375998 
L 330.097956 134.870471 
L 331.178309 134.589623 
L 333.647687 134.252605 
L 342.290509 133.747078 
L 347.3836 132.455175 
L 347.846609 132.174327 
L 348.926961 132.061987 
L 349.544306 131.050933 
L 350.470322 130.264558 
L 350.624658 129.983709 
L 351.087667 129.92754 
L 351.242003 129.75903 
L 354.637397 129.197334 
L 367.60163 129.141164 
L 367.755966 128.972655 
L 375.318435 128.691807 
L 376.090116 128.635637 
L 376.398788 128.467128 
L 376.553124 128.186279 
L 380.565863 128.13011 
L 383.652585 127.343734 
L 384.578602 127.287565 
L 385.195946 127.119055 
L 385.350282 126.725868 
L 385.813291 126.501189 
L 386.276299 125.602474 
L 386.584971 125.433965 
L 386.893643 124.928438 
L 387.356652 124.816099 
L 387.665324 123.917384 
L 387.973996 123.131008 
L 388.128332 123.018669 
L 389.054349 122.681651 
L 389.208685 122.400802 
L 389.517357 122.288463 
L 391.523726 121.951445 
L 396.771154 121.782936 
L 397.851507 121.502087 
L 398.160179 121.333578 
L 398.468851 120.940391 
L 398.777523 120.154015 
L 399.240532 119.816997 
L 401.401237 119.592318 
L 402.172918 119.423809 
L 402.327254 119.2553 
L 402.944598 119.030622 
L 403.407607 118.412755 
L 408.963706 118.019567 
L 410.198395 117.345531 
L 410.507067 116.952343 
L 411.741756 116.840004 
L 411.896092 116.671495 
L 412.204765 116.615325 
L 412.667773 116.390647 
L 412.822109 115.941289 
L 412.976445 115.885119 
L 413.285117 115.323423 
L 414.056798 114.312368 
L 414.211134 113.525993 
L 414.36547 113.357484 
L 414.828478 113.020466 
L 415.137151 112.683448 
L 415.291487 112.29026 
L 416.371839 112.009411 
L 416.834848 110.886018 
L 417.297856 110.605169 
L 417.606528 109.874964 
L 418.686881 108.80774 
L 418.841217 108.6954 
L 419.612898 108.639231 
L 419.767234 108.077534 
L 420.69325 107.515837 
L 425.632006 107.122649 
L 426.095014 106.841801 
L 427.175367 106.729462 
L 427.947047 106.560953 
L 428.101383 106.223934 
L 429.953417 105.662238 
L 430.725097 105.437559 
L 431.188106 104.707353 
L 431.651114 104.538844 
L 431.80545 104.089487 
L 434.274828 103.583959 
L 436.435533 103.47162 
L 437.207214 103.022263 
L 437.670222 102.741414 
L 438.596239 102.685245 
L 438.904911 102.404396 
L 440.91128 102.123548 
L 441.065616 101.618021 
L 441.528625 101.505681 
L 442.145969 100.887815 
L 442.300305 100.831645 
L 442.454641 100.494627 
L 443.843666 100.157609 
L 444.152338 99.876761 
L 445.078355 97.910822 
L 445.232691 97.854652 
L 445.850036 97.012107 
L 449.708438 96.562749 
L 450.171447 96.225731 
L 454.184185 95.832544 
L 455.264538 95.439356 
L 457.116571 95.327016 
L 458.196924 94.484471 
L 458.35126 94.259793 
L 458.659932 93.361078 
L 459.277277 92.96789 
L 459.431613 92.574702 
L 459.585949 90.833442 
L 459.894621 90.721103 
L 460.048957 90.384085 
L 460.357629 90.271745 
L 460.511966 90.047067 
L 460.820638 87.350922 
L 460.974974 87.013904 
L 461.437982 84.991795 
L 461.592318 84.823286 
L 461.900991 83.643723 
L 462.055327 82.070972 
L 462.363999 80.835239 
L 462.827007 77.577397 
L 463.444352 76.903361 
L 463.90736 74.825083 
L 464.216032 74.544235 
L 464.370368 74.263386 
L 465.605057 68.534079 
L 465.913729 67.916212 
L 466.531074 63.647317 
L 467.148418 60.164797 
L 467.611426 59.54693 
L 467.920099 58.985233 
L 468.537443 58.535876 
L 469.309124 56.906955 
L 469.926468 56.850785 
L 470.389476 56.513767 
L 470.698149 55.053356 
L 471.161157 51.964023 
L 471.469829 50.391272 
L 471.624165 49.380218 
L 471.778501 49.324048 
L 472.087174 49.0432 
L 472.395846 48.762351 
L 472.550182 48.706182 
L 472.550182 48.706182 
" clip-path="url(#p1160c94e3d)" style="fill: none; stroke: #002d72; stroke-width: 1.5; stroke-linecap: square"/>
   </g>
   <g id="patch_3">
    <path d="M 61.584 305.792 
L 61.584 36.464 
" style="fill: none; stroke: #8a8a8a; stroke-linejoin: miter; stroke-linecap: square"/>
   </g>
   <g id="patch_4">
    <path d="M 61.584 305.792 
L 492.12 305.792 
" style="fill: none; stroke: #8a8a8a; stroke-linejoin: miter; stroke-linecap: square"/>
   </g>
   <g id="text_15">
    <!-- Cumulative commits over time -->
    <g style="fill: #002d72" transform="translate(171.821141 24.464) scale(0.13 -0.13)">
     <defs>
      <path id="Montserrat-Bold-2d" d="M 2675 -77 
Q 2157 -77 1712 92 
Q 1267 262 940 576 
Q 614 890 432 1312 
Q 250 1734 250 2240 
Q 250 2746 432 3168 
Q 614 3590 944 3904 
Q 1274 4218 1715 4387 
Q 2157 4557 2682 4557 
Q 3264 4557 3734 4355 
Q 4205 4154 4525 3763 
L 3859 3149 
Q 3629 3411 3347 3542 
Q 3066 3674 2733 3674 
Q 2419 3674 2156 3571 
Q 1894 3469 1702 3277 
Q 1510 3085 1404 2822 
Q 1299 2560 1299 2240 
Q 1299 1920 1404 1657 
Q 1510 1395 1702 1203 
Q 1894 1011 2156 908 
Q 2419 806 2733 806 
Q 3066 806 3347 937 
Q 3629 1069 3859 1338 
L 4525 723 
Q 4205 333 3734 128 
Q 3264 -77 2675 -77 
z
" transform="scale(0.015625)"/>
      <path id="Montserrat-Bold-383" d="M 1914 -51 
Q 1485 -51 1149 115 
Q 813 282 627 624 
Q 442 966 442 1498 
L 442 3443 
L 1440 3443 
L 1440 1645 
Q 1440 1216 1622 1014 
Q 1805 813 2138 813 
Q 2368 813 2547 912 
Q 2726 1011 2828 1219 
Q 2931 1427 2931 1741 
L 2931 3443 
L 3930 3443 
L 3930 0 
L 2982 0 
L 2982 947 
L 3155 672 
Q 2982 314 2646 131 
Q 2310 -51 1914 -51 
z
" transform="scale(0.015625)"/>
      <path id="Montserrat-Bold-312" d="M 461 0 
L 461 3443 
L 1414 3443 
L 1414 2502 
L 1235 2778 
Q 1414 3130 1744 3312 
Q 2074 3494 2496 3494 
Q 2970 3494 3325 3254 
Q 3680 3014 3795 2522 
L 3443 2618 
Q 3616 3021 3997 3257 
Q 4378 3494 4870 3494 
Q 5280 3494 5597 3331 
Q 5914 3168 6096 2832 
Q 6278 2496 6278 1971 
L 6278 0 
L 5280 0 
L 5280 1818 
Q 5280 2234 5107 2432 
Q 4934 2630 4621 2630 
Q 4403 2630 4230 2531 
Q 4058 2432 3962 2233 
Q 3866 2035 3866 1728 
L 3866 0 
L 2867 0 
L 2867 1818 
Q 2867 2234 2697 2432 
Q 2528 2630 2214 2630 
Q 1997 2630 1824 2531 
Q 1651 2432 1555 2233 
Q 1459 2035 1459 1728 
L 1459 0 
L 461 0 
z
" transform="scale(0.015625)"/>
      <path id="Montserrat-Bold-301" d="M 461 0 
L 461 4749 
L 1459 4749 
L 1459 0 
L 461 0 
z
" transform="scale(0.015625)"/>
      <path id="Montserrat-Bold-24c" d="M 2573 0 
L 2573 672 
L 2509 819 
L 2509 2022 
Q 2509 2342 2313 2521 
Q 2118 2701 1715 2701 
Q 1440 2701 1174 2614 
Q 909 2528 723 2381 
L 365 3078 
Q 646 3277 1043 3385 
Q 1440 3494 1850 3494 
Q 2637 3494 3072 3123 
Q 3507 2752 3507 1965 
L 3507 0 
L 2573 0 
z
M 1523 -51 
Q 1120 -51 832 86 
Q 544 224 390 461 
Q 237 698 237 992 
Q 237 1299 387 1529 
Q 538 1760 864 1891 
Q 1190 2022 1715 2022 
L 2630 2022 
L 2630 1440 
L 1824 1440 
Q 1472 1440 1341 1325 
Q 1210 1210 1210 1037 
Q 1210 845 1360 733 
Q 1510 621 1773 621 
Q 2022 621 2220 739 
Q 2419 858 2509 1088 
L 2662 627 
Q 2554 294 2266 121 
Q 1978 -51 1523 -51 
z
" transform="scale(0.015625)"/>
      <path id="Montserrat-Bold-375" d="M 1869 -51 
Q 1261 -51 921 259 
Q 582 570 582 1184 
L 582 4205 
L 1581 4205 
L 1581 1197 
Q 1581 979 1696 860 
Q 1811 742 2010 742 
Q 2246 742 2413 870 
L 2682 166 
Q 2528 58 2313 3 
Q 2099 -51 1869 -51 
z
M 51 2675 
L 51 3443 
L 2438 3443 
L 2438 2675 
L 51 2675 
z
" transform="scale(0.015625)"/>
      <path id="Montserrat-Bold-2d7" d="M 461 0 
L 461 3443 
L 1459 3443 
L 1459 0 
L 461 0 
z
M 960 3923 
Q 685 3923 512 4083 
Q 339 4243 339 4480 
Q 339 4717 512 4877 
Q 685 5037 960 5037 
Q 1235 5037 1408 4886 
Q 1581 4736 1581 4499 
Q 1581 4250 1411 4086 
Q 1242 3923 960 3923 
z
" transform="scale(0.015625)"/>
      <path id="Montserrat-Bold-3a4" d="M 1395 0 
L -51 3443 
L 979 3443 
L 2182 480 
L 1670 480 
L 2918 3443 
L 3878 3443 
L 2426 0 
L 1395 0 
z
" transform="scale(0.015625)"/>
      <path id="Montserrat-Bold-295" d="M 2170 -51 
Q 1581 -51 1136 179 
Q 691 410 448 810 
Q 205 1210 205 1722 
Q 205 2240 445 2640 
Q 685 3040 1101 3267 
Q 1517 3494 2042 3494 
Q 2547 3494 2953 3280 
Q 3360 3066 3597 2666 
Q 3834 2266 3834 1709 
Q 3834 1651 3827 1577 
Q 3821 1504 3814 1440 
L 1018 1440 
L 1018 2022 
L 3290 2022 
L 2906 1850 
Q 2906 2118 2797 2316 
Q 2688 2515 2496 2627 
Q 2304 2739 2048 2739 
Q 1792 2739 1597 2627 
Q 1402 2515 1293 2313 
Q 1184 2112 1184 1837 
L 1184 1683 
Q 1184 1402 1309 1187 
Q 1434 973 1661 861 
Q 1888 749 2195 749 
Q 2470 749 2678 832 
Q 2886 915 3059 1082 
L 3590 506 
Q 3354 237 2995 93 
Q 2637 -51 2170 -51 
z
" transform="scale(0.015625)"/>
      <path id="Montserrat-Bold-8bd" transform="scale(0.015625)"/>
      <path id="Montserrat-Bold-27a" d="M 2125 -51 
Q 1568 -51 1133 176 
Q 698 403 451 806 
Q 205 1210 205 1722 
Q 205 2240 451 2640 
Q 698 3040 1133 3267 
Q 1568 3494 2125 3494 
Q 2669 3494 3072 3267 
Q 3475 3040 3667 2618 
L 2893 2202 
Q 2758 2445 2556 2560 
Q 2355 2675 2118 2675 
Q 1862 2675 1657 2560 
Q 1453 2445 1334 2233 
Q 1216 2022 1216 1722 
Q 1216 1421 1334 1209 
Q 1453 998 1657 883 
Q 1862 768 2118 768 
Q 2355 768 2556 880 
Q 2758 992 2893 1242 
L 3667 819 
Q 3475 403 3072 176 
Q 2669 -51 2125 -51 
z
" transform="scale(0.015625)"/>
      <path id="Montserrat-Bold-327" d="M 2099 -51 
Q 1549 -51 1123 179 
Q 698 410 451 810 
Q 205 1210 205 1722 
Q 205 2240 451 2640 
Q 698 3040 1123 3267 
Q 1549 3494 2099 3494 
Q 2643 3494 3072 3267 
Q 3501 3040 3744 2643 
Q 3987 2246 3987 1722 
Q 3987 1210 3744 810 
Q 3501 410 3072 179 
Q 2643 -51 2099 -51 
z
M 2099 768 
Q 2349 768 2547 883 
Q 2746 998 2861 1212 
Q 2976 1427 2976 1722 
Q 2976 2022 2861 2233 
Q 2746 2445 2547 2560 
Q 2349 2675 2099 2675 
Q 1850 2675 1651 2560 
Q 1453 2445 1334 2233 
Q 1216 2022 1216 1722 
Q 1216 1427 1334 1212 
Q 1453 998 1651 883 
Q 1850 768 2099 768 
z
" transform="scale(0.015625)"/>
      <path id="Montserrat-Bold-367" d="M 1619 -51 
Q 1178 -51 771 54 
Q 365 160 128 320 
L 461 1037 
Q 698 890 1021 797 
Q 1344 704 1658 704 
Q 2003 704 2147 787 
Q 2291 870 2291 1018 
Q 2291 1139 2179 1200 
Q 2067 1261 1881 1293 
Q 1696 1325 1475 1357 
Q 1254 1389 1030 1443 
Q 806 1498 620 1606 
Q 435 1715 323 1900 
Q 211 2086 211 2381 
Q 211 2707 400 2956 
Q 589 3206 947 3350 
Q 1306 3494 1805 3494 
Q 2157 3494 2521 3417 
Q 2886 3341 3130 3194 
L 2797 2483 
Q 2547 2630 2294 2684 
Q 2042 2739 1805 2739 
Q 1472 2739 1318 2649 
Q 1165 2560 1165 2419 
Q 1165 2291 1277 2227 
Q 1389 2163 1574 2124 
Q 1760 2086 1981 2057 
Q 2202 2029 2426 1971 
Q 2650 1914 2832 1808 
Q 3014 1702 3129 1520 
Q 3245 1338 3245 1043 
Q 3245 723 3053 476 
Q 2861 230 2499 89 
Q 2138 -51 1619 -51 
z
" transform="scale(0.015625)"/>
      <path id="Montserrat-Bold-359" d="M 461 0 
L 461 3443 
L 1414 3443 
L 1414 2470 
L 1280 2752 
Q 1434 3117 1773 3305 
Q 2112 3494 2598 3494 
L 2598 2573 
Q 2534 2579 2483 2582 
Q 2432 2586 2374 2586 
Q 1965 2586 1712 2352 
Q 1459 2118 1459 1626 
L 1459 0 
L 461 0 
z
" transform="scale(0.015625)"/>
     </defs>
     <use xlink:href="#Montserrat-Bold-2d"/>
     <use xlink:href="#Montserrat-Bold-383" transform="translate(71 0)"/>
     <use xlink:href="#Montserrat-Bold-312" transform="translate(139.703125 0)"/>
     <use xlink:href="#Montserrat-Bold-383" transform="translate(244.609375 0)"/>
     <use xlink:href="#Montserrat-Bold-301" transform="translate(313.3125 0)"/>
     <use xlink:href="#Montserrat-Bold-24c" transform="translate(343.40625 0)"/>
     <use xlink:href="#Montserrat-Bold-375" transform="translate(405.109375 0)"/>
     <use xlink:href="#Montserrat-Bold-2d7" transform="translate(448.609375 0)"/>
     <use xlink:href="#Montserrat-Bold-3a4" transform="translate(478.703125 0)"/>
     <use xlink:href="#Montserrat-Bold-295" transform="translate(537 0)"/>
     <use xlink:href="#Montserrat-Bold-8bd" transform="translate(600.09375 0)"/>
     <use xlink:href="#Montserrat-Bold-27a" transform="translate(628.390625 0)"/>
     <use xlink:href="#Montserrat-Bold-327" transform="translate(686.78125 0)"/>
     <use xlink:href="#Montserrat-Bold-312" transform="translate(752.28125 0)"/>
     <use xlink:href="#Montserrat-Bold-312" transform="translate(857.1875 0)"/>
     <use xlink:href="#Montserrat-Bold-2d7" transform="translate(962.09375 0)"/>
     <use xlink:href="#Montserrat-Bold-375" transform="translate(992.1875 0)"/>
     <use xlink:href="#Montserrat-Bold-367" transform="translate(1035.6875 0)"/>
     <use xlink:href="#Montserrat-Bold-8bd" transform="translate(1088.78125 0)"/>
     <use xlink:href="#Montserrat-Bold-327" transform="translate(1117.078125 0)"/>
     <use xlink:href="#Montserrat-Bold-3a4" transform="translate(1181.078125 0)"/>
     <use xlink:href="#Montserrat-Bold-295" transform="translate(1239.375 0)"/>
     <use xlink:href="#Montserrat-Bold-359" transform="translate(1302.46875 0)"/>
     <use xlink:href="#Montserrat-Bold-8bd" transform="translate(1345.5625 0)"/>
     <use xlink:href="#Montserrat-Bold-375" transform="translate(1373.859375 0)"/>
     <use xlink:href="#Montserrat-Bold-2d7" transform="translate(1417.359375 0)"/>
     <use xlink:href="#Montserrat-Bold-312" transform="translate(1447.453125 0)"/>
     <use xlink:href="#Montserrat-Bold-295" transform="translate(1552.765625 0)"/>
    </g>
   </g>
  </g>
 </g>
 <defs>
  <clipPath id="p1160c94e3d">
   <rect x="61.584" y="36.464" width="430.536" height="269.328"/>
  </clipPath>
 </defs>
</svg>
