<?xml version="1.0" encoding="utf-8" standalone="no"?>
<!DOCTYPE svg PUBLIC "-//W3C//DTD SVG 1.1//EN"
  "http://www.w3.org/Graphics/SVG/1.1/DTD/svg11.dtd">
<svg xmlns:xlink="http://www.w3.org/1999/xlink" width="504pt" height="360pt" viewBox="0 0 504 360" xmlns="http://www.w3.org/2000/svg" version="1.1">
 <metadata>
  <rdf:RDF xmlns:dc="http://purl.org/dc/elements/1.1/" xmlns:cc="http://creativecommons.org/ns#" xmlns:rdf="http://www.w3.org/1999/02/22-rdf-syntax-ns#">
   <cc:Work>
    <dc:type rdf:resource="http://purl.org/dc/dcmitype/StillImage"/>
    <dc:date>2026-07-13T20:56:29.384255</dc:date>
    <dc:format>image/svg+xml</dc:format>
    <dc:creator>
     <cc:Agent>
      <dc:title>Matplotlib v3.11.0, https://matplotlib.org/</dc:title>
     </cc:Agent>
    </dc:creator>
   </cc:Work>
  </rdf:RDF>
 </metadata>
 <defs>
  <style type="text/css">*{stroke-linejoin: round; stroke-linecap: butt}</style>
 </defs>
 <g id="figure_1">
  <g id="patch_1">
   <path d="M 0 360 
L 504 360 
L 504 0 
L 0 0 
L 0 360 
z
" style="fill: none"/>
  </g>
  <g id="axes_1">
   <g id="patch_2">
    <path d="M 61.584 305.792 
L 492.12 305.792 
L 492.12 36.464 
L 61.584 36.464 
L 61.584 305.792 
z
" style="fill: none"/>
   </g>
   <g id="matplotlib.axis_1">
    <g id="xtick_1">
     <g id="line2d_1">
      <defs>
       <path id="m70d39fd37e" d="M 0 0 
L 0 3.5 
" style="stroke: #1c2531; stroke-width: 0.8"/>
      </defs>
      <g>
       <use xlink:href="#m70d39fd37e" x="103.001359" y="305.792" style="fill: #1c2531; stroke: #1c2531; stroke-width: 0.8"/>
      </g>
     </g>
     <g id="text_1">
      <!-- 2020 -->
      <g style="fill: #1c2531" transform="translate(92.066671 324.056) scale(0.11 -0.11)">
       <defs>
        <path id="SourceSans3-Regular-537" d="M 256 0 
L 256 320 
Q 864 922 1296 1386 
Q 1728 1850 1952 2227 
Q 2176 2605 2176 2931 
Q 2176 3283 1984 3507 
Q 1792 3731 1402 3731 
Q 1146 3731 928 3590 
Q 710 3450 531 3238 
L 237 3526 
Q 493 3814 784 3987 
Q 1075 4160 1466 4160 
Q 1843 4160 2118 4009 
Q 2394 3859 2541 3590 
Q 2688 3322 2688 2963 
Q 2688 2566 2467 2176 
Q 2246 1786 1862 1357 
Q 1478 928 979 416 
Q 1146 435 1325 444 
Q 1504 454 1664 454 
L 2893 454 
L 2893 0 
L 256 0 
z
" transform="scale(0.015625)"/>
        <path id="SourceSans3-Regular-535" d="M 1594 -77 
Q 979 -77 630 476 
Q 282 1030 282 2054 
Q 282 3085 630 3622 
Q 979 4160 1594 4160 
Q 2202 4160 2550 3619 
Q 2899 3078 2899 2054 
Q 2899 1030 2550 476 
Q 2202 -77 1594 -77 
z
M 1594 346 
Q 1830 346 2009 525 
Q 2189 704 2288 1081 
Q 2387 1459 2387 2054 
Q 2387 2656 2288 3027 
Q 2189 3398 2009 3568 
Q 1830 3738 1594 3738 
Q 1350 3738 1171 3568 
Q 992 3398 893 3027 
Q 794 2656 794 2054 
Q 794 1459 893 1081 
Q 992 704 1171 525 
Q 1350 346 1594 346 
z
" transform="scale(0.015625)"/>
       </defs>
       <use xlink:href="#SourceSans3-Regular-537"/>
       <use xlink:href="#SourceSans3-Regular-535" transform="translate(49.703125 0)"/>
       <use xlink:href="#SourceSans3-Regular-537" transform="translate(99.40625 0)"/>
       <use xlink:href="#SourceSans3-Regular-535" transform="translate(149.109375 0)"/>
      </g>
     </g>
    </g>
    <g id="xtick_2">
     <g id="line2d_2">
      <g>
       <use xlink:href="#m70d39fd37e" x="159.711996" y="305.792" style="fill: #1c2531; stroke: #1c2531; stroke-width: 0.8"/>
      </g>
     </g>
     <g id="text_2">
      <!-- 2021 -->
      <g style="fill: #1c2531" transform="translate(148.777308 324.056) scale(0.11 -0.11)">
       <defs>
        <path id="SourceSans3-Regular-536" d="M 506 0 
L 506 435 
L 1440 435 
L 1440 3443 
L 698 3443 
L 698 3782 
Q 973 3834 1184 3907 
Q 1395 3981 1562 4083 
L 1965 4083 
L 1965 435 
L 2810 435 
L 2810 0 
L 506 0 
z
" transform="scale(0.015625)"/>
       </defs>
       <use xlink:href="#SourceSans3-Regular-537"/>
       <use xlink:href="#SourceSans3-Regular-535" transform="translate(49.703125 0)"/>
       <use xlink:href="#SourceSans3-Regular-537" transform="translate(99.40625 0)"/>
       <use xlink:href="#SourceSans3-Regular-536" transform="translate(149.109375 0)"/>
      </g>
     </g>
    </g>
    <g id="xtick_3">
     <g id="line2d_3">
      <g>
       <use xlink:href="#m70d39fd37e" x="216.267686" y="305.792" style="fill: #1c2531; stroke: #1c2531; stroke-width: 0.8"/>
      </g>
     </g>
     <g id="text_3">
      <!-- 2022 -->
      <g style="fill: #1c2531" transform="translate(205.332998 324.056) scale(0.11 -0.11)">
       <use xlink:href="#SourceSans3-Regular-537"/>
       <use xlink:href="#SourceSans3-Regular-535" transform="translate(49.703125 0)"/>
       <use xlink:href="#SourceSans3-Regular-537" transform="translate(99.40625 0)"/>
       <use xlink:href="#SourceSans3-Regular-537" transform="translate(149.109375 0)"/>
      </g>
     </g>
    </g>
    <g id="xtick_4">
     <g id="line2d_4">
      <g>
       <use xlink:href="#m70d39fd37e" x="272.823376" y="305.792" style="fill: #1c2531; stroke: #1c2531; stroke-width: 0.8"/>
      </g>
     </g>
     <g id="text_4">
      <!-- 2023 -->
      <g style="fill: #1c2531" transform="translate(261.888688 324.056) scale(0.11 -0.11)">
       <defs>
        <path id="SourceSans3-Regular-538" d="M 1510 -77 
Q 1184 -77 931 6 
Q 678 90 492 218 
Q 307 346 166 499 
L 435 845 
Q 621 653 867 505 
Q 1114 358 1478 358 
Q 1850 358 2086 563 
Q 2323 768 2323 1107 
Q 2323 1350 2198 1532 
Q 2074 1715 1789 1817 
Q 1504 1920 1018 1920 
L 1018 2323 
Q 1453 2323 1705 2425 
Q 1958 2528 2067 2697 
Q 2176 2867 2176 3085 
Q 2176 3386 1987 3558 
Q 1798 3731 1472 3731 
Q 1216 3731 998 3616 
Q 781 3501 602 3315 
L 320 3648 
Q 557 3872 845 4016 
Q 1133 4160 1491 4160 
Q 1850 4160 2125 4038 
Q 2400 3917 2557 3686 
Q 2714 3456 2714 3123 
Q 2714 2752 2509 2515 
Q 2304 2278 1971 2150 
L 1971 2125 
Q 2221 2067 2419 1929 
Q 2618 1792 2736 1581 
Q 2854 1370 2854 1088 
Q 2854 723 2675 464 
Q 2496 205 2189 64 
Q 1882 -77 1510 -77 
z
" transform="scale(0.015625)"/>
       </defs>
       <use xlink:href="#SourceSans3-Regular-537"/>
       <use xlink:href="#SourceSans3-Regular-535" transform="translate(49.703125 0)"/>
       <use xlink:href="#SourceSans3-Regular-537" transform="translate(99.40625 0)"/>
       <use xlink:href="#SourceSans3-Regular-538" transform="translate(149.109375 0)"/>
      </g>
     </g>
    </g>
    <g id="xtick_5">
     <g id="line2d_5">
      <g>
       <use xlink:href="#m70d39fd37e" x="329.379065" y="305.792" style="fill: #1c2531; stroke: #1c2531; stroke-width: 0.8"/>
      </g>
     </g>
     <g id="text_5">
      <!-- 2024 -->
      <g style="fill: #1c2531" transform="translate(318.444378 324.056) scale(0.11 -0.11)">
       <defs>
        <path id="SourceSans3-Regular-539" d="M 1946 0 
L 1946 2733 
Q 1946 2893 1958 3126 
Q 1971 3360 1978 3520 
L 1952 3520 
Q 1875 3373 1792 3235 
Q 1709 3098 1619 2944 
L 666 1549 
L 3002 1549 
L 3002 1126 
L 109 1126 
L 109 1472 
L 1856 4083 
L 2445 4083 
L 2445 0 
L 1946 0 
z
" transform="scale(0.015625)"/>
       </defs>
       <use xlink:href="#SourceSans3-Regular-537"/>
       <use xlink:href="#SourceSans3-Regular-535" transform="translate(49.703125 0)"/>
       <use xlink:href="#SourceSans3-Regular-537" transform="translate(99.40625 0)"/>
       <use xlink:href="#SourceSans3-Regular-539" transform="translate(149.109375 0)"/>
      </g>
     </g>
    </g>
    <g id="xtick_6">
     <g id="line2d_6">
      <g>
       <use xlink:href="#m70d39fd37e" x="386.089702" y="305.792" style="fill: #1c2531; stroke: #1c2531; stroke-width: 0.8"/>
      </g>
     </g>
     <g id="text_6">
      <!-- 2025 -->
      <g style="fill: #1c2531" transform="translate(375.155015 324.056) scale(0.11 -0.11)">
       <defs>
        <path id="SourceSans3-Regular-53a" d="M 1498 -77 
Q 1171 -77 921 3 
Q 672 83 486 211 
Q 301 339 160 480 
L 416 826 
Q 602 646 845 502 
Q 1088 358 1446 358 
Q 1696 358 1897 473 
Q 2099 589 2220 797 
Q 2342 1005 2342 1293 
Q 2342 1715 2105 1952 
Q 1869 2189 1472 2189 
Q 1267 2189 1113 2125 
Q 960 2061 774 1939 
L 493 2118 
L 627 4083 
L 2669 4083 
L 2669 3629 
L 1088 3629 
L 979 2419 
Q 1126 2496 1273 2541 
Q 1421 2586 1606 2586 
Q 1958 2586 2246 2451 
Q 2534 2317 2704 2032 
Q 2874 1747 2874 1306 
Q 2874 864 2678 553 
Q 2483 243 2169 83 
Q 1856 -77 1498 -77 
z
" transform="scale(0.015625)"/>
       </defs>
       <use xlink:href="#SourceSans3-Regular-537"/>
       <use xlink:href="#SourceSans3-Regular-535" transform="translate(49.703125 0)"/>
       <use xlink:href="#SourceSans3-Regular-537" transform="translate(99.40625 0)"/>
       <use xlink:href="#SourceSans3-Regular-53a" transform="translate(149.109375 0)"/>
      </g>
     </g>
    </g>
    <g id="xtick_7">
     <g id="line2d_7">
      <g>
       <use xlink:href="#m70d39fd37e" x="442.645392" y="305.792" style="fill: #1c2531; stroke: #1c2531; stroke-width: 0.8"/>
      </g>
     </g>
     <g id="text_7">
      <!-- 2026 -->
      <g style="fill: #1c2531" transform="translate(431.710705 324.056) scale(0.11 -0.11)">
       <defs>
        <path id="SourceSans3-Regular-53b" d="M 1715 -77 
Q 1414 -77 1158 44 
Q 902 166 713 412 
Q 525 659 416 1027 
Q 307 1395 307 1888 
Q 307 2502 435 2934 
Q 563 3366 780 3635 
Q 998 3904 1276 4032 
Q 1555 4160 1862 4160 
Q 2195 4160 2435 4035 
Q 2675 3910 2848 3725 
L 2554 3398 
Q 2432 3546 2253 3632 
Q 2074 3718 1882 3718 
Q 1594 3718 1347 3545 
Q 1101 3373 953 2973 
Q 806 2573 806 1888 
Q 806 1382 912 1036 
Q 1018 691 1222 515 
Q 1427 339 1715 339 
Q 1914 339 2077 451 
Q 2240 563 2333 764 
Q 2426 966 2426 1235 
Q 2426 1498 2342 1693 
Q 2259 1888 2092 1993 
Q 1926 2099 1670 2099 
Q 1472 2099 1238 1968 
Q 1005 1837 794 1523 
L 774 1939 
Q 973 2195 1235 2345 
Q 1498 2496 1760 2496 
Q 2112 2496 2374 2355 
Q 2637 2214 2781 1932 
Q 2925 1651 2925 1235 
Q 2925 845 2758 550 
Q 2592 256 2317 89 
Q 2042 -77 1715 -77 
z
" transform="scale(0.015625)"/>
       </defs>
       <use xlink:href="#SourceSans3-Regular-537"/>
       <use xlink:href="#SourceSans3-Regular-535" transform="translate(49.703125 0)"/>
       <use xlink:href="#SourceSans3-Regular-537" transform="translate(99.40625 0)"/>
       <use xlink:href="#SourceSans3-Regular-53b" transform="translate(149.109375 0)"/>
      </g>
     </g>
    </g>
    <g id="text_8">
     <!-- Date -->
     <g style="fill: #1c2531" transform="translate(266.265359 343.72) scale(0.11 -0.11)">
      <defs>
       <path id="SourceSans3-Regular-5" d="M 576 0 
L 576 4198 
L 1626 4198 
Q 2272 4198 2713 3955 
Q 3155 3712 3382 3248 
Q 3610 2784 3610 2118 
Q 3610 1453 3382 976 
Q 3155 499 2720 249 
Q 2285 0 1651 0 
L 576 0 
z
M 1107 435 
L 1587 435 
Q 2080 435 2406 636 
Q 2733 838 2893 1209 
Q 3053 1581 3053 2118 
Q 3053 2643 2893 3014 
Q 2733 3386 2406 3574 
Q 2080 3763 1587 3763 
L 1107 3763 
L 1107 435 
z
" transform="scale(0.015625)"/>
       <path id="SourceSans3-Regular-1c" d="M 1242 -77 
Q 986 -77 778 28 
Q 570 134 448 329 
Q 326 525 326 806 
Q 326 1331 787 1600 
Q 1248 1869 2246 1978 
Q 2240 2170 2185 2349 
Q 2131 2528 1990 2637 
Q 1850 2746 1600 2746 
Q 1331 2746 1094 2646 
Q 858 2547 672 2426 
L 467 2784 
Q 608 2880 800 2973 
Q 992 3066 1216 3126 
Q 1440 3187 1690 3187 
Q 2067 3187 2307 3030 
Q 2547 2874 2659 2586 
Q 2771 2298 2771 1907 
L 2771 0 
L 2336 0 
L 2291 371 
L 2272 371 
Q 2048 186 1792 54 
Q 1536 -77 1242 -77 
z
M 1389 358 
Q 1619 358 1820 460 
Q 2022 563 2246 762 
L 2246 1600 
Q 1722 1536 1418 1437 
Q 1114 1338 979 1190 
Q 845 1043 845 838 
Q 845 582 1005 470 
Q 1165 358 1389 358 
z
" transform="scale(0.015625)"/>
       <path id="SourceSans3-Regular-2f" d="M 1504 -58 
Q 1011 -58 812 230 
Q 614 518 614 979 
L 614 2682 
L 154 2682 
L 154 3078 
L 640 3110 
L 704 4109 
L 1146 4109 
L 1146 3110 
L 1990 3110 
L 1990 2682 
L 1146 2682 
L 1146 973 
Q 1146 691 1251 531 
Q 1357 371 1626 371 
Q 1709 371 1798 387 
Q 1888 403 1978 448 
L 2093 77 
Q 1971 19 1817 -19 
Q 1664 -58 1504 -58 
z
" transform="scale(0.015625)"/>
       <path id="SourceSans3-Regular-20" d="M 1786 -77 
Q 1370 -77 1027 118 
Q 685 314 486 675 
Q 288 1037 288 1555 
Q 288 2061 493 2425 
Q 698 2790 1018 2988 
Q 1338 3187 1696 3187 
Q 2093 3187 2371 3004 
Q 2650 2822 2790 2496 
Q 2931 2170 2931 1728 
Q 2931 1645 2928 1568 
Q 2925 1491 2906 1414 
L 666 1414 
L 666 1830 
L 2458 1830 
Q 2458 2278 2262 2518 
Q 2067 2758 1702 2758 
Q 1491 2758 1286 2640 
Q 1082 2522 950 2259 
Q 819 1997 819 1562 
Q 819 1165 956 896 
Q 1094 627 1331 489 
Q 1568 352 1850 352 
Q 2074 352 2269 416 
Q 2464 480 2624 589 
L 2816 243 
Q 2611 102 2358 12 
Q 2106 -77 1786 -77 
z
" transform="scale(0.015625)"/>
      </defs>
      <use xlink:href="#SourceSans3-Regular-5"/>
      <use xlink:href="#SourceSans3-Regular-1c" transform="translate(61.5 0)"/>
      <use xlink:href="#SourceSans3-Regular-2f" transform="translate(110.5 0)"/>
      <use xlink:href="#SourceSans3-Regular-20" transform="translate(142.890625 0)"/>
     </g>
    </g>
   </g>
   <g id="matplotlib.axis_2">
    <g id="ytick_1">
     <g id="line2d_8">
      <defs>
       <path id="m918951598a" d="M 0 0 
L -3.5 0 
" style="stroke: #1c2531; stroke-width: 0.8"/>
      </defs>
      <g>
       <use xlink:href="#m918951598a" x="61.584" y="275.11764" style="fill: #1c2531; stroke: #1c2531; stroke-width: 0.8"/>
      </g>
     </g>
     <g id="text_9">
      <!-- 1000 -->
      <g style="fill: #1c2531" transform="translate(32.714625 280.74964) scale(0.11 -0.11)">
       <use xlink:href="#SourceSans3-Regular-536"/>
       <use xlink:href="#SourceSans3-Regular-535" transform="translate(49.703125 0)"/>
       <use xlink:href="#SourceSans3-Regular-535" transform="translate(99.40625 0)"/>
       <use xlink:href="#SourceSans3-Regular-535" transform="translate(149.109375 0)"/>
      </g>
     </g>
    </g>
    <g id="ytick_2">
     <g id="line2d_9">
      <g>
       <use xlink:href="#m918951598a" x="61.584" y="217.696525" style="fill: #1c2531; stroke: #1c2531; stroke-width: 0.8"/>
      </g>
     </g>
     <g id="text_10">
      <!-- 2000 -->
      <g style="fill: #1c2531" transform="translate(32.714625 223.328525) scale(0.11 -0.11)">
       <use xlink:href="#SourceSans3-Regular-537"/>
       <use xlink:href="#SourceSans3-Regular-535" transform="translate(49.703125 0)"/>
       <use xlink:href="#SourceSans3-Regular-535" transform="translate(99.40625 0)"/>
       <use xlink:href="#SourceSans3-Regular-535" transform="translate(149.109375 0)"/>
      </g>
     </g>
    </g>
    <g id="ytick_3">
     <g id="line2d_10">
      <g>
       <use xlink:href="#m918951598a" x="61.584" y="160.275409" style="fill: #1c2531; stroke: #1c2531; stroke-width: 0.8"/>
      </g>
     </g>
     <g id="text_11">
      <!-- 3000 -->
      <g style="fill: #1c2531" transform="translate(32.714625 165.907409) scale(0.11 -0.11)">
       <use xlink:href="#SourceSans3-Regular-538"/>
       <use xlink:href="#SourceSans3-Regular-535" transform="translate(49.703125 0)"/>
       <use xlink:href="#SourceSans3-Regular-535" transform="translate(99.40625 0)"/>
       <use xlink:href="#SourceSans3-Regular-535" transform="translate(149.109375 0)"/>
      </g>
     </g>
    </g>
    <g id="ytick_4">
     <g id="line2d_11">
      <g>
       <use xlink:href="#m918951598a" x="61.584" y="102.854294" style="fill: #1c2531; stroke: #1c2531; stroke-width: 0.8"/>
      </g>
     </g>
     <g id="text_12">
      <!-- 4000 -->
      <g style="fill: #1c2531" transform="translate(32.714625 108.486294) scale(0.11 -0.11)">
       <use xlink:href="#SourceSans3-Regular-539"/>
       <use xlink:href="#SourceSans3-Regular-535" transform="translate(49.703125 0)"/>
       <use xlink:href="#SourceSans3-Regular-535" transform="translate(99.40625 0)"/>
       <use xlink:href="#SourceSans3-Regular-535" transform="translate(149.109375 0)"/>
      </g>
     </g>
    </g>
    <g id="ytick_5">
     <g id="line2d_12">
      <g>
       <use xlink:href="#m918951598a" x="61.584" y="45.433178" style="fill: #1c2531; stroke: #1c2531; stroke-width: 0.8"/>
      </g>
     </g>
     <g id="text_13">
      <!-- 5000 -->
      <g style="fill: #1c2531" transform="translate(32.714625 51.065178) scale(0.11 -0.11)">
       <use xlink:href="#SourceSans3-Regular-53a"/>
       <use xlink:href="#SourceSans3-Regular-535" transform="translate(49.703125 0)"/>
       <use xlink:href="#SourceSans3-Regular-535" transform="translate(99.40625 0)"/>
       <use xlink:href="#SourceSans3-Regular-535" transform="translate(149.109375 0)"/>
      </g>
     </g>
    </g>
    <g id="text_14">
     <!-- Cumulative commits -->
     <g style="fill: #1c2531" transform="translate(24.314625 218.395344) rotate(-90) scale(0.11 -0.11)">
      <defs>
       <path id="SourceSans3-Regular-4" d="M 2170 -77 
Q 1645 -77 1225 182 
Q 806 442 569 928 
Q 333 1414 333 2099 
Q 333 2605 470 3008 
Q 608 3411 864 3696 
Q 1120 3981 1456 4128 
Q 1792 4275 2195 4275 
Q 2573 4275 2870 4121 
Q 3168 3968 3347 3757 
L 3059 3430 
Q 2893 3610 2678 3709 
Q 2464 3808 2202 3808 
Q 1811 3808 1513 3600 
Q 1216 3392 1049 3011 
Q 883 2630 883 2112 
Q 883 1581 1043 1197 
Q 1203 813 1504 605 
Q 1805 397 2208 397 
Q 2502 397 2736 509 
Q 2970 621 3162 838 
L 3443 525 
Q 3194 237 2886 80 
Q 2579 -77 2170 -77 
z
" transform="scale(0.015625)"/>
       <path id="SourceSans3-Regular-30" d="M 1434 -77 
Q 941 -77 713 233 
Q 486 544 486 1139 
L 486 3110 
L 1011 3110 
L 1011 1210 
Q 1011 774 1148 579 
Q 1286 384 1594 384 
Q 1830 384 2019 509 
Q 2208 634 2432 902 
L 2432 3110 
L 2957 3110 
L 2957 0 
L 2522 0 
L 2477 486 
L 2458 486 
Q 2246 230 2000 76 
Q 1754 -77 1434 -77 
z
" transform="scale(0.015625)"/>
       <path id="SourceSans3-Regular-28" d="M 525 0 
L 525 3110 
L 960 3110 
L 1005 2662 
L 1024 2662 
Q 1229 2880 1469 3033 
Q 1709 3187 1990 3187 
Q 2349 3187 2550 3027 
Q 2752 2867 2848 2592 
Q 3091 2861 3340 3024 
Q 3590 3187 3872 3187 
Q 4358 3187 4588 2876 
Q 4819 2566 4819 1971 
L 4819 0 
L 4294 0 
L 4294 1901 
Q 4294 2342 4153 2537 
Q 4013 2733 3718 2733 
Q 3533 2733 3344 2614 
Q 3155 2496 2938 2253 
L 2938 0 
L 2413 0 
L 2413 1901 
Q 2413 2342 2272 2537 
Q 2131 2733 1830 2733 
Q 1478 2733 1050 2253 
L 1050 0 
L 525 0 
z
" transform="scale(0.015625)"/>
       <path id="SourceSans3-Regular-27" d="M 1082 -58 
Q 883 -58 761 22 
Q 640 102 582 259 
Q 525 416 525 640 
L 525 4557 
L 1050 4557 
L 1050 602 
Q 1050 474 1094 426 
Q 1139 378 1203 378 
Q 1229 378 1251 381 
Q 1274 384 1312 390 
L 1389 -6 
Q 1331 -26 1257 -42 
Q 1184 -58 1082 -58 
z
" transform="scale(0.015625)"/>
       <path id="SourceSans3-Regular-24" d="M 525 0 
L 525 3110 
L 1050 3110 
L 1050 0 
L 525 0 
z
M 787 3750 
Q 633 3750 534 3846 
Q 435 3942 435 4096 
Q 435 4250 534 4346 
Q 633 4442 787 4442 
Q 941 4442 1040 4346 
Q 1139 4250 1139 4096 
Q 1139 3942 1040 3846 
Q 941 3750 787 3750 
z
" transform="scale(0.015625)"/>
       <path id="SourceSans3-Regular-31" d="M 1197 0 
L 77 3110 
L 621 3110 
L 1210 1344 
Q 1280 1120 1353 886 
Q 1427 653 1498 429 
L 1523 429 
Q 1587 653 1664 886 
Q 1741 1120 1805 1344 
L 2394 3110 
L 2912 3110 
L 1811 0 
L 1197 0 
z
" transform="scale(0.015625)"/>
       <path id="SourceSans3-Regular-1" transform="scale(0.015625)"/>
       <path id="SourceSans3-Regular-1e" d="M 1760 -77 
Q 1344 -77 1011 115 
Q 678 307 486 672 
Q 294 1037 294 1549 
Q 294 2074 502 2438 
Q 710 2803 1052 2995 
Q 1395 3187 1792 3187 
Q 2099 3187 2320 3084 
Q 2541 2982 2701 2822 
L 2438 2496 
Q 2323 2611 2166 2678 
Q 2010 2746 1811 2746 
Q 1536 2746 1315 2595 
Q 1094 2445 966 2176 
Q 838 1907 838 1549 
Q 838 1197 960 928 
Q 1082 659 1299 508 
Q 1517 358 1805 358 
Q 2022 358 2208 441 
Q 2394 525 2528 653 
L 2758 333 
Q 2560 147 2310 35 
Q 2061 -77 1760 -77 
z
" transform="scale(0.015625)"/>
       <path id="SourceSans3-Regular-2a" d="M 1734 -77 
Q 1357 -77 1027 115 
Q 698 307 496 672 
Q 294 1037 294 1549 
Q 294 2074 496 2438 
Q 698 2803 1027 2995 
Q 1357 3187 1734 3187 
Q 2118 3187 2444 2995 
Q 2771 2803 2972 2438 
Q 3174 2074 3174 1549 
Q 3174 1037 2972 672 
Q 2771 307 2444 115 
Q 2118 -77 1734 -77 
z
M 1734 358 
Q 2003 358 2208 508 
Q 2413 659 2521 928 
Q 2630 1197 2630 1549 
Q 2630 1907 2521 2179 
Q 2413 2451 2208 2601 
Q 2003 2752 1734 2752 
Q 1466 2752 1264 2601 
Q 1062 2451 950 2179 
Q 838 1907 838 1549 
Q 838 1197 950 928 
Q 1062 659 1264 508 
Q 1466 358 1734 358 
z
" transform="scale(0.015625)"/>
       <path id="SourceSans3-Regular-2e" d="M 1338 -77 
Q 998 -77 694 41 
Q 390 160 179 371 
L 422 678 
Q 627 512 848 422 
Q 1069 333 1357 333 
Q 1664 333 1817 477 
Q 1971 621 1971 819 
Q 1971 979 1865 1084 
Q 1760 1190 1603 1264 
Q 1446 1338 1267 1402 
Q 1037 1485 825 1597 
Q 614 1709 483 1878 
Q 352 2048 352 2304 
Q 352 2682 637 2934 
Q 922 3187 1427 3187 
Q 1715 3187 1964 3088 
Q 2214 2989 2394 2835 
L 2150 2534 
Q 1984 2650 1811 2714 
Q 1638 2778 1427 2778 
Q 1133 2778 995 2643 
Q 858 2509 858 2330 
Q 858 2189 941 2096 
Q 1024 2003 1174 1932 
Q 1325 1862 1517 1798 
Q 1760 1709 1981 1597 
Q 2202 1485 2339 1309 
Q 2477 1133 2477 851 
Q 2477 595 2345 387 
Q 2214 179 1961 51 
Q 1709 -77 1338 -77 
z
" transform="scale(0.015625)"/>
      </defs>
      <use xlink:href="#SourceSans3-Regular-4"/>
      <use xlink:href="#SourceSans3-Regular-30" transform="translate(56.09375 0)"/>
      <use xlink:href="#SourceSans3-Regular-28" transform="translate(110.5 0)"/>
      <use xlink:href="#SourceSans3-Regular-30" transform="translate(193.40625 0)"/>
      <use xlink:href="#SourceSans3-Regular-27" transform="translate(247.8125 0)"/>
      <use xlink:href="#SourceSans3-Regular-1c" transform="translate(273.3125 0)"/>
      <use xlink:href="#SourceSans3-Regular-2f" transform="translate(322.3125 0)"/>
      <use xlink:href="#SourceSans3-Regular-24" transform="translate(356.109375 0)"/>
      <use xlink:href="#SourceSans3-Regular-31" transform="translate(380.703125 0)"/>
      <use xlink:href="#SourceSans3-Regular-20" transform="translate(427 0)"/>
      <use xlink:href="#SourceSans3-Regular-1" transform="translate(476.59375 0)"/>
      <use xlink:href="#SourceSans3-Regular-1e" transform="translate(496.59375 0)"/>
      <use xlink:href="#SourceSans3-Regular-2a" transform="translate(540.09375 0)"/>
      <use xlink:href="#SourceSans3-Regular-28" transform="translate(594.296875 0)"/>
      <use xlink:href="#SourceSans3-Regular-28" transform="translate(677.203125 0)"/>
      <use xlink:href="#SourceSans3-Regular-24" transform="translate(760.109375 0)"/>
      <use xlink:href="#SourceSans3-Regular-2f" transform="translate(784.703125 0)"/>
      <use xlink:href="#SourceSans3-Regular-2e" transform="translate(817.5 0)"/>
     </g>
    </g>
   </g>
   <g id="line2d_13">
    <path d="M 81.153818 293.549818 
L 81.463712 292.745923 
L 81.618659 292.63108 
L 82.393395 292.286554 
L 82.703289 291.482658 
L 89.05612 291.252974 
L 89.211067 290.908447 
L 92.929797 290.276815 
L 93.239692 289.645182 
L 93.549586 288.956129 
L 95.099057 288.726444 
L 95.408951 287.692864 
L 96.958422 287.46318 
L 97.423263 286.774127 
L 98.66284 285.855389 
L 98.817787 285.568283 
L 99.127681 285.510862 
L 101.296941 285.223756 
L 101.761782 285.108914 
L 102.226623 285.051493 
L 104.55083 284.936651 
L 104.705777 284.534703 
L 105.015671 284.190176 
L 105.480512 284.075334 
L 105.945353 283.673386 
L 106.255248 283.386281 
L 106.720089 283.214017 
L 107.029983 282.869491 
L 108.26956 282.065595 
L 109.664084 281.606226 
L 109.819031 281.433963 
L 110.438819 281.204278 
L 110.593766 280.974594 
L 111.058608 280.859752 
L 112.298184 280.055856 
L 113.07292 279.653908 
L 113.382814 279.137118 
L 114.777338 278.792592 
L 115.707021 278.562907 
L 116.171862 277.816433 
L 117.721333 277.069958 
L 117.87628 276.725431 
L 118.186174 276.553168 
L 118.805962 276.438326 
L 120.355433 276.266062 
L 122.524693 275.749272 
L 122.67964 275.462167 
L 123.609322 275.347325 
L 123.919217 275.11764 
L 124.539005 274.543429 
L 124.848899 274.026639 
L 125.623635 273.796954 
L 125.933529 273.222743 
L 127.018158 272.878217 
L 129.652259 272.53369 
L 129.807206 272.418848 
L 130.272048 272.246584 
L 131.511624 267.652895 
L 131.666571 267.078684 
L 132.906148 266.848999 
L 133.680884 266.561894 
L 136.469931 265.987683 
L 136.624878 265.815419 
L 138.019402 265.470893 
L 138.174349 265.298629 
L 139.568873 264.954103 
L 140.188662 264.437313 
L 140.80845 264.379892 
L 141.118344 264.035365 
L 141.89308 263.863101 
L 142.667815 263.80568 
L 142.822762 263.28889 
L 143.287604 262.7721 
L 145.301916 262.197889 
L 146.076651 262.025626 
L 146.386545 261.968205 
L 149.33054 261.795941 
L 152.584429 261.336572 
L 152.739376 261.22173 
L 157.387789 261.049467 
L 161.726308 260.590098 
L 162.501043 259.901045 
L 162.65599 259.728781 
L 163.74062 259.499097 
L 164.82525 258.982307 
L 165.290091 258.752622 
L 165.754932 258.63778 
L 166.529668 258.465517 
L 166.839562 258.235832 
L 167.149456 258.178411 
L 167.45935 257.833884 
L 169.938504 257.431937 
L 171.333028 257.202252 
L 172.572605 256.857725 
L 172.882499 256.340935 
L 173.192393 256.226093 
L 175.361652 256.05383 
L 177.375965 255.824145 
L 178.615541 255.53704 
L 180.010065 255.02025 
L 181.249642 254.847986 
L 181.714483 254.733144 
L 181.86943 254.446039 
L 182.179325 252.95309 
L 184.193637 252.149194 
L 184.348584 251.804667 
L 184.658478 251.747246 
L 184.968372 251.058193 
L 185.588161 250.771087 
L 185.743108 250.311718 
L 186.053002 250.024613 
L 186.982685 249.794928 
L 187.137632 249.680086 
L 187.75742 249.507823 
L 188.687103 248.531664 
L 188.996997 247.84261 
L 189.306891 247.555505 
L 189.926679 246.866451 
L 190.391521 246.751609 
L 191.786044 245.947713 
L 192.715727 245.77545 
L 193.335515 245.086397 
L 193.64541 243.995396 
L 193.955304 243.650869 
L 194.110251 243.478605 
L 194.575092 241.985656 
L 194.730039 241.755972 
L 194.884986 241.296603 
L 195.194881 241.12434 
L 195.814669 240.664971 
L 196.434457 240.320444 
L 196.744352 240.09076 
L 196.899299 239.688812 
L 197.519087 239.344285 
L 197.828981 238.999758 
L 197.983928 238.655232 
L 198.44877 238.368126 
L 198.913611 236.932598 
L 199.068558 236.875177 
L 199.533399 236.358387 
L 199.843293 236.243545 
L 200.153188 235.784176 
L 200.618029 234.922859 
L 201.237817 234.808017 
L 201.547712 234.46349 
L 202.1675 234.406069 
L 202.632341 233.889279 
L 202.942235 233.774437 
L 203.097182 233.487331 
L 203.407077 233.42991 
L 204.801601 233.315068 
L 204.956548 232.683436 
L 205.421389 232.568594 
L 205.731283 232.338909 
L 206.815913 232.166646 
L 207.125807 231.994382 
L 207.900542 231.822119 
L 210.069802 231.018223 
L 210.224749 230.616276 
L 210.534643 230.444012 
L 211.154431 230.271749 
L 211.309379 229.927222 
L 212.084114 229.81238 
L 212.394008 229.467853 
L 213.168744 229.29559 
L 215.338003 229.180748 
L 216.887474 228.836221 
L 217.662209 228.549115 
L 217.817157 228.147168 
L 217.972104 228.089747 
L 218.746839 226.941324 
L 219.986416 226.539376 
L 220.29631 226.309692 
L 220.451257 226.022586 
L 221.071046 225.792902 
L 221.535887 225.67806 
L 221.845781 224.816743 
L 222.155675 224.587059 
L 223.085358 222.692162 
L 223.240305 222.577319 
L 223.705146 221.773424 
L 224.01504 221.486318 
L 224.169987 220.797265 
L 224.479882 220.510159 
L 225.09967 219.01721 
L 225.254617 218.959789 
L 225.409564 218.730105 
L 225.564511 218.213315 
L 225.874406 218.041051 
L 226.1843 217.179735 
L 226.494194 216.662945 
L 226.804088 216.548102 
L 227.423876 215.169996 
L 227.733771 214.710627 
L 228.043665 214.653206 
L 228.973347 213.619625 
L 229.128295 213.160257 
L 230.367871 212.643466 
L 230.522818 212.241519 
L 230.677765 212.184098 
L 230.832713 211.78215 
L 230.98766 211.724729 
L 232.382184 211.552465 
L 232.537131 211.322781 
L 233.001972 211.26536 
L 233.156919 210.74857 
L 233.776707 210.633727 
L 234.861337 210.576306 
L 235.945967 210.002095 
L 237.495438 209.829832 
L 238.115226 209.71499 
L 238.735014 209.370463 
L 240.284485 209.255621 
L 241.369115 208.853673 
L 241.833956 207.016197 
L 242.608692 206.901355 
L 243.073533 206.269723 
L 243.693322 206.15488 
L 244.003216 205.982617 
L 245.707634 205.867775 
L 247.102158 205.523248 
L 247.876893 205.465827 
L 249.271417 205.063879 
L 256.398983 204.489668 
L 256.55393 204.317405 
L 257.63856 204.145141 
L 257.948454 203.685772 
L 258.413296 201.561191 
L 258.568243 201.331507 
L 259.188031 201.101822 
L 259.342978 200.355348 
L 259.497925 200.240506 
L 259.652872 199.838558 
L 259.807819 199.781137 
L 260.117714 199.43661 
L 260.582555 197.943661 
L 260.892449 197.312029 
L 261.512238 196.967502 
L 261.667185 196.680396 
L 261.822132 196.048764 
L 262.286973 195.589395 
L 262.44192 195.30229 
L 262.751814 194.383552 
L 262.906761 194.26871 
L 263.52655 191.684759 
L 264.611179 186.229753 
L 265.230968 183.760645 
L 265.540862 183.358698 
L 265.850756 183.129013 
L 266.16065 181.693485 
L 266.470545 181.40638 
L 266.935386 181.061853 
L 267.400227 179.970852 
L 267.710121 179.511483 
L 268.020016 178.707587 
L 268.484857 177.961113 
L 269.879381 176.81269 
L 270.344222 175.836531 
L 270.654116 175.434584 
L 271.738746 175.319741 
L 272.823376 175.26232 
L 273.13327 175.090057 
L 274.217899 174.975215 
L 274.992635 174.515846 
L 275.612423 174.286161 
L 276.542106 173.080318 
L 276.697053 172.908055 
L 277.161894 172.16158 
L 277.471788 171.874475 
L 277.781683 171.64479 
L 278.556418 170.036999 
L 279.176206 169.233103 
L 280.105889 167.854996 
L 280.415783 167.165943 
L 280.725677 166.99368 
L 281.035572 166.132363 
L 282.275148 164.352308 
L 283.669672 163.950361 
L 283.979566 161.940622 
L 284.289461 161.768358 
L 284.599355 161.194147 
L 285.219143 160.84962 
L 285.37409 160.562515 
L 285.683984 160.390251 
L 285.993879 159.758619 
L 286.148826 157.74888 
L 286.768614 156.944984 
L 286.923561 156.887563 
L 287.078508 155.968826 
L 287.233455 155.739141 
L 287.698297 155.624299 
L 287.853244 154.877824 
L 288.163138 154.705561 
L 288.473032 153.844244 
L 288.782926 153.499718 
L 289.092821 153.384875 
L 290.022503 153.327454 
L 290.952186 153.155191 
L 292.036815 153.09777 
L 297.305017 152.351295 
L 297.459964 152.121611 
L 297.769858 151.202873 
L 297.924805 151.145452 
L 298.389646 150.456398 
L 298.69954 148.389238 
L 298.854488 147.700185 
L 299.009435 147.527922 
L 299.474276 146.264657 
L 299.78417 145.862709 
L 300.094064 145.518183 
L 300.403959 145.345919 
L 300.558906 145.058814 
L 301.178694 142.991653 
L 301.798482 140.465124 
L 302.418271 140.120598 
L 302.728165 139.661229 
L 303.038059 139.029596 
L 307.221631 138.914754 
L 307.996366 138.455385 
L 308.926049 138.340543 
L 309.235943 137.65149 
L 309.700784 137.536647 
L 310.165626 137.306963 
L 310.785414 136.10112 
L 311.250255 135.814014 
L 311.405202 135.412066 
L 311.870044 135.354645 
L 312.179938 135.124961 
L 312.489832 134.206223 
L 312.799726 133.230064 
L 312.954673 133.172643 
L 313.419515 132.828116 
L 314.039303 132.713274 
L 319.462451 132.368747 
L 320.547081 132.196484 
L 321.321816 132.02422 
L 321.631711 131.966799 
L 331.238431 131.277746 
L 332.168113 131.048061 
L 333.872531 130.760956 
L 338.985785 130.47385 
L 343.324304 130.186745 
L 348.437558 128.866059 
L 348.902399 128.578953 
L 349.987029 128.464111 
L 350.606818 127.430531 
L 351.5365 126.626636 
L 351.691447 126.33953 
L 352.156288 126.282109 
L 352.311236 126.109845 
L 353.705759 125.82274 
L 353.860707 125.707898 
L 355.720072 125.535634 
L 368.735628 125.478213 
L 368.890575 125.30595 
L 376.482983 125.018844 
L 377.257718 124.961423 
L 377.567612 124.78916 
L 377.722559 124.502054 
L 381.751184 124.444633 
L 384.850126 123.640738 
L 385.779808 123.583316 
L 386.399597 123.411053 
L 386.554544 123.009105 
L 387.019385 122.779421 
L 387.484226 121.860683 
L 387.79412 121.68842 
L 388.104015 121.17163 
L 388.568856 121.056787 
L 388.87875 120.138049 
L 389.188644 119.334154 
L 389.343591 119.219312 
L 390.273274 118.874785 
L 390.428221 118.587679 
L 390.738115 118.472837 
L 392.752428 118.12831 
L 398.020629 117.956047 
L 399.105258 117.668941 
L 399.415153 117.496678 
L 399.725047 117.09473 
L 400.034941 116.290835 
L 400.499782 115.946308 
L 402.669042 115.716624 
L 403.443777 115.54436 
L 403.598724 115.372097 
L 404.218513 115.142412 
L 404.683354 114.51078 
L 410.261449 114.108832 
L 411.501026 113.419779 
L 411.81092 113.017831 
L 413.050497 112.902989 
L 413.205444 112.730726 
L 413.515338 112.673304 
L 413.98018 112.44362 
L 414.135127 111.984251 
L 414.290074 111.92683 
L 414.599968 111.352619 
L 415.374704 110.319039 
L 415.529651 109.515143 
L 415.684598 109.34288 
L 416.149439 108.998353 
L 416.459333 108.653826 
L 416.61428 108.251879 
L 417.69891 107.964773 
L 418.163751 106.816351 
L 418.628593 106.529245 
L 418.938487 105.782771 
L 420.023116 104.691769 
L 420.178063 104.576927 
L 420.952799 104.519506 
L 421.107746 103.945295 
L 422.037429 103.371084 
L 426.995736 102.969136 
L 427.460577 102.68203 
L 428.545207 102.567188 
L 429.319942 102.394925 
L 429.474889 102.050398 
L 431.334254 101.476187 
L 432.10899 101.246502 
L 432.573831 100.500028 
L 433.038672 100.327765 
L 433.19362 99.868396 
L 435.672773 99.351606 
L 437.842032 99.236763 
L 438.616768 98.777395 
L 439.081609 98.490289 
L 440.011292 98.432868 
L 440.321186 98.145762 
L 442.335498 97.858657 
L 442.490445 97.341867 
L 442.955287 97.227024 
L 443.575075 96.595392 
L 443.730022 96.537971 
L 443.884969 96.193444 
L 445.279493 95.848918 
L 445.589387 95.561812 
L 446.51907 93.552073 
L 446.674017 93.494652 
L 447.293805 92.633335 
L 451.167483 92.173966 
L 451.632324 91.82944 
L 455.660948 91.427492 
L 456.745578 91.025544 
L 458.604943 90.910702 
L 459.689573 90.049385 
L 459.84452 89.8197 
L 460.154414 88.900963 
L 460.774203 88.499015 
L 460.92915 88.097067 
L 461.084097 86.317012 
L 461.393991 86.20217 
L 461.548938 85.857644 
L 461.858832 85.742801 
L 462.013779 85.513117 
L 462.323674 82.756903 
L 462.478621 82.412377 
L 462.943462 80.345216 
L 463.098409 80.172953 
L 463.408303 78.96711 
L 463.56325 77.359318 
L 463.873144 76.096054 
L 464.337986 72.765629 
L 464.957774 72.076576 
L 465.422615 69.951995 
L 465.73251 69.664889 
L 465.887457 69.377783 
L 467.127033 63.52083 
L 467.436928 62.889197 
L 468.056716 58.525193 
L 468.676504 54.965083 
L 469.141346 54.333451 
L 469.45124 53.75924 
L 470.071028 53.299871 
L 470.845764 51.806922 
L 471.465552 51.749501 
L 471.930393 51.577238 
L 472.240288 50.486236 
L 472.550182 48.706182 
L 472.550182 48.706182 
" clip-path="url(#pd71387717a)" style="fill: none; stroke: #002d72; stroke-width: 1.5; stroke-linecap: square"/>
   </g>
   <g id="patch_3">
    <path d="M 61.584 305.792 
L 61.584 36.464 
" style="fill: none; stroke: #8a8a8a; stroke-linejoin: miter; stroke-linecap: square"/>
   </g>
   <g id="patch_4">
    <path d="M 61.584 305.792 
L 492.12 305.792 
" style="fill: none; stroke: #8a8a8a; stroke-linejoin: miter; stroke-linecap: square"/>
   </g>
   <g id="text_15">
    <!-- Cumulative commits over time -->
    <g style="fill: #002d72" transform="translate(171.821141 24.464) scale(0.13 -0.13)">
     <defs>
      <path id="Montserrat-Bold-2d" d="M 2675 -77 
Q 2157 -77 1712 92 
Q 1267 262 940 576 
Q 614 890 432 1312 
Q 250 1734 250 2240 
Q 250 2746 432 3168 
Q 614 3590 944 3904 
Q 1274 4218 1715 4387 
Q 2157 4557 2682 4557 
Q 3264 4557 3734 4355 
Q 4205 4154 4525 3763 
L 3859 3149 
Q 3629 3411 3347 3542 
Q 3066 3674 2733 3674 
Q 2419 3674 2156 3571 
Q 1894 3469 1702 3277 
Q 1510 3085 1404 2822 
Q 1299 2560 1299 2240 
Q 1299 1920 1404 1657 
Q 1510 1395 1702 1203 
Q 1894 1011 2156 908 
Q 2419 806 2733 806 
Q 3066 806 3347 937 
Q 3629 1069 3859 1338 
L 4525 723 
Q 4205 333 3734 128 
Q 3264 -77 2675 -77 
z
" transform="scale(0.015625)"/>
      <path id="Montserrat-Bold-383" d="M 1914 -51 
Q 1485 -51 1149 115 
Q 813 282 627 624 
Q 442 966 442 1498 
L 442 3443 
L 1440 3443 
L 1440 1645 
Q 1440 1216 1622 1014 
Q 1805 813 2138 813 
Q 2368 813 2547 912 
Q 2726 1011 2828 1219 
Q 2931 1427 2931 1741 
L 2931 3443 
L 3930 3443 
L 3930 0 
L 2982 0 
L 2982 947 
L 3155 672 
Q 2982 314 2646 131 
Q 2310 -51 1914 -51 
z
" transform="scale(0.015625)"/>
      <path id="Montserrat-Bold-312" d="M 461 0 
L 461 3443 
L 1414 3443 
L 1414 2502 
L 1235 2778 
Q 1414 3130 1744 3312 
Q 2074 3494 2496 3494 
Q 2970 3494 3325 3254 
Q 3680 3014 3795 2522 
L 3443 2618 
Q 3616 3021 3997 3257 
Q 4378 3494 4870 3494 
Q 5280 3494 5597 3331 
Q 5914 3168 6096 2832 
Q 6278 2496 6278 1971 
L 6278 0 
L 5280 0 
L 5280 1818 
Q 5280 2234 5107 2432 
Q 4934 2630 4621 2630 
Q 4403 2630 4230 2531 
Q 4058 2432 3962 2233 
Q 3866 2035 3866 1728 
L 3866 0 
L 2867 0 
L 2867 1818 
Q 2867 2234 2697 2432 
Q 2528 2630 2214 2630 
Q 1997 2630 1824 2531 
Q 1651 2432 1555 2233 
Q 1459 2035 1459 1728 
L 1459 0 
L 461 0 
z
" transform="scale(0.015625)"/>
      <path id="Montserrat-Bold-301" d="M 461 0 
L 461 4749 
L 1459 4749 
L 1459 0 
L 461 0 
z
" transform="scale(0.015625)"/>
      <path id="Montserrat-Bold-24c" d="M 2573 0 
L 2573 672 
L 2509 819 
L 2509 2022 
Q 2509 2342 2313 2521 
Q 2118 2701 1715 2701 
Q 1440 2701 1174 2614 
Q 909 2528 723 2381 
L 365 3078 
Q 646 3277 1043 3385 
Q 1440 3494 1850 3494 
Q 2637 3494 3072 3123 
Q 3507 2752 3507 1965 
L 3507 0 
L 2573 0 
z
M 1523 -51 
Q 1120 -51 832 86 
Q 544 224 390 461 
Q 237 698 237 992 
Q 237 1299 387 1529 
Q 538 1760 864 1891 
Q 1190 2022 1715 2022 
L 2630 2022 
L 2630 1440 
L 1824 1440 
Q 1472 1440 1341 1325 
Q 1210 1210 1210 1037 
Q 1210 845 1360 733 
Q 1510 621 1773 621 
Q 2022 621 2220 739 
Q 2419 858 2509 1088 
L 2662 627 
Q 2554 294 2266 121 
Q 1978 -51 1523 -51 
z
" transform="scale(0.015625)"/>
      <path id="Montserrat-Bold-375" d="M 1869 -51 
Q 1261 -51 921 259 
Q 582 570 582 1184 
L 582 4205 
L 1581 4205 
L 1581 1197 
Q 1581 979 1696 860 
Q 1811 742 2010 742 
Q 2246 742 2413 870 
L 2682 166 
Q 2528 58 2313 3 
Q 2099 -51 1869 -51 
z
M 51 2675 
L 51 3443 
L 2438 3443 
L 2438 2675 
L 51 2675 
z
" transform="scale(0.015625)"/>
      <path id="Montserrat-Bold-2d7" d="M 461 0 
L 461 3443 
L 1459 3443 
L 1459 0 
L 461 0 
z
M 960 3923 
Q 685 3923 512 4083 
Q 339 4243 339 4480 
Q 339 4717 512 4877 
Q 685 5037 960 5037 
Q 1235 5037 1408 4886 
Q 1581 4736 1581 4499 
Q 1581 4250 1411 4086 
Q 1242 3923 960 3923 
z
" transform="scale(0.015625)"/>
      <path id="Montserrat-Bold-3a4" d="M 1395 0 
L -51 3443 
L 979 3443 
L 2182 480 
L 1670 480 
L 2918 3443 
L 3878 3443 
L 2426 0 
L 1395 0 
z
" transform="scale(0.015625)"/>
      <path id="Montserrat-Bold-295" d="M 2170 -51 
Q 1581 -51 1136 179 
Q 691 410 448 810 
Q 205 1210 205 1722 
Q 205 2240 445 2640 
Q 685 3040 1101 3267 
Q 1517 3494 2042 3494 
Q 2547 3494 2953 3280 
Q 3360 3066 3597 2666 
Q 3834 2266 3834 1709 
Q 3834 1651 3827 1577 
Q 3821 1504 3814 1440 
L 1018 1440 
L 1018 2022 
L 3290 2022 
L 2906 1850 
Q 2906 2118 2797 2316 
Q 2688 2515 2496 2627 
Q 2304 2739 2048 2739 
Q 1792 2739 1597 2627 
Q 1402 2515 1293 2313 
Q 1184 2112 1184 1837 
L 1184 1683 
Q 1184 1402 1309 1187 
Q 1434 973 1661 861 
Q 1888 749 2195 749 
Q 2470 749 2678 832 
Q 2886 915 3059 1082 
L 3590 506 
Q 3354 237 2995 93 
Q 2637 -51 2170 -51 
z
" transform="scale(0.015625)"/>
      <path id="Montserrat-Bold-8bd" transform="scale(0.015625)"/>
      <path id="Montserrat-Bold-27a" d="M 2125 -51 
Q 1568 -51 1133 176 
Q 698 403 451 806 
Q 205 1210 205 1722 
Q 205 2240 451 2640 
Q 698 3040 1133 3267 
Q 1568 3494 2125 3494 
Q 2669 3494 3072 3267 
Q 3475 3040 3667 2618 
L 2893 2202 
Q 2758 2445 2556 2560 
Q 2355 2675 2118 2675 
Q 1862 2675 1657 2560 
Q 1453 2445 1334 2233 
Q 1216 2022 1216 1722 
Q 1216 1421 1334 1209 
Q 1453 998 1657 883 
Q 1862 768 2118 768 
Q 2355 768 2556 880 
Q 2758 992 2893 1242 
L 3667 819 
Q 3475 403 3072 176 
Q 2669 -51 2125 -51 
z
" transform="scale(0.015625)"/>
      <path id="Montserrat-Bold-327" d="M 2099 -51 
Q 1549 -51 1123 179 
Q 698 410 451 810 
Q 205 1210 205 1722 
Q 205 2240 451 2640 
Q 698 3040 1123 3267 
Q 1549 3494 2099 3494 
Q 2643 3494 3072 3267 
Q 3501 3040 3744 2643 
Q 3987 2246 3987 1722 
Q 3987 1210 3744 810 
Q 3501 410 3072 179 
Q 2643 -51 2099 -51 
z
M 2099 768 
Q 2349 768 2547 883 
Q 2746 998 2861 1212 
Q 2976 1427 2976 1722 
Q 2976 2022 2861 2233 
Q 2746 2445 2547 2560 
Q 2349 2675 2099 2675 
Q 1850 2675 1651 2560 
Q 1453 2445 1334 2233 
Q 1216 2022 1216 1722 
Q 1216 1427 1334 1212 
Q 1453 998 1651 883 
Q 1850 768 2099 768 
z
" transform="scale(0.015625)"/>
      <path id="Montserrat-Bold-367" d="M 1619 -51 
Q 1178 -51 771 54 
Q 365 160 128 320 
L 461 1037 
Q 698 890 1021 797 
Q 1344 704 1658 704 
Q 2003 704 2147 787 
Q 2291 870 2291 1018 
Q 2291 1139 2179 1200 
Q 2067 1261 1881 1293 
Q 1696 1325 1475 1357 
Q 1254 1389 1030 1443 
Q 806 1498 620 1606 
Q 435 1715 323 1900 
Q 211 2086 211 2381 
Q 211 2707 400 2956 
Q 589 3206 947 3350 
Q 1306 3494 1805 3494 
Q 2157 3494 2521 3417 
Q 2886 3341 3130 3194 
L 2797 2483 
Q 2547 2630 2294 2684 
Q 2042 2739 1805 2739 
Q 1472 2739 1318 2649 
Q 1165 2560 1165 2419 
Q 1165 2291 1277 2227 
Q 1389 2163 1574 2124 
Q 1760 2086 1981 2057 
Q 2202 2029 2426 1971 
Q 2650 1914 2832 1808 
Q 3014 1702 3129 1520 
Q 3245 1338 3245 1043 
Q 3245 723 3053 476 
Q 2861 230 2499 89 
Q 2138 -51 1619 -51 
z
" transform="scale(0.015625)"/>
      <path id="Montserrat-Bold-359" d="M 461 0 
L 461 3443 
L 1414 3443 
L 1414 2470 
L 1280 2752 
Q 1434 3117 1773 3305 
Q 2112 3494 2598 3494 
L 2598 2573 
Q 2534 2579 2483 2582 
Q 2432 2586 2374 2586 
Q 1965 2586 1712 2352 
Q 1459 2118 1459 1626 
L 1459 0 
L 461 0 
z
" transform="scale(0.015625)"/>
     </defs>
     <use xlink:href="#Montserrat-Bold-2d"/>
     <use xlink:href="#Montserrat-Bold-383" transform="translate(71 0)"/>
     <use xlink:href="#Montserrat-Bold-312" transform="translate(139.703125 0)"/>
     <use xlink:href="#Montserrat-Bold-383" transform="translate(244.609375 0)"/>
     <use xlink:href="#Montserrat-Bold-301" transform="translate(313.3125 0)"/>
     <use xlink:href="#Montserrat-Bold-24c" transform="translate(343.40625 0)"/>
     <use xlink:href="#Montserrat-Bold-375" transform="translate(405.109375 0)"/>
     <use xlink:href="#Montserrat-Bold-2d7" transform="translate(448.609375 0)"/>
     <use xlink:href="#Montserrat-Bold-3a4" transform="translate(478.703125 0)"/>
     <use xlink:href="#Montserrat-Bold-295" transform="translate(537 0)"/>
     <use xlink:href="#Montserrat-Bold-8bd" transform="translate(600.09375 0)"/>
     <use xlink:href="#Montserrat-Bold-27a" transform="translate(628.390625 0)"/>
     <use xlink:href="#Montserrat-Bold-327" transform="translate(686.78125 0)"/>
     <use xlink:href="#Montserrat-Bold-312" transform="translate(752.28125 0)"/>
     <use xlink:href="#Montserrat-Bold-312" transform="translate(857.1875 0)"/>
     <use xlink:href="#Montserrat-Bold-2d7" transform="translate(962.09375 0)"/>
     <use xlink:href="#Montserrat-Bold-375" transform="translate(992.1875 0)"/>
     <use xlink:href="#Montserrat-Bold-367" transform="translate(1035.6875 0)"/>
     <use xlink:href="#Montserrat-Bold-8bd" transform="translate(1088.78125 0)"/>
     <use xlink:href="#Montserrat-Bold-327" transform="translate(1117.078125 0)"/>
     <use xlink:href="#Montserrat-Bold-3a4" transform="translate(1181.078125 0)"/>
     <use xlink:href="#Montserrat-Bold-295" transform="translate(1239.375 0)"/>
     <use xlink:href="#Montserrat-Bold-359" transform="translate(1302.46875 0)"/>
     <use xlink:href="#Montserrat-Bold-8bd" transform="translate(1345.5625 0)"/>
     <use xlink:href="#Montserrat-Bold-375" transform="translate(1373.859375 0)"/>
     <use xlink:href="#Montserrat-Bold-2d7" transform="translate(1417.359375 0)"/>
     <use xlink:href="#Montserrat-Bold-312" transform="translate(1447.453125 0)"/>
     <use xlink:href="#Montserrat-Bold-295" transform="translate(1552.765625 0)"/>
    </g>
   </g>
  </g>
 </g>
 <defs>
  <clipPath id="pd71387717a">
   <rect x="61.584" y="36.464" width="430.536" height="269.328"/>
  </clipPath>
 </defs>
</svg>
