<?xml version="1.0" encoding="utf-8" standalone="no"?>
<!DOCTYPE svg PUBLIC "-//W3C//DTD SVG 1.1//EN"
  "http://www.w3.org/Graphics/SVG/1.1/DTD/svg11.dtd">
<svg xmlns:xlink="http://www.w3.org/1999/xlink" width="504pt" height="360pt" viewBox="0 0 504 360" xmlns="http://www.w3.org/2000/svg" version="1.1">
 <metadata>
  <rdf:RDF xmlns:dc="http://purl.org/dc/elements/1.1/" xmlns:cc="http://creativecommons.org/ns#" xmlns:rdf="http://www.w3.org/1999/02/22-rdf-syntax-ns#">
   <cc:Work>
    <dc:type rdf:resource="http://purl.org/dc/dcmitype/StillImage"/>
    <dc:date>2026-09-03T10:11:02.238065</dc:date>
    <dc:format>image/svg+xml</dc:format>
    <dc:creator>
     <cc:Agent>
      <dc:title>Matplotlib v3.11.1, https://matplotlib.org/</dc:title>
     </cc:Agent>
    </dc:creator>
   </cc:Work>
  </rdf:RDF>
 </metadata>
 <defs>
  <style type="text/css">*{stroke-linejoin: round; stroke-linecap: butt}</style>
 </defs>
 <g id="figure_1">
  <g id="patch_1">
   <path d="M 0 360 
L 504 360 
L 504 0 
L 0 0 
L 0 360 
z
" style="fill: none"/>
  </g>
  <g id="axes_1">
   <g id="patch_2">
    <path d="M 61.584 305.792 
L 481.68167 305.792 
L 481.68167 36.464 
L 61.584 36.464 
L 61.584 305.792 
z
" style="fill: none"/>
   </g>
   <g id="matplotlib.axis_1">
    <g id="xtick_1">
     <g id="line2d_1">
      <defs>
       <path id="mbeec637e46" d="M 0 0 
L 0 3.5 
" style="stroke: #1c2531; stroke-width: 0.8"/>
      </defs>
      <g>
       <use xlink:href="#mbeec637e46" x="101.575306" y="305.792" style="fill: #1c2531; stroke: #1c2531; stroke-width: 0.8"/>
      </g>
     </g>
     <g id="text_1">
      <!-- 2020 -->
      <g style="fill: #1c2531" transform="translate(90.640619 324.056) scale(0.11 -0.11)">
       <defs>
        <path id="SourceSans3-Regular-537" d="M 256 0 
L 256 320 
Q 864 922 1296 1386 
Q 1728 1850 1952 2227 
Q 2176 2605 2176 2931 
Q 2176 3283 1984 3507 
Q 1792 3731 1402 3731 
Q 1146 3731 928 3590 
Q 710 3450 531 3238 
L 237 3526 
Q 493 3814 784 3987 
Q 1075 4160 1466 4160 
Q 1843 4160 2118 4009 
Q 2394 3859 2541 3590 
Q 2688 3322 2688 2963 
Q 2688 2566 2467 2176 
Q 2246 1786 1862 1357 
Q 1478 928 979 416 
Q 1146 435 1325 444 
Q 1504 454 1664 454 
L 2893 454 
L 2893 0 
L 256 0 
z
" transform="scale(0.015625)"/>
        <path id="SourceSans3-Regular-535" d="M 1594 -77 
Q 979 -77 630 476 
Q 282 1030 282 2054 
Q 282 3085 630 3622 
Q 979 4160 1594 4160 
Q 2202 4160 2550 3619 
Q 2899 3078 2899 2054 
Q 2899 1030 2550 476 
Q 2202 -77 1594 -77 
z
M 1594 346 
Q 1830 346 2009 525 
Q 2189 704 2288 1081 
Q 2387 1459 2387 2054 
Q 2387 2656 2288 3027 
Q 2189 3398 2009 3568 
Q 1830 3738 1594 3738 
Q 1350 3738 1171 3568 
Q 992 3398 893 3027 
Q 794 2656 794 2054 
Q 794 1459 893 1081 
Q 992 704 1171 525 
Q 1350 346 1594 346 
z
" transform="scale(0.015625)"/>
       </defs>
       <use xlink:href="#SourceSans3-Regular-537"/>
       <use xlink:href="#SourceSans3-Regular-535" transform="translate(49.703125 0)"/>
       <use xlink:href="#SourceSans3-Regular-537" transform="translate(99.40625 0)"/>
       <use xlink:href="#SourceSans3-Regular-535" transform="translate(149.109375 0)"/>
      </g>
     </g>
    </g>
    <g id="xtick_2">
     <g id="line2d_2">
      <g>
       <use xlink:href="#mbeec637e46" x="155.815878" y="305.792" style="fill: #1c2531; stroke: #1c2531; stroke-width: 0.8"/>
      </g>
     </g>
     <g id="text_2">
      <!-- 2021 -->
      <g style="fill: #1c2531" transform="translate(144.88119 324.056) scale(0.11 -0.11)">
       <defs>
        <path id="SourceSans3-Regular-536" d="M 506 0 
L 506 435 
L 1440 435 
L 1440 3443 
L 698 3443 
L 698 3782 
Q 973 3834 1184 3907 
Q 1395 3981 1562 4083 
L 1965 4083 
L 1965 435 
L 2810 435 
L 2810 0 
L 506 0 
z
" transform="scale(0.015625)"/>
       </defs>
       <use xlink:href="#SourceSans3-Regular-537"/>
       <use xlink:href="#SourceSans3-Regular-535" transform="translate(49.703125 0)"/>
       <use xlink:href="#SourceSans3-Regular-537" transform="translate(99.40625 0)"/>
       <use xlink:href="#SourceSans3-Regular-536" transform="translate(149.109375 0)"/>
      </g>
     </g>
    </g>
    <g id="xtick_3">
     <g id="line2d_3">
      <g>
       <use xlink:href="#mbeec637e46" x="209.908251" y="305.792" style="fill: #1c2531; stroke: #1c2531; stroke-width: 0.8"/>
      </g>
     </g>
     <g id="text_3">
      <!-- 2022 -->
      <g style="fill: #1c2531" transform="translate(198.973563 324.056) scale(0.11 -0.11)">
       <use xlink:href="#SourceSans3-Regular-537"/>
       <use xlink:href="#SourceSans3-Regular-535" transform="translate(49.703125 0)"/>
       <use xlink:href="#SourceSans3-Regular-537" transform="translate(99.40625 0)"/>
       <use xlink:href="#SourceSans3-Regular-537" transform="translate(149.109375 0)"/>
      </g>
     </g>
    </g>
    <g id="xtick_4">
     <g id="line2d_4">
      <g>
       <use xlink:href="#mbeec637e46" x="264.000623" y="305.792" style="fill: #1c2531; stroke: #1c2531; stroke-width: 0.8"/>
      </g>
     </g>
     <g id="text_4">
      <!-- 2023 -->
      <g style="fill: #1c2531" transform="translate(253.065936 324.056) scale(0.11 -0.11)">
       <defs>
        <path id="SourceSans3-Regular-538" d="M 1510 -77 
Q 1184 -77 931 6 
Q 678 90 492 218 
Q 307 346 166 499 
L 435 845 
Q 621 653 867 505 
Q 1114 358 1478 358 
Q 1850 358 2086 563 
Q 2323 768 2323 1107 
Q 2323 1350 2198 1532 
Q 2074 1715 1789 1817 
Q 1504 1920 1018 1920 
L 1018 2323 
Q 1453 2323 1705 2425 
Q 1958 2528 2067 2697 
Q 2176 2867 2176 3085 
Q 2176 3386 1987 3558 
Q 1798 3731 1472 3731 
Q 1216 3731 998 3616 
Q 781 3501 602 3315 
L 320 3648 
Q 557 3872 845 4016 
Q 1133 4160 1491 4160 
Q 1850 4160 2125 4038 
Q 2400 3917 2557 3686 
Q 2714 3456 2714 3123 
Q 2714 2752 2509 2515 
Q 2304 2278 1971 2150 
L 1971 2125 
Q 2221 2067 2419 1929 
Q 2618 1792 2736 1581 
Q 2854 1370 2854 1088 
Q 2854 723 2675 464 
Q 2496 205 2189 64 
Q 1882 -77 1510 -77 
z
" transform="scale(0.015625)"/>
       </defs>
       <use xlink:href="#SourceSans3-Regular-537"/>
       <use xlink:href="#SourceSans3-Regular-535" transform="translate(49.703125 0)"/>
       <use xlink:href="#SourceSans3-Regular-537" transform="translate(99.40625 0)"/>
       <use xlink:href="#SourceSans3-Regular-538" transform="translate(149.109375 0)"/>
      </g>
     </g>
    </g>
    <g id="xtick_5">
     <g id="line2d_5">
      <g>
       <use xlink:href="#mbeec637e46" x="318.092996" y="305.792" style="fill: #1c2531; stroke: #1c2531; stroke-width: 0.8"/>
      </g>
     </g>
     <g id="text_5">
      <!-- 2024 -->
      <g style="fill: #1c2531" transform="translate(307.158309 324.056) scale(0.11 -0.11)">
       <defs>
        <path id="SourceSans3-Regular-539" d="M 1946 0 
L 1946 2733 
Q 1946 2893 1958 3126 
Q 1971 3360 1978 3520 
L 1952 3520 
Q 1875 3373 1792 3235 
Q 1709 3098 1619 2944 
L 666 1549 
L 3002 1549 
L 3002 1126 
L 109 1126 
L 109 1472 
L 1856 4083 
L 2445 4083 
L 2445 0 
L 1946 0 
z
" transform="scale(0.015625)"/>
       </defs>
       <use xlink:href="#SourceSans3-Regular-537"/>
       <use xlink:href="#SourceSans3-Regular-535" transform="translate(49.703125 0)"/>
       <use xlink:href="#SourceSans3-Regular-537" transform="translate(99.40625 0)"/>
       <use xlink:href="#SourceSans3-Regular-539" transform="translate(149.109375 0)"/>
      </g>
     </g>
    </g>
    <g id="xtick_6">
     <g id="line2d_6">
      <g>
       <use xlink:href="#mbeec637e46" x="372.333568" y="305.792" style="fill: #1c2531; stroke: #1c2531; stroke-width: 0.8"/>
      </g>
     </g>
     <g id="text_6">
      <!-- 2025 -->
      <g style="fill: #1c2531" transform="translate(361.39888 324.056) scale(0.11 -0.11)">
       <defs>
        <path id="SourceSans3-Regular-53a" d="M 1498 -77 
Q 1171 -77 921 3 
Q 672 83 486 211 
Q 301 339 160 480 
L 416 826 
Q 602 646 845 502 
Q 1088 358 1446 358 
Q 1696 358 1897 473 
Q 2099 589 2220 797 
Q 2342 1005 2342 1293 
Q 2342 1715 2105 1952 
Q 1869 2189 1472 2189 
Q 1267 2189 1113 2125 
Q 960 2061 774 1939 
L 493 2118 
L 627 4083 
L 2669 4083 
L 2669 3629 
L 1088 3629 
L 979 2419 
Q 1126 2496 1273 2541 
Q 1421 2586 1606 2586 
Q 1958 2586 2246 2451 
Q 2534 2317 2704 2032 
Q 2874 1747 2874 1306 
Q 2874 864 2678 553 
Q 2483 243 2169 83 
Q 1856 -77 1498 -77 
z
" transform="scale(0.015625)"/>
       </defs>
       <use xlink:href="#SourceSans3-Regular-537"/>
       <use xlink:href="#SourceSans3-Regular-535" transform="translate(49.703125 0)"/>
       <use xlink:href="#SourceSans3-Regular-537" transform="translate(99.40625 0)"/>
       <use xlink:href="#SourceSans3-Regular-53a" transform="translate(149.109375 0)"/>
      </g>
     </g>
    </g>
    <g id="xtick_7">
     <g id="line2d_7">
      <g>
       <use xlink:href="#mbeec637e46" x="426.425941" y="305.792" style="fill: #1c2531; stroke: #1c2531; stroke-width: 0.8"/>
      </g>
     </g>
     <g id="text_7">
      <!-- 2026 -->
      <g style="fill: #1c2531" transform="translate(415.491253 324.056) scale(0.11 -0.11)">
       <defs>
        <path id="SourceSans3-Regular-53b" d="M 1715 -77 
Q 1414 -77 1158 44 
Q 902 166 713 412 
Q 525 659 416 1027 
Q 307 1395 307 1888 
Q 307 2502 435 2934 
Q 563 3366 780 3635 
Q 998 3904 1276 4032 
Q 1555 4160 1862 4160 
Q 2195 4160 2435 4035 
Q 2675 3910 2848 3725 
L 2554 3398 
Q 2432 3546 2253 3632 
Q 2074 3718 1882 3718 
Q 1594 3718 1347 3545 
Q 1101 3373 953 2973 
Q 806 2573 806 1888 
Q 806 1382 912 1036 
Q 1018 691 1222 515 
Q 1427 339 1715 339 
Q 1914 339 2077 451 
Q 2240 563 2333 764 
Q 2426 966 2426 1235 
Q 2426 1498 2342 1693 
Q 2259 1888 2092 1993 
Q 1926 2099 1670 2099 
Q 1472 2099 1238 1968 
Q 1005 1837 794 1523 
L 774 1939 
Q 973 2195 1235 2345 
Q 1498 2496 1760 2496 
Q 2112 2496 2374 2355 
Q 2637 2214 2781 1932 
Q 2925 1651 2925 1235 
Q 2925 845 2758 550 
Q 2592 256 2317 89 
Q 2042 -77 1715 -77 
z
" transform="scale(0.015625)"/>
       </defs>
       <use xlink:href="#SourceSans3-Regular-537"/>
       <use xlink:href="#SourceSans3-Regular-535" transform="translate(49.703125 0)"/>
       <use xlink:href="#SourceSans3-Regular-537" transform="translate(99.40625 0)"/>
       <use xlink:href="#SourceSans3-Regular-53b" transform="translate(149.109375 0)"/>
      </g>
     </g>
    </g>
    <g id="xtick_8">
     <g id="line2d_8">
      <g>
       <use xlink:href="#mbeec637e46" x="480.518314" y="305.792" style="fill: #1c2531; stroke: #1c2531; stroke-width: 0.8"/>
      </g>
     </g>
     <g id="text_8">
      <!-- 2027 -->
      <g style="fill: #1c2531" transform="translate(469.583626 324.056) scale(0.11 -0.11)">
       <defs>
        <path id="SourceSans3-Regular-53c" d="M 1094 0 
Q 1120 576 1200 1059 
Q 1280 1542 1424 1968 
Q 1568 2394 1789 2800 
Q 2010 3206 2323 3629 
L 282 3629 
L 282 4083 
L 2912 4083 
L 2912 3757 
Q 2547 3296 2307 2870 
Q 2067 2445 1929 2009 
Q 1792 1574 1728 1088 
Q 1664 602 1638 0 
L 1094 0 
z
" transform="scale(0.015625)"/>
       </defs>
       <use xlink:href="#SourceSans3-Regular-537"/>
       <use xlink:href="#SourceSans3-Regular-535" transform="translate(49.703125 0)"/>
       <use xlink:href="#SourceSans3-Regular-537" transform="translate(99.40625 0)"/>
       <use xlink:href="#SourceSans3-Regular-53c" transform="translate(149.109375 0)"/>
      </g>
     </g>
    </g>
    <g id="text_9">
     <!-- Date -->
     <g style="fill: #1c2531" transform="translate(261.046194 343.72) scale(0.11 -0.11)">
      <defs>
       <path id="SourceSans3-Regular-5" d="M 576 0 
L 576 4198 
L 1626 4198 
Q 2272 4198 2713 3955 
Q 3155 3712 3382 3248 
Q 3610 2784 3610 2118 
Q 3610 1453 3382 976 
Q 3155 499 2720 249 
Q 2285 0 1651 0 
L 576 0 
z
M 1107 435 
L 1587 435 
Q 2080 435 2406 636 
Q 2733 838 2893 1209 
Q 3053 1581 3053 2118 
Q 3053 2643 2893 3014 
Q 2733 3386 2406 3574 
Q 2080 3763 1587 3763 
L 1107 3763 
L 1107 435 
z
" transform="scale(0.015625)"/>
       <path id="SourceSans3-Regular-1c" d="M 1242 -77 
Q 986 -77 778 28 
Q 570 134 448 329 
Q 326 525 326 806 
Q 326 1331 787 1600 
Q 1248 1869 2246 1978 
Q 2240 2170 2185 2349 
Q 2131 2528 1990 2637 
Q 1850 2746 1600 2746 
Q 1331 2746 1094 2646 
Q 858 2547 672 2426 
L 467 2784 
Q 608 2880 800 2973 
Q 992 3066 1216 3126 
Q 1440 3187 1690 3187 
Q 2067 3187 2307 3030 
Q 2547 2874 2659 2586 
Q 2771 2298 2771 1907 
L 2771 0 
L 2336 0 
L 2291 371 
L 2272 371 
Q 2048 186 1792 54 
Q 1536 -77 1242 -77 
z
M 1389 358 
Q 1619 358 1820 460 
Q 2022 563 2246 762 
L 2246 1600 
Q 1722 1536 1418 1437 
Q 1114 1338 979 1190 
Q 845 1043 845 838 
Q 845 582 1005 470 
Q 1165 358 1389 358 
z
" transform="scale(0.015625)"/>
       <path id="SourceSans3-Regular-2f" d="M 1504 -58 
Q 1011 -58 812 230 
Q 614 518 614 979 
L 614 2682 
L 154 2682 
L 154 3078 
L 640 3110 
L 704 4109 
L 1146 4109 
L 1146 3110 
L 1990 3110 
L 1990 2682 
L 1146 2682 
L 1146 973 
Q 1146 691 1251 531 
Q 1357 371 1626 371 
Q 1709 371 1798 387 
Q 1888 403 1978 448 
L 2093 77 
Q 1971 19 1817 -19 
Q 1664 -58 1504 -58 
z
" transform="scale(0.015625)"/>
       <path id="SourceSans3-Regular-20" d="M 1786 -77 
Q 1370 -77 1027 118 
Q 685 314 486 675 
Q 288 1037 288 1555 
Q 288 2061 493 2425 
Q 698 2790 1018 2988 
Q 1338 3187 1696 3187 
Q 2093 3187 2371 3004 
Q 2650 2822 2790 2496 
Q 2931 2170 2931 1728 
Q 2931 1645 2928 1568 
Q 2925 1491 2906 1414 
L 666 1414 
L 666 1830 
L 2458 1830 
Q 2458 2278 2262 2518 
Q 2067 2758 1702 2758 
Q 1491 2758 1286 2640 
Q 1082 2522 950 2259 
Q 819 1997 819 1562 
Q 819 1165 956 896 
Q 1094 627 1331 489 
Q 1568 352 1850 352 
Q 2074 352 2269 416 
Q 2464 480 2624 589 
L 2816 243 
Q 2611 102 2358 12 
Q 2106 -77 1786 -77 
z
" transform="scale(0.015625)"/>
      </defs>
      <use xlink:href="#SourceSans3-Regular-5"/>
      <use xlink:href="#SourceSans3-Regular-1c" transform="translate(61.5 0)"/>
      <use xlink:href="#SourceSans3-Regular-2f" transform="translate(110.5 0)"/>
      <use xlink:href="#SourceSans3-Regular-20" transform="translate(142.890625 0)"/>
     </g>
    </g>
   </g>
   <g id="matplotlib.axis_2">
    <g id="ytick_1">
     <g id="line2d_9">
      <defs>
       <path id="mbf2d5a428c" d="M 0 0 
L -3.5 0 
" style="stroke: #1c2531; stroke-width: 0.8"/>
      </defs>
      <g>
       <use xlink:href="#mbf2d5a428c" x="61.584" y="277.843422" style="fill: #1c2531; stroke: #1c2531; stroke-width: 0.8"/>
      </g>
     </g>
     <g id="text_10">
      <!-- 1000 -->
      <g style="fill: #1c2531" transform="translate(32.714625 283.475422) scale(0.11 -0.11)">
       <use xlink:href="#SourceSans3-Regular-536"/>
       <use xlink:href="#SourceSans3-Regular-535" transform="translate(49.703125 0)"/>
       <use xlink:href="#SourceSans3-Regular-535" transform="translate(99.40625 0)"/>
       <use xlink:href="#SourceSans3-Regular-535" transform="translate(149.109375 0)"/>
      </g>
     </g>
    </g>
    <g id="ytick_2">
     <g id="line2d_10">
      <g>
       <use xlink:href="#mbf2d5a428c" x="61.584" y="228.913838" style="fill: #1c2531; stroke: #1c2531; stroke-width: 0.8"/>
      </g>
     </g>
     <g id="text_11">
      <!-- 2000 -->
      <g style="fill: #1c2531" transform="translate(32.714625 234.545838) scale(0.11 -0.11)">
       <use xlink:href="#SourceSans3-Regular-537"/>
       <use xlink:href="#SourceSans3-Regular-535" transform="translate(49.703125 0)"/>
       <use xlink:href="#SourceSans3-Regular-535" transform="translate(99.40625 0)"/>
       <use xlink:href="#SourceSans3-Regular-535" transform="translate(149.109375 0)"/>
      </g>
     </g>
    </g>
    <g id="ytick_3">
     <g id="line2d_11">
      <g>
       <use xlink:href="#mbf2d5a428c" x="61.584" y="179.984255" style="fill: #1c2531; stroke: #1c2531; stroke-width: 0.8"/>
      </g>
     </g>
     <g id="text_12">
      <!-- 3000 -->
      <g style="fill: #1c2531" transform="translate(32.714625 185.616255) scale(0.11 -0.11)">
       <use xlink:href="#SourceSans3-Regular-538"/>
       <use xlink:href="#SourceSans3-Regular-535" transform="translate(49.703125 0)"/>
       <use xlink:href="#SourceSans3-Regular-535" transform="translate(99.40625 0)"/>
       <use xlink:href="#SourceSans3-Regular-535" transform="translate(149.109375 0)"/>
      </g>
     </g>
    </g>
    <g id="ytick_4">
     <g id="line2d_12">
      <g>
       <use xlink:href="#mbf2d5a428c" x="61.584" y="131.054671" style="fill: #1c2531; stroke: #1c2531; stroke-width: 0.8"/>
      </g>
     </g>
     <g id="text_13">
      <!-- 4000 -->
      <g style="fill: #1c2531" transform="translate(32.714625 136.686671) scale(0.11 -0.11)">
       <use xlink:href="#SourceSans3-Regular-539"/>
       <use xlink:href="#SourceSans3-Regular-535" transform="translate(49.703125 0)"/>
       <use xlink:href="#SourceSans3-Regular-535" transform="translate(99.40625 0)"/>
       <use xlink:href="#SourceSans3-Regular-535" transform="translate(149.109375 0)"/>
      </g>
     </g>
    </g>
    <g id="ytick_5">
     <g id="line2d_13">
      <g>
       <use xlink:href="#mbf2d5a428c" x="61.584" y="82.125087" style="fill: #1c2531; stroke: #1c2531; stroke-width: 0.8"/>
      </g>
     </g>
     <g id="text_14">
      <!-- 5000 -->
      <g style="fill: #1c2531" transform="translate(32.714625 87.757087) scale(0.11 -0.11)">
       <use xlink:href="#SourceSans3-Regular-53a"/>
       <use xlink:href="#SourceSans3-Regular-535" transform="translate(49.703125 0)"/>
       <use xlink:href="#SourceSans3-Regular-535" transform="translate(99.40625 0)"/>
       <use xlink:href="#SourceSans3-Regular-535" transform="translate(149.109375 0)"/>
      </g>
     </g>
    </g>
    <g id="text_15">
     <!-- Cumulative commits -->
     <g style="fill: #1c2531" transform="translate(24.314625 218.395344) rotate(-90) scale(0.11 -0.11)">
      <defs>
       <path id="SourceSans3-Regular-4" d="M 2170 -77 
Q 1645 -77 1225 182 
Q 806 442 569 928 
Q 333 1414 333 2099 
Q 333 2605 470 3008 
Q 608 3411 864 3696 
Q 1120 3981 1456 4128 
Q 1792 4275 2195 4275 
Q 2573 4275 2870 4121 
Q 3168 3968 3347 3757 
L 3059 3430 
Q 2893 3610 2678 3709 
Q 2464 3808 2202 3808 
Q 1811 3808 1513 3600 
Q 1216 3392 1049 3011 
Q 883 2630 883 2112 
Q 883 1581 1043 1197 
Q 1203 813 1504 605 
Q 1805 397 2208 397 
Q 2502 397 2736 509 
Q 2970 621 3162 838 
L 3443 525 
Q 3194 237 2886 80 
Q 2579 -77 2170 -77 
z
" transform="scale(0.015625)"/>
       <path id="SourceSans3-Regular-30" d="M 1434 -77 
Q 941 -77 713 233 
Q 486 544 486 1139 
L 486 3110 
L 1011 3110 
L 1011 1210 
Q 1011 774 1148 579 
Q 1286 384 1594 384 
Q 1830 384 2019 509 
Q 2208 634 2432 902 
L 2432 3110 
L 2957 3110 
L 2957 0 
L 2522 0 
L 2477 486 
L 2458 486 
Q 2246 230 2000 76 
Q 1754 -77 1434 -77 
z
" transform="scale(0.015625)"/>
       <path id="SourceSans3-Regular-28" d="M 525 0 
L 525 3110 
L 960 3110 
L 1005 2662 
L 1024 2662 
Q 1229 2880 1469 3033 
Q 1709 3187 1990 3187 
Q 2349 3187 2550 3027 
Q 2752 2867 2848 2592 
Q 3091 2861 3340 3024 
Q 3590 3187 3872 3187 
Q 4358 3187 4588 2876 
Q 4819 2566 4819 1971 
L 4819 0 
L 4294 0 
L 4294 1901 
Q 4294 2342 4153 2537 
Q 4013 2733 3718 2733 
Q 3533 2733 3344 2614 
Q 3155 2496 2938 2253 
L 2938 0 
L 2413 0 
L 2413 1901 
Q 2413 2342 2272 2537 
Q 2131 2733 1830 2733 
Q 1478 2733 1050 2253 
L 1050 0 
L 525 0 
z
" transform="scale(0.015625)"/>
       <path id="SourceSans3-Regular-27" d="M 1082 -58 
Q 883 -58 761 22 
Q 640 102 582 259 
Q 525 416 525 640 
L 525 4557 
L 1050 4557 
L 1050 602 
Q 1050 474 1094 426 
Q 1139 378 1203 378 
Q 1229 378 1251 381 
Q 1274 384 1312 390 
L 1389 -6 
Q 1331 -26 1257 -42 
Q 1184 -58 1082 -58 
z
" transform="scale(0.015625)"/>
       <path id="SourceSans3-Regular-24" d="M 525 0 
L 525 3110 
L 1050 3110 
L 1050 0 
L 525 0 
z
M 787 3750 
Q 633 3750 534 3846 
Q 435 3942 435 4096 
Q 435 4250 534 4346 
Q 633 4442 787 4442 
Q 941 4442 1040 4346 
Q 1139 4250 1139 4096 
Q 1139 3942 1040 3846 
Q 941 3750 787 3750 
z
" transform="scale(0.015625)"/>
       <path id="SourceSans3-Regular-31" d="M 1197 0 
L 77 3110 
L 621 3110 
L 1210 1344 
Q 1280 1120 1353 886 
Q 1427 653 1498 429 
L 1523 429 
Q 1587 653 1664 886 
Q 1741 1120 1805 1344 
L 2394 3110 
L 2912 3110 
L 1811 0 
L 1197 0 
z
" transform="scale(0.015625)"/>
       <path id="SourceSans3-Regular-1" transform="scale(0.015625)"/>
       <path id="SourceSans3-Regular-1e" d="M 1760 -77 
Q 1344 -77 1011 115 
Q 678 307 486 672 
Q 294 1037 294 1549 
Q 294 2074 502 2438 
Q 710 2803 1052 2995 
Q 1395 3187 1792 3187 
Q 2099 3187 2320 3084 
Q 2541 2982 2701 2822 
L 2438 2496 
Q 2323 2611 2166 2678 
Q 2010 2746 1811 2746 
Q 1536 2746 1315 2595 
Q 1094 2445 966 2176 
Q 838 1907 838 1549 
Q 838 1197 960 928 
Q 1082 659 1299 508 
Q 1517 358 1805 358 
Q 2022 358 2208 441 
Q 2394 525 2528 653 
L 2758 333 
Q 2560 147 2310 35 
Q 2061 -77 1760 -77 
z
" transform="scale(0.015625)"/>
       <path id="SourceSans3-Regular-2a" d="M 1734 -77 
Q 1357 -77 1027 115 
Q 698 307 496 672 
Q 294 1037 294 1549 
Q 294 2074 496 2438 
Q 698 2803 1027 2995 
Q 1357 3187 1734 3187 
Q 2118 3187 2444 2995 
Q 2771 2803 2972 2438 
Q 3174 2074 3174 1549 
Q 3174 1037 2972 672 
Q 2771 307 2444 115 
Q 2118 -77 1734 -77 
z
M 1734 358 
Q 2003 358 2208 508 
Q 2413 659 2521 928 
Q 2630 1197 2630 1549 
Q 2630 1907 2521 2179 
Q 2413 2451 2208 2601 
Q 2003 2752 1734 2752 
Q 1466 2752 1264 2601 
Q 1062 2451 950 2179 
Q 838 1907 838 1549 
Q 838 1197 950 928 
Q 1062 659 1264 508 
Q 1466 358 1734 358 
z
" transform="scale(0.015625)"/>
       <path id="SourceSans3-Regular-2e" d="M 1338 -77 
Q 998 -77 694 41 
Q 390 160 179 371 
L 422 678 
Q 627 512 848 422 
Q 1069 333 1357 333 
Q 1664 333 1817 477 
Q 1971 621 1971 819 
Q 1971 979 1865 1084 
Q 1760 1190 1603 1264 
Q 1446 1338 1267 1402 
Q 1037 1485 825 1597 
Q 614 1709 483 1878 
Q 352 2048 352 2304 
Q 352 2682 637 2934 
Q 922 3187 1427 3187 
Q 1715 3187 1964 3088 
Q 2214 2989 2394 2835 
L 2150 2534 
Q 1984 2650 1811 2714 
Q 1638 2778 1427 2778 
Q 1133 2778 995 2643 
Q 858 2509 858 2330 
Q 858 2189 941 2096 
Q 1024 2003 1174 1932 
Q 1325 1862 1517 1798 
Q 1760 1709 1981 1597 
Q 2202 1485 2339 1309 
Q 2477 1133 2477 851 
Q 2477 595 2345 387 
Q 2214 179 1961 51 
Q 1709 -77 1338 -77 
z
" transform="scale(0.015625)"/>
      </defs>
      <use xlink:href="#SourceSans3-Regular-4"/>
      <use xlink:href="#SourceSans3-Regular-30" transform="translate(56.09375 0)"/>
      <use xlink:href="#SourceSans3-Regular-28" transform="translate(110.5 0)"/>
      <use xlink:href="#SourceSans3-Regular-30" transform="translate(193.40625 0)"/>
      <use xlink:href="#SourceSans3-Regular-27" transform="translate(247.8125 0)"/>
      <use xlink:href="#SourceSans3-Regular-1c" transform="translate(273.3125 0)"/>
      <use xlink:href="#SourceSans3-Regular-2f" transform="translate(322.3125 0)"/>
      <use xlink:href="#SourceSans3-Regular-24" transform="translate(356.109375 0)"/>
      <use xlink:href="#SourceSans3-Regular-31" transform="translate(380.703125 0)"/>
      <use xlink:href="#SourceSans3-Regular-20" transform="translate(427 0)"/>
      <use xlink:href="#SourceSans3-Regular-1" transform="translate(476.59375 0)"/>
      <use xlink:href="#SourceSans3-Regular-1e" transform="translate(496.59375 0)"/>
      <use xlink:href="#SourceSans3-Regular-2a" transform="translate(540.09375 0)"/>
      <use xlink:href="#SourceSans3-Regular-28" transform="translate(594.296875 0)"/>
      <use xlink:href="#SourceSans3-Regular-28" transform="translate(677.203125 0)"/>
      <use xlink:href="#SourceSans3-Regular-24" transform="translate(760.109375 0)"/>
      <use xlink:href="#SourceSans3-Regular-2f" transform="translate(784.703125 0)"/>
      <use xlink:href="#SourceSans3-Regular-2e" transform="translate(817.5 0)"/>
     </g>
    </g>
   </g>
   <g id="line2d_14">
    <path d="M 80.679349 293.549818 
L 80.975745 292.864804 
L 81.123943 292.766945 
L 81.864935 292.473367 
L 82.161331 291.788353 
L 88.237461 291.592635 
L 88.385659 291.299057 
L 91.942418 290.760832 
L 92.238815 290.222606 
L 92.535211 289.635451 
L 94.017194 289.439733 
L 94.313591 288.559001 
L 95.795573 288.363282 
L 96.240168 287.776127 
L 97.425755 286.993254 
L 97.573953 286.748606 
L 97.870349 286.699676 
L 99.945125 286.455029 
L 100.38972 286.357169 
L 100.834315 286.30824 
L 103.057289 286.210381 
L 103.205488 285.867874 
L 103.501884 285.574296 
L 103.946479 285.476437 
L 104.68747 284.889282 
L 105.132065 284.742493 
L 105.428462 284.448916 
L 106.614048 283.763901 
L 107.947833 283.372465 
L 108.096031 283.225676 
L 108.688824 283.029958 
L 108.837022 282.834239 
L 109.281617 282.73638 
L 110.467203 282.051366 
L 111.208195 281.708859 
L 111.504591 281.268493 
L 112.838376 280.974915 
L 113.727566 280.779197 
L 114.17216 280.143112 
L 116.691531 278.968802 
L 118.618109 278.724154 
L 119.210902 278.528436 
L 120.24829 278.381647 
L 120.396488 278.136999 
L 121.285678 278.03914 
L 121.878471 277.549844 
L 122.323066 277.158408 
L 122.471264 276.91376 
L 123.212256 276.718041 
L 123.508652 276.228746 
L 124.54604 275.935168 
L 127.065411 275.641591 
L 127.213609 275.543731 
L 127.658204 275.396943 
L 128.84379 271.482576 
L 128.991989 270.99328 
L 130.177575 270.797562 
L 130.918566 270.552914 
L 133.586135 270.063618 
L 133.734334 269.916829 
L 135.068118 269.623252 
L 135.216316 269.476463 
L 136.550101 269.182886 
L 137.142894 268.742519 
L 137.735687 268.69359 
L 138.032084 268.400012 
L 138.773075 268.253223 
L 139.514067 268.204294 
L 139.662265 267.763928 
L 140.10686 267.323561 
L 143.070825 266.638547 
L 145.886593 266.491758 
L 148.998757 266.100322 
L 149.146955 266.002463 
L 153.592903 265.855674 
L 157.742455 265.464237 
L 158.483447 264.877082 
L 158.631645 264.730293 
L 159.669033 264.534575 
L 160.706421 264.094209 
L 161.151016 263.898491 
L 161.595611 263.800631 
L 162.336602 263.653843 
L 162.632999 263.458124 
L 162.929395 263.409195 
L 163.225792 263.115617 
L 165.596964 262.77311 
L 166.930749 262.577392 
L 168.116335 262.283814 
L 168.412732 261.843448 
L 168.709128 261.745589 
L 170.783904 261.5988 
L 172.710482 261.403082 
L 173.896068 261.158434 
L 175.229853 260.718068 
L 176.415439 260.571279 
L 176.860034 260.47342 
L 177.008232 260.228772 
L 177.304629 258.956603 
L 179.231206 258.271588 
L 179.379404 257.978011 
L 179.675801 257.929081 
L 179.972198 257.341926 
L 180.564991 257.097278 
L 180.713189 256.705842 
L 181.009586 256.461194 
L 181.898775 256.265475 
L 182.046974 256.167616 
L 182.639767 256.020828 
L 183.677155 254.846518 
L 183.973551 254.50401 
L 184.714543 253.770067 
L 185.159137 253.672208 
L 186.492922 252.987193 
L 187.382112 252.840405 
L 187.974905 252.25325 
L 188.271301 251.323588 
L 188.567698 251.03001 
L 188.715896 250.883221 
L 189.160491 249.611052 
L 189.308689 249.415334 
L 189.456888 249.023897 
L 189.753284 248.877108 
L 190.346077 248.485672 
L 190.93887 248.192094 
L 191.235267 247.996376 
L 191.383465 247.653869 
L 191.976258 247.360291 
L 192.865448 246.528488 
L 193.310043 245.305249 
L 193.458241 245.256319 
L 193.902836 244.815953 
L 194.199233 244.718094 
L 194.495629 244.326657 
L 194.940224 243.592713 
L 195.533017 243.494854 
L 195.829414 243.201277 
L 196.422207 243.152347 
L 196.866802 242.711981 
L 197.163198 242.614122 
L 197.311397 242.369474 
L 197.607793 242.320544 
L 198.941578 242.222685 
L 199.089776 241.68446 
L 199.534371 241.5866 
L 199.830767 241.390882 
L 200.868155 241.244093 
L 201.164552 241.097305 
L 201.905543 240.950516 
L 203.980319 240.265502 
L 204.128518 239.922995 
L 204.424914 239.776206 
L 205.017707 239.629417 
L 205.165906 239.33584 
L 205.906897 239.23798 
L 206.203294 238.944403 
L 207.981673 238.748685 
L 209.019061 238.699755 
L 210.501044 238.406177 
L 211.242035 238.16153 
L 211.390233 237.819022 
L 211.538432 237.770093 
L 212.279423 236.791501 
L 213.465009 236.448994 
L 213.761406 236.253276 
L 213.909604 236.008628 
L 214.502397 235.81291 
L 214.946992 235.71505 
L 215.243389 234.981107 
L 215.539785 234.785388 
L 216.428975 233.170712 
L 216.577173 233.072853 
L 217.021768 232.387839 
L 217.318165 232.143191 
L 217.614561 231.409247 
L 217.762759 231.311388 
L 218.355553 230.039219 
L 218.503751 229.990289 
L 218.651949 229.794571 
L 218.948346 229.256345 
L 219.096544 229.207416 
L 219.392941 228.473472 
L 219.689337 228.033106 
L 219.985734 227.935247 
L 220.578527 226.760937 
L 220.874923 226.3695 
L 221.17132 226.32057 
L 222.06051 225.439838 
L 222.208708 225.048401 
L 223.394294 224.608035 
L 223.542492 224.265528 
L 223.690691 224.216598 
L 223.838889 223.874091 
L 223.987087 223.825162 
L 225.320872 223.678373 
L 225.46907 223.482654 
L 225.913665 223.433725 
L 226.061863 222.993359 
L 226.654656 222.895499 
L 227.692044 222.84657 
L 228.729432 222.357274 
L 230.65601 222.161556 
L 231.841596 221.770119 
L 232.878984 221.721189 
L 233.916372 221.378682 
L 234.360967 219.812936 
L 235.101958 219.715077 
L 235.546553 219.176851 
L 236.139346 219.078992 
L 236.435743 218.932203 
L 238.065924 218.834344 
L 239.399709 218.540767 
L 240.733493 218.345048 
L 241.474485 218.14933 
L 248.291606 217.660034 
L 248.439804 217.513245 
L 249.477192 217.366457 
L 249.773588 216.97502 
L 250.218183 215.164625 
L 250.366382 214.968907 
L 250.959175 214.773189 
L 251.107373 214.137104 
L 251.255571 214.039245 
L 251.40377 213.696738 
L 251.551968 213.647808 
L 251.848364 213.354231 
L 252.292959 212.082061 
L 252.737554 211.494906 
L 253.033951 211.299188 
L 253.182149 211.250259 
L 253.330347 211.005611 
L 253.478545 210.467385 
L 253.92314 210.075949 
L 254.071339 209.831301 
L 254.367735 209.048427 
L 254.515933 208.950568 
L 255.108727 206.748737 
L 256.146115 202.100426 
L 256.738908 199.996454 
L 257.035304 199.653947 
L 257.331701 199.458229 
L 257.628097 198.234989 
L 257.924494 197.990341 
L 258.369089 197.696764 
L 258.813684 196.767102 
L 259.11008 196.375665 
L 259.406477 195.690651 
L 259.851072 195.054566 
L 261.184856 194.075975 
L 261.629451 193.244172 
L 261.925848 192.901665 
L 262.963236 192.803806 
L 264.000623 192.754876 
L 264.29702 192.608087 
L 265.334408 192.510228 
L 266.075399 192.118791 
L 266.668193 191.923073 
L 267.557382 190.895552 
L 267.705581 190.748763 
L 268.150175 190.112678 
L 268.446572 189.868031 
L 268.742969 189.672312 
L 269.632158 188.155495 
L 270.224951 187.421551 
L 270.669546 186.785467 
L 270.817744 186.736537 
L 271.262339 185.855805 
L 271.558736 185.709016 
L 271.855132 184.975072 
L 273.040719 183.458255 
L 274.374503 183.115748 
L 274.6709 181.403213 
L 274.967296 181.256424 
L 275.263693 180.767128 
L 275.856486 180.47355 
L 276.004684 180.228903 
L 276.301081 180.082114 
L 276.597477 179.543888 
L 276.745676 177.831353 
L 277.338469 177.146339 
L 277.486667 177.097409 
L 277.783064 176.118818 
L 278.227659 176.020958 
L 278.375857 175.384874 
L 278.672253 175.238085 
L 278.96865 174.504141 
L 279.265047 174.210564 
L 279.561443 174.112705 
L 282.37721 173.868057 
L 287.415952 173.231972 
L 287.56415 173.036254 
L 287.860547 172.25338 
L 288.008745 172.204451 
L 288.45334 171.617296 
L 288.749737 169.855831 
L 289.046133 169.121887 
L 289.490728 168.045436 
L 290.528116 167.017915 
L 291.120909 165.25645 
L 291.713702 163.103548 
L 292.306495 162.809971 
L 292.602892 162.418534 
L 292.899288 161.880309 
L 296.900642 161.78245 
L 297.641634 161.391013 
L 298.530823 161.293154 
L 298.82722 160.705999 
L 299.271815 160.60814 
L 299.716409 160.412421 
L 300.309203 159.3849 
L 300.753797 159.140252 
L 300.901996 158.797745 
L 301.346591 158.748815 
L 301.642987 158.553097 
L 301.939384 157.770224 
L 302.23578 156.938421 
L 302.383979 156.889491 
L 302.828573 156.595914 
L 303.421367 156.498055 
L 309.497496 156.106618 
L 310.386686 155.910899 
L 311.72047 155.764111 
L 319.871376 155.274815 
L 320.760565 155.079097 
L 323.131738 154.785519 
L 331.430842 154.345153 
L 336.321385 153.219772 
L 336.76598 152.975124 
L 337.803368 152.877265 
L 338.396161 151.996533 
L 339.285351 151.311519 
L 339.433549 151.066871 
L 339.878144 151.017941 
L 340.026342 150.871152 
L 343.286704 150.381857 
L 355.73536 150.332927 
L 355.883558 150.186138 
L 363.145274 149.94149 
L 363.886266 149.892561 
L 364.182662 149.745772 
L 364.33086 149.501124 
L 368.184016 149.452194 
L 371.147981 148.76718 
L 372.037171 148.718251 
L 372.629964 148.571462 
L 372.778162 148.228955 
L 373.222757 148.033237 
L 373.667352 147.250363 
L 373.963749 147.103574 
L 374.260145 146.663208 
L 374.70474 146.565349 
L 375.001137 145.782476 
L 375.297533 145.097462 
L 375.445732 144.999602 
L 376.334921 144.706025 
L 376.48312 144.461377 
L 376.779516 144.363518 
L 378.706094 144.06994 
L 383.744835 143.923152 
L 384.782223 143.678504 
L 385.07862 143.531715 
L 385.375016 143.189208 
L 385.671413 142.504194 
L 386.116008 142.210616 
L 388.190784 142.014898 
L 388.931775 141.868109 
L 389.079974 141.72132 
L 389.672767 141.525602 
L 390.117361 140.987376 
L 395.4525 140.644869 
L 396.638086 140.057714 
L 396.934482 139.715207 
L 398.120069 139.617348 
L 398.268267 139.470559 
L 398.564664 139.42163 
L 399.009258 139.225911 
L 399.157457 138.834475 
L 399.305655 138.785545 
L 399.602052 138.296249 
L 400.343043 137.415517 
L 400.491241 136.730503 
L 401.825026 135.556193 
L 402.566017 135.409404 
L 403.010612 134.430812 
L 403.455207 134.186164 
L 403.751603 133.55008 
L 404.93719 132.522559 
L 405.678181 132.473629 
L 405.826379 131.984333 
L 406.715569 131.495037 
L 411.457914 131.15253 
L 411.902509 130.907882 
L 413.680888 130.663234 
L 413.977285 130.320727 
L 415.607466 129.880361 
L 416.348457 129.684643 
L 416.793052 129.048558 
L 417.237647 128.901769 
L 417.385845 128.510333 
L 419.757018 128.069966 
L 421.831794 127.972107 
L 422.572785 127.580671 
L 423.01738 127.336023 
L 423.90657 127.287093 
L 424.202966 127.042445 
L 426.129544 126.797797 
L 426.277742 126.357431 
L 426.722337 126.259572 
L 427.611527 125.378839 
L 428.945311 125.085262 
L 429.241708 124.840614 
L 430.130898 123.128078 
L 430.279096 123.079149 
L 430.871889 122.345205 
L 434.576846 121.953768 
L 435.021441 121.660191 
L 438.874596 121.317684 
L 439.911984 120.975177 
L 441.690364 120.877318 
L 442.727752 120.143374 
L 442.87595 119.947656 
L 443.172346 119.164782 
L 443.76514 118.822275 
L 443.913338 118.479768 
L 444.061536 116.962951 
L 444.357933 116.865092 
L 444.506131 116.571514 
L 444.802528 116.473655 
L 444.950726 116.277937 
L 445.098924 114.956838 
L 445.395321 109.036358 
L 445.839916 107.030245 
L 445.988114 106.883457 
L 446.28451 105.807006 
L 446.432709 104.290189 
L 446.729105 103.213738 
L 447.1737 100.375822 
L 447.470097 99.544019 
L 447.766493 99.152583 
L 448.359286 95.92323 
L 448.655683 95.531793 
L 449.248476 92.155652 
L 449.396674 90.638835 
L 449.989467 87.800919 
L 450.137666 87.507342 
L 450.285864 86.430891 
L 450.434062 84.22906 
L 450.582261 83.739764 
L 451.323252 77.917143 
L 451.767847 77.378918 
L 452.064243 76.889622 
L 452.657036 76.498185 
L 453.398028 75.079227 
L 454.139019 74.981368 
L 454.435416 74.687791 
L 454.731812 73.415622 
L 454.880011 73.317762 
L 455.176407 69.354466 
L 455.472804 67.593001 
L 455.621002 66.320832 
L 455.7692 66.271902 
L 456.065597 65.929395 
L 456.65839 64.021141 
L 457.251183 63.189339 
L 457.843976 61.330014 
L 457.992175 61.134296 
L 458.733166 59.226042 
L 458.881364 58.29638 
L 459.029563 58.198521 
L 459.325959 56.975281 
L 459.622356 54.430943 
L 459.918752 53.060915 
L 460.363347 52.718408 
L 460.659744 52.180182 
L 461.104339 52.033394 
L 461.697132 51.054802 
L 461.993528 49.978351 
L 462.141727 49.782633 
L 462.586321 48.706182 
L 462.586321 48.706182 
" clip-path="url(#p9a4975d022)" style="fill: none; stroke: #002d72; stroke-width: 1.5; stroke-linecap: square"/>
   </g>
   <g id="patch_3">
    <path d="M 61.584 305.792 
L 61.584 36.464 
" style="fill: none; stroke: #8a8a8a; stroke-linejoin: miter; stroke-linecap: square"/>
   </g>
   <g id="patch_4">
    <path d="M 61.584 305.792 
L 481.68167 305.792 
" style="fill: none; stroke: #8a8a8a; stroke-linejoin: miter; stroke-linecap: square"/>
   </g>
   <g id="text_16">
    <!-- Cumulative commits over time -->
    <g style="fill: #002d72" transform="translate(166.601976 24.464) scale(0.13 -0.13)">
     <defs>
      <path id="Montserrat-Bold-2d" d="M 2675 -77 
Q 2157 -77 1712 92 
Q 1267 262 940 576 
Q 614 890 432 1312 
Q 250 1734 250 2240 
Q 250 2746 432 3168 
Q 614 3590 944 3904 
Q 1274 4218 1715 4387 
Q 2157 4557 2682 4557 
Q 3264 4557 3734 4355 
Q 4205 4154 4525 3763 
L 3859 3149 
Q 3629 3411 3347 3542 
Q 3066 3674 2733 3674 
Q 2419 3674 2156 3571 
Q 1894 3469 1702 3277 
Q 1510 3085 1404 2822 
Q 1299 2560 1299 2240 
Q 1299 1920 1404 1657 
Q 1510 1395 1702 1203 
Q 1894 1011 2156 908 
Q 2419 806 2733 806 
Q 3066 806 3347 937 
Q 3629 1069 3859 1338 
L 4525 723 
Q 4205 333 3734 128 
Q 3264 -77 2675 -77 
z
" transform="scale(0.015625)"/>
      <path id="Montserrat-Bold-383" d="M 1914 -51 
Q 1485 -51 1149 115 
Q 813 282 627 624 
Q 442 966 442 1498 
L 442 3443 
L 1440 3443 
L 1440 1645 
Q 1440 1216 1622 1014 
Q 1805 813 2138 813 
Q 2368 813 2547 912 
Q 2726 1011 2828 1219 
Q 2931 1427 2931 1741 
L 2931 3443 
L 3930 3443 
L 3930 0 
L 2982 0 
L 2982 947 
L 3155 672 
Q 2982 314 2646 131 
Q 2310 -51 1914 -51 
z
" transform="scale(0.015625)"/>
      <path id="Montserrat-Bold-312" d="M 461 0 
L 461 3443 
L 1414 3443 
L 1414 2502 
L 1235 2778 
Q 1414 3130 1744 3312 
Q 2074 3494 2496 3494 
Q 2970 3494 3325 3254 
Q 3680 3014 3795 2522 
L 3443 2618 
Q 3616 3021 3997 3257 
Q 4378 3494 4870 3494 
Q 5280 3494 5597 3331 
Q 5914 3168 6096 2832 
Q 6278 2496 6278 1971 
L 6278 0 
L 5280 0 
L 5280 1818 
Q 5280 2234 5107 2432 
Q 4934 2630 4621 2630 
Q 4403 2630 4230 2531 
Q 4058 2432 3962 2233 
Q 3866 2035 3866 1728 
L 3866 0 
L 2867 0 
L 2867 1818 
Q 2867 2234 2697 2432 
Q 2528 2630 2214 2630 
Q 1997 2630 1824 2531 
Q 1651 2432 1555 2233 
Q 1459 2035 1459 1728 
L 1459 0 
L 461 0 
z
" transform="scale(0.015625)"/>
      <path id="Montserrat-Bold-301" d="M 461 0 
L 461 4749 
L 1459 4749 
L 1459 0 
L 461 0 
z
" transform="scale(0.015625)"/>
      <path id="Montserrat-Bold-24c" d="M 2573 0 
L 2573 672 
L 2509 819 
L 2509 2022 
Q 2509 2342 2313 2521 
Q 2118 2701 1715 2701 
Q 1440 2701 1174 2614 
Q 909 2528 723 2381 
L 365 3078 
Q 646 3277 1043 3385 
Q 1440 3494 1850 3494 
Q 2637 3494 3072 3123 
Q 3507 2752 3507 1965 
L 3507 0 
L 2573 0 
z
M 1523 -51 
Q 1120 -51 832 86 
Q 544 224 390 461 
Q 237 698 237 992 
Q 237 1299 387 1529 
Q 538 1760 864 1891 
Q 1190 2022 1715 2022 
L 2630 2022 
L 2630 1440 
L 1824 1440 
Q 1472 1440 1341 1325 
Q 1210 1210 1210 1037 
Q 1210 845 1360 733 
Q 1510 621 1773 621 
Q 2022 621 2220 739 
Q 2419 858 2509 1088 
L 2662 627 
Q 2554 294 2266 121 
Q 1978 -51 1523 -51 
z
" transform="scale(0.015625)"/>
      <path id="Montserrat-Bold-375" d="M 1869 -51 
Q 1261 -51 921 259 
Q 582 570 582 1184 
L 582 4205 
L 1581 4205 
L 1581 1197 
Q 1581 979 1696 860 
Q 1811 742 2010 742 
Q 2246 742 2413 870 
L 2682 166 
Q 2528 58 2313 3 
Q 2099 -51 1869 -51 
z
M 51 2675 
L 51 3443 
L 2438 3443 
L 2438 2675 
L 51 2675 
z
" transform="scale(0.015625)"/>
      <path id="Montserrat-Bold-2d7" d="M 461 0 
L 461 3443 
L 1459 3443 
L 1459 0 
L 461 0 
z
M 960 3923 
Q 685 3923 512 4083 
Q 339 4243 339 4480 
Q 339 4717 512 4877 
Q 685 5037 960 5037 
Q 1235 5037 1408 4886 
Q 1581 4736 1581 4499 
Q 1581 4250 1411 4086 
Q 1242 3923 960 3923 
z
" transform="scale(0.015625)"/>
      <path id="Montserrat-Bold-3a4" d="M 1395 0 
L -51 3443 
L 979 3443 
L 2182 480 
L 1670 480 
L 2918 3443 
L 3878 3443 
L 2426 0 
L 1395 0 
z
" transform="scale(0.015625)"/>
      <path id="Montserrat-Bold-295" d="M 2170 -51 
Q 1581 -51 1136 179 
Q 691 410 448 810 
Q 205 1210 205 1722 
Q 205 2240 445 2640 
Q 685 3040 1101 3267 
Q 1517 3494 2042 3494 
Q 2547 3494 2953 3280 
Q 3360 3066 3597 2666 
Q 3834 2266 3834 1709 
Q 3834 1651 3827 1577 
Q 3821 1504 3814 1440 
L 1018 1440 
L 1018 2022 
L 3290 2022 
L 2906 1850 
Q 2906 2118 2797 2316 
Q 2688 2515 2496 2627 
Q 2304 2739 2048 2739 
Q 1792 2739 1597 2627 
Q 1402 2515 1293 2313 
Q 1184 2112 1184 1837 
L 1184 1683 
Q 1184 1402 1309 1187 
Q 1434 973 1661 861 
Q 1888 749 2195 749 
Q 2470 749 2678 832 
Q 2886 915 3059 1082 
L 3590 506 
Q 3354 237 2995 93 
Q 2637 -51 2170 -51 
z
" transform="scale(0.015625)"/>
      <path id="Montserrat-Bold-8bd" transform="scale(0.015625)"/>
      <path id="Montserrat-Bold-27a" d="M 2125 -51 
Q 1568 -51 1133 176 
Q 698 403 451 806 
Q 205 1210 205 1722 
Q 205 2240 451 2640 
Q 698 3040 1133 3267 
Q 1568 3494 2125 3494 
Q 2669 3494 3072 3267 
Q 3475 3040 3667 2618 
L 2893 2202 
Q 2758 2445 2556 2560 
Q 2355 2675 2118 2675 
Q 1862 2675 1657 2560 
Q 1453 2445 1334 2233 
Q 1216 2022 1216 1722 
Q 1216 1421 1334 1209 
Q 1453 998 1657 883 
Q 1862 768 2118 768 
Q 2355 768 2556 880 
Q 2758 992 2893 1242 
L 3667 819 
Q 3475 403 3072 176 
Q 2669 -51 2125 -51 
z
" transform="scale(0.015625)"/>
      <path id="Montserrat-Bold-327" d="M 2099 -51 
Q 1549 -51 1123 179 
Q 698 410 451 810 
Q 205 1210 205 1722 
Q 205 2240 451 2640 
Q 698 3040 1123 3267 
Q 1549 3494 2099 3494 
Q 2643 3494 3072 3267 
Q 3501 3040 3744 2643 
Q 3987 2246 3987 1722 
Q 3987 1210 3744 810 
Q 3501 410 3072 179 
Q 2643 -51 2099 -51 
z
M 2099 768 
Q 2349 768 2547 883 
Q 2746 998 2861 1212 
Q 2976 1427 2976 1722 
Q 2976 2022 2861 2233 
Q 2746 2445 2547 2560 
Q 2349 2675 2099 2675 
Q 1850 2675 1651 2560 
Q 1453 2445 1334 2233 
Q 1216 2022 1216 1722 
Q 1216 1427 1334 1212 
Q 1453 998 1651 883 
Q 1850 768 2099 768 
z
" transform="scale(0.015625)"/>
      <path id="Montserrat-Bold-367" d="M 1619 -51 
Q 1178 -51 771 54 
Q 365 160 128 320 
L 461 1037 
Q 698 890 1021 797 
Q 1344 704 1658 704 
Q 2003 704 2147 787 
Q 2291 870 2291 1018 
Q 2291 1139 2179 1200 
Q 2067 1261 1881 1293 
Q 1696 1325 1475 1357 
Q 1254 1389 1030 1443 
Q 806 1498 620 1606 
Q 435 1715 323 1900 
Q 211 2086 211 2381 
Q 211 2707 400 2956 
Q 589 3206 947 3350 
Q 1306 3494 1805 3494 
Q 2157 3494 2521 3417 
Q 2886 3341 3130 3194 
L 2797 2483 
Q 2547 2630 2294 2684 
Q 2042 2739 1805 2739 
Q 1472 2739 1318 2649 
Q 1165 2560 1165 2419 
Q 1165 2291 1277 2227 
Q 1389 2163 1574 2124 
Q 1760 2086 1981 2057 
Q 2202 2029 2426 1971 
Q 2650 1914 2832 1808 
Q 3014 1702 3129 1520 
Q 3245 1338 3245 1043 
Q 3245 723 3053 476 
Q 2861 230 2499 89 
Q 2138 -51 1619 -51 
z
" transform="scale(0.015625)"/>
      <path id="Montserrat-Bold-359" d="M 461 0 
L 461 3443 
L 1414 3443 
L 1414 2470 
L 1280 2752 
Q 1434 3117 1773 3305 
Q 2112 3494 2598 3494 
L 2598 2573 
Q 2534 2579 2483 2582 
Q 2432 2586 2374 2586 
Q 1965 2586 1712 2352 
Q 1459 2118 1459 1626 
L 1459 0 
L 461 0 
z
" transform="scale(0.015625)"/>
     </defs>
     <use xlink:href="#Montserrat-Bold-2d"/>
     <use xlink:href="#Montserrat-Bold-383" transform="translate(71 0)"/>
     <use xlink:href="#Montserrat-Bold-312" transform="translate(139.703125 0)"/>
     <use xlink:href="#Montserrat-Bold-383" transform="translate(244.609375 0)"/>
     <use xlink:href="#Montserrat-Bold-301" transform="translate(313.3125 0)"/>
     <use xlink:href="#Montserrat-Bold-24c" transform="translate(343.40625 0)"/>
     <use xlink:href="#Montserrat-Bold-375" transform="translate(405.109375 0)"/>
     <use xlink:href="#Montserrat-Bold-2d7" transform="translate(448.609375 0)"/>
     <use xlink:href="#Montserrat-Bold-3a4" transform="translate(478.703125 0)"/>
     <use xlink:href="#Montserrat-Bold-295" transform="translate(537 0)"/>
     <use xlink:href="#Montserrat-Bold-8bd" transform="translate(600.09375 0)"/>
     <use xlink:href="#Montserrat-Bold-27a" transform="translate(628.390625 0)"/>
     <use xlink:href="#Montserrat-Bold-327" transform="translate(686.78125 0)"/>
     <use xlink:href="#Montserrat-Bold-312" transform="translate(752.28125 0)"/>
     <use xlink:href="#Montserrat-Bold-312" transform="translate(857.1875 0)"/>
     <use xlink:href="#Montserrat-Bold-2d7" transform="translate(962.09375 0)"/>
     <use xlink:href="#Montserrat-Bold-375" transform="translate(992.1875 0)"/>
     <use xlink:href="#Montserrat-Bold-367" transform="translate(1035.6875 0)"/>
     <use xlink:href="#Montserrat-Bold-8bd" transform="translate(1088.78125 0)"/>
     <use xlink:href="#Montserrat-Bold-327" transform="translate(1117.078125 0)"/>
     <use xlink:href="#Montserrat-Bold-3a4" transform="translate(1181.078125 0)"/>
     <use xlink:href="#Montserrat-Bold-295" transform="translate(1239.375 0)"/>
     <use xlink:href="#Montserrat-Bold-359" transform="translate(1302.46875 0)"/>
     <use xlink:href="#Montserrat-Bold-8bd" transform="translate(1345.5625 0)"/>
     <use xlink:href="#Montserrat-Bold-375" transform="translate(1373.859375 0)"/>
     <use xlink:href="#Montserrat-Bold-2d7" transform="translate(1417.359375 0)"/>
     <use xlink:href="#Montserrat-Bold-312" transform="translate(1447.453125 0)"/>
     <use xlink:href="#Montserrat-Bold-295" transform="translate(1552.765625 0)"/>
    </g>
   </g>
  </g>
 </g>
 <defs>
  <clipPath id="p9a4975d022">
   <rect x="61.584" y="36.464" width="420.09767" height="269.328"/>
  </clipPath>
 </defs>
</svg>
