<?xml version="1.0" encoding="utf-8" standalone="no"?>
<!DOCTYPE svg PUBLIC "-//W3C//DTD SVG 1.1//EN"
  "http://www.w3.org/Graphics/SVG/1.1/DTD/svg11.dtd">
<svg xmlns:xlink="http://www.w3.org/1999/xlink" width="504pt" height="360pt" viewBox="0 0 504 360" xmlns="http://www.w3.org/2000/svg" version="1.1">
 <metadata>
  <rdf:RDF xmlns:dc="http://purl.org/dc/elements/1.1/" xmlns:cc="http://creativecommons.org/ns#" xmlns:rdf="http://www.w3.org/1999/02/22-rdf-syntax-ns#">
   <cc:Work>
    <dc:type rdf:resource="http://purl.org/dc/dcmitype/StillImage"/>
    <dc:date>2026-09-21T11:12:27.034245</dc:date>
    <dc:format>image/svg+xml</dc:format>
    <dc:creator>
     <cc:Agent>
      <dc:title>Matplotlib v3.11.2, https://matplotlib.org/</dc:title>
     </cc:Agent>
    </dc:creator>
   </cc:Work>
  </rdf:RDF>
 </metadata>
 <defs>
  <style type="text/css">*{stroke-linejoin: round; stroke-linecap: butt}</style>
 </defs>
 <g id="figure_1">
  <g id="patch_1">
   <path d="M 0 360 
L 504 360 
L 504 0 
L 0 0 
L 0 360 
z
" style="fill: none"/>
  </g>
  <g id="axes_1">
   <g id="patch_2">
    <path d="M 55.824 305.792 
L 484.46146 305.792 
L 484.46146 36.464 
L 55.824 36.464 
L 55.824 305.792 
z
" style="fill: none"/>
   </g>
   <g id="matplotlib.axis_1">
    <g id="xtick_1">
     <g id="line2d_1">
      <defs>
       <path id="m62303b2b34" d="M 0 0 
L 0 3.5 
" style="stroke: #1c2531; stroke-width: 0.8"/>
      </defs>
      <g>
       <use xlink:href="#m62303b2b34" x="98.027085" y="305.792" style="fill: #1c2531; stroke: #1c2531; stroke-width: 0.8"/>
      </g>
     </g>
     <g id="text_1">
      <!-- 2020 -->
      <g style="fill: #1c2531" transform="translate(87.092398 324.056) scale(0.11 -0.11)">
       <defs>
        <path id="SourceSans3-Regular-537" d="M 256 0 
L 256 320 
Q 864 922 1296 1386 
Q 1728 1850 1952 2227 
Q 2176 2605 2176 2931 
Q 2176 3283 1984 3507 
Q 1792 3731 1402 3731 
Q 1146 3731 928 3590 
Q 710 3450 531 3238 
L 237 3526 
Q 493 3814 784 3987 
Q 1075 4160 1466 4160 
Q 1843 4160 2118 4009 
Q 2394 3859 2541 3590 
Q 2688 3322 2688 2963 
Q 2688 2566 2467 2176 
Q 2246 1786 1862 1357 
Q 1478 928 979 416 
Q 1146 435 1325 444 
Q 1504 454 1664 454 
L 2893 454 
L 2893 0 
L 256 0 
z
" transform="scale(0.015625)"/>
        <path id="SourceSans3-Regular-535" d="M 1594 -77 
Q 979 -77 630 476 
Q 282 1030 282 2054 
Q 282 3085 630 3622 
Q 979 4160 1594 4160 
Q 2202 4160 2550 3619 
Q 2899 3078 2899 2054 
Q 2899 1030 2550 476 
Q 2202 -77 1594 -77 
z
M 1594 346 
Q 1830 346 2009 525 
Q 2189 704 2288 1081 
Q 2387 1459 2387 2054 
Q 2387 2656 2288 3027 
Q 2189 3398 2009 3568 
Q 1830 3738 1594 3738 
Q 1350 3738 1171 3568 
Q 992 3398 893 3027 
Q 794 2656 794 2054 
Q 794 1459 893 1081 
Q 992 704 1171 525 
Q 1350 346 1594 346 
z
" transform="scale(0.015625)"/>
       </defs>
       <use xlink:href="#SourceSans3-Regular-537"/>
       <use xlink:href="#SourceSans3-Regular-535" transform="translate(49.703125 0)"/>
       <use xlink:href="#SourceSans3-Regular-537" transform="translate(99.40625 0)"/>
       <use xlink:href="#SourceSans3-Regular-535" transform="translate(149.109375 0)"/>
      </g>
     </g>
    </g>
    <g id="xtick_2">
     <g id="line2d_2">
      <g>
       <use xlink:href="#m62303b2b34" x="152.733404" y="305.792" style="fill: #1c2531; stroke: #1c2531; stroke-width: 0.8"/>
      </g>
     </g>
     <g id="text_2">
      <!-- 2021 -->
      <g style="fill: #1c2531" transform="translate(141.798716 324.056) scale(0.11 -0.11)">
       <defs>
        <path id="SourceSans3-Regular-536" d="M 506 0 
L 506 435 
L 1440 435 
L 1440 3443 
L 698 3443 
L 698 3782 
Q 973 3834 1184 3907 
Q 1395 3981 1562 4083 
L 1965 4083 
L 1965 435 
L 2810 435 
L 2810 0 
L 506 0 
z
" transform="scale(0.015625)"/>
       </defs>
       <use xlink:href="#SourceSans3-Regular-537"/>
       <use xlink:href="#SourceSans3-Regular-535" transform="translate(49.703125 0)"/>
       <use xlink:href="#SourceSans3-Regular-537" transform="translate(99.40625 0)"/>
       <use xlink:href="#SourceSans3-Regular-536" transform="translate(149.109375 0)"/>
      </g>
     </g>
    </g>
    <g id="xtick_3">
     <g id="line2d_3">
      <g>
       <use xlink:href="#m62303b2b34" x="207.290252" y="305.792" style="fill: #1c2531; stroke: #1c2531; stroke-width: 0.8"/>
      </g>
     </g>
     <g id="text_3">
      <!-- 2022 -->
      <g style="fill: #1c2531" transform="translate(196.355564 324.056) scale(0.11 -0.11)">
       <use xlink:href="#SourceSans3-Regular-537"/>
       <use xlink:href="#SourceSans3-Regular-535" transform="translate(49.703125 0)"/>
       <use xlink:href="#SourceSans3-Regular-537" transform="translate(99.40625 0)"/>
       <use xlink:href="#SourceSans3-Regular-537" transform="translate(149.109375 0)"/>
      </g>
     </g>
    </g>
    <g id="xtick_4">
     <g id="line2d_4">
      <g>
       <use xlink:href="#m62303b2b34" x="261.8471" y="305.792" style="fill: #1c2531; stroke: #1c2531; stroke-width: 0.8"/>
      </g>
     </g>
     <g id="text_4">
      <!-- 2023 -->
      <g style="fill: #1c2531" transform="translate(250.912412 324.056) scale(0.11 -0.11)">
       <defs>
        <path id="SourceSans3-Regular-538" d="M 1510 -77 
Q 1184 -77 931 6 
Q 678 90 492 218 
Q 307 346 166 499 
L 435 845 
Q 621 653 867 505 
Q 1114 358 1478 358 
Q 1850 358 2086 563 
Q 2323 768 2323 1107 
Q 2323 1350 2198 1532 
Q 2074 1715 1789 1817 
Q 1504 1920 1018 1920 
L 1018 2323 
Q 1453 2323 1705 2425 
Q 1958 2528 2067 2697 
Q 2176 2867 2176 3085 
Q 2176 3386 1987 3558 
Q 1798 3731 1472 3731 
Q 1216 3731 998 3616 
Q 781 3501 602 3315 
L 320 3648 
Q 557 3872 845 4016 
Q 1133 4160 1491 4160 
Q 1850 4160 2125 4038 
Q 2400 3917 2557 3686 
Q 2714 3456 2714 3123 
Q 2714 2752 2509 2515 
Q 2304 2278 1971 2150 
L 1971 2125 
Q 2221 2067 2419 1929 
Q 2618 1792 2736 1581 
Q 2854 1370 2854 1088 
Q 2854 723 2675 464 
Q 2496 205 2189 64 
Q 1882 -77 1510 -77 
z
" transform="scale(0.015625)"/>
       </defs>
       <use xlink:href="#SourceSans3-Regular-537"/>
       <use xlink:href="#SourceSans3-Regular-535" transform="translate(49.703125 0)"/>
       <use xlink:href="#SourceSans3-Regular-537" transform="translate(99.40625 0)"/>
       <use xlink:href="#SourceSans3-Regular-538" transform="translate(149.109375 0)"/>
      </g>
     </g>
    </g>
    <g id="xtick_5">
     <g id="line2d_5">
      <g>
       <use xlink:href="#m62303b2b34" x="316.403948" y="305.792" style="fill: #1c2531; stroke: #1c2531; stroke-width: 0.8"/>
      </g>
     </g>
     <g id="text_5">
      <!-- 2024 -->
      <g style="fill: #1c2531" transform="translate(305.46926 324.056) scale(0.11 -0.11)">
       <defs>
        <path id="SourceSans3-Regular-539" d="M 1946 0 
L 1946 2733 
Q 1946 2893 1958 3126 
Q 1971 3360 1978 3520 
L 1952 3520 
Q 1875 3373 1792 3235 
Q 1709 3098 1619 2944 
L 666 1549 
L 3002 1549 
L 3002 1126 
L 109 1126 
L 109 1472 
L 1856 4083 
L 2445 4083 
L 2445 0 
L 1946 0 
z
" transform="scale(0.015625)"/>
       </defs>
       <use xlink:href="#SourceSans3-Regular-537"/>
       <use xlink:href="#SourceSans3-Regular-535" transform="translate(49.703125 0)"/>
       <use xlink:href="#SourceSans3-Regular-537" transform="translate(99.40625 0)"/>
       <use xlink:href="#SourceSans3-Regular-539" transform="translate(149.109375 0)"/>
      </g>
     </g>
    </g>
    <g id="xtick_6">
     <g id="line2d_6">
      <g>
       <use xlink:href="#m62303b2b34" x="371.110267" y="305.792" style="fill: #1c2531; stroke: #1c2531; stroke-width: 0.8"/>
      </g>
     </g>
     <g id="text_6">
      <!-- 2025 -->
      <g style="fill: #1c2531" transform="translate(360.175579 324.056) scale(0.11 -0.11)">
       <defs>
        <path id="SourceSans3-Regular-53a" d="M 1498 -77 
Q 1171 -77 921 3 
Q 672 83 486 211 
Q 301 339 160 480 
L 416 826 
Q 602 646 845 502 
Q 1088 358 1446 358 
Q 1696 358 1897 473 
Q 2099 589 2220 797 
Q 2342 1005 2342 1293 
Q 2342 1715 2105 1952 
Q 1869 2189 1472 2189 
Q 1267 2189 1113 2125 
Q 960 2061 774 1939 
L 493 2118 
L 627 4083 
L 2669 4083 
L 2669 3629 
L 1088 3629 
L 979 2419 
Q 1126 2496 1273 2541 
Q 1421 2586 1606 2586 
Q 1958 2586 2246 2451 
Q 2534 2317 2704 2032 
Q 2874 1747 2874 1306 
Q 2874 864 2678 553 
Q 2483 243 2169 83 
Q 1856 -77 1498 -77 
z
" transform="scale(0.015625)"/>
       </defs>
       <use xlink:href="#SourceSans3-Regular-537"/>
       <use xlink:href="#SourceSans3-Regular-535" transform="translate(49.703125 0)"/>
       <use xlink:href="#SourceSans3-Regular-537" transform="translate(99.40625 0)"/>
       <use xlink:href="#SourceSans3-Regular-53a" transform="translate(149.109375 0)"/>
      </g>
     </g>
    </g>
    <g id="xtick_7">
     <g id="line2d_7">
      <g>
       <use xlink:href="#m62303b2b34" x="425.667115" y="305.792" style="fill: #1c2531; stroke: #1c2531; stroke-width: 0.8"/>
      </g>
     </g>
     <g id="text_7">
      <!-- 2026 -->
      <g style="fill: #1c2531" transform="translate(414.732427 324.056) scale(0.11 -0.11)">
       <defs>
        <path id="SourceSans3-Regular-53b" d="M 1715 -77 
Q 1414 -77 1158 44 
Q 902 166 713 412 
Q 525 659 416 1027 
Q 307 1395 307 1888 
Q 307 2502 435 2934 
Q 563 3366 780 3635 
Q 998 3904 1276 4032 
Q 1555 4160 1862 4160 
Q 2195 4160 2435 4035 
Q 2675 3910 2848 3725 
L 2554 3398 
Q 2432 3546 2253 3632 
Q 2074 3718 1882 3718 
Q 1594 3718 1347 3545 
Q 1101 3373 953 2973 
Q 806 2573 806 1888 
Q 806 1382 912 1036 
Q 1018 691 1222 515 
Q 1427 339 1715 339 
Q 1914 339 2077 451 
Q 2240 563 2333 764 
Q 2426 966 2426 1235 
Q 2426 1498 2342 1693 
Q 2259 1888 2092 1993 
Q 1926 2099 1670 2099 
Q 1472 2099 1238 1968 
Q 1005 1837 794 1523 
L 774 1939 
Q 973 2195 1235 2345 
Q 1498 2496 1760 2496 
Q 2112 2496 2374 2355 
Q 2637 2214 2781 1932 
Q 2925 1651 2925 1235 
Q 2925 845 2758 550 
Q 2592 256 2317 89 
Q 2042 -77 1715 -77 
z
" transform="scale(0.015625)"/>
       </defs>
       <use xlink:href="#SourceSans3-Regular-537"/>
       <use xlink:href="#SourceSans3-Regular-535" transform="translate(49.703125 0)"/>
       <use xlink:href="#SourceSans3-Regular-537" transform="translate(99.40625 0)"/>
       <use xlink:href="#SourceSans3-Regular-53b" transform="translate(149.109375 0)"/>
      </g>
     </g>
    </g>
    <g id="xtick_8">
     <g id="line2d_8">
      <g>
       <use xlink:href="#m62303b2b34" x="480.223963" y="305.792" style="fill: #1c2531; stroke: #1c2531; stroke-width: 0.8"/>
      </g>
     </g>
     <g id="text_8">
      <!-- 2027 -->
      <g style="fill: #1c2531" transform="translate(469.289275 324.056) scale(0.11 -0.11)">
       <defs>
        <path id="SourceSans3-Regular-53c" d="M 1094 0 
Q 1120 576 1200 1059 
Q 1280 1542 1424 1968 
Q 1568 2394 1789 2800 
Q 2010 3206 2323 3629 
L 282 3629 
L 282 4083 
L 2912 4083 
L 2912 3757 
Q 2547 3296 2307 2870 
Q 2067 2445 1929 2009 
Q 1792 1574 1728 1088 
Q 1664 602 1638 0 
L 1094 0 
z
" transform="scale(0.015625)"/>
       </defs>
       <use xlink:href="#SourceSans3-Regular-537"/>
       <use xlink:href="#SourceSans3-Regular-535" transform="translate(49.703125 0)"/>
       <use xlink:href="#SourceSans3-Regular-537" transform="translate(99.40625 0)"/>
       <use xlink:href="#SourceSans3-Regular-53c" transform="translate(149.109375 0)"/>
      </g>
     </g>
    </g>
    <g id="text_9">
     <!-- Date -->
     <g style="fill: #1c2531" transform="translate(259.55609 343.72) scale(0.11 -0.11)">
      <defs>
       <path id="SourceSans3-Regular-5" d="M 576 0 
L 576 4198 
L 1626 4198 
Q 2272 4198 2713 3955 
Q 3155 3712 3382 3248 
Q 3610 2784 3610 2118 
Q 3610 1453 3382 976 
Q 3155 499 2720 249 
Q 2285 0 1651 0 
L 576 0 
z
M 1107 435 
L 1587 435 
Q 2080 435 2406 636 
Q 2733 838 2893 1209 
Q 3053 1581 3053 2118 
Q 3053 2643 2893 3014 
Q 2733 3386 2406 3574 
Q 2080 3763 1587 3763 
L 1107 3763 
L 1107 435 
z
" transform="scale(0.015625)"/>
       <path id="SourceSans3-Regular-1c" d="M 1242 -77 
Q 986 -77 778 28 
Q 570 134 448 329 
Q 326 525 326 806 
Q 326 1331 787 1600 
Q 1248 1869 2246 1978 
Q 2240 2170 2185 2349 
Q 2131 2528 1990 2637 
Q 1850 2746 1600 2746 
Q 1331 2746 1094 2646 
Q 858 2547 672 2426 
L 467 2784 
Q 608 2880 800 2973 
Q 992 3066 1216 3126 
Q 1440 3187 1690 3187 
Q 2067 3187 2307 3030 
Q 2547 2874 2659 2586 
Q 2771 2298 2771 1907 
L 2771 0 
L 2336 0 
L 2291 371 
L 2272 371 
Q 2048 186 1792 54 
Q 1536 -77 1242 -77 
z
M 1389 358 
Q 1619 358 1820 460 
Q 2022 563 2246 762 
L 2246 1600 
Q 1722 1536 1418 1437 
Q 1114 1338 979 1190 
Q 845 1043 845 838 
Q 845 582 1005 470 
Q 1165 358 1389 358 
z
" transform="scale(0.015625)"/>
       <path id="SourceSans3-Regular-2f" d="M 1504 -58 
Q 1011 -58 812 230 
Q 614 518 614 979 
L 614 2682 
L 154 2682 
L 154 3078 
L 640 3110 
L 704 4109 
L 1146 4109 
L 1146 3110 
L 1990 3110 
L 1990 2682 
L 1146 2682 
L 1146 973 
Q 1146 691 1251 531 
Q 1357 371 1626 371 
Q 1709 371 1798 387 
Q 1888 403 1978 448 
L 2093 77 
Q 1971 19 1817 -19 
Q 1664 -58 1504 -58 
z
" transform="scale(0.015625)"/>
       <path id="SourceSans3-Regular-20" d="M 1786 -77 
Q 1370 -77 1027 118 
Q 685 314 486 675 
Q 288 1037 288 1555 
Q 288 2061 493 2425 
Q 698 2790 1018 2988 
Q 1338 3187 1696 3187 
Q 2093 3187 2371 3004 
Q 2650 2822 2790 2496 
Q 2931 2170 2931 1728 
Q 2931 1645 2928 1568 
Q 2925 1491 2906 1414 
L 666 1414 
L 666 1830 
L 2458 1830 
Q 2458 2278 2262 2518 
Q 2067 2758 1702 2758 
Q 1491 2758 1286 2640 
Q 1082 2522 950 2259 
Q 819 1997 819 1562 
Q 819 1165 956 896 
Q 1094 627 1331 489 
Q 1568 352 1850 352 
Q 2074 352 2269 416 
Q 2464 480 2624 589 
L 2816 243 
Q 2611 102 2358 12 
Q 2106 -77 1786 -77 
z
" transform="scale(0.015625)"/>
      </defs>
      <use xlink:href="#SourceSans3-Regular-5"/>
      <use xlink:href="#SourceSans3-Regular-1c" transform="translate(61.5 0)"/>
      <use xlink:href="#SourceSans3-Regular-2f" transform="translate(110.5 0)"/>
      <use xlink:href="#SourceSans3-Regular-20" transform="translate(142.890625 0)"/>
     </g>
    </g>
   </g>
   <g id="matplotlib.axis_2">
    <g id="ytick_1">
     <g id="line2d_9">
      <defs>
       <path id="me1c128a243" d="M 0 0 
L -3.5 0 
" style="stroke: #1c2531; stroke-width: 0.8"/>
      </defs>
      <g>
       <use xlink:href="#me1c128a243" x="55.824" y="303.667324" style="fill: #1c2531; stroke: #1c2531; stroke-width: 0.8"/>
      </g>
     </g>
     <g id="text_10">
      <!-- 0 -->
      <g style="fill: #1c2531" transform="translate(43.356656 309.299324) scale(0.11 -0.11)">
       <use xlink:href="#SourceSans3-Regular-535"/>
      </g>
     </g>
    </g>
    <g id="ytick_2">
     <g id="line2d_10">
      <g>
       <use xlink:href="#me1c128a243" x="55.824" y="253.079796" style="fill: #1c2531; stroke: #1c2531; stroke-width: 0.8"/>
      </g>
     </g>
     <g id="text_11">
      <!-- 100 -->
      <g style="fill: #1c2531" transform="translate(32.421969 258.711796) scale(0.11 -0.11)">
       <use xlink:href="#SourceSans3-Regular-536"/>
       <use xlink:href="#SourceSans3-Regular-535" transform="translate(49.703125 0)"/>
       <use xlink:href="#SourceSans3-Regular-535" transform="translate(99.40625 0)"/>
      </g>
     </g>
    </g>
    <g id="ytick_3">
     <g id="line2d_11">
      <g>
       <use xlink:href="#me1c128a243" x="55.824" y="202.492267" style="fill: #1c2531; stroke: #1c2531; stroke-width: 0.8"/>
      </g>
     </g>
     <g id="text_12">
      <!-- 200 -->
      <g style="fill: #1c2531" transform="translate(32.421969 208.124267) scale(0.11 -0.11)">
       <use xlink:href="#SourceSans3-Regular-537"/>
       <use xlink:href="#SourceSans3-Regular-535" transform="translate(49.703125 0)"/>
       <use xlink:href="#SourceSans3-Regular-535" transform="translate(99.40625 0)"/>
      </g>
     </g>
    </g>
    <g id="ytick_4">
     <g id="line2d_12">
      <g>
       <use xlink:href="#me1c128a243" x="55.824" y="151.904739" style="fill: #1c2531; stroke: #1c2531; stroke-width: 0.8"/>
      </g>
     </g>
     <g id="text_13">
      <!-- 300 -->
      <g style="fill: #1c2531" transform="translate(32.421969 157.536739) scale(0.11 -0.11)">
       <use xlink:href="#SourceSans3-Regular-538"/>
       <use xlink:href="#SourceSans3-Regular-535" transform="translate(49.703125 0)"/>
       <use xlink:href="#SourceSans3-Regular-535" transform="translate(99.40625 0)"/>
      </g>
     </g>
    </g>
    <g id="ytick_5">
     <g id="line2d_13">
      <g>
       <use xlink:href="#me1c128a243" x="55.824" y="101.317211" style="fill: #1c2531; stroke: #1c2531; stroke-width: 0.8"/>
      </g>
     </g>
     <g id="text_14">
      <!-- 400 -->
      <g style="fill: #1c2531" transform="translate(32.421969 106.949211) scale(0.11 -0.11)">
       <use xlink:href="#SourceSans3-Regular-539"/>
       <use xlink:href="#SourceSans3-Regular-535" transform="translate(49.703125 0)"/>
       <use xlink:href="#SourceSans3-Regular-535" transform="translate(99.40625 0)"/>
      </g>
     </g>
    </g>
    <g id="ytick_6">
     <g id="line2d_14">
      <g>
       <use xlink:href="#me1c128a243" x="55.824" y="50.729683" style="fill: #1c2531; stroke: #1c2531; stroke-width: 0.8"/>
      </g>
     </g>
     <g id="text_15">
      <!-- 500 -->
      <g style="fill: #1c2531" transform="translate(32.421969 56.361683) scale(0.11 -0.11)">
       <use xlink:href="#SourceSans3-Regular-53a"/>
       <use xlink:href="#SourceSans3-Regular-535" transform="translate(49.703125 0)"/>
       <use xlink:href="#SourceSans3-Regular-535" transform="translate(99.40625 0)"/>
      </g>
     </g>
    </g>
    <g id="text_16">
     <!-- Cumulative issues closed -->
     <g style="fill: #1c2531" transform="translate(24.021969 228.493) rotate(-90) scale(0.11 -0.11)">
      <defs>
       <path id="SourceSans3-Regular-4" d="M 2170 -77 
Q 1645 -77 1225 182 
Q 806 442 569 928 
Q 333 1414 333 2099 
Q 333 2605 470 3008 
Q 608 3411 864 3696 
Q 1120 3981 1456 4128 
Q 1792 4275 2195 4275 
Q 2573 4275 2870 4121 
Q 3168 3968 3347 3757 
L 3059 3430 
Q 2893 3610 2678 3709 
Q 2464 3808 2202 3808 
Q 1811 3808 1513 3600 
Q 1216 3392 1049 3011 
Q 883 2630 883 2112 
Q 883 1581 1043 1197 
Q 1203 813 1504 605 
Q 1805 397 2208 397 
Q 2502 397 2736 509 
Q 2970 621 3162 838 
L 3443 525 
Q 3194 237 2886 80 
Q 2579 -77 2170 -77 
z
" transform="scale(0.015625)"/>
       <path id="SourceSans3-Regular-30" d="M 1434 -77 
Q 941 -77 713 233 
Q 486 544 486 1139 
L 486 3110 
L 1011 3110 
L 1011 1210 
Q 1011 774 1148 579 
Q 1286 384 1594 384 
Q 1830 384 2019 509 
Q 2208 634 2432 902 
L 2432 3110 
L 2957 3110 
L 2957 0 
L 2522 0 
L 2477 486 
L 2458 486 
Q 2246 230 2000 76 
Q 1754 -77 1434 -77 
z
" transform="scale(0.015625)"/>
       <path id="SourceSans3-Regular-28" d="M 525 0 
L 525 3110 
L 960 3110 
L 1005 2662 
L 1024 2662 
Q 1229 2880 1469 3033 
Q 1709 3187 1990 3187 
Q 2349 3187 2550 3027 
Q 2752 2867 2848 2592 
Q 3091 2861 3340 3024 
Q 3590 3187 3872 3187 
Q 4358 3187 4588 2876 
Q 4819 2566 4819 1971 
L 4819 0 
L 4294 0 
L 4294 1901 
Q 4294 2342 4153 2537 
Q 4013 2733 3718 2733 
Q 3533 2733 3344 2614 
Q 3155 2496 2938 2253 
L 2938 0 
L 2413 0 
L 2413 1901 
Q 2413 2342 2272 2537 
Q 2131 2733 1830 2733 
Q 1478 2733 1050 2253 
L 1050 0 
L 525 0 
z
" transform="scale(0.015625)"/>
       <path id="SourceSans3-Regular-27" d="M 1082 -58 
Q 883 -58 761 22 
Q 640 102 582 259 
Q 525 416 525 640 
L 525 4557 
L 1050 4557 
L 1050 602 
Q 1050 474 1094 426 
Q 1139 378 1203 378 
Q 1229 378 1251 381 
Q 1274 384 1312 390 
L 1389 -6 
Q 1331 -26 1257 -42 
Q 1184 -58 1082 -58 
z
" transform="scale(0.015625)"/>
       <path id="SourceSans3-Regular-24" d="M 525 0 
L 525 3110 
L 1050 3110 
L 1050 0 
L 525 0 
z
M 787 3750 
Q 633 3750 534 3846 
Q 435 3942 435 4096 
Q 435 4250 534 4346 
Q 633 4442 787 4442 
Q 941 4442 1040 4346 
Q 1139 4250 1139 4096 
Q 1139 3942 1040 3846 
Q 941 3750 787 3750 
z
" transform="scale(0.015625)"/>
       <path id="SourceSans3-Regular-31" d="M 1197 0 
L 77 3110 
L 621 3110 
L 1210 1344 
Q 1280 1120 1353 886 
Q 1427 653 1498 429 
L 1523 429 
Q 1587 653 1664 886 
Q 1741 1120 1805 1344 
L 2394 3110 
L 2912 3110 
L 1811 0 
L 1197 0 
z
" transform="scale(0.015625)"/>
       <path id="SourceSans3-Regular-1" transform="scale(0.015625)"/>
       <path id="SourceSans3-Regular-2e" d="M 1338 -77 
Q 998 -77 694 41 
Q 390 160 179 371 
L 422 678 
Q 627 512 848 422 
Q 1069 333 1357 333 
Q 1664 333 1817 477 
Q 1971 621 1971 819 
Q 1971 979 1865 1084 
Q 1760 1190 1603 1264 
Q 1446 1338 1267 1402 
Q 1037 1485 825 1597 
Q 614 1709 483 1878 
Q 352 2048 352 2304 
Q 352 2682 637 2934 
Q 922 3187 1427 3187 
Q 1715 3187 1964 3088 
Q 2214 2989 2394 2835 
L 2150 2534 
Q 1984 2650 1811 2714 
Q 1638 2778 1427 2778 
Q 1133 2778 995 2643 
Q 858 2509 858 2330 
Q 858 2189 941 2096 
Q 1024 2003 1174 1932 
Q 1325 1862 1517 1798 
Q 1760 1709 1981 1597 
Q 2202 1485 2339 1309 
Q 2477 1133 2477 851 
Q 2477 595 2345 387 
Q 2214 179 1961 51 
Q 1709 -77 1338 -77 
z
" transform="scale(0.015625)"/>
       <path id="SourceSans3-Regular-1e" d="M 1760 -77 
Q 1344 -77 1011 115 
Q 678 307 486 672 
Q 294 1037 294 1549 
Q 294 2074 502 2438 
Q 710 2803 1052 2995 
Q 1395 3187 1792 3187 
Q 2099 3187 2320 3084 
Q 2541 2982 2701 2822 
L 2438 2496 
Q 2323 2611 2166 2678 
Q 2010 2746 1811 2746 
Q 1536 2746 1315 2595 
Q 1094 2445 966 2176 
Q 838 1907 838 1549 
Q 838 1197 960 928 
Q 1082 659 1299 508 
Q 1517 358 1805 358 
Q 2022 358 2208 441 
Q 2394 525 2528 653 
L 2758 333 
Q 2560 147 2310 35 
Q 2061 -77 1760 -77 
z
" transform="scale(0.015625)"/>
       <path id="SourceSans3-Regular-2a" d="M 1734 -77 
Q 1357 -77 1027 115 
Q 698 307 496 672 
Q 294 1037 294 1549 
Q 294 2074 496 2438 
Q 698 2803 1027 2995 
Q 1357 3187 1734 3187 
Q 2118 3187 2444 2995 
Q 2771 2803 2972 2438 
Q 3174 2074 3174 1549 
Q 3174 1037 2972 672 
Q 2771 307 2444 115 
Q 2118 -77 1734 -77 
z
M 1734 358 
Q 2003 358 2208 508 
Q 2413 659 2521 928 
Q 2630 1197 2630 1549 
Q 2630 1907 2521 2179 
Q 2413 2451 2208 2601 
Q 2003 2752 1734 2752 
Q 1466 2752 1264 2601 
Q 1062 2451 950 2179 
Q 838 1907 838 1549 
Q 838 1197 950 928 
Q 1062 659 1264 508 
Q 1466 358 1734 358 
z
" transform="scale(0.015625)"/>
       <path id="SourceSans3-Regular-1f" d="M 1587 -77 
Q 998 -77 649 348 
Q 301 774 301 1549 
Q 301 2054 489 2422 
Q 678 2790 985 2988 
Q 1293 3187 1651 3187 
Q 1926 3187 2121 3094 
Q 2317 3002 2522 2829 
L 2496 3360 
L 2496 4557 
L 3027 4557 
L 3027 0 
L 2592 0 
L 2547 365 
L 2528 365 
Q 2349 186 2105 54 
Q 1862 -77 1587 -77 
z
M 1702 365 
Q 1920 365 2112 473 
Q 2304 582 2496 794 
L 2496 2419 
Q 2304 2598 2118 2672 
Q 1933 2746 1741 2746 
Q 1491 2746 1289 2595 
Q 1088 2445 966 2179 
Q 845 1914 845 1555 
Q 845 998 1069 681 
Q 1293 365 1702 365 
z
" transform="scale(0.015625)"/>
      </defs>
      <use xlink:href="#SourceSans3-Regular-4"/>
      <use xlink:href="#SourceSans3-Regular-30" transform="translate(56.09375 0)"/>
      <use xlink:href="#SourceSans3-Regular-28" transform="translate(110.5 0)"/>
      <use xlink:href="#SourceSans3-Regular-30" transform="translate(193.40625 0)"/>
      <use xlink:href="#SourceSans3-Regular-27" transform="translate(247.8125 0)"/>
      <use xlink:href="#SourceSans3-Regular-1c" transform="translate(273.3125 0)"/>
      <use xlink:href="#SourceSans3-Regular-2f" transform="translate(322.3125 0)"/>
      <use xlink:href="#SourceSans3-Regular-24" transform="translate(356.109375 0)"/>
      <use xlink:href="#SourceSans3-Regular-31" transform="translate(380.703125 0)"/>
      <use xlink:href="#SourceSans3-Regular-20" transform="translate(427 0)"/>
      <use xlink:href="#SourceSans3-Regular-1" transform="translate(476.59375 0)"/>
      <use xlink:href="#SourceSans3-Regular-24" transform="translate(496.59375 0)"/>
      <use xlink:href="#SourceSans3-Regular-2e" transform="translate(521.1875 0)"/>
      <use xlink:href="#SourceSans3-Regular-2e" transform="translate(563.09375 0)"/>
      <use xlink:href="#SourceSans3-Regular-30" transform="translate(605 0)"/>
      <use xlink:href="#SourceSans3-Regular-20" transform="translate(659.40625 0)"/>
      <use xlink:href="#SourceSans3-Regular-2e" transform="translate(709 0)"/>
      <use xlink:href="#SourceSans3-Regular-1" transform="translate(750.90625 0)"/>
      <use xlink:href="#SourceSans3-Regular-1e" transform="translate(770.90625 0)"/>
      <use xlink:href="#SourceSans3-Regular-27" transform="translate(816.5 0)"/>
      <use xlink:href="#SourceSans3-Regular-2a" transform="translate(842 0)"/>
      <use xlink:href="#SourceSans3-Regular-2e" transform="translate(896 0)"/>
      <use xlink:href="#SourceSans3-Regular-20" transform="translate(937.90625 0)"/>
      <use xlink:href="#SourceSans3-Regular-1f" transform="translate(987.5 0)"/>
     </g>
    </g>
   </g>
   <g id="line2d_15">
    <path d="M 75.307521 293.549818 
L 88.909365 293.043943 
L 90.404073 292.538068 
L 90.852486 292.032192 
L 91.749311 291.526317 
L 92.347194 290.514566 
L 92.795606 288.996941 
L 93.094548 288.491065 
L 93.542961 287.98519 
L 95.785023 287.479315 
L 105.351155 286.97344 
L 106.995334 286.467564 
L 107.144805 285.961689 
L 107.593217 285.455814 
L 107.742688 284.444063 
L 107.892159 281.914687 
L 109.386867 281.408811 
L 109.98475 280.902936 
L 112.525754 280.397061 
L 112.675225 279.38531 
L 113.721521 278.879435 
L 115.216229 277.867684 
L 118.803529 277.361809 
L 119.10247 276.855934 
L 120.148766 276.350059 
L 120.447708 275.844183 
L 121.792945 274.832433 
L 123.437124 274.326557 
L 125.081303 273.314807 
L 125.380244 272.808932 
L 127.173894 272.303056 
L 129.714898 271.797181 
L 131.209606 270.785431 
L 133.152727 270.279555 
L 133.601139 269.267805 
L 134.497964 268.761929 
L 134.647435 268.256054 
L 135.095848 267.750179 
L 142.569388 266.738428 
L 142.718859 266.232553 
L 144.363038 265.726678 
L 149.594517 265.220802 
L 153.7797 263.703177 
L 154.676524 263.197301 
L 154.975466 262.185551 
L 156.021762 261.679675 
L 156.171233 261.1738 
L 157.51647 260.16205 
L 157.815412 259.150299 
L 158.114353 258.644424 
L 159.160649 258.138548 
L 159.31012 257.632673 
L 159.609061 256.115047 
L 160.206945 255.609172 
L 161.552182 255.103297 
L 161.701653 254.597421 
L 163.943715 254.091546 
L 165.288952 253.079796 
L 165.438423 252.57392 
L 165.886836 252.068045 
L 167.680486 251.56217 
L 169.474135 250.044544 
L 169.773077 249.032793 
L 170.520431 248.526918 
L 170.819373 248.021043 
L 171.267785 246.503417 
L 178.890797 245.997542 
L 180.983388 244.985791 
L 181.132859 244.479916 
L 181.28233 242.96229 
L 182.179155 242.456415 
L 183.07598 241.444664 
L 183.374921 240.938789 
L 185.168571 240.432914 
L 185.467513 239.421163 
L 185.766454 238.915288 
L 186.513808 238.409412 
L 187.560104 236.891787 
L 188.307458 236.385911 
L 188.905341 234.36241 
L 189.353754 233.856535 
L 189.503225 233.35066 
L 189.802166 232.844784 
L 190.101108 231.833034 
L 191.595816 231.327159 
L 191.894758 230.821283 
L 193.688408 230.315408 
L 194.435762 229.809533 
L 196.528353 229.303657 
L 196.827295 228.797782 
L 198.471474 227.786032 
L 199.069357 226.774281 
L 199.816711 225.76253 
L 200.414594 225.256655 
L 201.46089 224.75078 
L 201.759832 223.739029 
L 203.25454 222.727279 
L 209.083902 222.221403 
L 209.532314 221.715528 
L 210.877551 221.209653 
L 211.624906 220.703778 
L 212.671201 220.197902 
L 213.568026 218.174401 
L 215.361676 217.668526 
L 215.511147 217.162651 
L 215.660618 216.1509 
L 216.10903 215.645025 
L 216.856384 214.633274 
L 217.603738 214.127399 
L 217.753209 213.621524 
L 218.201621 212.609773 
L 218.351092 211.598023 
L 218.799505 210.080397 
L 219.69633 208.562771 
L 221.340509 207.55102 
L 222.984688 207.045145 
L 223.4331 206.53927 
L 223.732042 204.515769 
L 225.974104 203.504018 
L 232.849761 202.998143 
L 232.999232 200.974642 
L 233.298174 200.468766 
L 242.116952 199.962891 
L 248.095785 199.457016 
L 249.291551 198.95114 
L 249.739964 196.927639 
L 250.038905 196.421764 
L 252.131497 195.410014 
L 252.430438 194.904138 
L 252.878851 193.892388 
L 253.626205 193.386512 
L 254.971442 192.880637 
L 255.120913 192.374762 
L 255.270384 191.363011 
L 256.017738 190.857136 
L 256.31668 186.304258 
L 256.765092 185.798383 
L 258.110329 185.292508 
L 269.17117 184.786633 
L 269.320641 184.280757 
L 270.96482 183.269007 
L 273.804765 182.763131 
L 275.897357 182.257256 
L 276.794182 180.233755 
L 281.278306 179.72788 
L 283.81931 178.210254 
L 285.463489 177.704379 
L 286.659255 177.198503 
L 286.808726 176.186753 
L 287.705551 175.680878 
L 288.901318 174.669127 
L 296.374858 173.657376 
L 300.858983 171.633875 
L 312.368236 171.128 
L 316.70289 170.622125 
L 329.108967 170.116249 
L 330.304734 169.104499 
L 330.603675 168.092748 
L 331.35103 167.080998 
L 335.237271 166.575122 
L 337.479333 165.563372 
L 337.927745 165.057497 
L 345.102345 164.551621 
L 373.202858 164.045746 
L 375.594391 163.539871 
L 377.537512 161.51637 
L 382.61952 161.010494 
L 384.712111 160.504619 
L 385.907878 159.998744 
L 386.804702 159.492869 
L 389.794119 158.986993 
L 391.737239 158.481118 
L 395.922422 156.963492 
L 399.958134 156.457617 
L 400.107605 155.951742 
L 403.395963 155.445866 
L 403.993846 153.92824 
L 404.890671 153.422365 
L 408.926383 152.91649 
L 410.12215 152.410615 
L 411.018975 151.398864 
L 411.766329 150.892989 
L 413.261037 150.387113 
L 415.802041 149.375363 
L 415.951512 148.869488 
L 417.147278 147.857737 
L 418.940928 147.351862 
L 423.126111 146.845986 
L 423.275582 146.340111 
L 426.264998 145.834236 
L 427.012352 145.328361 
L 428.50706 144.822485 
L 428.656531 144.31661 
L 428.955473 143.810735 
L 430.001768 142.293109 
L 434.03748 141.787234 
L 434.336422 141.281358 
L 439.41843 140.269608 
L 441.36155 139.763733 
L 442.258375 139.257857 
L 442.557317 137.740231 
L 443.304671 137.234356 
L 443.603613 136.222606 
L 444.500438 135.210855 
L 444.649908 134.70498 
L 444.94885 133.187354 
L 445.098321 131.669728 
L 445.845675 128.128601 
L 446.144617 127.11685 
L 446.294087 125.093349 
L 446.443558 121.552222 
L 447.041441 119.528721 
L 447.340383 119.022846 
L 447.489854 118.011095 
L 447.639325 115.987594 
L 448.087737 115.481719 
L 448.386679 110.422966 
L 448.53615 109.411216 
L 448.835091 105.364213 
L 449.283504 102.834837 
L 450.180329 99.799585 
L 450.47927 97.270209 
L 450.628741 95.246708 
L 450.778212 91.705581 
L 450.927683 91.199705 
L 451.226624 90.69383 
L 452.123449 90.187955 
L 452.422391 89.68208 
L 452.571862 89.176204 
L 454.06657 88.164454 
L 454.216041 87.152703 
L 454.813924 86.140953 
L 454.963395 85.635077 
L 456.607574 83.611576 
L 456.757045 83.105701 
L 457.504399 78.552823 
L 458.102282 76.529322 
L 458.700165 75.517572 
L 458.849636 75.011696 
L 458.999107 73.494071 
L 459.447519 72.988195 
L 459.59699 71.470569 
L 460.194873 70.964694 
L 461.241169 70.458819 
L 461.39064 69.952944 
L 461.839052 69.447068 
L 462.137994 66.917692 
L 462.287465 65.400066 
L 462.586406 64.388316 
L 462.885348 63.88244 
L 463.33376 61.858939 
L 463.632702 61.353064 
L 463.931644 59.835438 
L 464.678998 51.235558 
L 464.828469 49.212057 
L 464.977939 48.706182 
L 464.977939 48.706182 
" clip-path="url(#p0d625ceac1)" style="fill: none; stroke: #002d72; stroke-width: 1.5; stroke-linecap: square"/>
   </g>
   <g id="patch_3">
    <path d="M 55.824 305.792 
L 55.824 36.464 
" style="fill: none; stroke: #8a8a8a; stroke-linejoin: miter; stroke-linecap: square"/>
   </g>
   <g id="patch_4">
    <path d="M 55.824 305.792 
L 484.46146 305.792 
" style="fill: none; stroke: #8a8a8a; stroke-linejoin: miter; stroke-linecap: square"/>
   </g>
   <g id="text_17">
    <!-- Cumulative issues closed over time -->
    <g style="fill: #002d72" transform="translate(150.243121 24.464) scale(0.13 -0.13)">
     <defs>
      <path id="Montserrat-Bold-2d" d="M 2675 -77 
Q 2157 -77 1712 92 
Q 1267 262 940 576 
Q 614 890 432 1312 
Q 250 1734 250 2240 
Q 250 2746 432 3168 
Q 614 3590 944 3904 
Q 1274 4218 1715 4387 
Q 2157 4557 2682 4557 
Q 3264 4557 3734 4355 
Q 4205 4154 4525 3763 
L 3859 3149 
Q 3629 3411 3347 3542 
Q 3066 3674 2733 3674 
Q 2419 3674 2156 3571 
Q 1894 3469 1702 3277 
Q 1510 3085 1404 2822 
Q 1299 2560 1299 2240 
Q 1299 1920 1404 1657 
Q 1510 1395 1702 1203 
Q 1894 1011 2156 908 
Q 2419 806 2733 806 
Q 3066 806 3347 937 
Q 3629 1069 3859 1338 
L 4525 723 
Q 4205 333 3734 128 
Q 3264 -77 2675 -77 
z
" transform="scale(0.015625)"/>
      <path id="Montserrat-Bold-383" d="M 1914 -51 
Q 1485 -51 1149 115 
Q 813 282 627 624 
Q 442 966 442 1498 
L 442 3443 
L 1440 3443 
L 1440 1645 
Q 1440 1216 1622 1014 
Q 1805 813 2138 813 
Q 2368 813 2547 912 
Q 2726 1011 2828 1219 
Q 2931 1427 2931 1741 
L 2931 3443 
L 3930 3443 
L 3930 0 
L 2982 0 
L 2982 947 
L 3155 672 
Q 2982 314 2646 131 
Q 2310 -51 1914 -51 
z
" transform="scale(0.015625)"/>
      <path id="Montserrat-Bold-312" d="M 461 0 
L 461 3443 
L 1414 3443 
L 1414 2502 
L 1235 2778 
Q 1414 3130 1744 3312 
Q 2074 3494 2496 3494 
Q 2970 3494 3325 3254 
Q 3680 3014 3795 2522 
L 3443 2618 
Q 3616 3021 3997 3257 
Q 4378 3494 4870 3494 
Q 5280 3494 5597 3331 
Q 5914 3168 6096 2832 
Q 6278 2496 6278 1971 
L 6278 0 
L 5280 0 
L 5280 1818 
Q 5280 2234 5107 2432 
Q 4934 2630 4621 2630 
Q 4403 2630 4230 2531 
Q 4058 2432 3962 2233 
Q 3866 2035 3866 1728 
L 3866 0 
L 2867 0 
L 2867 1818 
Q 2867 2234 2697 2432 
Q 2528 2630 2214 2630 
Q 1997 2630 1824 2531 
Q 1651 2432 1555 2233 
Q 1459 2035 1459 1728 
L 1459 0 
L 461 0 
z
" transform="scale(0.015625)"/>
      <path id="Montserrat-Bold-301" d="M 461 0 
L 461 4749 
L 1459 4749 
L 1459 0 
L 461 0 
z
" transform="scale(0.015625)"/>
      <path id="Montserrat-Bold-24c" d="M 2573 0 
L 2573 672 
L 2509 819 
L 2509 2022 
Q 2509 2342 2313 2521 
Q 2118 2701 1715 2701 
Q 1440 2701 1174 2614 
Q 909 2528 723 2381 
L 365 3078 
Q 646 3277 1043 3385 
Q 1440 3494 1850 3494 
Q 2637 3494 3072 3123 
Q 3507 2752 3507 1965 
L 3507 0 
L 2573 0 
z
M 1523 -51 
Q 1120 -51 832 86 
Q 544 224 390 461 
Q 237 698 237 992 
Q 237 1299 387 1529 
Q 538 1760 864 1891 
Q 1190 2022 1715 2022 
L 2630 2022 
L 2630 1440 
L 1824 1440 
Q 1472 1440 1341 1325 
Q 1210 1210 1210 1037 
Q 1210 845 1360 733 
Q 1510 621 1773 621 
Q 2022 621 2220 739 
Q 2419 858 2509 1088 
L 2662 627 
Q 2554 294 2266 121 
Q 1978 -51 1523 -51 
z
" transform="scale(0.015625)"/>
      <path id="Montserrat-Bold-375" d="M 1869 -51 
Q 1261 -51 921 259 
Q 582 570 582 1184 
L 582 4205 
L 1581 4205 
L 1581 1197 
Q 1581 979 1696 860 
Q 1811 742 2010 742 
Q 2246 742 2413 870 
L 2682 166 
Q 2528 58 2313 3 
Q 2099 -51 1869 -51 
z
M 51 2675 
L 51 3443 
L 2438 3443 
L 2438 2675 
L 51 2675 
z
" transform="scale(0.015625)"/>
      <path id="Montserrat-Bold-2d7" d="M 461 0 
L 461 3443 
L 1459 3443 
L 1459 0 
L 461 0 
z
M 960 3923 
Q 685 3923 512 4083 
Q 339 4243 339 4480 
Q 339 4717 512 4877 
Q 685 5037 960 5037 
Q 1235 5037 1408 4886 
Q 1581 4736 1581 4499 
Q 1581 4250 1411 4086 
Q 1242 3923 960 3923 
z
" transform="scale(0.015625)"/>
      <path id="Montserrat-Bold-3a4" d="M 1395 0 
L -51 3443 
L 979 3443 
L 2182 480 
L 1670 480 
L 2918 3443 
L 3878 3443 
L 2426 0 
L 1395 0 
z
" transform="scale(0.015625)"/>
      <path id="Montserrat-Bold-295" d="M 2170 -51 
Q 1581 -51 1136 179 
Q 691 410 448 810 
Q 205 1210 205 1722 
Q 205 2240 445 2640 
Q 685 3040 1101 3267 
Q 1517 3494 2042 3494 
Q 2547 3494 2953 3280 
Q 3360 3066 3597 2666 
Q 3834 2266 3834 1709 
Q 3834 1651 3827 1577 
Q 3821 1504 3814 1440 
L 1018 1440 
L 1018 2022 
L 3290 2022 
L 2906 1850 
Q 2906 2118 2797 2316 
Q 2688 2515 2496 2627 
Q 2304 2739 2048 2739 
Q 1792 2739 1597 2627 
Q 1402 2515 1293 2313 
Q 1184 2112 1184 1837 
L 1184 1683 
Q 1184 1402 1309 1187 
Q 1434 973 1661 861 
Q 1888 749 2195 749 
Q 2470 749 2678 832 
Q 2886 915 3059 1082 
L 3590 506 
Q 3354 237 2995 93 
Q 2637 -51 2170 -51 
z
" transform="scale(0.015625)"/>
      <path id="Montserrat-Bold-8bd" transform="scale(0.015625)"/>
      <path id="Montserrat-Bold-367" d="M 1619 -51 
Q 1178 -51 771 54 
Q 365 160 128 320 
L 461 1037 
Q 698 890 1021 797 
Q 1344 704 1658 704 
Q 2003 704 2147 787 
Q 2291 870 2291 1018 
Q 2291 1139 2179 1200 
Q 2067 1261 1881 1293 
Q 1696 1325 1475 1357 
Q 1254 1389 1030 1443 
Q 806 1498 620 1606 
Q 435 1715 323 1900 
Q 211 2086 211 2381 
Q 211 2707 400 2956 
Q 589 3206 947 3350 
Q 1306 3494 1805 3494 
Q 2157 3494 2521 3417 
Q 2886 3341 3130 3194 
L 2797 2483 
Q 2547 2630 2294 2684 
Q 2042 2739 1805 2739 
Q 1472 2739 1318 2649 
Q 1165 2560 1165 2419 
Q 1165 2291 1277 2227 
Q 1389 2163 1574 2124 
Q 1760 2086 1981 2057 
Q 2202 2029 2426 1971 
Q 2650 1914 2832 1808 
Q 3014 1702 3129 1520 
Q 3245 1338 3245 1043 
Q 3245 723 3053 476 
Q 2861 230 2499 89 
Q 2138 -51 1619 -51 
z
" transform="scale(0.015625)"/>
      <path id="Montserrat-Bold-27a" d="M 2125 -51 
Q 1568 -51 1133 176 
Q 698 403 451 806 
Q 205 1210 205 1722 
Q 205 2240 451 2640 
Q 698 3040 1133 3267 
Q 1568 3494 2125 3494 
Q 2669 3494 3072 3267 
Q 3475 3040 3667 2618 
L 2893 2202 
Q 2758 2445 2556 2560 
Q 2355 2675 2118 2675 
Q 1862 2675 1657 2560 
Q 1453 2445 1334 2233 
Q 1216 2022 1216 1722 
Q 1216 1421 1334 1209 
Q 1453 998 1657 883 
Q 1862 768 2118 768 
Q 2355 768 2556 880 
Q 2758 992 2893 1242 
L 3667 819 
Q 3475 403 3072 176 
Q 2669 -51 2125 -51 
z
" transform="scale(0.015625)"/>
      <path id="Montserrat-Bold-327" d="M 2099 -51 
Q 1549 -51 1123 179 
Q 698 410 451 810 
Q 205 1210 205 1722 
Q 205 2240 451 2640 
Q 698 3040 1123 3267 
Q 1549 3494 2099 3494 
Q 2643 3494 3072 3267 
Q 3501 3040 3744 2643 
Q 3987 2246 3987 1722 
Q 3987 1210 3744 810 
Q 3501 410 3072 179 
Q 2643 -51 2099 -51 
z
M 2099 768 
Q 2349 768 2547 883 
Q 2746 998 2861 1212 
Q 2976 1427 2976 1722 
Q 2976 2022 2861 2233 
Q 2746 2445 2547 2560 
Q 2349 2675 2099 2675 
Q 1850 2675 1651 2560 
Q 1453 2445 1334 2233 
Q 1216 2022 1216 1722 
Q 1216 1427 1334 1212 
Q 1453 998 1651 883 
Q 1850 768 2099 768 
z
" transform="scale(0.015625)"/>
      <path id="Montserrat-Bold-286" d="M 1939 -51 
Q 1453 -51 1062 169 
Q 672 390 445 787 
Q 218 1184 218 1722 
Q 218 2266 445 2662 
Q 672 3059 1062 3276 
Q 1453 3494 1939 3494 
Q 2374 3494 2700 3302 
Q 3027 3110 3206 2720 
Q 3386 2330 3386 1722 
Q 3386 1120 3213 726 
Q 3040 333 2717 141 
Q 2394 -51 1939 -51 
z
M 2112 768 
Q 2355 768 2553 883 
Q 2752 998 2870 1212 
Q 2989 1427 2989 1722 
Q 2989 2022 2870 2233 
Q 2752 2445 2553 2560 
Q 2355 2675 2112 2675 
Q 1862 2675 1664 2560 
Q 1466 2445 1347 2233 
Q 1229 2022 1229 1722 
Q 1229 1427 1347 1212 
Q 1466 998 1664 883 
Q 1862 768 2112 768 
z
M 3014 0 
L 3014 704 
L 3034 1728 
L 2970 2746 
L 2970 4749 
L 3968 4749 
L 3968 0 
L 3014 0 
z
" transform="scale(0.015625)"/>
      <path id="Montserrat-Bold-359" d="M 461 0 
L 461 3443 
L 1414 3443 
L 1414 2470 
L 1280 2752 
Q 1434 3117 1773 3305 
Q 2112 3494 2598 3494 
L 2598 2573 
Q 2534 2579 2483 2582 
Q 2432 2586 2374 2586 
Q 1965 2586 1712 2352 
Q 1459 2118 1459 1626 
L 1459 0 
L 461 0 
z
" transform="scale(0.015625)"/>
     </defs>
     <use xlink:href="#Montserrat-Bold-2d"/>
     <use xlink:href="#Montserrat-Bold-383" transform="translate(71 0)"/>
     <use xlink:href="#Montserrat-Bold-312" transform="translate(139.703125 0)"/>
     <use xlink:href="#Montserrat-Bold-383" transform="translate(244.609375 0)"/>
     <use xlink:href="#Montserrat-Bold-301" transform="translate(313.3125 0)"/>
     <use xlink:href="#Montserrat-Bold-24c" transform="translate(343.40625 0)"/>
     <use xlink:href="#Montserrat-Bold-375" transform="translate(405.109375 0)"/>
     <use xlink:href="#Montserrat-Bold-2d7" transform="translate(448.609375 0)"/>
     <use xlink:href="#Montserrat-Bold-3a4" transform="translate(478.703125 0)"/>
     <use xlink:href="#Montserrat-Bold-295" transform="translate(537 0)"/>
     <use xlink:href="#Montserrat-Bold-8bd" transform="translate(600.09375 0)"/>
     <use xlink:href="#Montserrat-Bold-2d7" transform="translate(628.390625 0)"/>
     <use xlink:href="#Montserrat-Bold-367" transform="translate(658.484375 0)"/>
     <use xlink:href="#Montserrat-Bold-367" transform="translate(711.578125 0)"/>
     <use xlink:href="#Montserrat-Bold-383" transform="translate(764.671875 0)"/>
     <use xlink:href="#Montserrat-Bold-295" transform="translate(833.375 0)"/>
     <use xlink:href="#Montserrat-Bold-367" transform="translate(896.46875 0)"/>
     <use xlink:href="#Montserrat-Bold-8bd" transform="translate(949.5625 0)"/>
     <use xlink:href="#Montserrat-Bold-27a" transform="translate(977.859375 0)"/>
     <use xlink:href="#Montserrat-Bold-301" transform="translate(1036.546875 0)"/>
     <use xlink:href="#Montserrat-Bold-327" transform="translate(1066.640625 0)"/>
     <use xlink:href="#Montserrat-Bold-367" transform="translate(1132.140625 0)"/>
     <use xlink:href="#Montserrat-Bold-295" transform="translate(1185.234375 0)"/>
     <use xlink:href="#Montserrat-Bold-286" transform="translate(1248.328125 0)"/>
     <use xlink:href="#Montserrat-Bold-8bd" transform="translate(1317.53125 0)"/>
     <use xlink:href="#Montserrat-Bold-327" transform="translate(1345.828125 0)"/>
     <use xlink:href="#Montserrat-Bold-3a4" transform="translate(1409.828125 0)"/>
     <use xlink:href="#Montserrat-Bold-295" transform="translate(1468.125 0)"/>
     <use xlink:href="#Montserrat-Bold-359" transform="translate(1531.21875 0)"/>
     <use xlink:href="#Montserrat-Bold-8bd" transform="translate(1574.3125 0)"/>
     <use xlink:href="#Montserrat-Bold-375" transform="translate(1602.609375 0)"/>
     <use xlink:href="#Montserrat-Bold-2d7" transform="translate(1646.109375 0)"/>
     <use xlink:href="#Montserrat-Bold-312" transform="translate(1676.203125 0)"/>
     <use xlink:href="#Montserrat-Bold-295" transform="translate(1781.515625 0)"/>
    </g>
   </g>
  </g>
 </g>
 <defs>
  <clipPath id="p0d625ceac1">
   <rect x="55.824" y="36.464" width="428.63746" height="269.328"/>
  </clipPath>
 </defs>
</svg>
