<?xml version="1.0" encoding="utf-8" standalone="no"?>
<!DOCTYPE svg PUBLIC "-//W3C//DTD SVG 1.1//EN"
  "http://www.w3.org/Graphics/SVG/1.1/DTD/svg11.dtd">
<svg xmlns:xlink="http://www.w3.org/1999/xlink" width="504pt" height="360pt" viewBox="0 0 504 360" xmlns="http://www.w3.org/2000/svg" version="1.1">
 <metadata>
  <rdf:RDF xmlns:dc="http://purl.org/dc/elements/1.1/" xmlns:cc="http://creativecommons.org/ns#" xmlns:rdf="http://www.w3.org/1999/02/22-rdf-syntax-ns#">
   <cc:Work>
    <dc:type rdf:resource="http://purl.org/dc/dcmitype/StillImage"/>
    <dc:date>2026-07-15T07:46:06.079554</dc:date>
    <dc:format>image/svg+xml</dc:format>
    <dc:creator>
     <cc:Agent>
      <dc:title>Matplotlib v3.11.0, https://matplotlib.org/</dc:title>
     </cc:Agent>
    </dc:creator>
   </cc:Work>
  </rdf:RDF>
 </metadata>
 <defs>
  <style type="text/css">*{stroke-linejoin: round; stroke-linecap: butt}</style>
 </defs>
 <g id="figure_1">
  <g id="patch_1">
   <path d="M 0 360 
L 504 360 
L 504 0 
L 0 0 
L 0 360 
z
" style="fill: none"/>
  </g>
  <g id="axes_1">
   <g id="patch_2">
    <path d="M 55.824 305.792 
L 492.12 305.792 
L 492.12 36.464 
L 55.824 36.464 
L 55.824 305.792 
z
" style="fill: none"/>
   </g>
   <g id="matplotlib.axis_1">
    <g id="xtick_1">
     <g id="line2d_1">
      <defs>
       <path id="m4af8bbee55" d="M 0 0 
L 0 3.5 
" style="stroke: #1c2531; stroke-width: 0.8"/>
      </defs>
      <g>
       <use xlink:href="#m4af8bbee55" x="99.400487" y="305.792" style="fill: #1c2531; stroke: #1c2531; stroke-width: 0.8"/>
      </g>
     </g>
     <g id="text_1">
      <!-- 2020 -->
      <g style="fill: #1c2531" transform="translate(88.465799 324.056) scale(0.11 -0.11)">
       <defs>
        <path id="SourceSans3-Regular-537" d="M 256 0 
L 256 320 
Q 864 922 1296 1386 
Q 1728 1850 1952 2227 
Q 2176 2605 2176 2931 
Q 2176 3283 1984 3507 
Q 1792 3731 1402 3731 
Q 1146 3731 928 3590 
Q 710 3450 531 3238 
L 237 3526 
Q 493 3814 784 3987 
Q 1075 4160 1466 4160 
Q 1843 4160 2118 4009 
Q 2394 3859 2541 3590 
Q 2688 3322 2688 2963 
Q 2688 2566 2467 2176 
Q 2246 1786 1862 1357 
Q 1478 928 979 416 
Q 1146 435 1325 444 
Q 1504 454 1664 454 
L 2893 454 
L 2893 0 
L 256 0 
z
" transform="scale(0.015625)"/>
        <path id="SourceSans3-Regular-535" d="M 1594 -77 
Q 979 -77 630 476 
Q 282 1030 282 2054 
Q 282 3085 630 3622 
Q 979 4160 1594 4160 
Q 2202 4160 2550 3619 
Q 2899 3078 2899 2054 
Q 2899 1030 2550 476 
Q 2202 -77 1594 -77 
z
M 1594 346 
Q 1830 346 2009 525 
Q 2189 704 2288 1081 
Q 2387 1459 2387 2054 
Q 2387 2656 2288 3027 
Q 2189 3398 2009 3568 
Q 1830 3738 1594 3738 
Q 1350 3738 1171 3568 
Q 992 3398 893 3027 
Q 794 2656 794 2054 
Q 794 1459 893 1081 
Q 992 704 1171 525 
Q 1350 346 1594 346 
z
" transform="scale(0.015625)"/>
       </defs>
       <use xlink:href="#SourceSans3-Regular-537"/>
       <use xlink:href="#SourceSans3-Regular-535" transform="translate(49.703125 0)"/>
       <use xlink:href="#SourceSans3-Regular-537" transform="translate(99.40625 0)"/>
       <use xlink:href="#SourceSans3-Regular-535" transform="translate(149.109375 0)"/>
      </g>
     </g>
    </g>
    <g id="xtick_2">
     <g id="line2d_2">
      <g>
       <use xlink:href="#m4af8bbee55" x="156.575586" y="305.792" style="fill: #1c2531; stroke: #1c2531; stroke-width: 0.8"/>
      </g>
     </g>
     <g id="text_2">
      <!-- 2021 -->
      <g style="fill: #1c2531" transform="translate(145.640899 324.056) scale(0.11 -0.11)">
       <defs>
        <path id="SourceSans3-Regular-536" d="M 506 0 
L 506 435 
L 1440 435 
L 1440 3443 
L 698 3443 
L 698 3782 
Q 973 3834 1184 3907 
Q 1395 3981 1562 4083 
L 1965 4083 
L 1965 435 
L 2810 435 
L 2810 0 
L 506 0 
z
" transform="scale(0.015625)"/>
       </defs>
       <use xlink:href="#SourceSans3-Regular-537"/>
       <use xlink:href="#SourceSans3-Regular-535" transform="translate(49.703125 0)"/>
       <use xlink:href="#SourceSans3-Regular-537" transform="translate(99.40625 0)"/>
       <use xlink:href="#SourceSans3-Regular-536" transform="translate(149.109375 0)"/>
      </g>
     </g>
    </g>
    <g id="xtick_3">
     <g id="line2d_3">
      <g>
       <use xlink:href="#m4af8bbee55" x="213.59447" y="305.792" style="fill: #1c2531; stroke: #1c2531; stroke-width: 0.8"/>
      </g>
     </g>
     <g id="text_3">
      <!-- 2022 -->
      <g style="fill: #1c2531" transform="translate(202.659782 324.056) scale(0.11 -0.11)">
       <use xlink:href="#SourceSans3-Regular-537"/>
       <use xlink:href="#SourceSans3-Regular-535" transform="translate(49.703125 0)"/>
       <use xlink:href="#SourceSans3-Regular-537" transform="translate(99.40625 0)"/>
       <use xlink:href="#SourceSans3-Regular-537" transform="translate(149.109375 0)"/>
      </g>
     </g>
    </g>
    <g id="xtick_4">
     <g id="line2d_4">
      <g>
       <use xlink:href="#m4af8bbee55" x="270.613353" y="305.792" style="fill: #1c2531; stroke: #1c2531; stroke-width: 0.8"/>
      </g>
     </g>
     <g id="text_4">
      <!-- 2023 -->
      <g style="fill: #1c2531" transform="translate(259.678666 324.056) scale(0.11 -0.11)">
       <defs>
        <path id="SourceSans3-Regular-538" d="M 1510 -77 
Q 1184 -77 931 6 
Q 678 90 492 218 
Q 307 346 166 499 
L 435 845 
Q 621 653 867 505 
Q 1114 358 1478 358 
Q 1850 358 2086 563 
Q 2323 768 2323 1107 
Q 2323 1350 2198 1532 
Q 2074 1715 1789 1817 
Q 1504 1920 1018 1920 
L 1018 2323 
Q 1453 2323 1705 2425 
Q 1958 2528 2067 2697 
Q 2176 2867 2176 3085 
Q 2176 3386 1987 3558 
Q 1798 3731 1472 3731 
Q 1216 3731 998 3616 
Q 781 3501 602 3315 
L 320 3648 
Q 557 3872 845 4016 
Q 1133 4160 1491 4160 
Q 1850 4160 2125 4038 
Q 2400 3917 2557 3686 
Q 2714 3456 2714 3123 
Q 2714 2752 2509 2515 
Q 2304 2278 1971 2150 
L 1971 2125 
Q 2221 2067 2419 1929 
Q 2618 1792 2736 1581 
Q 2854 1370 2854 1088 
Q 2854 723 2675 464 
Q 2496 205 2189 64 
Q 1882 -77 1510 -77 
z
" transform="scale(0.015625)"/>
       </defs>
       <use xlink:href="#SourceSans3-Regular-537"/>
       <use xlink:href="#SourceSans3-Regular-535" transform="translate(49.703125 0)"/>
       <use xlink:href="#SourceSans3-Regular-537" transform="translate(99.40625 0)"/>
       <use xlink:href="#SourceSans3-Regular-538" transform="translate(149.109375 0)"/>
      </g>
     </g>
    </g>
    <g id="xtick_5">
     <g id="line2d_5">
      <g>
       <use xlink:href="#m4af8bbee55" x="327.632237" y="305.792" style="fill: #1c2531; stroke: #1c2531; stroke-width: 0.8"/>
      </g>
     </g>
     <g id="text_5">
      <!-- 2024 -->
      <g style="fill: #1c2531" transform="translate(316.69755 324.056) scale(0.11 -0.11)">
       <defs>
        <path id="SourceSans3-Regular-539" d="M 1946 0 
L 1946 2733 
Q 1946 2893 1958 3126 
Q 1971 3360 1978 3520 
L 1952 3520 
Q 1875 3373 1792 3235 
Q 1709 3098 1619 2944 
L 666 1549 
L 3002 1549 
L 3002 1126 
L 109 1126 
L 109 1472 
L 1856 4083 
L 2445 4083 
L 2445 0 
L 1946 0 
z
" transform="scale(0.015625)"/>
       </defs>
       <use xlink:href="#SourceSans3-Regular-537"/>
       <use xlink:href="#SourceSans3-Regular-535" transform="translate(49.703125 0)"/>
       <use xlink:href="#SourceSans3-Regular-537" transform="translate(99.40625 0)"/>
       <use xlink:href="#SourceSans3-Regular-539" transform="translate(149.109375 0)"/>
      </g>
     </g>
    </g>
    <g id="xtick_6">
     <g id="line2d_6">
      <g>
       <use xlink:href="#m4af8bbee55" x="384.807337" y="305.792" style="fill: #1c2531; stroke: #1c2531; stroke-width: 0.8"/>
      </g>
     </g>
     <g id="text_6">
      <!-- 2025 -->
      <g style="fill: #1c2531" transform="translate(373.872649 324.056) scale(0.11 -0.11)">
       <defs>
        <path id="SourceSans3-Regular-53a" d="M 1498 -77 
Q 1171 -77 921 3 
Q 672 83 486 211 
Q 301 339 160 480 
L 416 826 
Q 602 646 845 502 
Q 1088 358 1446 358 
Q 1696 358 1897 473 
Q 2099 589 2220 797 
Q 2342 1005 2342 1293 
Q 2342 1715 2105 1952 
Q 1869 2189 1472 2189 
Q 1267 2189 1113 2125 
Q 960 2061 774 1939 
L 493 2118 
L 627 4083 
L 2669 4083 
L 2669 3629 
L 1088 3629 
L 979 2419 
Q 1126 2496 1273 2541 
Q 1421 2586 1606 2586 
Q 1958 2586 2246 2451 
Q 2534 2317 2704 2032 
Q 2874 1747 2874 1306 
Q 2874 864 2678 553 
Q 2483 243 2169 83 
Q 1856 -77 1498 -77 
z
" transform="scale(0.015625)"/>
       </defs>
       <use xlink:href="#SourceSans3-Regular-537"/>
       <use xlink:href="#SourceSans3-Regular-535" transform="translate(49.703125 0)"/>
       <use xlink:href="#SourceSans3-Regular-537" transform="translate(99.40625 0)"/>
       <use xlink:href="#SourceSans3-Regular-53a" transform="translate(149.109375 0)"/>
      </g>
     </g>
    </g>
    <g id="xtick_7">
     <g id="line2d_7">
      <g>
       <use xlink:href="#m4af8bbee55" x="441.82622" y="305.792" style="fill: #1c2531; stroke: #1c2531; stroke-width: 0.8"/>
      </g>
     </g>
     <g id="text_7">
      <!-- 2026 -->
      <g style="fill: #1c2531" transform="translate(430.891533 324.056) scale(0.11 -0.11)">
       <defs>
        <path id="SourceSans3-Regular-53b" d="M 1715 -77 
Q 1414 -77 1158 44 
Q 902 166 713 412 
Q 525 659 416 1027 
Q 307 1395 307 1888 
Q 307 2502 435 2934 
Q 563 3366 780 3635 
Q 998 3904 1276 4032 
Q 1555 4160 1862 4160 
Q 2195 4160 2435 4035 
Q 2675 3910 2848 3725 
L 2554 3398 
Q 2432 3546 2253 3632 
Q 2074 3718 1882 3718 
Q 1594 3718 1347 3545 
Q 1101 3373 953 2973 
Q 806 2573 806 1888 
Q 806 1382 912 1036 
Q 1018 691 1222 515 
Q 1427 339 1715 339 
Q 1914 339 2077 451 
Q 2240 563 2333 764 
Q 2426 966 2426 1235 
Q 2426 1498 2342 1693 
Q 2259 1888 2092 1993 
Q 1926 2099 1670 2099 
Q 1472 2099 1238 1968 
Q 1005 1837 794 1523 
L 774 1939 
Q 973 2195 1235 2345 
Q 1498 2496 1760 2496 
Q 2112 2496 2374 2355 
Q 2637 2214 2781 1932 
Q 2925 1651 2925 1235 
Q 2925 845 2758 550 
Q 2592 256 2317 89 
Q 2042 -77 1715 -77 
z
" transform="scale(0.015625)"/>
       </defs>
       <use xlink:href="#SourceSans3-Regular-537"/>
       <use xlink:href="#SourceSans3-Regular-535" transform="translate(49.703125 0)"/>
       <use xlink:href="#SourceSans3-Regular-537" transform="translate(99.40625 0)"/>
       <use xlink:href="#SourceSans3-Regular-53b" transform="translate(149.109375 0)"/>
      </g>
     </g>
    </g>
    <g id="text_8">
     <!-- Date -->
     <g style="fill: #1c2531" transform="translate(263.385359 343.72) scale(0.11 -0.11)">
      <defs>
       <path id="SourceSans3-Regular-5" d="M 576 0 
L 576 4198 
L 1626 4198 
Q 2272 4198 2713 3955 
Q 3155 3712 3382 3248 
Q 3610 2784 3610 2118 
Q 3610 1453 3382 976 
Q 3155 499 2720 249 
Q 2285 0 1651 0 
L 576 0 
z
M 1107 435 
L 1587 435 
Q 2080 435 2406 636 
Q 2733 838 2893 1209 
Q 3053 1581 3053 2118 
Q 3053 2643 2893 3014 
Q 2733 3386 2406 3574 
Q 2080 3763 1587 3763 
L 1107 3763 
L 1107 435 
z
" transform="scale(0.015625)"/>
       <path id="SourceSans3-Regular-1c" d="M 1242 -77 
Q 986 -77 778 28 
Q 570 134 448 329 
Q 326 525 326 806 
Q 326 1331 787 1600 
Q 1248 1869 2246 1978 
Q 2240 2170 2185 2349 
Q 2131 2528 1990 2637 
Q 1850 2746 1600 2746 
Q 1331 2746 1094 2646 
Q 858 2547 672 2426 
L 467 2784 
Q 608 2880 800 2973 
Q 992 3066 1216 3126 
Q 1440 3187 1690 3187 
Q 2067 3187 2307 3030 
Q 2547 2874 2659 2586 
Q 2771 2298 2771 1907 
L 2771 0 
L 2336 0 
L 2291 371 
L 2272 371 
Q 2048 186 1792 54 
Q 1536 -77 1242 -77 
z
M 1389 358 
Q 1619 358 1820 460 
Q 2022 563 2246 762 
L 2246 1600 
Q 1722 1536 1418 1437 
Q 1114 1338 979 1190 
Q 845 1043 845 838 
Q 845 582 1005 470 
Q 1165 358 1389 358 
z
" transform="scale(0.015625)"/>
       <path id="SourceSans3-Regular-2f" d="M 1504 -58 
Q 1011 -58 812 230 
Q 614 518 614 979 
L 614 2682 
L 154 2682 
L 154 3078 
L 640 3110 
L 704 4109 
L 1146 4109 
L 1146 3110 
L 1990 3110 
L 1990 2682 
L 1146 2682 
L 1146 973 
Q 1146 691 1251 531 
Q 1357 371 1626 371 
Q 1709 371 1798 387 
Q 1888 403 1978 448 
L 2093 77 
Q 1971 19 1817 -19 
Q 1664 -58 1504 -58 
z
" transform="scale(0.015625)"/>
       <path id="SourceSans3-Regular-20" d="M 1786 -77 
Q 1370 -77 1027 118 
Q 685 314 486 675 
Q 288 1037 288 1555 
Q 288 2061 493 2425 
Q 698 2790 1018 2988 
Q 1338 3187 1696 3187 
Q 2093 3187 2371 3004 
Q 2650 2822 2790 2496 
Q 2931 2170 2931 1728 
Q 2931 1645 2928 1568 
Q 2925 1491 2906 1414 
L 666 1414 
L 666 1830 
L 2458 1830 
Q 2458 2278 2262 2518 
Q 2067 2758 1702 2758 
Q 1491 2758 1286 2640 
Q 1082 2522 950 2259 
Q 819 1997 819 1562 
Q 819 1165 956 896 
Q 1094 627 1331 489 
Q 1568 352 1850 352 
Q 2074 352 2269 416 
Q 2464 480 2624 589 
L 2816 243 
Q 2611 102 2358 12 
Q 2106 -77 1786 -77 
z
" transform="scale(0.015625)"/>
      </defs>
      <use xlink:href="#SourceSans3-Regular-5"/>
      <use xlink:href="#SourceSans3-Regular-1c" transform="translate(61.5 0)"/>
      <use xlink:href="#SourceSans3-Regular-2f" transform="translate(110.5 0)"/>
      <use xlink:href="#SourceSans3-Regular-20" transform="translate(142.890625 0)"/>
     </g>
    </g>
   </g>
   <g id="matplotlib.axis_2">
    <g id="ytick_1">
     <g id="line2d_8">
      <defs>
       <path id="m46861e0c29" d="M 0 0 
L -3.5 0 
" style="stroke: #1c2531; stroke-width: 0.8"/>
      </defs>
      <g>
       <use xlink:href="#m46861e0c29" x="55.824" y="305.522612" style="fill: #1c2531; stroke: #1c2531; stroke-width: 0.8"/>
      </g>
     </g>
     <g id="text_9">
      <!-- 0 -->
      <g style="fill: #1c2531" transform="translate(43.356656 311.154612) scale(0.11 -0.11)">
       <use xlink:href="#SourceSans3-Regular-535"/>
      </g>
     </g>
    </g>
    <g id="ytick_2">
     <g id="line2d_9">
      <g>
       <use xlink:href="#m46861e0c29" x="55.824" y="275.590627" style="fill: #1c2531; stroke: #1c2531; stroke-width: 0.8"/>
      </g>
     </g>
     <g id="text_10">
      <!-- 50 -->
      <g style="fill: #1c2531" transform="translate(37.889313 281.222627) scale(0.11 -0.11)">
       <use xlink:href="#SourceSans3-Regular-53a"/>
       <use xlink:href="#SourceSans3-Regular-535" transform="translate(49.703125 0)"/>
      </g>
     </g>
    </g>
    <g id="ytick_3">
     <g id="line2d_10">
      <g>
       <use xlink:href="#m46861e0c29" x="55.824" y="245.658642" style="fill: #1c2531; stroke: #1c2531; stroke-width: 0.8"/>
      </g>
     </g>
     <g id="text_11">
      <!-- 100 -->
      <g style="fill: #1c2531" transform="translate(32.421969 251.290642) scale(0.11 -0.11)">
       <use xlink:href="#SourceSans3-Regular-536"/>
       <use xlink:href="#SourceSans3-Regular-535" transform="translate(49.703125 0)"/>
       <use xlink:href="#SourceSans3-Regular-535" transform="translate(99.40625 0)"/>
      </g>
     </g>
    </g>
    <g id="ytick_4">
     <g id="line2d_11">
      <g>
       <use xlink:href="#m46861e0c29" x="55.824" y="215.726657" style="fill: #1c2531; stroke: #1c2531; stroke-width: 0.8"/>
      </g>
     </g>
     <g id="text_12">
      <!-- 150 -->
      <g style="fill: #1c2531" transform="translate(32.421969 221.358657) scale(0.11 -0.11)">
       <use xlink:href="#SourceSans3-Regular-536"/>
       <use xlink:href="#SourceSans3-Regular-53a" transform="translate(49.703125 0)"/>
       <use xlink:href="#SourceSans3-Regular-535" transform="translate(99.40625 0)"/>
      </g>
     </g>
    </g>
    <g id="ytick_5">
     <g id="line2d_12">
      <g>
       <use xlink:href="#m46861e0c29" x="55.824" y="185.794673" style="fill: #1c2531; stroke: #1c2531; stroke-width: 0.8"/>
      </g>
     </g>
     <g id="text_13">
      <!-- 200 -->
      <g style="fill: #1c2531" transform="translate(32.421969 191.426673) scale(0.11 -0.11)">
       <use xlink:href="#SourceSans3-Regular-537"/>
       <use xlink:href="#SourceSans3-Regular-535" transform="translate(49.703125 0)"/>
       <use xlink:href="#SourceSans3-Regular-535" transform="translate(99.40625 0)"/>
      </g>
     </g>
    </g>
    <g id="ytick_6">
     <g id="line2d_13">
      <g>
       <use xlink:href="#m46861e0c29" x="55.824" y="155.862688" style="fill: #1c2531; stroke: #1c2531; stroke-width: 0.8"/>
      </g>
     </g>
     <g id="text_14">
      <!-- 250 -->
      <g style="fill: #1c2531" transform="translate(32.421969 161.494688) scale(0.11 -0.11)">
       <use xlink:href="#SourceSans3-Regular-537"/>
       <use xlink:href="#SourceSans3-Regular-53a" transform="translate(49.703125 0)"/>
       <use xlink:href="#SourceSans3-Regular-535" transform="translate(99.40625 0)"/>
      </g>
     </g>
    </g>
    <g id="ytick_7">
     <g id="line2d_14">
      <g>
       <use xlink:href="#m46861e0c29" x="55.824" y="125.930703" style="fill: #1c2531; stroke: #1c2531; stroke-width: 0.8"/>
      </g>
     </g>
     <g id="text_15">
      <!-- 300 -->
      <g style="fill: #1c2531" transform="translate(32.421969 131.562703) scale(0.11 -0.11)">
       <use xlink:href="#SourceSans3-Regular-538"/>
       <use xlink:href="#SourceSans3-Regular-535" transform="translate(49.703125 0)"/>
       <use xlink:href="#SourceSans3-Regular-535" transform="translate(99.40625 0)"/>
      </g>
     </g>
    </g>
    <g id="ytick_8">
     <g id="line2d_15">
      <g>
       <use xlink:href="#m46861e0c29" x="55.824" y="95.998718" style="fill: #1c2531; stroke: #1c2531; stroke-width: 0.8"/>
      </g>
     </g>
     <g id="text_16">
      <!-- 350 -->
      <g style="fill: #1c2531" transform="translate(32.421969 101.630718) scale(0.11 -0.11)">
       <use xlink:href="#SourceSans3-Regular-538"/>
       <use xlink:href="#SourceSans3-Regular-53a" transform="translate(49.703125 0)"/>
       <use xlink:href="#SourceSans3-Regular-535" transform="translate(99.40625 0)"/>
      </g>
     </g>
    </g>
    <g id="ytick_9">
     <g id="line2d_16">
      <g>
       <use xlink:href="#m46861e0c29" x="55.824" y="66.066733" style="fill: #1c2531; stroke: #1c2531; stroke-width: 0.8"/>
      </g>
     </g>
     <g id="text_17">
      <!-- 400 -->
      <g style="fill: #1c2531" transform="translate(32.421969 71.698733) scale(0.11 -0.11)">
       <use xlink:href="#SourceSans3-Regular-539"/>
       <use xlink:href="#SourceSans3-Regular-535" transform="translate(49.703125 0)"/>
       <use xlink:href="#SourceSans3-Regular-535" transform="translate(99.40625 0)"/>
      </g>
     </g>
    </g>
    <g id="text_18">
     <!-- Cumulative issues closed -->
     <g style="fill: #1c2531" transform="translate(24.021969 228.493) rotate(-90) scale(0.11 -0.11)">
      <defs>
       <path id="SourceSans3-Regular-4" d="M 2170 -77 
Q 1645 -77 1225 182 
Q 806 442 569 928 
Q 333 1414 333 2099 
Q 333 2605 470 3008 
Q 608 3411 864 3696 
Q 1120 3981 1456 4128 
Q 1792 4275 2195 4275 
Q 2573 4275 2870 4121 
Q 3168 3968 3347 3757 
L 3059 3430 
Q 2893 3610 2678 3709 
Q 2464 3808 2202 3808 
Q 1811 3808 1513 3600 
Q 1216 3392 1049 3011 
Q 883 2630 883 2112 
Q 883 1581 1043 1197 
Q 1203 813 1504 605 
Q 1805 397 2208 397 
Q 2502 397 2736 509 
Q 2970 621 3162 838 
L 3443 525 
Q 3194 237 2886 80 
Q 2579 -77 2170 -77 
z
" transform="scale(0.015625)"/>
       <path id="SourceSans3-Regular-30" d="M 1434 -77 
Q 941 -77 713 233 
Q 486 544 486 1139 
L 486 3110 
L 1011 3110 
L 1011 1210 
Q 1011 774 1148 579 
Q 1286 384 1594 384 
Q 1830 384 2019 509 
Q 2208 634 2432 902 
L 2432 3110 
L 2957 3110 
L 2957 0 
L 2522 0 
L 2477 486 
L 2458 486 
Q 2246 230 2000 76 
Q 1754 -77 1434 -77 
z
" transform="scale(0.015625)"/>
       <path id="SourceSans3-Regular-28" d="M 525 0 
L 525 3110 
L 960 3110 
L 1005 2662 
L 1024 2662 
Q 1229 2880 1469 3033 
Q 1709 3187 1990 3187 
Q 2349 3187 2550 3027 
Q 2752 2867 2848 2592 
Q 3091 2861 3340 3024 
Q 3590 3187 3872 3187 
Q 4358 3187 4588 2876 
Q 4819 2566 4819 1971 
L 4819 0 
L 4294 0 
L 4294 1901 
Q 4294 2342 4153 2537 
Q 4013 2733 3718 2733 
Q 3533 2733 3344 2614 
Q 3155 2496 2938 2253 
L 2938 0 
L 2413 0 
L 2413 1901 
Q 2413 2342 2272 2537 
Q 2131 2733 1830 2733 
Q 1478 2733 1050 2253 
L 1050 0 
L 525 0 
z
" transform="scale(0.015625)"/>
       <path id="SourceSans3-Regular-27" d="M 1082 -58 
Q 883 -58 761 22 
Q 640 102 582 259 
Q 525 416 525 640 
L 525 4557 
L 1050 4557 
L 1050 602 
Q 1050 474 1094 426 
Q 1139 378 1203 378 
Q 1229 378 1251 381 
Q 1274 384 1312 390 
L 1389 -6 
Q 1331 -26 1257 -42 
Q 1184 -58 1082 -58 
z
" transform="scale(0.015625)"/>
       <path id="SourceSans3-Regular-24" d="M 525 0 
L 525 3110 
L 1050 3110 
L 1050 0 
L 525 0 
z
M 787 3750 
Q 633 3750 534 3846 
Q 435 3942 435 4096 
Q 435 4250 534 4346 
Q 633 4442 787 4442 
Q 941 4442 1040 4346 
Q 1139 4250 1139 4096 
Q 1139 3942 1040 3846 
Q 941 3750 787 3750 
z
" transform="scale(0.015625)"/>
       <path id="SourceSans3-Regular-31" d="M 1197 0 
L 77 3110 
L 621 3110 
L 1210 1344 
Q 1280 1120 1353 886 
Q 1427 653 1498 429 
L 1523 429 
Q 1587 653 1664 886 
Q 1741 1120 1805 1344 
L 2394 3110 
L 2912 3110 
L 1811 0 
L 1197 0 
z
" transform="scale(0.015625)"/>
       <path id="SourceSans3-Regular-1" transform="scale(0.015625)"/>
       <path id="SourceSans3-Regular-2e" d="M 1338 -77 
Q 998 -77 694 41 
Q 390 160 179 371 
L 422 678 
Q 627 512 848 422 
Q 1069 333 1357 333 
Q 1664 333 1817 477 
Q 1971 621 1971 819 
Q 1971 979 1865 1084 
Q 1760 1190 1603 1264 
Q 1446 1338 1267 1402 
Q 1037 1485 825 1597 
Q 614 1709 483 1878 
Q 352 2048 352 2304 
Q 352 2682 637 2934 
Q 922 3187 1427 3187 
Q 1715 3187 1964 3088 
Q 2214 2989 2394 2835 
L 2150 2534 
Q 1984 2650 1811 2714 
Q 1638 2778 1427 2778 
Q 1133 2778 995 2643 
Q 858 2509 858 2330 
Q 858 2189 941 2096 
Q 1024 2003 1174 1932 
Q 1325 1862 1517 1798 
Q 1760 1709 1981 1597 
Q 2202 1485 2339 1309 
Q 2477 1133 2477 851 
Q 2477 595 2345 387 
Q 2214 179 1961 51 
Q 1709 -77 1338 -77 
z
" transform="scale(0.015625)"/>
       <path id="SourceSans3-Regular-1e" d="M 1760 -77 
Q 1344 -77 1011 115 
Q 678 307 486 672 
Q 294 1037 294 1549 
Q 294 2074 502 2438 
Q 710 2803 1052 2995 
Q 1395 3187 1792 3187 
Q 2099 3187 2320 3084 
Q 2541 2982 2701 2822 
L 2438 2496 
Q 2323 2611 2166 2678 
Q 2010 2746 1811 2746 
Q 1536 2746 1315 2595 
Q 1094 2445 966 2176 
Q 838 1907 838 1549 
Q 838 1197 960 928 
Q 1082 659 1299 508 
Q 1517 358 1805 358 
Q 2022 358 2208 441 
Q 2394 525 2528 653 
L 2758 333 
Q 2560 147 2310 35 
Q 2061 -77 1760 -77 
z
" transform="scale(0.015625)"/>
       <path id="SourceSans3-Regular-2a" d="M 1734 -77 
Q 1357 -77 1027 115 
Q 698 307 496 672 
Q 294 1037 294 1549 
Q 294 2074 496 2438 
Q 698 2803 1027 2995 
Q 1357 3187 1734 3187 
Q 2118 3187 2444 2995 
Q 2771 2803 2972 2438 
Q 3174 2074 3174 1549 
Q 3174 1037 2972 672 
Q 2771 307 2444 115 
Q 2118 -77 1734 -77 
z
M 1734 358 
Q 2003 358 2208 508 
Q 2413 659 2521 928 
Q 2630 1197 2630 1549 
Q 2630 1907 2521 2179 
Q 2413 2451 2208 2601 
Q 2003 2752 1734 2752 
Q 1466 2752 1264 2601 
Q 1062 2451 950 2179 
Q 838 1907 838 1549 
Q 838 1197 950 928 
Q 1062 659 1264 508 
Q 1466 358 1734 358 
z
" transform="scale(0.015625)"/>
       <path id="SourceSans3-Regular-1f" d="M 1587 -77 
Q 998 -77 649 348 
Q 301 774 301 1549 
Q 301 2054 489 2422 
Q 678 2790 985 2988 
Q 1293 3187 1651 3187 
Q 1926 3187 2121 3094 
Q 2317 3002 2522 2829 
L 2496 3360 
L 2496 4557 
L 3027 4557 
L 3027 0 
L 2592 0 
L 2547 365 
L 2528 365 
Q 2349 186 2105 54 
Q 1862 -77 1587 -77 
z
M 1702 365 
Q 1920 365 2112 473 
Q 2304 582 2496 794 
L 2496 2419 
Q 2304 2598 2118 2672 
Q 1933 2746 1741 2746 
Q 1491 2746 1289 2595 
Q 1088 2445 966 2179 
Q 845 1914 845 1555 
Q 845 998 1069 681 
Q 1293 365 1702 365 
z
" transform="scale(0.015625)"/>
      </defs>
      <use xlink:href="#SourceSans3-Regular-4"/>
      <use xlink:href="#SourceSans3-Regular-30" transform="translate(56.09375 0)"/>
      <use xlink:href="#SourceSans3-Regular-28" transform="translate(110.5 0)"/>
      <use xlink:href="#SourceSans3-Regular-30" transform="translate(193.40625 0)"/>
      <use xlink:href="#SourceSans3-Regular-27" transform="translate(247.8125 0)"/>
      <use xlink:href="#SourceSans3-Regular-1c" transform="translate(273.3125 0)"/>
      <use xlink:href="#SourceSans3-Regular-2f" transform="translate(322.3125 0)"/>
      <use xlink:href="#SourceSans3-Regular-24" transform="translate(356.109375 0)"/>
      <use xlink:href="#SourceSans3-Regular-31" transform="translate(380.703125 0)"/>
      <use xlink:href="#SourceSans3-Regular-20" transform="translate(427 0)"/>
      <use xlink:href="#SourceSans3-Regular-1" transform="translate(476.59375 0)"/>
      <use xlink:href="#SourceSans3-Regular-24" transform="translate(496.59375 0)"/>
      <use xlink:href="#SourceSans3-Regular-2e" transform="translate(521.1875 0)"/>
      <use xlink:href="#SourceSans3-Regular-2e" transform="translate(563.09375 0)"/>
      <use xlink:href="#SourceSans3-Regular-30" transform="translate(605 0)"/>
      <use xlink:href="#SourceSans3-Regular-20" transform="translate(659.40625 0)"/>
      <use xlink:href="#SourceSans3-Regular-2e" transform="translate(709 0)"/>
      <use xlink:href="#SourceSans3-Regular-1" transform="translate(750.90625 0)"/>
      <use xlink:href="#SourceSans3-Regular-1e" transform="translate(770.90625 0)"/>
      <use xlink:href="#SourceSans3-Regular-27" transform="translate(816.5 0)"/>
      <use xlink:href="#SourceSans3-Regular-2a" transform="translate(842 0)"/>
      <use xlink:href="#SourceSans3-Regular-2e" transform="translate(896 0)"/>
      <use xlink:href="#SourceSans3-Regular-20" transform="translate(937.90625 0)"/>
      <use xlink:href="#SourceSans3-Regular-1f" transform="translate(987.5 0)"/>
     </g>
    </g>
   </g>
   <g id="line2d_17">
    <path d="M 75.655636 293.549818 
L 89.871303 292.951178 
L 91.433464 292.352539 
L 91.902113 291.753899 
L 92.83941 291.155259 
L 93.464274 289.95798 
L 93.932922 288.162061 
L 94.245355 287.563421 
L 94.714003 286.964782 
L 97.057245 286.366142 
L 107.055076 285.767502 
L 108.773454 285.168862 
L 108.92967 284.570223 
L 109.398318 283.971583 
L 109.554534 282.774304 
L 109.71075 279.781105 
L 111.272912 279.182465 
L 111.897776 278.583826 
L 114.55345 277.985186 
L 114.709666 276.787907 
L 115.803179 276.189267 
L 117.36534 274.991988 
L 121.114527 274.393348 
L 121.426959 273.794708 
L 122.520472 273.196068 
L 122.832904 272.597429 
L 124.23885 271.400149 
L 125.957227 270.80151 
L 127.675604 269.60423 
L 127.988036 269.005591 
L 129.86263 268.406951 
L 132.518304 267.808311 
L 134.080465 266.611032 
L 136.111275 266.012392 
L 136.579923 264.815113 
L 137.51722 264.216473 
L 137.673436 263.617833 
L 138.142084 263.019194 
L 145.95289 261.821914 
L 146.109106 261.223275 
L 147.827484 260.624635 
L 153.295048 260.025995 
L 157.669099 258.230076 
L 158.606396 257.631436 
L 158.918828 256.434157 
L 160.012341 255.835517 
L 160.168557 255.236878 
L 161.574502 254.039598 
L 161.886934 252.842319 
L 162.199367 252.243679 
L 163.292879 251.645039 
L 163.449095 251.0464 
L 163.761528 249.250481 
L 164.386392 248.651841 
L 165.792337 248.053201 
L 165.948553 247.454561 
L 168.291795 246.855922 
L 169.69774 245.658642 
L 169.853956 245.060003 
L 170.322605 244.461363 
L 172.197198 243.862723 
L 174.071792 242.066804 
L 174.384224 240.869525 
L 175.165304 240.270885 
L 175.477737 239.672245 
L 175.946385 237.876326 
L 183.913407 237.277687 
L 186.100433 236.080407 
L 186.256649 235.481768 
L 186.412865 233.685848 
L 187.350162 233.087209 
L 188.287458 231.889929 
L 188.599891 231.29129 
L 190.474484 230.69265 
L 190.786916 229.495371 
L 191.099349 228.896731 
L 191.880429 228.298091 
L 192.973942 226.502172 
L 193.755023 225.903532 
L 194.379887 223.508974 
L 194.848536 222.910334 
L 195.004752 222.311694 
L 195.317184 221.713054 
L 195.629616 220.515775 
L 197.191777 219.917135 
L 197.50421 219.318496 
L 199.378803 218.719856 
L 200.159884 218.121216 
L 202.346909 217.522577 
L 202.659341 216.923937 
L 204.377719 215.726657 
L 205.002583 214.529378 
L 205.783664 213.332099 
L 206.408528 212.733459 
L 207.502041 212.134819 
L 207.814473 210.93754 
L 209.376635 209.740261 
L 215.469063 209.141621 
L 215.937712 208.542981 
L 217.343657 207.944341 
L 218.124737 207.345702 
L 219.21825 206.747062 
L 220.155547 204.352503 
L 222.03014 203.753864 
L 222.186356 203.155224 
L 222.342573 201.957944 
L 222.811221 201.359305 
L 223.592301 200.162025 
L 224.373382 199.563386 
L 224.529598 198.964746 
L 224.998247 197.767467 
L 225.154463 196.570187 
L 225.623111 194.774268 
L 226.560408 192.978349 
L 228.278785 191.78107 
L 229.997162 191.18243 
L 230.465811 190.58379 
L 230.778243 188.189231 
L 233.121485 186.991952 
L 240.307426 186.393312 
L 240.463642 183.998754 
L 240.776075 183.400114 
L 249.992826 182.801474 
L 256.24147 182.202834 
L 257.491199 181.604195 
L 257.959848 179.209636 
L 258.27228 178.610996 
L 260.459306 177.413717 
L 260.771738 176.815077 
L 261.240386 175.617798 
L 262.021467 175.019158 
L 263.427412 174.420518 
L 263.583628 173.821879 
L 263.739844 172.624599 
L 264.520925 172.02596 
L 264.833357 166.638202 
L 265.302005 166.039563 
L 266.70795 165.440923 
L 278.267943 164.842283 
L 278.424159 164.243643 
L 280.142537 163.046364 
L 283.110643 162.447724 
L 285.297669 161.849085 
L 286.234965 159.454526 
L 290.921449 158.855886 
L 293.577123 157.059967 
L 295.2955 156.461327 
L 296.545229 155.862688 
L 296.701445 154.665408 
L 297.638742 154.066769 
L 298.888471 152.869489 
L 306.699277 151.67221 
L 311.385761 149.277651 
L 323.414402 148.679011 
L 327.944669 148.080372 
L 340.910607 147.481732 
L 342.160336 146.284453 
L 342.472768 145.087173 
L 343.253849 143.889894 
L 347.315468 143.291254 
L 349.65871 142.093975 
L 350.127358 141.495335 
L 357.625732 140.896695 
L 386.994362 140.298056 
L 389.49382 139.699416 
L 391.52463 137.304857 
L 396.835978 136.706217 
L 399.023004 136.107578 
L 400.272733 135.508938 
L 401.210029 134.910298 
L 404.334352 134.311659 
L 406.365161 133.713019 
L 410.739213 131.9171 
L 414.957048 131.31846 
L 415.113264 130.71982 
L 418.550019 130.121181 
L 419.174883 128.325262 
L 420.11218 127.726622 
L 424.330015 127.127982 
L 425.579744 126.529343 
L 426.517041 125.332063 
L 427.298121 124.733423 
L 428.860282 124.134784 
L 431.515956 122.937504 
L 431.672173 122.338865 
L 432.921902 121.141585 
L 434.796495 120.542946 
L 439.170546 119.944306 
L 439.326762 119.345666 
L 442.451085 118.747026 
L 443.232165 118.148387 
L 444.794327 117.549747 
L 444.950543 116.951107 
L 445.262975 116.352468 
L 446.356488 114.556549 
L 450.574323 113.957909 
L 450.886755 113.359269 
L 456.198103 112.16199 
L 458.228913 111.56335 
L 459.16621 110.96471 
L 459.478642 109.168791 
L 460.259722 108.570152 
L 460.572155 107.372872 
L 461.509451 106.175593 
L 461.665668 105.576953 
L 461.9781 103.781034 
L 462.134316 101.985115 
L 462.915396 97.794637 
L 463.227829 96.597358 
L 463.384045 94.202799 
L 463.540261 90.012321 
L 464.165125 87.617762 
L 464.477558 87.019122 
L 464.633774 85.821843 
L 464.78999 83.427284 
L 465.258638 82.828645 
L 465.571071 76.842248 
L 465.727287 75.644968 
L 466.039719 70.855851 
L 466.508367 67.862652 
L 467.445664 64.270814 
L 467.758096 61.277615 
L 467.914312 58.883057 
L 468.070528 54.692579 
L 468.226745 54.093939 
L 468.539177 53.495299 
L 469.476473 52.89666 
L 469.788906 52.29802 
L 469.945122 51.69938 
L 471.507283 50.502101 
L 471.663499 49.304822 
L 472.288364 48.706182 
L 472.288364 48.706182 
" clip-path="url(#p9a94927628)" style="fill: none; stroke: #002d72; stroke-width: 1.5; stroke-linecap: square"/>
   </g>
   <g id="patch_3">
    <path d="M 55.824 305.792 
L 55.824 36.464 
" style="fill: none; stroke: #8a8a8a; stroke-linejoin: miter; stroke-linecap: square"/>
   </g>
   <g id="patch_4">
    <path d="M 55.824 305.792 
L 492.12 305.792 
" style="fill: none; stroke: #8a8a8a; stroke-linejoin: miter; stroke-linecap: square"/>
   </g>
   <g id="text_19">
    <!-- Cumulative issues closed over time -->
    <g style="fill: #002d72" transform="translate(154.072391 24.464) scale(0.13 -0.13)">
     <defs>
      <path id="Montserrat-Bold-2d" d="M 2675 -77 
Q 2157 -77 1712 92 
Q 1267 262 940 576 
Q 614 890 432 1312 
Q 250 1734 250 2240 
Q 250 2746 432 3168 
Q 614 3590 944 3904 
Q 1274 4218 1715 4387 
Q 2157 4557 2682 4557 
Q 3264 4557 3734 4355 
Q 4205 4154 4525 3763 
L 3859 3149 
Q 3629 3411 3347 3542 
Q 3066 3674 2733 3674 
Q 2419 3674 2156 3571 
Q 1894 3469 1702 3277 
Q 1510 3085 1404 2822 
Q 1299 2560 1299 2240 
Q 1299 1920 1404 1657 
Q 1510 1395 1702 1203 
Q 1894 1011 2156 908 
Q 2419 806 2733 806 
Q 3066 806 3347 937 
Q 3629 1069 3859 1338 
L 4525 723 
Q 4205 333 3734 128 
Q 3264 -77 2675 -77 
z
" transform="scale(0.015625)"/>
      <path id="Montserrat-Bold-383" d="M 1914 -51 
Q 1485 -51 1149 115 
Q 813 282 627 624 
Q 442 966 442 1498 
L 442 3443 
L 1440 3443 
L 1440 1645 
Q 1440 1216 1622 1014 
Q 1805 813 2138 813 
Q 2368 813 2547 912 
Q 2726 1011 2828 1219 
Q 2931 1427 2931 1741 
L 2931 3443 
L 3930 3443 
L 3930 0 
L 2982 0 
L 2982 947 
L 3155 672 
Q 2982 314 2646 131 
Q 2310 -51 1914 -51 
z
" transform="scale(0.015625)"/>
      <path id="Montserrat-Bold-312" d="M 461 0 
L 461 3443 
L 1414 3443 
L 1414 2502 
L 1235 2778 
Q 1414 3130 1744 3312 
Q 2074 3494 2496 3494 
Q 2970 3494 3325 3254 
Q 3680 3014 3795 2522 
L 3443 2618 
Q 3616 3021 3997 3257 
Q 4378 3494 4870 3494 
Q 5280 3494 5597 3331 
Q 5914 3168 6096 2832 
Q 6278 2496 6278 1971 
L 6278 0 
L 5280 0 
L 5280 1818 
Q 5280 2234 5107 2432 
Q 4934 2630 4621 2630 
Q 4403 2630 4230 2531 
Q 4058 2432 3962 2233 
Q 3866 2035 3866 1728 
L 3866 0 
L 2867 0 
L 2867 1818 
Q 2867 2234 2697 2432 
Q 2528 2630 2214 2630 
Q 1997 2630 1824 2531 
Q 1651 2432 1555 2233 
Q 1459 2035 1459 1728 
L 1459 0 
L 461 0 
z
" transform="scale(0.015625)"/>
      <path id="Montserrat-Bold-301" d="M 461 0 
L 461 4749 
L 1459 4749 
L 1459 0 
L 461 0 
z
" transform="scale(0.015625)"/>
      <path id="Montserrat-Bold-24c" d="M 2573 0 
L 2573 672 
L 2509 819 
L 2509 2022 
Q 2509 2342 2313 2521 
Q 2118 2701 1715 2701 
Q 1440 2701 1174 2614 
Q 909 2528 723 2381 
L 365 3078 
Q 646 3277 1043 3385 
Q 1440 3494 1850 3494 
Q 2637 3494 3072 3123 
Q 3507 2752 3507 1965 
L 3507 0 
L 2573 0 
z
M 1523 -51 
Q 1120 -51 832 86 
Q 544 224 390 461 
Q 237 698 237 992 
Q 237 1299 387 1529 
Q 538 1760 864 1891 
Q 1190 2022 1715 2022 
L 2630 2022 
L 2630 1440 
L 1824 1440 
Q 1472 1440 1341 1325 
Q 1210 1210 1210 1037 
Q 1210 845 1360 733 
Q 1510 621 1773 621 
Q 2022 621 2220 739 
Q 2419 858 2509 1088 
L 2662 627 
Q 2554 294 2266 121 
Q 1978 -51 1523 -51 
z
" transform="scale(0.015625)"/>
      <path id="Montserrat-Bold-375" d="M 1869 -51 
Q 1261 -51 921 259 
Q 582 570 582 1184 
L 582 4205 
L 1581 4205 
L 1581 1197 
Q 1581 979 1696 860 
Q 1811 742 2010 742 
Q 2246 742 2413 870 
L 2682 166 
Q 2528 58 2313 3 
Q 2099 -51 1869 -51 
z
M 51 2675 
L 51 3443 
L 2438 3443 
L 2438 2675 
L 51 2675 
z
" transform="scale(0.015625)"/>
      <path id="Montserrat-Bold-2d7" d="M 461 0 
L 461 3443 
L 1459 3443 
L 1459 0 
L 461 0 
z
M 960 3923 
Q 685 3923 512 4083 
Q 339 4243 339 4480 
Q 339 4717 512 4877 
Q 685 5037 960 5037 
Q 1235 5037 1408 4886 
Q 1581 4736 1581 4499 
Q 1581 4250 1411 4086 
Q 1242 3923 960 3923 
z
" transform="scale(0.015625)"/>
      <path id="Montserrat-Bold-3a4" d="M 1395 0 
L -51 3443 
L 979 3443 
L 2182 480 
L 1670 480 
L 2918 3443 
L 3878 3443 
L 2426 0 
L 1395 0 
z
" transform="scale(0.015625)"/>
      <path id="Montserrat-Bold-295" d="M 2170 -51 
Q 1581 -51 1136 179 
Q 691 410 448 810 
Q 205 1210 205 1722 
Q 205 2240 445 2640 
Q 685 3040 1101 3267 
Q 1517 3494 2042 3494 
Q 2547 3494 2953 3280 
Q 3360 3066 3597 2666 
Q 3834 2266 3834 1709 
Q 3834 1651 3827 1577 
Q 3821 1504 3814 1440 
L 1018 1440 
L 1018 2022 
L 3290 2022 
L 2906 1850 
Q 2906 2118 2797 2316 
Q 2688 2515 2496 2627 
Q 2304 2739 2048 2739 
Q 1792 2739 1597 2627 
Q 1402 2515 1293 2313 
Q 1184 2112 1184 1837 
L 1184 1683 
Q 1184 1402 1309 1187 
Q 1434 973 1661 861 
Q 1888 749 2195 749 
Q 2470 749 2678 832 
Q 2886 915 3059 1082 
L 3590 506 
Q 3354 237 2995 93 
Q 2637 -51 2170 -51 
z
" transform="scale(0.015625)"/>
      <path id="Montserrat-Bold-8bd" transform="scale(0.015625)"/>
      <path id="Montserrat-Bold-367" d="M 1619 -51 
Q 1178 -51 771 54 
Q 365 160 128 320 
L 461 1037 
Q 698 890 1021 797 
Q 1344 704 1658 704 
Q 2003 704 2147 787 
Q 2291 870 2291 1018 
Q 2291 1139 2179 1200 
Q 2067 1261 1881 1293 
Q 1696 1325 1475 1357 
Q 1254 1389 1030 1443 
Q 806 1498 620 1606 
Q 435 1715 323 1900 
Q 211 2086 211 2381 
Q 211 2707 400 2956 
Q 589 3206 947 3350 
Q 1306 3494 1805 3494 
Q 2157 3494 2521 3417 
Q 2886 3341 3130 3194 
L 2797 2483 
Q 2547 2630 2294 2684 
Q 2042 2739 1805 2739 
Q 1472 2739 1318 2649 
Q 1165 2560 1165 2419 
Q 1165 2291 1277 2227 
Q 1389 2163 1574 2124 
Q 1760 2086 1981 2057 
Q 2202 2029 2426 1971 
Q 2650 1914 2832 1808 
Q 3014 1702 3129 1520 
Q 3245 1338 3245 1043 
Q 3245 723 3053 476 
Q 2861 230 2499 89 
Q 2138 -51 1619 -51 
z
" transform="scale(0.015625)"/>
      <path id="Montserrat-Bold-27a" d="M 2125 -51 
Q 1568 -51 1133 176 
Q 698 403 451 806 
Q 205 1210 205 1722 
Q 205 2240 451 2640 
Q 698 3040 1133 3267 
Q 1568 3494 2125 3494 
Q 2669 3494 3072 3267 
Q 3475 3040 3667 2618 
L 2893 2202 
Q 2758 2445 2556 2560 
Q 2355 2675 2118 2675 
Q 1862 2675 1657 2560 
Q 1453 2445 1334 2233 
Q 1216 2022 1216 1722 
Q 1216 1421 1334 1209 
Q 1453 998 1657 883 
Q 1862 768 2118 768 
Q 2355 768 2556 880 
Q 2758 992 2893 1242 
L 3667 819 
Q 3475 403 3072 176 
Q 2669 -51 2125 -51 
z
" transform="scale(0.015625)"/>
      <path id="Montserrat-Bold-327" d="M 2099 -51 
Q 1549 -51 1123 179 
Q 698 410 451 810 
Q 205 1210 205 1722 
Q 205 2240 451 2640 
Q 698 3040 1123 3267 
Q 1549 3494 2099 3494 
Q 2643 3494 3072 3267 
Q 3501 3040 3744 2643 
Q 3987 2246 3987 1722 
Q 3987 1210 3744 810 
Q 3501 410 3072 179 
Q 2643 -51 2099 -51 
z
M 2099 768 
Q 2349 768 2547 883 
Q 2746 998 2861 1212 
Q 2976 1427 2976 1722 
Q 2976 2022 2861 2233 
Q 2746 2445 2547 2560 
Q 2349 2675 2099 2675 
Q 1850 2675 1651 2560 
Q 1453 2445 1334 2233 
Q 1216 2022 1216 1722 
Q 1216 1427 1334 1212 
Q 1453 998 1651 883 
Q 1850 768 2099 768 
z
" transform="scale(0.015625)"/>
      <path id="Montserrat-Bold-286" d="M 1939 -51 
Q 1453 -51 1062 169 
Q 672 390 445 787 
Q 218 1184 218 1722 
Q 218 2266 445 2662 
Q 672 3059 1062 3276 
Q 1453 3494 1939 3494 
Q 2374 3494 2700 3302 
Q 3027 3110 3206 2720 
Q 3386 2330 3386 1722 
Q 3386 1120 3213 726 
Q 3040 333 2717 141 
Q 2394 -51 1939 -51 
z
M 2112 768 
Q 2355 768 2553 883 
Q 2752 998 2870 1212 
Q 2989 1427 2989 1722 
Q 2989 2022 2870 2233 
Q 2752 2445 2553 2560 
Q 2355 2675 2112 2675 
Q 1862 2675 1664 2560 
Q 1466 2445 1347 2233 
Q 1229 2022 1229 1722 
Q 1229 1427 1347 1212 
Q 1466 998 1664 883 
Q 1862 768 2112 768 
z
M 3014 0 
L 3014 704 
L 3034 1728 
L 2970 2746 
L 2970 4749 
L 3968 4749 
L 3968 0 
L 3014 0 
z
" transform="scale(0.015625)"/>
      <path id="Montserrat-Bold-359" d="M 461 0 
L 461 3443 
L 1414 3443 
L 1414 2470 
L 1280 2752 
Q 1434 3117 1773 3305 
Q 2112 3494 2598 3494 
L 2598 2573 
Q 2534 2579 2483 2582 
Q 2432 2586 2374 2586 
Q 1965 2586 1712 2352 
Q 1459 2118 1459 1626 
L 1459 0 
L 461 0 
z
" transform="scale(0.015625)"/>
     </defs>
     <use xlink:href="#Montserrat-Bold-2d"/>
     <use xlink:href="#Montserrat-Bold-383" transform="translate(71 0)"/>
     <use xlink:href="#Montserrat-Bold-312" transform="translate(139.703125 0)"/>
     <use xlink:href="#Montserrat-Bold-383" transform="translate(244.609375 0)"/>
     <use xlink:href="#Montserrat-Bold-301" transform="translate(313.3125 0)"/>
     <use xlink:href="#Montserrat-Bold-24c" transform="translate(343.40625 0)"/>
     <use xlink:href="#Montserrat-Bold-375" transform="translate(405.109375 0)"/>
     <use xlink:href="#Montserrat-Bold-2d7" transform="translate(448.609375 0)"/>
     <use xlink:href="#Montserrat-Bold-3a4" transform="translate(478.703125 0)"/>
     <use xlink:href="#Montserrat-Bold-295" transform="translate(537 0)"/>
     <use xlink:href="#Montserrat-Bold-8bd" transform="translate(600.09375 0)"/>
     <use xlink:href="#Montserrat-Bold-2d7" transform="translate(628.390625 0)"/>
     <use xlink:href="#Montserrat-Bold-367" transform="translate(658.484375 0)"/>
     <use xlink:href="#Montserrat-Bold-367" transform="translate(711.578125 0)"/>
     <use xlink:href="#Montserrat-Bold-383" transform="translate(764.671875 0)"/>
     <use xlink:href="#Montserrat-Bold-295" transform="translate(833.375 0)"/>
     <use xlink:href="#Montserrat-Bold-367" transform="translate(896.46875 0)"/>
     <use xlink:href="#Montserrat-Bold-8bd" transform="translate(949.5625 0)"/>
     <use xlink:href="#Montserrat-Bold-27a" transform="translate(977.859375 0)"/>
     <use xlink:href="#Montserrat-Bold-301" transform="translate(1036.546875 0)"/>
     <use xlink:href="#Montserrat-Bold-327" transform="translate(1066.640625 0)"/>
     <use xlink:href="#Montserrat-Bold-367" transform="translate(1132.140625 0)"/>
     <use xlink:href="#Montserrat-Bold-295" transform="translate(1185.234375 0)"/>
     <use xlink:href="#Montserrat-Bold-286" transform="translate(1248.328125 0)"/>
     <use xlink:href="#Montserrat-Bold-8bd" transform="translate(1317.53125 0)"/>
     <use xlink:href="#Montserrat-Bold-327" transform="translate(1345.828125 0)"/>
     <use xlink:href="#Montserrat-Bold-3a4" transform="translate(1409.828125 0)"/>
     <use xlink:href="#Montserrat-Bold-295" transform="translate(1468.125 0)"/>
     <use xlink:href="#Montserrat-Bold-359" transform="translate(1531.21875 0)"/>
     <use xlink:href="#Montserrat-Bold-8bd" transform="translate(1574.3125 0)"/>
     <use xlink:href="#Montserrat-Bold-375" transform="translate(1602.609375 0)"/>
     <use xlink:href="#Montserrat-Bold-2d7" transform="translate(1646.109375 0)"/>
     <use xlink:href="#Montserrat-Bold-312" transform="translate(1676.203125 0)"/>
     <use xlink:href="#Montserrat-Bold-295" transform="translate(1781.515625 0)"/>
    </g>
   </g>
  </g>
 </g>
 <defs>
  <clipPath id="p9a94927628">
   <rect x="55.824" y="36.464" width="436.296" height="269.328"/>
  </clipPath>
 </defs>
</svg>
