<?xml version="1.0" encoding="utf-8" standalone="no"?>
<!DOCTYPE svg PUBLIC "-//W3C//DTD SVG 1.1//EN"
  "http://www.w3.org/Graphics/SVG/1.1/DTD/svg11.dtd">
<svg xmlns:xlink="http://www.w3.org/1999/xlink" width="504pt" height="360pt" viewBox="0 0 504 360" xmlns="http://www.w3.org/2000/svg" version="1.1">
 <metadata>
  <rdf:RDF xmlns:dc="http://purl.org/dc/elements/1.1/" xmlns:cc="http://creativecommons.org/ns#" xmlns:rdf="http://www.w3.org/1999/02/22-rdf-syntax-ns#">
   <cc:Work>
    <dc:type rdf:resource="http://purl.org/dc/dcmitype/StillImage"/>
    <dc:date>2026-07-14T02:54:48.801179</dc:date>
    <dc:format>image/svg+xml</dc:format>
    <dc:creator>
     <cc:Agent>
      <dc:title>Matplotlib v3.11.0, https://matplotlib.org/</dc:title>
     </cc:Agent>
    </dc:creator>
   </cc:Work>
  </rdf:RDF>
 </metadata>
 <defs>
  <style type="text/css">*{stroke-linejoin: round; stroke-linecap: butt}</style>
 </defs>
 <g id="figure_1">
  <g id="patch_1">
   <path d="M 0 360 
L 504 360 
L 504 0 
L 0 0 
L 0 360 
z
" style="fill: none"/>
  </g>
  <g id="axes_1">
   <g id="patch_2">
    <path d="M 61.584 305.792 
L 492.12 305.792 
L 492.12 36.464 
L 61.584 36.464 
L 61.584 305.792 
z
" style="fill: none"/>
   </g>
   <g id="matplotlib.axis_1">
    <g id="xtick_1">
     <g id="line2d_1">
      <defs>
       <path id="m58a6b7db29" d="M 0 0 
L 0 3.5 
" style="stroke: #1c2531; stroke-width: 0.8"/>
      </defs>
      <g>
       <use xlink:href="#m58a6b7db29" x="102.992713" y="305.792" style="fill: #1c2531; stroke: #1c2531; stroke-width: 0.8"/>
      </g>
     </g>
     <g id="text_1">
      <!-- 2020 -->
      <g style="fill: #1c2531" transform="translate(92.058026 324.056) scale(0.11 -0.11)">
       <defs>
        <path id="SourceSans3-Regular-537" d="M 256 0 
L 256 320 
Q 864 922 1296 1386 
Q 1728 1850 1952 2227 
Q 2176 2605 2176 2931 
Q 2176 3283 1984 3507 
Q 1792 3731 1402 3731 
Q 1146 3731 928 3590 
Q 710 3450 531 3238 
L 237 3526 
Q 493 3814 784 3987 
Q 1075 4160 1466 4160 
Q 1843 4160 2118 4009 
Q 2394 3859 2541 3590 
Q 2688 3322 2688 2963 
Q 2688 2566 2467 2176 
Q 2246 1786 1862 1357 
Q 1478 928 979 416 
Q 1146 435 1325 444 
Q 1504 454 1664 454 
L 2893 454 
L 2893 0 
L 256 0 
z
" transform="scale(0.015625)"/>
        <path id="SourceSans3-Regular-535" d="M 1594 -77 
Q 979 -77 630 476 
Q 282 1030 282 2054 
Q 282 3085 630 3622 
Q 979 4160 1594 4160 
Q 2202 4160 2550 3619 
Q 2899 3078 2899 2054 
Q 2899 1030 2550 476 
Q 2202 -77 1594 -77 
z
M 1594 346 
Q 1830 346 2009 525 
Q 2189 704 2288 1081 
Q 2387 1459 2387 2054 
Q 2387 2656 2288 3027 
Q 2189 3398 2009 3568 
Q 1830 3738 1594 3738 
Q 1350 3738 1171 3568 
Q 992 3398 893 3027 
Q 794 2656 794 2054 
Q 794 1459 893 1081 
Q 992 704 1171 525 
Q 1350 346 1594 346 
z
" transform="scale(0.015625)"/>
       </defs>
       <use xlink:href="#SourceSans3-Regular-537"/>
       <use xlink:href="#SourceSans3-Regular-535" transform="translate(49.703125 0)"/>
       <use xlink:href="#SourceSans3-Regular-537" transform="translate(99.40625 0)"/>
       <use xlink:href="#SourceSans3-Regular-535" transform="translate(149.109375 0)"/>
      </g>
     </g>
    </g>
    <g id="xtick_2">
     <g id="line2d_2">
      <g>
       <use xlink:href="#m58a6b7db29" x="159.680908" y="305.792" style="fill: #1c2531; stroke: #1c2531; stroke-width: 0.8"/>
      </g>
     </g>
     <g id="text_2">
      <!-- 2021 -->
      <g style="fill: #1c2531" transform="translate(148.746221 324.056) scale(0.11 -0.11)">
       <defs>
        <path id="SourceSans3-Regular-536" d="M 506 0 
L 506 435 
L 1440 435 
L 1440 3443 
L 698 3443 
L 698 3782 
Q 973 3834 1184 3907 
Q 1395 3981 1562 4083 
L 1965 4083 
L 1965 435 
L 2810 435 
L 2810 0 
L 506 0 
z
" transform="scale(0.015625)"/>
       </defs>
       <use xlink:href="#SourceSans3-Regular-537"/>
       <use xlink:href="#SourceSans3-Regular-535" transform="translate(49.703125 0)"/>
       <use xlink:href="#SourceSans3-Regular-537" transform="translate(99.40625 0)"/>
       <use xlink:href="#SourceSans3-Regular-536" transform="translate(149.109375 0)"/>
      </g>
     </g>
    </g>
    <g id="xtick_3">
     <g id="line2d_3">
      <g>
       <use xlink:href="#m58a6b7db29" x="216.214218" y="305.792" style="fill: #1c2531; stroke: #1c2531; stroke-width: 0.8"/>
      </g>
     </g>
     <g id="text_3">
      <!-- 2022 -->
      <g style="fill: #1c2531" transform="translate(205.27953 324.056) scale(0.11 -0.11)">
       <use xlink:href="#SourceSans3-Regular-537"/>
       <use xlink:href="#SourceSans3-Regular-535" transform="translate(49.703125 0)"/>
       <use xlink:href="#SourceSans3-Regular-537" transform="translate(99.40625 0)"/>
       <use xlink:href="#SourceSans3-Regular-537" transform="translate(149.109375 0)"/>
      </g>
     </g>
    </g>
    <g id="xtick_4">
     <g id="line2d_4">
      <g>
       <use xlink:href="#m58a6b7db29" x="272.747527" y="305.792" style="fill: #1c2531; stroke: #1c2531; stroke-width: 0.8"/>
      </g>
     </g>
     <g id="text_4">
      <!-- 2023 -->
      <g style="fill: #1c2531" transform="translate(261.812839 324.056) scale(0.11 -0.11)">
       <defs>
        <path id="SourceSans3-Regular-538" d="M 1510 -77 
Q 1184 -77 931 6 
Q 678 90 492 218 
Q 307 346 166 499 
L 435 845 
Q 621 653 867 505 
Q 1114 358 1478 358 
Q 1850 358 2086 563 
Q 2323 768 2323 1107 
Q 2323 1350 2198 1532 
Q 2074 1715 1789 1817 
Q 1504 1920 1018 1920 
L 1018 2323 
Q 1453 2323 1705 2425 
Q 1958 2528 2067 2697 
Q 2176 2867 2176 3085 
Q 2176 3386 1987 3558 
Q 1798 3731 1472 3731 
Q 1216 3731 998 3616 
Q 781 3501 602 3315 
L 320 3648 
Q 557 3872 845 4016 
Q 1133 4160 1491 4160 
Q 1850 4160 2125 4038 
Q 2400 3917 2557 3686 
Q 2714 3456 2714 3123 
Q 2714 2752 2509 2515 
Q 2304 2278 1971 2150 
L 1971 2125 
Q 2221 2067 2419 1929 
Q 2618 1792 2736 1581 
Q 2854 1370 2854 1088 
Q 2854 723 2675 464 
Q 2496 205 2189 64 
Q 1882 -77 1510 -77 
z
" transform="scale(0.015625)"/>
       </defs>
       <use xlink:href="#SourceSans3-Regular-537"/>
       <use xlink:href="#SourceSans3-Regular-535" transform="translate(49.703125 0)"/>
       <use xlink:href="#SourceSans3-Regular-537" transform="translate(99.40625 0)"/>
       <use xlink:href="#SourceSans3-Regular-538" transform="translate(149.109375 0)"/>
      </g>
     </g>
    </g>
    <g id="xtick_5">
     <g id="line2d_5">
      <g>
       <use xlink:href="#m58a6b7db29" x="329.280836" y="305.792" style="fill: #1c2531; stroke: #1c2531; stroke-width: 0.8"/>
      </g>
     </g>
     <g id="text_5">
      <!-- 2024 -->
      <g style="fill: #1c2531" transform="translate(318.346149 324.056) scale(0.11 -0.11)">
       <defs>
        <path id="SourceSans3-Regular-539" d="M 1946 0 
L 1946 2733 
Q 1946 2893 1958 3126 
Q 1971 3360 1978 3520 
L 1952 3520 
Q 1875 3373 1792 3235 
Q 1709 3098 1619 2944 
L 666 1549 
L 3002 1549 
L 3002 1126 
L 109 1126 
L 109 1472 
L 1856 4083 
L 2445 4083 
L 2445 0 
L 1946 0 
z
" transform="scale(0.015625)"/>
       </defs>
       <use xlink:href="#SourceSans3-Regular-537"/>
       <use xlink:href="#SourceSans3-Regular-535" transform="translate(49.703125 0)"/>
       <use xlink:href="#SourceSans3-Regular-537" transform="translate(99.40625 0)"/>
       <use xlink:href="#SourceSans3-Regular-539" transform="translate(149.109375 0)"/>
      </g>
     </g>
    </g>
    <g id="xtick_6">
     <g id="line2d_6">
      <g>
       <use xlink:href="#m58a6b7db29" x="385.969031" y="305.792" style="fill: #1c2531; stroke: #1c2531; stroke-width: 0.8"/>
      </g>
     </g>
     <g id="text_6">
      <!-- 2025 -->
      <g style="fill: #1c2531" transform="translate(375.034344 324.056) scale(0.11 -0.11)">
       <defs>
        <path id="SourceSans3-Regular-53a" d="M 1498 -77 
Q 1171 -77 921 3 
Q 672 83 486 211 
Q 301 339 160 480 
L 416 826 
Q 602 646 845 502 
Q 1088 358 1446 358 
Q 1696 358 1897 473 
Q 2099 589 2220 797 
Q 2342 1005 2342 1293 
Q 2342 1715 2105 1952 
Q 1869 2189 1472 2189 
Q 1267 2189 1113 2125 
Q 960 2061 774 1939 
L 493 2118 
L 627 4083 
L 2669 4083 
L 2669 3629 
L 1088 3629 
L 979 2419 
Q 1126 2496 1273 2541 
Q 1421 2586 1606 2586 
Q 1958 2586 2246 2451 
Q 2534 2317 2704 2032 
Q 2874 1747 2874 1306 
Q 2874 864 2678 553 
Q 2483 243 2169 83 
Q 1856 -77 1498 -77 
z
" transform="scale(0.015625)"/>
       </defs>
       <use xlink:href="#SourceSans3-Regular-537"/>
       <use xlink:href="#SourceSans3-Regular-535" transform="translate(49.703125 0)"/>
       <use xlink:href="#SourceSans3-Regular-537" transform="translate(99.40625 0)"/>
       <use xlink:href="#SourceSans3-Regular-53a" transform="translate(149.109375 0)"/>
      </g>
     </g>
    </g>
    <g id="xtick_7">
     <g id="line2d_7">
      <g>
       <use xlink:href="#m58a6b7db29" x="442.502341" y="305.792" style="fill: #1c2531; stroke: #1c2531; stroke-width: 0.8"/>
      </g>
     </g>
     <g id="text_7">
      <!-- 2026 -->
      <g style="fill: #1c2531" transform="translate(431.567653 324.056) scale(0.11 -0.11)">
       <defs>
        <path id="SourceSans3-Regular-53b" d="M 1715 -77 
Q 1414 -77 1158 44 
Q 902 166 713 412 
Q 525 659 416 1027 
Q 307 1395 307 1888 
Q 307 2502 435 2934 
Q 563 3366 780 3635 
Q 998 3904 1276 4032 
Q 1555 4160 1862 4160 
Q 2195 4160 2435 4035 
Q 2675 3910 2848 3725 
L 2554 3398 
Q 2432 3546 2253 3632 
Q 2074 3718 1882 3718 
Q 1594 3718 1347 3545 
Q 1101 3373 953 2973 
Q 806 2573 806 1888 
Q 806 1382 912 1036 
Q 1018 691 1222 515 
Q 1427 339 1715 339 
Q 1914 339 2077 451 
Q 2240 563 2333 764 
Q 2426 966 2426 1235 
Q 2426 1498 2342 1693 
Q 2259 1888 2092 1993 
Q 1926 2099 1670 2099 
Q 1472 2099 1238 1968 
Q 1005 1837 794 1523 
L 774 1939 
Q 973 2195 1235 2345 
Q 1498 2496 1760 2496 
Q 2112 2496 2374 2355 
Q 2637 2214 2781 1932 
Q 2925 1651 2925 1235 
Q 2925 845 2758 550 
Q 2592 256 2317 89 
Q 2042 -77 1715 -77 
z
" transform="scale(0.015625)"/>
       </defs>
       <use xlink:href="#SourceSans3-Regular-537"/>
       <use xlink:href="#SourceSans3-Regular-535" transform="translate(49.703125 0)"/>
       <use xlink:href="#SourceSans3-Regular-537" transform="translate(99.40625 0)"/>
       <use xlink:href="#SourceSans3-Regular-53b" transform="translate(149.109375 0)"/>
      </g>
     </g>
    </g>
    <g id="text_8">
     <!-- Date -->
     <g style="fill: #1c2531" transform="translate(266.265359 343.72) scale(0.11 -0.11)">
      <defs>
       <path id="SourceSans3-Regular-5" d="M 576 0 
L 576 4198 
L 1626 4198 
Q 2272 4198 2713 3955 
Q 3155 3712 3382 3248 
Q 3610 2784 3610 2118 
Q 3610 1453 3382 976 
Q 3155 499 2720 249 
Q 2285 0 1651 0 
L 576 0 
z
M 1107 435 
L 1587 435 
Q 2080 435 2406 636 
Q 2733 838 2893 1209 
Q 3053 1581 3053 2118 
Q 3053 2643 2893 3014 
Q 2733 3386 2406 3574 
Q 2080 3763 1587 3763 
L 1107 3763 
L 1107 435 
z
" transform="scale(0.015625)"/>
       <path id="SourceSans3-Regular-1c" d="M 1242 -77 
Q 986 -77 778 28 
Q 570 134 448 329 
Q 326 525 326 806 
Q 326 1331 787 1600 
Q 1248 1869 2246 1978 
Q 2240 2170 2185 2349 
Q 2131 2528 1990 2637 
Q 1850 2746 1600 2746 
Q 1331 2746 1094 2646 
Q 858 2547 672 2426 
L 467 2784 
Q 608 2880 800 2973 
Q 992 3066 1216 3126 
Q 1440 3187 1690 3187 
Q 2067 3187 2307 3030 
Q 2547 2874 2659 2586 
Q 2771 2298 2771 1907 
L 2771 0 
L 2336 0 
L 2291 371 
L 2272 371 
Q 2048 186 1792 54 
Q 1536 -77 1242 -77 
z
M 1389 358 
Q 1619 358 1820 460 
Q 2022 563 2246 762 
L 2246 1600 
Q 1722 1536 1418 1437 
Q 1114 1338 979 1190 
Q 845 1043 845 838 
Q 845 582 1005 470 
Q 1165 358 1389 358 
z
" transform="scale(0.015625)"/>
       <path id="SourceSans3-Regular-2f" d="M 1504 -58 
Q 1011 -58 812 230 
Q 614 518 614 979 
L 614 2682 
L 154 2682 
L 154 3078 
L 640 3110 
L 704 4109 
L 1146 4109 
L 1146 3110 
L 1990 3110 
L 1990 2682 
L 1146 2682 
L 1146 973 
Q 1146 691 1251 531 
Q 1357 371 1626 371 
Q 1709 371 1798 387 
Q 1888 403 1978 448 
L 2093 77 
Q 1971 19 1817 -19 
Q 1664 -58 1504 -58 
z
" transform="scale(0.015625)"/>
       <path id="SourceSans3-Regular-20" d="M 1786 -77 
Q 1370 -77 1027 118 
Q 685 314 486 675 
Q 288 1037 288 1555 
Q 288 2061 493 2425 
Q 698 2790 1018 2988 
Q 1338 3187 1696 3187 
Q 2093 3187 2371 3004 
Q 2650 2822 2790 2496 
Q 2931 2170 2931 1728 
Q 2931 1645 2928 1568 
Q 2925 1491 2906 1414 
L 666 1414 
L 666 1830 
L 2458 1830 
Q 2458 2278 2262 2518 
Q 2067 2758 1702 2758 
Q 1491 2758 1286 2640 
Q 1082 2522 950 2259 
Q 819 1997 819 1562 
Q 819 1165 956 896 
Q 1094 627 1331 489 
Q 1568 352 1850 352 
Q 2074 352 2269 416 
Q 2464 480 2624 589 
L 2816 243 
Q 2611 102 2358 12 
Q 2106 -77 1786 -77 
z
" transform="scale(0.015625)"/>
      </defs>
      <use xlink:href="#SourceSans3-Regular-5"/>
      <use xlink:href="#SourceSans3-Regular-1c" transform="translate(61.5 0)"/>
      <use xlink:href="#SourceSans3-Regular-2f" transform="translate(110.5 0)"/>
      <use xlink:href="#SourceSans3-Regular-20" transform="translate(142.890625 0)"/>
     </g>
    </g>
   </g>
   <g id="matplotlib.axis_2">
    <g id="ytick_1">
     <g id="line2d_8">
      <defs>
       <path id="mc3bf091916" d="M 0 0 
L -3.5 0 
" style="stroke: #1c2531; stroke-width: 0.8"/>
      </defs>
      <g>
       <use xlink:href="#mc3bf091916" x="61.584" y="275.173665" style="fill: #1c2531; stroke: #1c2531; stroke-width: 0.8"/>
      </g>
     </g>
     <g id="text_9">
      <!-- 1000 -->
      <g style="fill: #1c2531" transform="translate(32.714625 280.805665) scale(0.11 -0.11)">
       <use xlink:href="#SourceSans3-Regular-536"/>
       <use xlink:href="#SourceSans3-Regular-535" transform="translate(49.703125 0)"/>
       <use xlink:href="#SourceSans3-Regular-535" transform="translate(99.40625 0)"/>
       <use xlink:href="#SourceSans3-Regular-535" transform="translate(149.109375 0)"/>
      </g>
     </g>
    </g>
    <g id="ytick_2">
     <g id="line2d_9">
      <g>
       <use xlink:href="#mc3bf091916" x="61.584" y="217.927082" style="fill: #1c2531; stroke: #1c2531; stroke-width: 0.8"/>
      </g>
     </g>
     <g id="text_10">
      <!-- 2000 -->
      <g style="fill: #1c2531" transform="translate(32.714625 223.559082) scale(0.11 -0.11)">
       <use xlink:href="#SourceSans3-Regular-537"/>
       <use xlink:href="#SourceSans3-Regular-535" transform="translate(49.703125 0)"/>
       <use xlink:href="#SourceSans3-Regular-535" transform="translate(99.40625 0)"/>
       <use xlink:href="#SourceSans3-Regular-535" transform="translate(149.109375 0)"/>
      </g>
     </g>
    </g>
    <g id="ytick_3">
     <g id="line2d_10">
      <g>
       <use xlink:href="#mc3bf091916" x="61.584" y="160.680499" style="fill: #1c2531; stroke: #1c2531; stroke-width: 0.8"/>
      </g>
     </g>
     <g id="text_11">
      <!-- 3000 -->
      <g style="fill: #1c2531" transform="translate(32.714625 166.312499) scale(0.11 -0.11)">
       <use xlink:href="#SourceSans3-Regular-538"/>
       <use xlink:href="#SourceSans3-Regular-535" transform="translate(49.703125 0)"/>
       <use xlink:href="#SourceSans3-Regular-535" transform="translate(99.40625 0)"/>
       <use xlink:href="#SourceSans3-Regular-535" transform="translate(149.109375 0)"/>
      </g>
     </g>
    </g>
    <g id="ytick_4">
     <g id="line2d_11">
      <g>
       <use xlink:href="#mc3bf091916" x="61.584" y="103.433915" style="fill: #1c2531; stroke: #1c2531; stroke-width: 0.8"/>
      </g>
     </g>
     <g id="text_12">
      <!-- 4000 -->
      <g style="fill: #1c2531" transform="translate(32.714625 109.065915) scale(0.11 -0.11)">
       <use xlink:href="#SourceSans3-Regular-539"/>
       <use xlink:href="#SourceSans3-Regular-535" transform="translate(49.703125 0)"/>
       <use xlink:href="#SourceSans3-Regular-535" transform="translate(99.40625 0)"/>
       <use xlink:href="#SourceSans3-Regular-535" transform="translate(149.109375 0)"/>
      </g>
     </g>
    </g>
    <g id="ytick_5">
     <g id="line2d_12">
      <g>
       <use xlink:href="#mc3bf091916" x="61.584" y="46.187332" style="fill: #1c2531; stroke: #1c2531; stroke-width: 0.8"/>
      </g>
     </g>
     <g id="text_13">
      <!-- 5000 -->
      <g style="fill: #1c2531" transform="translate(32.714625 51.819332) scale(0.11 -0.11)">
       <use xlink:href="#SourceSans3-Regular-53a"/>
       <use xlink:href="#SourceSans3-Regular-535" transform="translate(49.703125 0)"/>
       <use xlink:href="#SourceSans3-Regular-535" transform="translate(99.40625 0)"/>
       <use xlink:href="#SourceSans3-Regular-535" transform="translate(149.109375 0)"/>
      </g>
     </g>
    </g>
    <g id="text_14">
     <!-- Cumulative commits -->
     <g style="fill: #1c2531" transform="translate(24.314625 218.395344) rotate(-90) scale(0.11 -0.11)">
      <defs>
       <path id="SourceSans3-Regular-4" d="M 2170 -77 
Q 1645 -77 1225 182 
Q 806 442 569 928 
Q 333 1414 333 2099 
Q 333 2605 470 3008 
Q 608 3411 864 3696 
Q 1120 3981 1456 4128 
Q 1792 4275 2195 4275 
Q 2573 4275 2870 4121 
Q 3168 3968 3347 3757 
L 3059 3430 
Q 2893 3610 2678 3709 
Q 2464 3808 2202 3808 
Q 1811 3808 1513 3600 
Q 1216 3392 1049 3011 
Q 883 2630 883 2112 
Q 883 1581 1043 1197 
Q 1203 813 1504 605 
Q 1805 397 2208 397 
Q 2502 397 2736 509 
Q 2970 621 3162 838 
L 3443 525 
Q 3194 237 2886 80 
Q 2579 -77 2170 -77 
z
" transform="scale(0.015625)"/>
       <path id="SourceSans3-Regular-30" d="M 1434 -77 
Q 941 -77 713 233 
Q 486 544 486 1139 
L 486 3110 
L 1011 3110 
L 1011 1210 
Q 1011 774 1148 579 
Q 1286 384 1594 384 
Q 1830 384 2019 509 
Q 2208 634 2432 902 
L 2432 3110 
L 2957 3110 
L 2957 0 
L 2522 0 
L 2477 486 
L 2458 486 
Q 2246 230 2000 76 
Q 1754 -77 1434 -77 
z
" transform="scale(0.015625)"/>
       <path id="SourceSans3-Regular-28" d="M 525 0 
L 525 3110 
L 960 3110 
L 1005 2662 
L 1024 2662 
Q 1229 2880 1469 3033 
Q 1709 3187 1990 3187 
Q 2349 3187 2550 3027 
Q 2752 2867 2848 2592 
Q 3091 2861 3340 3024 
Q 3590 3187 3872 3187 
Q 4358 3187 4588 2876 
Q 4819 2566 4819 1971 
L 4819 0 
L 4294 0 
L 4294 1901 
Q 4294 2342 4153 2537 
Q 4013 2733 3718 2733 
Q 3533 2733 3344 2614 
Q 3155 2496 2938 2253 
L 2938 0 
L 2413 0 
L 2413 1901 
Q 2413 2342 2272 2537 
Q 2131 2733 1830 2733 
Q 1478 2733 1050 2253 
L 1050 0 
L 525 0 
z
" transform="scale(0.015625)"/>
       <path id="SourceSans3-Regular-27" d="M 1082 -58 
Q 883 -58 761 22 
Q 640 102 582 259 
Q 525 416 525 640 
L 525 4557 
L 1050 4557 
L 1050 602 
Q 1050 474 1094 426 
Q 1139 378 1203 378 
Q 1229 378 1251 381 
Q 1274 384 1312 390 
L 1389 -6 
Q 1331 -26 1257 -42 
Q 1184 -58 1082 -58 
z
" transform="scale(0.015625)"/>
       <path id="SourceSans3-Regular-24" d="M 525 0 
L 525 3110 
L 1050 3110 
L 1050 0 
L 525 0 
z
M 787 3750 
Q 633 3750 534 3846 
Q 435 3942 435 4096 
Q 435 4250 534 4346 
Q 633 4442 787 4442 
Q 941 4442 1040 4346 
Q 1139 4250 1139 4096 
Q 1139 3942 1040 3846 
Q 941 3750 787 3750 
z
" transform="scale(0.015625)"/>
       <path id="SourceSans3-Regular-31" d="M 1197 0 
L 77 3110 
L 621 3110 
L 1210 1344 
Q 1280 1120 1353 886 
Q 1427 653 1498 429 
L 1523 429 
Q 1587 653 1664 886 
Q 1741 1120 1805 1344 
L 2394 3110 
L 2912 3110 
L 1811 0 
L 1197 0 
z
" transform="scale(0.015625)"/>
       <path id="SourceSans3-Regular-1" transform="scale(0.015625)"/>
       <path id="SourceSans3-Regular-1e" d="M 1760 -77 
Q 1344 -77 1011 115 
Q 678 307 486 672 
Q 294 1037 294 1549 
Q 294 2074 502 2438 
Q 710 2803 1052 2995 
Q 1395 3187 1792 3187 
Q 2099 3187 2320 3084 
Q 2541 2982 2701 2822 
L 2438 2496 
Q 2323 2611 2166 2678 
Q 2010 2746 1811 2746 
Q 1536 2746 1315 2595 
Q 1094 2445 966 2176 
Q 838 1907 838 1549 
Q 838 1197 960 928 
Q 1082 659 1299 508 
Q 1517 358 1805 358 
Q 2022 358 2208 441 
Q 2394 525 2528 653 
L 2758 333 
Q 2560 147 2310 35 
Q 2061 -77 1760 -77 
z
" transform="scale(0.015625)"/>
       <path id="SourceSans3-Regular-2a" d="M 1734 -77 
Q 1357 -77 1027 115 
Q 698 307 496 672 
Q 294 1037 294 1549 
Q 294 2074 496 2438 
Q 698 2803 1027 2995 
Q 1357 3187 1734 3187 
Q 2118 3187 2444 2995 
Q 2771 2803 2972 2438 
Q 3174 2074 3174 1549 
Q 3174 1037 2972 672 
Q 2771 307 2444 115 
Q 2118 -77 1734 -77 
z
M 1734 358 
Q 2003 358 2208 508 
Q 2413 659 2521 928 
Q 2630 1197 2630 1549 
Q 2630 1907 2521 2179 
Q 2413 2451 2208 2601 
Q 2003 2752 1734 2752 
Q 1466 2752 1264 2601 
Q 1062 2451 950 2179 
Q 838 1907 838 1549 
Q 838 1197 950 928 
Q 1062 659 1264 508 
Q 1466 358 1734 358 
z
" transform="scale(0.015625)"/>
       <path id="SourceSans3-Regular-2e" d="M 1338 -77 
Q 998 -77 694 41 
Q 390 160 179 371 
L 422 678 
Q 627 512 848 422 
Q 1069 333 1357 333 
Q 1664 333 1817 477 
Q 1971 621 1971 819 
Q 1971 979 1865 1084 
Q 1760 1190 1603 1264 
Q 1446 1338 1267 1402 
Q 1037 1485 825 1597 
Q 614 1709 483 1878 
Q 352 2048 352 2304 
Q 352 2682 637 2934 
Q 922 3187 1427 3187 
Q 1715 3187 1964 3088 
Q 2214 2989 2394 2835 
L 2150 2534 
Q 1984 2650 1811 2714 
Q 1638 2778 1427 2778 
Q 1133 2778 995 2643 
Q 858 2509 858 2330 
Q 858 2189 941 2096 
Q 1024 2003 1174 1932 
Q 1325 1862 1517 1798 
Q 1760 1709 1981 1597 
Q 2202 1485 2339 1309 
Q 2477 1133 2477 851 
Q 2477 595 2345 387 
Q 2214 179 1961 51 
Q 1709 -77 1338 -77 
z
" transform="scale(0.015625)"/>
      </defs>
      <use xlink:href="#SourceSans3-Regular-4"/>
      <use xlink:href="#SourceSans3-Regular-30" transform="translate(56.09375 0)"/>
      <use xlink:href="#SourceSans3-Regular-28" transform="translate(110.5 0)"/>
      <use xlink:href="#SourceSans3-Regular-30" transform="translate(193.40625 0)"/>
      <use xlink:href="#SourceSans3-Regular-27" transform="translate(247.8125 0)"/>
      <use xlink:href="#SourceSans3-Regular-1c" transform="translate(273.3125 0)"/>
      <use xlink:href="#SourceSans3-Regular-2f" transform="translate(322.3125 0)"/>
      <use xlink:href="#SourceSans3-Regular-24" transform="translate(356.109375 0)"/>
      <use xlink:href="#SourceSans3-Regular-31" transform="translate(380.703125 0)"/>
      <use xlink:href="#SourceSans3-Regular-20" transform="translate(427 0)"/>
      <use xlink:href="#SourceSans3-Regular-1" transform="translate(476.59375 0)"/>
      <use xlink:href="#SourceSans3-Regular-1e" transform="translate(496.59375 0)"/>
      <use xlink:href="#SourceSans3-Regular-2a" transform="translate(540.09375 0)"/>
      <use xlink:href="#SourceSans3-Regular-28" transform="translate(594.296875 0)"/>
      <use xlink:href="#SourceSans3-Regular-28" transform="translate(677.203125 0)"/>
      <use xlink:href="#SourceSans3-Regular-24" transform="translate(760.109375 0)"/>
      <use xlink:href="#SourceSans3-Regular-2f" transform="translate(784.703125 0)"/>
      <use xlink:href="#SourceSans3-Regular-2e" transform="translate(817.5 0)"/>
     </g>
    </g>
   </g>
   <g id="line2d_13">
    <path d="M 81.153818 293.549818 
L 81.46359 292.748366 
L 81.618476 292.633873 
L 82.392904 292.290393 
L 82.702676 291.488941 
L 89.052993 291.259955 
L 89.207879 290.916475 
L 92.925137 290.286763 
L 93.234909 289.657051 
L 93.544681 288.970092 
L 95.093538 288.741105 
L 95.40331 287.710667 
L 96.952168 287.48168 
L 97.416825 286.794721 
L 98.655911 285.878776 
L 98.810797 285.592543 
L 99.120569 285.535297 
L 101.288969 285.249064 
L 101.753627 285.13457 
L 102.218284 285.077324 
L 104.541571 284.962831 
L 104.696457 284.562105 
L 105.006228 284.218625 
L 105.470885 284.104132 
L 105.935543 283.703406 
L 106.245314 283.417173 
L 106.709972 283.245433 
L 107.019743 282.901954 
L 108.25883 282.100502 
L 109.652802 281.642529 
L 109.807687 281.470789 
L 110.42723 281.241803 
L 110.582116 281.012816 
L 111.046774 280.898323 
L 112.28586 280.096871 
L 113.060289 279.696145 
L 113.37006 279.180926 
L 114.764032 278.837446 
L 115.693347 278.60846 
L 116.158004 277.864254 
L 117.706862 277.120049 
L 117.861748 276.776569 
L 118.171519 276.60483 
L 118.791062 276.490336 
L 120.33992 276.318597 
L 122.508321 275.803377 
L 122.663207 275.517144 
L 123.592522 275.402651 
L 123.902293 275.173665 
L 124.521836 274.601199 
L 124.831608 274.08598 
L 125.606037 273.856994 
L 125.915808 273.284528 
L 127.000009 272.941048 
L 129.633067 272.597569 
L 129.787953 272.483076 
L 130.25261 272.311336 
L 131.491696 267.731609 
L 131.646582 267.159143 
L 132.885668 266.930157 
L 133.660097 266.643924 
L 136.448041 266.071458 
L 136.602927 265.899718 
L 137.996899 265.556239 
L 138.151785 265.384499 
L 139.545757 265.04102 
L 140.1653 264.5258 
L 140.784843 264.468554 
L 141.094615 264.125074 
L 141.869044 263.953335 
L 142.643472 263.896088 
L 142.798358 263.380869 
L 143.263016 262.86565 
L 145.276531 262.293184 
L 146.05096 262.121444 
L 146.360731 262.064197 
L 149.303561 261.892458 
L 152.556162 261.434485 
L 152.711048 261.319992 
L 157.357621 261.148252 
L 161.694423 260.690279 
L 162.468852 260.00332 
L 162.623738 259.831581 
L 163.707938 259.602594 
L 164.792139 259.087375 
L 165.256796 258.858389 
L 165.721454 258.743896 
L 166.495882 258.572156 
L 166.805654 258.34317 
L 167.115426 258.285923 
L 167.425197 257.942443 
L 169.90337 257.541717 
L 171.297342 257.312731 
L 172.536428 256.969252 
L 172.846199 256.454032 
L 173.155971 256.339539 
L 175.324372 256.167799 
L 177.337887 255.938813 
L 178.576973 255.65258 
L 179.970945 255.137361 
L 181.210031 254.965621 
L 181.674689 254.851128 
L 181.829575 254.564895 
L 182.139346 253.076484 
L 184.152861 252.275032 
L 184.307747 251.931552 
L 184.617519 251.874306 
L 184.92729 251.187347 
L 185.546833 250.901114 
L 185.701719 250.443141 
L 186.011491 250.156908 
L 186.940805 249.927922 
L 187.095691 249.813429 
L 187.715234 249.641689 
L 188.644549 248.668497 
L 188.95432 247.981538 
L 189.264092 247.695305 
L 189.883635 247.008346 
L 190.348292 246.893853 
L 191.742264 246.092401 
L 192.671579 245.920661 
L 193.291122 245.233702 
L 193.600894 244.146017 
L 193.910665 243.802537 
L 194.065551 243.630798 
L 194.530208 242.142386 
L 194.685094 241.9134 
L 194.83998 241.455427 
L 195.149752 241.283688 
L 195.769295 240.825715 
L 196.388838 240.482236 
L 196.698609 240.253249 
L 196.853495 239.852523 
L 197.473038 239.509044 
L 197.78281 239.165564 
L 197.937696 238.822085 
L 198.402353 238.535852 
L 198.86701 237.104687 
L 199.021896 237.047441 
L 199.486553 236.532221 
L 199.796325 236.417728 
L 200.106096 235.959755 
L 200.570754 235.101057 
L 201.190297 234.986564 
L 201.500068 234.643084 
L 202.119612 234.585837 
L 202.584269 234.070618 
L 202.894041 233.956125 
L 203.048926 233.669892 
L 203.358698 233.612646 
L 204.75267 233.498152 
L 204.907556 232.86844 
L 205.372213 232.753947 
L 205.681985 232.52496 
L 206.766185 232.353221 
L 207.075957 232.181481 
L 207.850385 232.009741 
L 210.018786 231.208289 
L 210.173672 230.807563 
L 210.483444 230.635823 
L 211.102987 230.464083 
L 211.257873 230.120604 
L 212.032301 230.006111 
L 212.342073 229.662631 
L 213.116502 229.490892 
L 215.284903 229.376398 
L 216.833761 229.032919 
L 217.60819 228.746686 
L 217.763075 228.34596 
L 217.917961 228.288713 
L 218.69239 227.143782 
L 219.931476 226.743056 
L 220.241248 226.514069 
L 220.396134 226.227836 
L 221.015677 225.99885 
L 221.480334 225.884357 
L 221.790106 225.025658 
L 222.099877 224.796672 
L 223.029192 222.907535 
L 223.184078 222.793041 
L 223.648735 221.991589 
L 223.958506 221.705356 
L 224.113392 221.018397 
L 224.423164 220.732164 
L 225.042707 219.243753 
L 225.197593 219.186507 
L 225.352478 218.95752 
L 225.507364 218.442301 
L 225.817136 218.270561 
L 226.126907 217.411863 
L 226.436679 216.896643 
L 226.74645 216.78215 
L 227.365994 215.408232 
L 227.675765 214.950259 
L 227.985537 214.893013 
L 228.914851 213.862574 
L 229.069737 213.404602 
L 230.308823 212.889382 
L 230.463709 212.488656 
L 230.618595 212.43141 
L 230.773481 212.030684 
L 230.928367 211.973437 
L 232.322339 211.801697 
L 232.477224 211.572711 
L 232.941882 211.515464 
L 233.096767 211.000245 
L 233.716311 210.885752 
L 234.800511 210.828505 
L 235.884711 210.25604 
L 237.433569 210.0843 
L 238.053112 209.969807 
L 238.672655 209.626327 
L 240.221513 209.511834 
L 241.305714 209.111108 
L 241.770371 207.279217 
L 242.5448 207.164724 
L 243.009457 206.535012 
L 243.629 206.420519 
L 243.938772 206.248779 
L 245.642516 206.134286 
L 247.036488 205.790806 
L 247.810916 205.73356 
L 249.204888 205.332833 
L 256.329634 204.760368 
L 256.48452 204.588628 
L 257.568721 204.416888 
L 257.878492 203.958915 
L 258.343149 201.840792 
L 258.498035 201.611806 
L 259.117578 201.382819 
L 259.272464 200.638614 
L 259.42735 200.52412 
L 259.582236 200.123394 
L 259.737121 200.066148 
L 260.046893 199.722668 
L 260.51155 198.234257 
L 260.821322 197.604545 
L 261.440865 197.261065 
L 261.595751 196.974832 
L 261.750637 196.34512 
L 262.215294 195.887147 
L 262.37018 195.600914 
L 262.679951 194.684969 
L 262.834837 194.570476 
L 263.45438 191.99438 
L 264.538581 186.555954 
L 265.158124 184.094351 
L 265.467895 183.693625 
L 265.777667 183.464639 
L 266.087438 182.033474 
L 266.39721 181.747241 
L 266.861867 181.403762 
L 267.326525 180.316077 
L 267.636296 179.858104 
L 267.946068 179.056652 
L 268.410725 178.312446 
L 269.804697 177.167515 
L 270.269354 176.194323 
L 270.579126 175.793597 
L 271.663326 175.679103 
L 272.747527 175.621857 
L 273.057298 175.450117 
L 274.141499 175.335624 
L 274.915928 174.877651 
L 275.535471 174.648665 
L 276.464786 173.446487 
L 276.619671 173.274747 
L 277.084329 172.530541 
L 277.3941 172.244308 
L 277.703872 172.015322 
L 278.478301 170.412418 
L 279.097844 169.610966 
L 280.027158 168.237048 
L 280.33693 167.550089 
L 280.646702 167.378349 
L 280.956473 166.51965 
L 282.195559 164.745006 
L 283.589531 164.34428 
L 283.899303 162.340649 
L 284.209075 162.16891 
L 284.518846 161.596444 
L 285.138389 161.252964 
L 285.293275 160.966731 
L 285.603047 160.794992 
L 285.912818 160.165279 
L 286.067704 158.161649 
L 286.687247 157.360197 
L 286.842133 157.30295 
L 286.997019 156.387005 
L 287.151904 156.158018 
L 287.616562 156.043525 
L 287.771447 155.29932 
L 288.081219 155.12758 
L 288.390991 154.268881 
L 288.700762 153.925402 
L 289.010534 153.810909 
L 289.939848 153.753662 
L 290.869163 153.581922 
L 291.953363 153.524676 
L 297.21948 152.78047 
L 297.374366 152.551484 
L 297.684137 151.635538 
L 297.839023 151.578292 
L 298.30368 150.891333 
L 298.613452 148.830456 
L 298.768338 148.143497 
L 298.923224 147.971757 
L 299.387881 146.712332 
L 299.697652 146.311606 
L 300.007424 145.968127 
L 300.317196 145.796387 
L 300.472081 145.510154 
L 301.091624 143.449277 
L 301.711168 140.930427 
L 302.330711 140.586948 
L 302.640482 140.128975 
L 302.950254 139.499263 
L 307.13217 139.38477 
L 307.906599 138.926797 
L 308.835913 138.812304 
L 309.145685 138.125345 
L 309.610342 138.010852 
L 310.075 137.781865 
L 310.694543 136.579687 
L 311.1592 136.293454 
L 311.314086 135.892728 
L 311.778743 135.835481 
L 312.088515 135.606495 
L 312.398286 134.69055 
L 312.708058 133.717358 
L 312.862944 133.660111 
L 313.327601 133.316632 
L 313.947144 133.202139 
L 319.368146 132.858659 
L 320.452347 132.686919 
L 321.226776 132.51518 
L 321.536547 132.457933 
L 331.139466 131.770974 
L 332.06878 131.541988 
L 333.772524 131.255755 
L 338.883755 130.969522 
L 343.220556 130.683289 
L 348.331787 129.366618 
L 348.796444 129.080385 
L 349.880645 128.965891 
L 350.500188 127.935453 
L 351.429503 127.134001 
L 351.584388 126.847768 
L 352.049046 126.790521 
L 352.203932 126.618782 
L 353.597904 126.332549 
L 353.752789 126.218055 
L 355.611419 126.046316 
L 368.621824 125.989069 
L 368.77671 125.817329 
L 376.366113 125.531096 
L 377.140542 125.47385 
L 377.450313 125.30211 
L 377.605199 125.015877 
L 381.63223 124.958631 
L 384.729945 124.157178 
L 385.65926 124.099932 
L 386.278803 123.928192 
L 386.433689 123.527466 
L 386.898346 123.29848 
L 387.363003 122.382534 
L 387.672775 122.210795 
L 387.982546 121.695575 
L 388.447204 121.581082 
L 388.756975 120.665137 
L 389.066747 119.863685 
L 389.221633 119.749192 
L 390.150947 119.405712 
L 390.305833 119.119479 
L 390.615605 119.004986 
L 392.62912 118.661506 
L 397.895236 118.489767 
L 398.979437 118.203534 
L 399.289208 118.031794 
L 399.59898 117.631068 
L 399.908751 116.829616 
L 400.373409 116.486136 
L 402.54181 116.25715 
L 403.316239 116.08541 
L 403.471124 115.91367 
L 404.090667 115.684684 
L 404.555325 115.054972 
L 410.131213 114.654246 
L 411.370299 113.967287 
L 411.680071 113.566561 
L 412.919157 113.452067 
L 413.074043 113.280328 
L 413.383814 113.223081 
L 413.848472 112.994095 
L 414.003357 112.536122 
L 414.158243 112.478876 
L 414.468015 111.90641 
L 415.242444 110.875971 
L 415.397329 110.074519 
L 415.552215 109.902779 
L 416.016872 109.5593 
L 416.326644 109.21582 
L 416.48153 108.815094 
L 417.56573 108.528861 
L 418.030388 107.38393 
L 418.495045 107.097697 
L 418.804816 106.353491 
L 419.889017 105.265806 
L 420.043903 105.151313 
L 420.818332 105.094066 
L 420.973217 104.5216 
L 421.902532 103.949135 
L 426.858877 103.548409 
L 427.323534 103.262176 
L 428.407735 103.147682 
L 429.182164 102.975943 
L 429.337049 102.632463 
L 431.195679 102.059997 
L 431.970108 101.831011 
L 432.434765 101.086805 
L 432.899422 100.915066 
L 433.054308 100.457093 
L 435.532481 99.941874 
L 437.700882 99.827381 
L 438.47531 99.369408 
L 438.939968 99.083175 
L 439.869282 99.025928 
L 440.179054 98.739696 
L 442.192569 98.453463 
L 442.347455 97.938243 
L 442.812112 97.82375 
L 443.431655 97.194038 
L 443.586541 97.136791 
L 443.741427 96.793312 
L 445.135399 96.449832 
L 445.44517 96.163599 
L 446.374485 94.159969 
L 446.529371 94.102722 
L 447.148914 93.244024 
L 451.021059 92.786051 
L 451.485716 92.442571 
L 455.512746 92.041845 
L 456.596947 91.641119 
L 458.455576 91.526626 
L 459.539776 90.667927 
L 459.694662 90.438941 
L 460.004434 89.522996 
L 460.623977 89.12227 
L 460.778863 88.721543 
L 460.933748 86.946899 
L 461.24352 86.832406 
L 461.398406 86.488927 
L 461.708177 86.374434 
L 461.863063 86.145447 
L 462.172835 83.397611 
L 462.32772 83.054132 
L 462.792378 80.993255 
L 462.947264 80.821515 
L 463.257035 79.619337 
L 463.411921 78.016432 
L 463.721692 76.757008 
L 464.18635 73.436706 
L 464.805893 72.749747 
L 465.27055 70.631623 
L 465.580322 70.34539 
L 465.735208 70.059157 
L 466.974294 64.220006 
L 467.284065 63.590293 
L 467.903608 59.239553 
L 468.523152 55.690265 
L 468.987809 55.060553 
L 469.29758 54.488087 
L 469.917124 54.030114 
L 470.691552 52.541703 
L 471.311096 52.484456 
L 471.775753 52.312717 
L 472.085524 51.225031 
L 472.395296 48.877922 
L 472.550182 48.706182 
L 472.550182 48.706182 
" clip-path="url(#p05bd591770)" style="fill: none; stroke: #002d72; stroke-width: 1.5; stroke-linecap: square"/>
   </g>
   <g id="patch_3">
    <path d="M 61.584 305.792 
L 61.584 36.464 
" style="fill: none; stroke: #8a8a8a; stroke-linejoin: miter; stroke-linecap: square"/>
   </g>
   <g id="patch_4">
    <path d="M 61.584 305.792 
L 492.12 305.792 
" style="fill: none; stroke: #8a8a8a; stroke-linejoin: miter; stroke-linecap: square"/>
   </g>
   <g id="text_15">
    <!-- Cumulative commits over time -->
    <g style="fill: #002d72" transform="translate(171.821141 24.464) scale(0.13 -0.13)">
     <defs>
      <path id="Montserrat-Bold-2d" d="M 2675 -77 
Q 2157 -77 1712 92 
Q 1267 262 940 576 
Q 614 890 432 1312 
Q 250 1734 250 2240 
Q 250 2746 432 3168 
Q 614 3590 944 3904 
Q 1274 4218 1715 4387 
Q 2157 4557 2682 4557 
Q 3264 4557 3734 4355 
Q 4205 4154 4525 3763 
L 3859 3149 
Q 3629 3411 3347 3542 
Q 3066 3674 2733 3674 
Q 2419 3674 2156 3571 
Q 1894 3469 1702 3277 
Q 1510 3085 1404 2822 
Q 1299 2560 1299 2240 
Q 1299 1920 1404 1657 
Q 1510 1395 1702 1203 
Q 1894 1011 2156 908 
Q 2419 806 2733 806 
Q 3066 806 3347 937 
Q 3629 1069 3859 1338 
L 4525 723 
Q 4205 333 3734 128 
Q 3264 -77 2675 -77 
z
" transform="scale(0.015625)"/>
      <path id="Montserrat-Bold-383" d="M 1914 -51 
Q 1485 -51 1149 115 
Q 813 282 627 624 
Q 442 966 442 1498 
L 442 3443 
L 1440 3443 
L 1440 1645 
Q 1440 1216 1622 1014 
Q 1805 813 2138 813 
Q 2368 813 2547 912 
Q 2726 1011 2828 1219 
Q 2931 1427 2931 1741 
L 2931 3443 
L 3930 3443 
L 3930 0 
L 2982 0 
L 2982 947 
L 3155 672 
Q 2982 314 2646 131 
Q 2310 -51 1914 -51 
z
" transform="scale(0.015625)"/>
      <path id="Montserrat-Bold-312" d="M 461 0 
L 461 3443 
L 1414 3443 
L 1414 2502 
L 1235 2778 
Q 1414 3130 1744 3312 
Q 2074 3494 2496 3494 
Q 2970 3494 3325 3254 
Q 3680 3014 3795 2522 
L 3443 2618 
Q 3616 3021 3997 3257 
Q 4378 3494 4870 3494 
Q 5280 3494 5597 3331 
Q 5914 3168 6096 2832 
Q 6278 2496 6278 1971 
L 6278 0 
L 5280 0 
L 5280 1818 
Q 5280 2234 5107 2432 
Q 4934 2630 4621 2630 
Q 4403 2630 4230 2531 
Q 4058 2432 3962 2233 
Q 3866 2035 3866 1728 
L 3866 0 
L 2867 0 
L 2867 1818 
Q 2867 2234 2697 2432 
Q 2528 2630 2214 2630 
Q 1997 2630 1824 2531 
Q 1651 2432 1555 2233 
Q 1459 2035 1459 1728 
L 1459 0 
L 461 0 
z
" transform="scale(0.015625)"/>
      <path id="Montserrat-Bold-301" d="M 461 0 
L 461 4749 
L 1459 4749 
L 1459 0 
L 461 0 
z
" transform="scale(0.015625)"/>
      <path id="Montserrat-Bold-24c" d="M 2573 0 
L 2573 672 
L 2509 819 
L 2509 2022 
Q 2509 2342 2313 2521 
Q 2118 2701 1715 2701 
Q 1440 2701 1174 2614 
Q 909 2528 723 2381 
L 365 3078 
Q 646 3277 1043 3385 
Q 1440 3494 1850 3494 
Q 2637 3494 3072 3123 
Q 3507 2752 3507 1965 
L 3507 0 
L 2573 0 
z
M 1523 -51 
Q 1120 -51 832 86 
Q 544 224 390 461 
Q 237 698 237 992 
Q 237 1299 387 1529 
Q 538 1760 864 1891 
Q 1190 2022 1715 2022 
L 2630 2022 
L 2630 1440 
L 1824 1440 
Q 1472 1440 1341 1325 
Q 1210 1210 1210 1037 
Q 1210 845 1360 733 
Q 1510 621 1773 621 
Q 2022 621 2220 739 
Q 2419 858 2509 1088 
L 2662 627 
Q 2554 294 2266 121 
Q 1978 -51 1523 -51 
z
" transform="scale(0.015625)"/>
      <path id="Montserrat-Bold-375" d="M 1869 -51 
Q 1261 -51 921 259 
Q 582 570 582 1184 
L 582 4205 
L 1581 4205 
L 1581 1197 
Q 1581 979 1696 860 
Q 1811 742 2010 742 
Q 2246 742 2413 870 
L 2682 166 
Q 2528 58 2313 3 
Q 2099 -51 1869 -51 
z
M 51 2675 
L 51 3443 
L 2438 3443 
L 2438 2675 
L 51 2675 
z
" transform="scale(0.015625)"/>
      <path id="Montserrat-Bold-2d7" d="M 461 0 
L 461 3443 
L 1459 3443 
L 1459 0 
L 461 0 
z
M 960 3923 
Q 685 3923 512 4083 
Q 339 4243 339 4480 
Q 339 4717 512 4877 
Q 685 5037 960 5037 
Q 1235 5037 1408 4886 
Q 1581 4736 1581 4499 
Q 1581 4250 1411 4086 
Q 1242 3923 960 3923 
z
" transform="scale(0.015625)"/>
      <path id="Montserrat-Bold-3a4" d="M 1395 0 
L -51 3443 
L 979 3443 
L 2182 480 
L 1670 480 
L 2918 3443 
L 3878 3443 
L 2426 0 
L 1395 0 
z
" transform="scale(0.015625)"/>
      <path id="Montserrat-Bold-295" d="M 2170 -51 
Q 1581 -51 1136 179 
Q 691 410 448 810 
Q 205 1210 205 1722 
Q 205 2240 445 2640 
Q 685 3040 1101 3267 
Q 1517 3494 2042 3494 
Q 2547 3494 2953 3280 
Q 3360 3066 3597 2666 
Q 3834 2266 3834 1709 
Q 3834 1651 3827 1577 
Q 3821 1504 3814 1440 
L 1018 1440 
L 1018 2022 
L 3290 2022 
L 2906 1850 
Q 2906 2118 2797 2316 
Q 2688 2515 2496 2627 
Q 2304 2739 2048 2739 
Q 1792 2739 1597 2627 
Q 1402 2515 1293 2313 
Q 1184 2112 1184 1837 
L 1184 1683 
Q 1184 1402 1309 1187 
Q 1434 973 1661 861 
Q 1888 749 2195 749 
Q 2470 749 2678 832 
Q 2886 915 3059 1082 
L 3590 506 
Q 3354 237 2995 93 
Q 2637 -51 2170 -51 
z
" transform="scale(0.015625)"/>
      <path id="Montserrat-Bold-8bd" transform="scale(0.015625)"/>
      <path id="Montserrat-Bold-27a" d="M 2125 -51 
Q 1568 -51 1133 176 
Q 698 403 451 806 
Q 205 1210 205 1722 
Q 205 2240 451 2640 
Q 698 3040 1133 3267 
Q 1568 3494 2125 3494 
Q 2669 3494 3072 3267 
Q 3475 3040 3667 2618 
L 2893 2202 
Q 2758 2445 2556 2560 
Q 2355 2675 2118 2675 
Q 1862 2675 1657 2560 
Q 1453 2445 1334 2233 
Q 1216 2022 1216 1722 
Q 1216 1421 1334 1209 
Q 1453 998 1657 883 
Q 1862 768 2118 768 
Q 2355 768 2556 880 
Q 2758 992 2893 1242 
L 3667 819 
Q 3475 403 3072 176 
Q 2669 -51 2125 -51 
z
" transform="scale(0.015625)"/>
      <path id="Montserrat-Bold-327" d="M 2099 -51 
Q 1549 -51 1123 179 
Q 698 410 451 810 
Q 205 1210 205 1722 
Q 205 2240 451 2640 
Q 698 3040 1123 3267 
Q 1549 3494 2099 3494 
Q 2643 3494 3072 3267 
Q 3501 3040 3744 2643 
Q 3987 2246 3987 1722 
Q 3987 1210 3744 810 
Q 3501 410 3072 179 
Q 2643 -51 2099 -51 
z
M 2099 768 
Q 2349 768 2547 883 
Q 2746 998 2861 1212 
Q 2976 1427 2976 1722 
Q 2976 2022 2861 2233 
Q 2746 2445 2547 2560 
Q 2349 2675 2099 2675 
Q 1850 2675 1651 2560 
Q 1453 2445 1334 2233 
Q 1216 2022 1216 1722 
Q 1216 1427 1334 1212 
Q 1453 998 1651 883 
Q 1850 768 2099 768 
z
" transform="scale(0.015625)"/>
      <path id="Montserrat-Bold-367" d="M 1619 -51 
Q 1178 -51 771 54 
Q 365 160 128 320 
L 461 1037 
Q 698 890 1021 797 
Q 1344 704 1658 704 
Q 2003 704 2147 787 
Q 2291 870 2291 1018 
Q 2291 1139 2179 1200 
Q 2067 1261 1881 1293 
Q 1696 1325 1475 1357 
Q 1254 1389 1030 1443 
Q 806 1498 620 1606 
Q 435 1715 323 1900 
Q 211 2086 211 2381 
Q 211 2707 400 2956 
Q 589 3206 947 3350 
Q 1306 3494 1805 3494 
Q 2157 3494 2521 3417 
Q 2886 3341 3130 3194 
L 2797 2483 
Q 2547 2630 2294 2684 
Q 2042 2739 1805 2739 
Q 1472 2739 1318 2649 
Q 1165 2560 1165 2419 
Q 1165 2291 1277 2227 
Q 1389 2163 1574 2124 
Q 1760 2086 1981 2057 
Q 2202 2029 2426 1971 
Q 2650 1914 2832 1808 
Q 3014 1702 3129 1520 
Q 3245 1338 3245 1043 
Q 3245 723 3053 476 
Q 2861 230 2499 89 
Q 2138 -51 1619 -51 
z
" transform="scale(0.015625)"/>
      <path id="Montserrat-Bold-359" d="M 461 0 
L 461 3443 
L 1414 3443 
L 1414 2470 
L 1280 2752 
Q 1434 3117 1773 3305 
Q 2112 3494 2598 3494 
L 2598 2573 
Q 2534 2579 2483 2582 
Q 2432 2586 2374 2586 
Q 1965 2586 1712 2352 
Q 1459 2118 1459 1626 
L 1459 0 
L 461 0 
z
" transform="scale(0.015625)"/>
     </defs>
     <use xlink:href="#Montserrat-Bold-2d"/>
     <use xlink:href="#Montserrat-Bold-383" transform="translate(71 0)"/>
     <use xlink:href="#Montserrat-Bold-312" transform="translate(139.703125 0)"/>
     <use xlink:href="#Montserrat-Bold-383" transform="translate(244.609375 0)"/>
     <use xlink:href="#Montserrat-Bold-301" transform="translate(313.3125 0)"/>
     <use xlink:href="#Montserrat-Bold-24c" transform="translate(343.40625 0)"/>
     <use xlink:href="#Montserrat-Bold-375" transform="translate(405.109375 0)"/>
     <use xlink:href="#Montserrat-Bold-2d7" transform="translate(448.609375 0)"/>
     <use xlink:href="#Montserrat-Bold-3a4" transform="translate(478.703125 0)"/>
     <use xlink:href="#Montserrat-Bold-295" transform="translate(537 0)"/>
     <use xlink:href="#Montserrat-Bold-8bd" transform="translate(600.09375 0)"/>
     <use xlink:href="#Montserrat-Bold-27a" transform="translate(628.390625 0)"/>
     <use xlink:href="#Montserrat-Bold-327" transform="translate(686.78125 0)"/>
     <use xlink:href="#Montserrat-Bold-312" transform="translate(752.28125 0)"/>
     <use xlink:href="#Montserrat-Bold-312" transform="translate(857.1875 0)"/>
     <use xlink:href="#Montserrat-Bold-2d7" transform="translate(962.09375 0)"/>
     <use xlink:href="#Montserrat-Bold-375" transform="translate(992.1875 0)"/>
     <use xlink:href="#Montserrat-Bold-367" transform="translate(1035.6875 0)"/>
     <use xlink:href="#Montserrat-Bold-8bd" transform="translate(1088.78125 0)"/>
     <use xlink:href="#Montserrat-Bold-327" transform="translate(1117.078125 0)"/>
     <use xlink:href="#Montserrat-Bold-3a4" transform="translate(1181.078125 0)"/>
     <use xlink:href="#Montserrat-Bold-295" transform="translate(1239.375 0)"/>
     <use xlink:href="#Montserrat-Bold-359" transform="translate(1302.46875 0)"/>
     <use xlink:href="#Montserrat-Bold-8bd" transform="translate(1345.5625 0)"/>
     <use xlink:href="#Montserrat-Bold-375" transform="translate(1373.859375 0)"/>
     <use xlink:href="#Montserrat-Bold-2d7" transform="translate(1417.359375 0)"/>
     <use xlink:href="#Montserrat-Bold-312" transform="translate(1447.453125 0)"/>
     <use xlink:href="#Montserrat-Bold-295" transform="translate(1552.765625 0)"/>
    </g>
   </g>
  </g>
 </g>
 <defs>
  <clipPath id="p05bd591770">
   <rect x="61.584" y="36.464" width="430.536" height="269.328"/>
  </clipPath>
 </defs>
</svg>
