<?xml version="1.0" encoding="utf-8" standalone="no"?>
<!DOCTYPE svg PUBLIC "-//W3C//DTD SVG 1.1//EN"
  "http://www.w3.org/Graphics/SVG/1.1/DTD/svg11.dtd">
<svg xmlns:xlink="http://www.w3.org/1999/xlink" width="504pt" height="360pt" viewBox="0 0 504 360" xmlns="http://www.w3.org/2000/svg" version="1.1">
 <metadata>
  <rdf:RDF xmlns:dc="http://purl.org/dc/elements/1.1/" xmlns:cc="http://creativecommons.org/ns#" xmlns:rdf="http://www.w3.org/1999/02/22-rdf-syntax-ns#">
   <cc:Work>
    <dc:type rdf:resource="http://purl.org/dc/dcmitype/StillImage"/>
    <dc:date>2026-07-16T07:50:56.931813</dc:date>
    <dc:format>image/svg+xml</dc:format>
    <dc:creator>
     <cc:Agent>
      <dc:title>Matplotlib v3.11.0, https://matplotlib.org/</dc:title>
     </cc:Agent>
    </dc:creator>
   </cc:Work>
  </rdf:RDF>
 </metadata>
 <defs>
  <style type="text/css">*{stroke-linejoin: round; stroke-linecap: butt}</style>
 </defs>
 <g id="figure_1">
  <g id="patch_1">
   <path d="M 0 360 
L 504 360 
L 504 0 
L 0 0 
L 0 360 
z
" style="fill: none"/>
  </g>
  <g id="axes_1">
   <g id="patch_2">
    <path d="M 61.584 305.792 
L 492.12 305.792 
L 492.12 36.464 
L 61.584 36.464 
L 61.584 305.792 
z
" style="fill: none"/>
   </g>
   <g id="matplotlib.axis_1">
    <g id="xtick_1">
     <g id="line2d_1">
      <defs>
       <path id="m7700db2004" d="M 0 0 
L 0 3.5 
" style="stroke: #1c2531; stroke-width: 0.8"/>
      </defs>
      <g>
       <use xlink:href="#m7700db2004" x="102.984074" y="305.792" style="fill: #1c2531; stroke: #1c2531; stroke-width: 0.8"/>
      </g>
     </g>
     <g id="text_1">
      <!-- 2020 -->
      <g style="fill: #1c2531" transform="translate(92.049387 324.056) scale(0.11 -0.11)">
       <defs>
        <path id="SourceSans3-Regular-537" d="M 256 0 
L 256 320 
Q 864 922 1296 1386 
Q 1728 1850 1952 2227 
Q 2176 2605 2176 2931 
Q 2176 3283 1984 3507 
Q 1792 3731 1402 3731 
Q 1146 3731 928 3590 
Q 710 3450 531 3238 
L 237 3526 
Q 493 3814 784 3987 
Q 1075 4160 1466 4160 
Q 1843 4160 2118 4009 
Q 2394 3859 2541 3590 
Q 2688 3322 2688 2963 
Q 2688 2566 2467 2176 
Q 2246 1786 1862 1357 
Q 1478 928 979 416 
Q 1146 435 1325 444 
Q 1504 454 1664 454 
L 2893 454 
L 2893 0 
L 256 0 
z
" transform="scale(0.015625)"/>
        <path id="SourceSans3-Regular-535" d="M 1594 -77 
Q 979 -77 630 476 
Q 282 1030 282 2054 
Q 282 3085 630 3622 
Q 979 4160 1594 4160 
Q 2202 4160 2550 3619 
Q 2899 3078 2899 2054 
Q 2899 1030 2550 476 
Q 2202 -77 1594 -77 
z
M 1594 346 
Q 1830 346 2009 525 
Q 2189 704 2288 1081 
Q 2387 1459 2387 2054 
Q 2387 2656 2288 3027 
Q 2189 3398 2009 3568 
Q 1830 3738 1594 3738 
Q 1350 3738 1171 3568 
Q 992 3398 893 3027 
Q 794 2656 794 2054 
Q 794 1459 893 1081 
Q 992 704 1171 525 
Q 1350 346 1594 346 
z
" transform="scale(0.015625)"/>
       </defs>
       <use xlink:href="#SourceSans3-Regular-537"/>
       <use xlink:href="#SourceSans3-Regular-535" transform="translate(49.703125 0)"/>
       <use xlink:href="#SourceSans3-Regular-537" transform="translate(99.40625 0)"/>
       <use xlink:href="#SourceSans3-Regular-535" transform="translate(149.109375 0)"/>
      </g>
     </g>
    </g>
    <g id="xtick_2">
     <g id="line2d_2">
      <g>
       <use xlink:href="#m7700db2004" x="159.649845" y="305.792" style="fill: #1c2531; stroke: #1c2531; stroke-width: 0.8"/>
      </g>
     </g>
     <g id="text_2">
      <!-- 2021 -->
      <g style="fill: #1c2531" transform="translate(148.715158 324.056) scale(0.11 -0.11)">
       <defs>
        <path id="SourceSans3-Regular-536" d="M 506 0 
L 506 435 
L 1440 435 
L 1440 3443 
L 698 3443 
L 698 3782 
Q 973 3834 1184 3907 
Q 1395 3981 1562 4083 
L 1965 4083 
L 1965 435 
L 2810 435 
L 2810 0 
L 506 0 
z
" transform="scale(0.015625)"/>
       </defs>
       <use xlink:href="#SourceSans3-Regular-537"/>
       <use xlink:href="#SourceSans3-Regular-535" transform="translate(49.703125 0)"/>
       <use xlink:href="#SourceSans3-Regular-537" transform="translate(99.40625 0)"/>
       <use xlink:href="#SourceSans3-Regular-536" transform="translate(149.109375 0)"/>
      </g>
     </g>
    </g>
    <g id="xtick_3">
     <g id="line2d_3">
      <g>
       <use xlink:href="#m7700db2004" x="216.160792" y="305.792" style="fill: #1c2531; stroke: #1c2531; stroke-width: 0.8"/>
      </g>
     </g>
     <g id="text_3">
      <!-- 2022 -->
      <g style="fill: #1c2531" transform="translate(205.226104 324.056) scale(0.11 -0.11)">
       <use xlink:href="#SourceSans3-Regular-537"/>
       <use xlink:href="#SourceSans3-Regular-535" transform="translate(49.703125 0)"/>
       <use xlink:href="#SourceSans3-Regular-537" transform="translate(99.40625 0)"/>
       <use xlink:href="#SourceSans3-Regular-537" transform="translate(149.109375 0)"/>
      </g>
     </g>
    </g>
    <g id="xtick_4">
     <g id="line2d_4">
      <g>
       <use xlink:href="#m7700db2004" x="272.671738" y="305.792" style="fill: #1c2531; stroke: #1c2531; stroke-width: 0.8"/>
      </g>
     </g>
     <g id="text_4">
      <!-- 2023 -->
      <g style="fill: #1c2531" transform="translate(261.737051 324.056) scale(0.11 -0.11)">
       <defs>
        <path id="SourceSans3-Regular-538" d="M 1510 -77 
Q 1184 -77 931 6 
Q 678 90 492 218 
Q 307 346 166 499 
L 435 845 
Q 621 653 867 505 
Q 1114 358 1478 358 
Q 1850 358 2086 563 
Q 2323 768 2323 1107 
Q 2323 1350 2198 1532 
Q 2074 1715 1789 1817 
Q 1504 1920 1018 1920 
L 1018 2323 
Q 1453 2323 1705 2425 
Q 1958 2528 2067 2697 
Q 2176 2867 2176 3085 
Q 2176 3386 1987 3558 
Q 1798 3731 1472 3731 
Q 1216 3731 998 3616 
Q 781 3501 602 3315 
L 320 3648 
Q 557 3872 845 4016 
Q 1133 4160 1491 4160 
Q 1850 4160 2125 4038 
Q 2400 3917 2557 3686 
Q 2714 3456 2714 3123 
Q 2714 2752 2509 2515 
Q 2304 2278 1971 2150 
L 1971 2125 
Q 2221 2067 2419 1929 
Q 2618 1792 2736 1581 
Q 2854 1370 2854 1088 
Q 2854 723 2675 464 
Q 2496 205 2189 64 
Q 1882 -77 1510 -77 
z
" transform="scale(0.015625)"/>
       </defs>
       <use xlink:href="#SourceSans3-Regular-537"/>
       <use xlink:href="#SourceSans3-Regular-535" transform="translate(49.703125 0)"/>
       <use xlink:href="#SourceSans3-Regular-537" transform="translate(99.40625 0)"/>
       <use xlink:href="#SourceSans3-Regular-538" transform="translate(149.109375 0)"/>
      </g>
     </g>
    </g>
    <g id="xtick_5">
     <g id="line2d_5">
      <g>
       <use xlink:href="#m7700db2004" x="329.182685" y="305.792" style="fill: #1c2531; stroke: #1c2531; stroke-width: 0.8"/>
      </g>
     </g>
     <g id="text_5">
      <!-- 2024 -->
      <g style="fill: #1c2531" transform="translate(318.247997 324.056) scale(0.11 -0.11)">
       <defs>
        <path id="SourceSans3-Regular-539" d="M 1946 0 
L 1946 2733 
Q 1946 2893 1958 3126 
Q 1971 3360 1978 3520 
L 1952 3520 
Q 1875 3373 1792 3235 
Q 1709 3098 1619 2944 
L 666 1549 
L 3002 1549 
L 3002 1126 
L 109 1126 
L 109 1472 
L 1856 4083 
L 2445 4083 
L 2445 0 
L 1946 0 
z
" transform="scale(0.015625)"/>
       </defs>
       <use xlink:href="#SourceSans3-Regular-537"/>
       <use xlink:href="#SourceSans3-Regular-535" transform="translate(49.703125 0)"/>
       <use xlink:href="#SourceSans3-Regular-537" transform="translate(99.40625 0)"/>
       <use xlink:href="#SourceSans3-Regular-539" transform="translate(149.109375 0)"/>
      </g>
     </g>
    </g>
    <g id="xtick_6">
     <g id="line2d_6">
      <g>
       <use xlink:href="#m7700db2004" x="385.848456" y="305.792" style="fill: #1c2531; stroke: #1c2531; stroke-width: 0.8"/>
      </g>
     </g>
     <g id="text_6">
      <!-- 2025 -->
      <g style="fill: #1c2531" transform="translate(374.913768 324.056) scale(0.11 -0.11)">
       <defs>
        <path id="SourceSans3-Regular-53a" d="M 1498 -77 
Q 1171 -77 921 3 
Q 672 83 486 211 
Q 301 339 160 480 
L 416 826 
Q 602 646 845 502 
Q 1088 358 1446 358 
Q 1696 358 1897 473 
Q 2099 589 2220 797 
Q 2342 1005 2342 1293 
Q 2342 1715 2105 1952 
Q 1869 2189 1472 2189 
Q 1267 2189 1113 2125 
Q 960 2061 774 1939 
L 493 2118 
L 627 4083 
L 2669 4083 
L 2669 3629 
L 1088 3629 
L 979 2419 
Q 1126 2496 1273 2541 
Q 1421 2586 1606 2586 
Q 1958 2586 2246 2451 
Q 2534 2317 2704 2032 
Q 2874 1747 2874 1306 
Q 2874 864 2678 553 
Q 2483 243 2169 83 
Q 1856 -77 1498 -77 
z
" transform="scale(0.015625)"/>
       </defs>
       <use xlink:href="#SourceSans3-Regular-537"/>
       <use xlink:href="#SourceSans3-Regular-535" transform="translate(49.703125 0)"/>
       <use xlink:href="#SourceSans3-Regular-537" transform="translate(99.40625 0)"/>
       <use xlink:href="#SourceSans3-Regular-53a" transform="translate(149.109375 0)"/>
      </g>
     </g>
    </g>
    <g id="xtick_7">
     <g id="line2d_7">
      <g>
       <use xlink:href="#m7700db2004" x="442.359402" y="305.792" style="fill: #1c2531; stroke: #1c2531; stroke-width: 0.8"/>
      </g>
     </g>
     <g id="text_7">
      <!-- 2026 -->
      <g style="fill: #1c2531" transform="translate(431.424715 324.056) scale(0.11 -0.11)">
       <defs>
        <path id="SourceSans3-Regular-53b" d="M 1715 -77 
Q 1414 -77 1158 44 
Q 902 166 713 412 
Q 525 659 416 1027 
Q 307 1395 307 1888 
Q 307 2502 435 2934 
Q 563 3366 780 3635 
Q 998 3904 1276 4032 
Q 1555 4160 1862 4160 
Q 2195 4160 2435 4035 
Q 2675 3910 2848 3725 
L 2554 3398 
Q 2432 3546 2253 3632 
Q 2074 3718 1882 3718 
Q 1594 3718 1347 3545 
Q 1101 3373 953 2973 
Q 806 2573 806 1888 
Q 806 1382 912 1036 
Q 1018 691 1222 515 
Q 1427 339 1715 339 
Q 1914 339 2077 451 
Q 2240 563 2333 764 
Q 2426 966 2426 1235 
Q 2426 1498 2342 1693 
Q 2259 1888 2092 1993 
Q 1926 2099 1670 2099 
Q 1472 2099 1238 1968 
Q 1005 1837 794 1523 
L 774 1939 
Q 973 2195 1235 2345 
Q 1498 2496 1760 2496 
Q 2112 2496 2374 2355 
Q 2637 2214 2781 1932 
Q 2925 1651 2925 1235 
Q 2925 845 2758 550 
Q 2592 256 2317 89 
Q 2042 -77 1715 -77 
z
" transform="scale(0.015625)"/>
       </defs>
       <use xlink:href="#SourceSans3-Regular-537"/>
       <use xlink:href="#SourceSans3-Regular-535" transform="translate(49.703125 0)"/>
       <use xlink:href="#SourceSans3-Regular-537" transform="translate(99.40625 0)"/>
       <use xlink:href="#SourceSans3-Regular-53b" transform="translate(149.109375 0)"/>
      </g>
     </g>
    </g>
    <g id="text_8">
     <!-- Date -->
     <g style="fill: #1c2531" transform="translate(266.265359 343.72) scale(0.11 -0.11)">
      <defs>
       <path id="SourceSans3-Regular-5" d="M 576 0 
L 576 4198 
L 1626 4198 
Q 2272 4198 2713 3955 
Q 3155 3712 3382 3248 
Q 3610 2784 3610 2118 
Q 3610 1453 3382 976 
Q 3155 499 2720 249 
Q 2285 0 1651 0 
L 576 0 
z
M 1107 435 
L 1587 435 
Q 2080 435 2406 636 
Q 2733 838 2893 1209 
Q 3053 1581 3053 2118 
Q 3053 2643 2893 3014 
Q 2733 3386 2406 3574 
Q 2080 3763 1587 3763 
L 1107 3763 
L 1107 435 
z
" transform="scale(0.015625)"/>
       <path id="SourceSans3-Regular-1c" d="M 1242 -77 
Q 986 -77 778 28 
Q 570 134 448 329 
Q 326 525 326 806 
Q 326 1331 787 1600 
Q 1248 1869 2246 1978 
Q 2240 2170 2185 2349 
Q 2131 2528 1990 2637 
Q 1850 2746 1600 2746 
Q 1331 2746 1094 2646 
Q 858 2547 672 2426 
L 467 2784 
Q 608 2880 800 2973 
Q 992 3066 1216 3126 
Q 1440 3187 1690 3187 
Q 2067 3187 2307 3030 
Q 2547 2874 2659 2586 
Q 2771 2298 2771 1907 
L 2771 0 
L 2336 0 
L 2291 371 
L 2272 371 
Q 2048 186 1792 54 
Q 1536 -77 1242 -77 
z
M 1389 358 
Q 1619 358 1820 460 
Q 2022 563 2246 762 
L 2246 1600 
Q 1722 1536 1418 1437 
Q 1114 1338 979 1190 
Q 845 1043 845 838 
Q 845 582 1005 470 
Q 1165 358 1389 358 
z
" transform="scale(0.015625)"/>
       <path id="SourceSans3-Regular-2f" d="M 1504 -58 
Q 1011 -58 812 230 
Q 614 518 614 979 
L 614 2682 
L 154 2682 
L 154 3078 
L 640 3110 
L 704 4109 
L 1146 4109 
L 1146 3110 
L 1990 3110 
L 1990 2682 
L 1146 2682 
L 1146 973 
Q 1146 691 1251 531 
Q 1357 371 1626 371 
Q 1709 371 1798 387 
Q 1888 403 1978 448 
L 2093 77 
Q 1971 19 1817 -19 
Q 1664 -58 1504 -58 
z
" transform="scale(0.015625)"/>
       <path id="SourceSans3-Regular-20" d="M 1786 -77 
Q 1370 -77 1027 118 
Q 685 314 486 675 
Q 288 1037 288 1555 
Q 288 2061 493 2425 
Q 698 2790 1018 2988 
Q 1338 3187 1696 3187 
Q 2093 3187 2371 3004 
Q 2650 2822 2790 2496 
Q 2931 2170 2931 1728 
Q 2931 1645 2928 1568 
Q 2925 1491 2906 1414 
L 666 1414 
L 666 1830 
L 2458 1830 
Q 2458 2278 2262 2518 
Q 2067 2758 1702 2758 
Q 1491 2758 1286 2640 
Q 1082 2522 950 2259 
Q 819 1997 819 1562 
Q 819 1165 956 896 
Q 1094 627 1331 489 
Q 1568 352 1850 352 
Q 2074 352 2269 416 
Q 2464 480 2624 589 
L 2816 243 
Q 2611 102 2358 12 
Q 2106 -77 1786 -77 
z
" transform="scale(0.015625)"/>
      </defs>
      <use xlink:href="#SourceSans3-Regular-5"/>
      <use xlink:href="#SourceSans3-Regular-1c" transform="translate(61.5 0)"/>
      <use xlink:href="#SourceSans3-Regular-2f" transform="translate(110.5 0)"/>
      <use xlink:href="#SourceSans3-Regular-20" transform="translate(142.890625 0)"/>
     </g>
    </g>
   </g>
   <g id="matplotlib.axis_2">
    <g id="ytick_1">
     <g id="line2d_8">
      <defs>
       <path id="mf7fb69202b" d="M 0 0 
L -3.5 0 
" style="stroke: #1c2531; stroke-width: 0.8"/>
      </defs>
      <g>
       <use xlink:href="#mf7fb69202b" x="61.584" y="275.327048" style="fill: #1c2531; stroke: #1c2531; stroke-width: 0.8"/>
      </g>
     </g>
     <g id="text_9">
      <!-- 1000 -->
      <g style="fill: #1c2531" transform="translate(32.714625 280.959048) scale(0.11 -0.11)">
       <use xlink:href="#SourceSans3-Regular-536"/>
       <use xlink:href="#SourceSans3-Regular-535" transform="translate(49.703125 0)"/>
       <use xlink:href="#SourceSans3-Regular-535" transform="translate(99.40625 0)"/>
       <use xlink:href="#SourceSans3-Regular-535" transform="translate(149.109375 0)"/>
      </g>
     </g>
    </g>
    <g id="ytick_2">
     <g id="line2d_9">
      <g>
       <use xlink:href="#mf7fb69202b" x="61.584" y="218.558294" style="fill: #1c2531; stroke: #1c2531; stroke-width: 0.8"/>
      </g>
     </g>
     <g id="text_10">
      <!-- 2000 -->
      <g style="fill: #1c2531" transform="translate(32.714625 224.190294) scale(0.11 -0.11)">
       <use xlink:href="#SourceSans3-Regular-537"/>
       <use xlink:href="#SourceSans3-Regular-535" transform="translate(49.703125 0)"/>
       <use xlink:href="#SourceSans3-Regular-535" transform="translate(99.40625 0)"/>
       <use xlink:href="#SourceSans3-Regular-535" transform="translate(149.109375 0)"/>
      </g>
     </g>
    </g>
    <g id="ytick_3">
     <g id="line2d_10">
      <g>
       <use xlink:href="#mf7fb69202b" x="61.584" y="161.78954" style="fill: #1c2531; stroke: #1c2531; stroke-width: 0.8"/>
      </g>
     </g>
     <g id="text_11">
      <!-- 3000 -->
      <g style="fill: #1c2531" transform="translate(32.714625 167.42154) scale(0.11 -0.11)">
       <use xlink:href="#SourceSans3-Regular-538"/>
       <use xlink:href="#SourceSans3-Regular-535" transform="translate(49.703125 0)"/>
       <use xlink:href="#SourceSans3-Regular-535" transform="translate(99.40625 0)"/>
       <use xlink:href="#SourceSans3-Regular-535" transform="translate(149.109375 0)"/>
      </g>
     </g>
    </g>
    <g id="ytick_4">
     <g id="line2d_11">
      <g>
       <use xlink:href="#mf7fb69202b" x="61.584" y="105.020786" style="fill: #1c2531; stroke: #1c2531; stroke-width: 0.8"/>
      </g>
     </g>
     <g id="text_12">
      <!-- 4000 -->
      <g style="fill: #1c2531" transform="translate(32.714625 110.652786) scale(0.11 -0.11)">
       <use xlink:href="#SourceSans3-Regular-539"/>
       <use xlink:href="#SourceSans3-Regular-535" transform="translate(49.703125 0)"/>
       <use xlink:href="#SourceSans3-Regular-535" transform="translate(99.40625 0)"/>
       <use xlink:href="#SourceSans3-Regular-535" transform="translate(149.109375 0)"/>
      </g>
     </g>
    </g>
    <g id="ytick_5">
     <g id="line2d_12">
      <g>
       <use xlink:href="#mf7fb69202b" x="61.584" y="48.252032" style="fill: #1c2531; stroke: #1c2531; stroke-width: 0.8"/>
      </g>
     </g>
     <g id="text_13">
      <!-- 5000 -->
      <g style="fill: #1c2531" transform="translate(32.714625 53.884032) scale(0.11 -0.11)">
       <use xlink:href="#SourceSans3-Regular-53a"/>
       <use xlink:href="#SourceSans3-Regular-535" transform="translate(49.703125 0)"/>
       <use xlink:href="#SourceSans3-Regular-535" transform="translate(99.40625 0)"/>
       <use xlink:href="#SourceSans3-Regular-535" transform="translate(149.109375 0)"/>
      </g>
     </g>
    </g>
    <g id="text_14">
     <!-- Cumulative commits -->
     <g style="fill: #1c2531" transform="translate(24.314625 218.395344) rotate(-90) scale(0.11 -0.11)">
      <defs>
       <path id="SourceSans3-Regular-4" d="M 2170 -77 
Q 1645 -77 1225 182 
Q 806 442 569 928 
Q 333 1414 333 2099 
Q 333 2605 470 3008 
Q 608 3411 864 3696 
Q 1120 3981 1456 4128 
Q 1792 4275 2195 4275 
Q 2573 4275 2870 4121 
Q 3168 3968 3347 3757 
L 3059 3430 
Q 2893 3610 2678 3709 
Q 2464 3808 2202 3808 
Q 1811 3808 1513 3600 
Q 1216 3392 1049 3011 
Q 883 2630 883 2112 
Q 883 1581 1043 1197 
Q 1203 813 1504 605 
Q 1805 397 2208 397 
Q 2502 397 2736 509 
Q 2970 621 3162 838 
L 3443 525 
Q 3194 237 2886 80 
Q 2579 -77 2170 -77 
z
" transform="scale(0.015625)"/>
       <path id="SourceSans3-Regular-30" d="M 1434 -77 
Q 941 -77 713 233 
Q 486 544 486 1139 
L 486 3110 
L 1011 3110 
L 1011 1210 
Q 1011 774 1148 579 
Q 1286 384 1594 384 
Q 1830 384 2019 509 
Q 2208 634 2432 902 
L 2432 3110 
L 2957 3110 
L 2957 0 
L 2522 0 
L 2477 486 
L 2458 486 
Q 2246 230 2000 76 
Q 1754 -77 1434 -77 
z
" transform="scale(0.015625)"/>
       <path id="SourceSans3-Regular-28" d="M 525 0 
L 525 3110 
L 960 3110 
L 1005 2662 
L 1024 2662 
Q 1229 2880 1469 3033 
Q 1709 3187 1990 3187 
Q 2349 3187 2550 3027 
Q 2752 2867 2848 2592 
Q 3091 2861 3340 3024 
Q 3590 3187 3872 3187 
Q 4358 3187 4588 2876 
Q 4819 2566 4819 1971 
L 4819 0 
L 4294 0 
L 4294 1901 
Q 4294 2342 4153 2537 
Q 4013 2733 3718 2733 
Q 3533 2733 3344 2614 
Q 3155 2496 2938 2253 
L 2938 0 
L 2413 0 
L 2413 1901 
Q 2413 2342 2272 2537 
Q 2131 2733 1830 2733 
Q 1478 2733 1050 2253 
L 1050 0 
L 525 0 
z
" transform="scale(0.015625)"/>
       <path id="SourceSans3-Regular-27" d="M 1082 -58 
Q 883 -58 761 22 
Q 640 102 582 259 
Q 525 416 525 640 
L 525 4557 
L 1050 4557 
L 1050 602 
Q 1050 474 1094 426 
Q 1139 378 1203 378 
Q 1229 378 1251 381 
Q 1274 384 1312 390 
L 1389 -6 
Q 1331 -26 1257 -42 
Q 1184 -58 1082 -58 
z
" transform="scale(0.015625)"/>
       <path id="SourceSans3-Regular-24" d="M 525 0 
L 525 3110 
L 1050 3110 
L 1050 0 
L 525 0 
z
M 787 3750 
Q 633 3750 534 3846 
Q 435 3942 435 4096 
Q 435 4250 534 4346 
Q 633 4442 787 4442 
Q 941 4442 1040 4346 
Q 1139 4250 1139 4096 
Q 1139 3942 1040 3846 
Q 941 3750 787 3750 
z
" transform="scale(0.015625)"/>
       <path id="SourceSans3-Regular-31" d="M 1197 0 
L 77 3110 
L 621 3110 
L 1210 1344 
Q 1280 1120 1353 886 
Q 1427 653 1498 429 
L 1523 429 
Q 1587 653 1664 886 
Q 1741 1120 1805 1344 
L 2394 3110 
L 2912 3110 
L 1811 0 
L 1197 0 
z
" transform="scale(0.015625)"/>
       <path id="SourceSans3-Regular-1" transform="scale(0.015625)"/>
       <path id="SourceSans3-Regular-1e" d="M 1760 -77 
Q 1344 -77 1011 115 
Q 678 307 486 672 
Q 294 1037 294 1549 
Q 294 2074 502 2438 
Q 710 2803 1052 2995 
Q 1395 3187 1792 3187 
Q 2099 3187 2320 3084 
Q 2541 2982 2701 2822 
L 2438 2496 
Q 2323 2611 2166 2678 
Q 2010 2746 1811 2746 
Q 1536 2746 1315 2595 
Q 1094 2445 966 2176 
Q 838 1907 838 1549 
Q 838 1197 960 928 
Q 1082 659 1299 508 
Q 1517 358 1805 358 
Q 2022 358 2208 441 
Q 2394 525 2528 653 
L 2758 333 
Q 2560 147 2310 35 
Q 2061 -77 1760 -77 
z
" transform="scale(0.015625)"/>
       <path id="SourceSans3-Regular-2a" d="M 1734 -77 
Q 1357 -77 1027 115 
Q 698 307 496 672 
Q 294 1037 294 1549 
Q 294 2074 496 2438 
Q 698 2803 1027 2995 
Q 1357 3187 1734 3187 
Q 2118 3187 2444 2995 
Q 2771 2803 2972 2438 
Q 3174 2074 3174 1549 
Q 3174 1037 2972 672 
Q 2771 307 2444 115 
Q 2118 -77 1734 -77 
z
M 1734 358 
Q 2003 358 2208 508 
Q 2413 659 2521 928 
Q 2630 1197 2630 1549 
Q 2630 1907 2521 2179 
Q 2413 2451 2208 2601 
Q 2003 2752 1734 2752 
Q 1466 2752 1264 2601 
Q 1062 2451 950 2179 
Q 838 1907 838 1549 
Q 838 1197 950 928 
Q 1062 659 1264 508 
Q 1466 358 1734 358 
z
" transform="scale(0.015625)"/>
       <path id="SourceSans3-Regular-2e" d="M 1338 -77 
Q 998 -77 694 41 
Q 390 160 179 371 
L 422 678 
Q 627 512 848 422 
Q 1069 333 1357 333 
Q 1664 333 1817 477 
Q 1971 621 1971 819 
Q 1971 979 1865 1084 
Q 1760 1190 1603 1264 
Q 1446 1338 1267 1402 
Q 1037 1485 825 1597 
Q 614 1709 483 1878 
Q 352 2048 352 2304 
Q 352 2682 637 2934 
Q 922 3187 1427 3187 
Q 1715 3187 1964 3088 
Q 2214 2989 2394 2835 
L 2150 2534 
Q 1984 2650 1811 2714 
Q 1638 2778 1427 2778 
Q 1133 2778 995 2643 
Q 858 2509 858 2330 
Q 858 2189 941 2096 
Q 1024 2003 1174 1932 
Q 1325 1862 1517 1798 
Q 1760 1709 1981 1597 
Q 2202 1485 2339 1309 
Q 2477 1133 2477 851 
Q 2477 595 2345 387 
Q 2214 179 1961 51 
Q 1709 -77 1338 -77 
z
" transform="scale(0.015625)"/>
      </defs>
      <use xlink:href="#SourceSans3-Regular-4"/>
      <use xlink:href="#SourceSans3-Regular-30" transform="translate(56.09375 0)"/>
      <use xlink:href="#SourceSans3-Regular-28" transform="translate(110.5 0)"/>
      <use xlink:href="#SourceSans3-Regular-30" transform="translate(193.40625 0)"/>
      <use xlink:href="#SourceSans3-Regular-27" transform="translate(247.8125 0)"/>
      <use xlink:href="#SourceSans3-Regular-1c" transform="translate(273.3125 0)"/>
      <use xlink:href="#SourceSans3-Regular-2f" transform="translate(322.3125 0)"/>
      <use xlink:href="#SourceSans3-Regular-24" transform="translate(356.109375 0)"/>
      <use xlink:href="#SourceSans3-Regular-31" transform="translate(380.703125 0)"/>
      <use xlink:href="#SourceSans3-Regular-20" transform="translate(427 0)"/>
      <use xlink:href="#SourceSans3-Regular-1" transform="translate(476.59375 0)"/>
      <use xlink:href="#SourceSans3-Regular-1e" transform="translate(496.59375 0)"/>
      <use xlink:href="#SourceSans3-Regular-2a" transform="translate(540.09375 0)"/>
      <use xlink:href="#SourceSans3-Regular-28" transform="translate(594.296875 0)"/>
      <use xlink:href="#SourceSans3-Regular-28" transform="translate(677.203125 0)"/>
      <use xlink:href="#SourceSans3-Regular-24" transform="translate(760.109375 0)"/>
      <use xlink:href="#SourceSans3-Regular-2f" transform="translate(784.703125 0)"/>
      <use xlink:href="#SourceSans3-Regular-2e" transform="translate(817.5 0)"/>
     </g>
    </g>
   </g>
   <g id="line2d_13">
    <path d="M 81.153818 293.549818 
L 81.463467 292.755056 
L 81.618292 292.641518 
L 82.392414 292.300906 
L 82.702063 291.506143 
L 89.049868 291.279068 
L 89.204693 290.938455 
L 92.920481 290.313999 
L 93.23013 289.689543 
L 93.539779 289.008318 
L 95.088024 288.781243 
L 95.397673 287.759405 
L 96.945918 287.53233 
L 97.410392 286.851105 
L 98.648988 285.942805 
L 98.803812 285.658961 
L 99.113461 285.602193 
L 101.281005 285.318349 
L 101.745478 285.204811 
L 102.209952 285.148043 
L 104.532319 285.034505 
L 104.687144 284.637124 
L 104.996793 284.296511 
L 105.461266 284.182974 
L 105.92574 283.785592 
L 106.235389 283.501749 
L 106.699862 283.331442 
L 107.009512 282.99083 
L 108.248108 282.196067 
L 109.641528 281.741917 
L 109.796353 281.571611 
L 110.415651 281.344536 
L 110.570475 281.117461 
L 111.034949 281.003924 
L 112.273545 280.209161 
L 113.047667 279.81178 
L 113.357316 279.300861 
L 114.750737 278.960248 
L 115.679684 278.733173 
L 116.144158 277.99518 
L 117.692403 277.257186 
L 117.847227 276.916573 
L 118.156876 276.746267 
L 118.776174 276.632729 
L 120.324419 276.462423 
L 122.491963 275.951504 
L 122.646787 275.667661 
L 123.575734 275.554123 
L 123.885383 275.327048 
L 124.504681 274.759361 
L 124.81433 274.248442 
L 125.588453 274.021367 
L 125.898102 273.453679 
L 126.981873 273.113067 
L 129.61389 272.772454 
L 129.768715 272.658917 
L 130.233188 272.48861 
L 131.471784 267.94711 
L 131.626609 267.379423 
L 132.865205 267.152348 
L 133.639327 266.868504 
L 136.426169 266.300816 
L 136.580993 266.13051 
L 137.974414 265.789897 
L 138.129238 265.619591 
L 139.522659 265.278979 
L 140.141957 264.76806 
L 140.761255 264.711291 
L 141.070904 264.370679 
L 141.845026 264.200372 
L 142.619149 264.143604 
L 142.773974 263.632685 
L 143.238447 263.121766 
L 146.334937 262.327003 
L 149.276603 262.156697 
L 152.527918 261.702547 
L 152.682742 261.58901 
L 157.327478 261.418703 
L 161.662564 260.964553 
L 162.436686 260.283328 
L 162.591511 260.113022 
L 163.675283 259.885947 
L 164.759054 259.375028 
L 165.223528 259.147953 
L 165.688001 259.034416 
L 166.462124 258.864109 
L 166.771773 258.637034 
L 167.081422 258.580266 
L 167.391071 258.239653 
L 169.868263 257.842272 
L 171.261684 257.615197 
L 172.50028 257.274584 
L 172.809929 256.763666 
L 173.119578 256.650128 
L 175.287121 256.479822 
L 177.299839 256.252747 
L 178.538436 255.968903 
L 179.931856 255.457984 
L 181.170452 255.287678 
L 181.634926 255.17414 
L 181.78975 254.890297 
L 182.099399 253.414309 
L 184.112118 252.619546 
L 184.266942 252.278934 
L 184.576591 252.222165 
L 184.886241 251.54094 
L 185.505539 251.257096 
L 185.660363 250.802946 
L 185.970012 250.519103 
L 186.898959 250.292028 
L 187.053784 250.17849 
L 187.673082 250.008184 
L 188.602029 249.043115 
L 188.911678 248.36189 
L 189.221327 248.078046 
L 189.840625 247.396821 
L 190.305098 247.283284 
L 191.698519 246.488521 
L 192.627466 246.318215 
L 193.246764 245.63699 
L 193.556413 244.558383 
L 193.866062 244.217771 
L 194.020887 244.047465 
L 194.48536 242.571477 
L 194.640185 242.344402 
L 194.795009 241.890252 
L 195.104658 241.719946 
L 195.723956 241.265796 
L 196.343254 240.925183 
L 196.652903 240.698108 
L 196.807728 240.300727 
L 197.427026 239.960114 
L 197.736675 239.619502 
L 197.891499 239.278889 
L 198.355973 238.995046 
L 198.820446 237.575827 
L 198.975271 237.519058 
L 199.439745 237.008139 
L 199.749394 236.894602 
L 200.059043 236.440452 
L 200.523516 235.58892 
L 201.142814 235.475383 
L 201.452463 235.13477 
L 202.071761 235.078001 
L 202.536235 234.567083 
L 202.845884 234.453545 
L 203.000708 234.169701 
L 203.310357 234.112933 
L 204.703778 233.999395 
L 204.858602 233.374939 
L 205.323076 233.261401 
L 205.632725 233.034326 
L 206.716497 232.86402 
L 207.026146 232.693714 
L 207.800268 232.523408 
L 209.967811 231.728645 
L 210.122636 231.331264 
L 210.432285 231.160957 
L 211.051583 230.990651 
L 211.206407 230.650039 
L 211.98053 230.536501 
L 212.290179 230.195889 
L 213.064301 230.025582 
L 215.231845 229.912045 
L 216.78009 229.571432 
L 217.554212 229.287589 
L 217.709037 228.890207 
L 217.863861 228.833439 
L 218.637984 227.698063 
L 219.87658 227.300682 
L 220.186229 227.073607 
L 220.341054 226.789763 
L 220.960352 226.562688 
L 221.424825 226.449151 
L 221.734474 225.59762 
L 222.044123 225.370545 
L 222.97307 223.497176 
L 223.127895 223.383638 
L 223.592368 222.588876 
L 223.902017 222.305032 
L 224.056842 221.623807 
L 224.366491 221.339963 
L 224.985789 219.863975 
L 225.140613 219.807207 
L 225.295438 219.580132 
L 225.450262 219.069213 
L 225.759911 218.898907 
L 226.06956 218.047375 
L 226.379209 217.536456 
L 226.688858 217.422919 
L 227.308157 216.060469 
L 227.617806 215.606319 
L 227.927455 215.54955 
L 228.856402 214.527712 
L 229.011226 214.073562 
L 230.249822 213.562644 
L 230.404647 213.165262 
L 230.559471 213.108494 
L 230.714296 212.711112 
L 230.86912 212.654344 
L 232.262541 212.484037 
L 232.417365 212.256962 
L 232.881839 212.200194 
L 233.036663 211.689275 
L 233.655961 211.575737 
L 234.739733 211.518969 
L 235.823505 210.951281 
L 237.37175 210.780975 
L 237.991048 210.667437 
L 238.610346 210.326825 
L 240.158591 210.213287 
L 241.242362 209.815906 
L 241.706836 207.999306 
L 242.480959 207.885768 
L 242.945432 207.261312 
L 243.56473 207.147774 
L 243.874379 206.977468 
L 245.577449 206.863931 
L 246.970869 206.523318 
L 247.744992 206.466549 
L 249.138413 206.069168 
L 256.26034 205.501481 
L 256.415165 205.331174 
L 257.498936 205.160868 
L 257.808585 204.706718 
L 258.273059 202.606274 
L 258.427883 202.379199 
L 259.047181 202.152124 
L 259.202006 201.41413 
L 259.35683 201.300593 
L 259.511655 200.903212 
L 259.666479 200.846443 
L 259.976128 200.50583 
L 260.440602 199.029843 
L 260.750251 198.405386 
L 261.369549 198.064774 
L 261.524373 197.78093 
L 261.679198 197.156474 
L 262.143671 196.702324 
L 262.298496 196.41848 
L 262.608145 195.51018 
L 262.76297 195.396642 
L 263.382268 192.842048 
L 264.466039 187.449017 
L 265.085337 185.00796 
L 265.394986 184.610579 
L 265.704635 184.383504 
L 266.014284 182.964285 
L 266.323933 182.680441 
L 266.788407 182.339829 
L 267.25288 181.261223 
L 267.562529 180.807073 
L 267.872178 180.01231 
L 268.336652 179.274316 
L 269.730072 178.138941 
L 270.194546 177.173872 
L 270.504195 176.776491 
L 271.587967 176.662954 
L 272.671738 176.606185 
L 272.981387 176.435879 
L 274.065159 176.322341 
L 274.839281 175.868191 
L 275.458579 175.641116 
L 276.387526 174.448972 
L 276.542351 174.278666 
L 277.006825 173.540672 
L 277.316474 173.256828 
L 277.626123 173.029753 
L 278.400245 171.440228 
L 279.019543 170.645466 
L 279.94849 169.283015 
L 280.258139 168.60179 
L 280.567788 168.431484 
L 280.877437 167.579953 
L 282.116033 165.820121 
L 283.509454 165.42274 
L 283.819103 163.435834 
L 284.128752 163.265528 
L 284.438401 162.69784 
L 285.057699 162.357227 
L 285.212524 162.073384 
L 285.522173 161.903077 
L 285.831822 161.278621 
L 285.986646 159.291715 
L 286.605944 158.496952 
L 286.760769 158.440183 
L 286.915593 157.531883 
L 287.070418 157.304808 
L 287.534891 157.191271 
L 287.689716 156.453277 
L 287.999365 156.282971 
L 288.309014 155.431439 
L 288.618663 155.090827 
L 288.928312 154.977289 
L 289.857259 154.920521 
L 290.786206 154.750214 
L 291.869978 154.693446 
L 297.134011 153.955452 
L 297.288835 153.728377 
L 297.598484 152.820077 
L 297.753309 152.763308 
L 298.217783 152.082083 
L 298.527432 150.038408 
L 298.682256 149.357183 
L 298.837081 149.186877 
L 299.301554 147.937964 
L 299.611203 147.540583 
L 299.920852 147.19997 
L 300.230501 147.029664 
L 300.385326 146.74582 
L 301.004624 144.702145 
L 301.623922 142.20432 
L 302.24322 141.863707 
L 302.552869 141.409557 
L 302.862518 140.785101 
L 307.04278 140.671563 
L 307.816902 140.217413 
L 308.745849 140.103876 
L 309.055498 139.422651 
L 309.519972 139.309113 
L 309.984445 139.082038 
L 310.603743 137.889894 
L 311.068217 137.606051 
L 311.223041 137.208669 
L 311.687515 137.151901 
L 311.997164 136.924826 
L 312.306813 136.016526 
L 312.616462 135.051457 
L 312.771287 134.994688 
L 313.23576 134.654076 
L 313.855058 134.540538 
L 319.273916 134.199925 
L 320.357688 134.029619 
L 321.13181 133.859313 
L 321.441459 133.802544 
L 331.040579 133.121319 
L 331.969526 132.894244 
L 333.672596 132.6104 
L 338.781804 132.326557 
L 343.116891 132.042713 
L 348.2261 130.737031 
L 348.690573 130.453188 
L 349.774345 130.33965 
L 350.393643 129.317813 
L 351.32259 128.52305 
L 351.477414 128.239206 
L 351.941888 128.182438 
L 352.096712 128.012131 
L 353.490133 127.728288 
L 353.644957 127.61475 
L 355.502852 127.444444 
L 368.50811 127.387675 
L 368.662935 127.217369 
L 376.249336 126.933525 
L 377.023459 126.876756 
L 377.333108 126.70645 
L 377.487932 126.422606 
L 381.513369 126.365837 
L 384.60986 125.571075 
L 385.538807 125.514306 
L 386.158105 125.344 
L 386.312929 124.946619 
L 386.777403 124.719544 
L 387.241876 123.811243 
L 387.551525 123.640937 
L 387.861174 123.130018 
L 388.325648 123.016481 
L 388.635297 122.108181 
L 388.944946 121.313418 
L 389.09977 121.199881 
L 390.028717 120.859268 
L 390.183542 120.575424 
L 390.493191 120.461887 
L 392.50591 120.121274 
L 397.769943 119.950968 
L 398.853715 119.667124 
L 399.163364 119.496818 
L 399.473013 119.099437 
L 399.782662 118.304674 
L 400.247135 117.964062 
L 402.414678 117.736987 
L 403.188801 117.566681 
L 403.343625 117.396374 
L 403.962923 117.169299 
L 404.427397 116.544843 
L 410.001079 116.147462 
L 411.239675 115.466237 
L 411.549325 115.068855 
L 412.787921 114.955318 
L 412.942745 114.785012 
L 413.252394 114.728243 
L 413.716868 114.501168 
L 413.871692 114.047018 
L 414.026517 113.990249 
L 414.336166 113.422561 
L 415.110288 112.400724 
L 415.265113 111.605961 
L 415.419937 111.435655 
L 415.884411 111.095043 
L 416.19406 110.75443 
L 416.348884 110.357049 
L 417.432656 110.073205 
L 417.897129 108.93783 
L 418.361603 108.653986 
L 418.671252 107.915992 
L 419.755024 106.837386 
L 419.909848 106.723848 
L 420.683971 106.66708 
L 420.838795 106.099392 
L 421.767742 105.531705 
L 426.722127 105.134323 
L 427.1866 104.85048 
L 428.270372 104.736942 
L 429.044494 104.566636 
L 429.199319 104.226023 
L 431.057213 103.658336 
L 431.831335 103.431261 
L 432.295809 102.693267 
L 432.760283 102.522961 
L 432.915107 102.068811 
L 435.392299 101.557892 
L 437.559842 101.444354 
L 438.333965 100.990204 
L 438.798438 100.706361 
L 439.727386 100.649592 
L 440.037035 100.365748 
L 442.049753 100.081904 
L 442.204578 99.570985 
L 442.669051 99.457448 
L 443.288349 98.832992 
L 443.443174 98.776223 
L 443.597998 98.43561 
L 444.991419 98.094998 
L 445.301068 97.811154 
L 446.230015 95.824248 
L 446.384839 95.767479 
L 447.004138 94.915948 
L 450.87475 94.461798 
L 451.339224 94.121185 
L 455.364661 93.723804 
L 456.448433 93.326423 
L 458.306327 93.212885 
L 459.390098 92.361354 
L 459.544923 92.134279 
L 459.854572 91.225979 
L 460.47387 90.828597 
L 460.628694 90.431216 
L 460.783519 88.671385 
L 461.093168 88.557847 
L 461.247993 88.217235 
L 461.557642 88.103697 
L 461.712466 87.876622 
L 462.022115 85.151722 
L 462.17694 84.811109 
L 462.641413 82.767434 
L 462.796238 82.597128 
L 463.105887 81.404984 
L 463.260711 79.815459 
L 463.57036 78.566546 
L 464.034834 75.273959 
L 464.654132 74.592734 
L 465.118605 72.49229 
L 465.428254 72.208446 
L 465.583079 71.924602 
L 466.821675 66.134189 
L 467.131324 65.509733 
L 467.750622 61.195308 
L 468.36992 57.675645 
L 468.834394 57.051189 
L 469.144043 56.483501 
L 469.763341 56.029351 
L 470.537463 54.383057 
L 471.156761 54.326288 
L 471.621235 53.985676 
L 471.930884 52.509688 
L 472.395357 49.387407 
L 472.550182 48.706182 
L 472.550182 48.706182 
" clip-path="url(#paae8e586ee)" style="fill: none; stroke: #002d72; stroke-width: 1.5; stroke-linecap: square"/>
   </g>
   <g id="patch_3">
    <path d="M 61.584 305.792 
L 61.584 36.464 
" style="fill: none; stroke: #8a8a8a; stroke-linejoin: miter; stroke-linecap: square"/>
   </g>
   <g id="patch_4">
    <path d="M 61.584 305.792 
L 492.12 305.792 
" style="fill: none; stroke: #8a8a8a; stroke-linejoin: miter; stroke-linecap: square"/>
   </g>
   <g id="text_15">
    <!-- Cumulative commits over time -->
    <g style="fill: #002d72" transform="translate(171.821141 24.464) scale(0.13 -0.13)">
     <defs>
      <path id="Montserrat-Bold-2d" d="M 2675 -77 
Q 2157 -77 1712 92 
Q 1267 262 940 576 
Q 614 890 432 1312 
Q 250 1734 250 2240 
Q 250 2746 432 3168 
Q 614 3590 944 3904 
Q 1274 4218 1715 4387 
Q 2157 4557 2682 4557 
Q 3264 4557 3734 4355 
Q 4205 4154 4525 3763 
L 3859 3149 
Q 3629 3411 3347 3542 
Q 3066 3674 2733 3674 
Q 2419 3674 2156 3571 
Q 1894 3469 1702 3277 
Q 1510 3085 1404 2822 
Q 1299 2560 1299 2240 
Q 1299 1920 1404 1657 
Q 1510 1395 1702 1203 
Q 1894 1011 2156 908 
Q 2419 806 2733 806 
Q 3066 806 3347 937 
Q 3629 1069 3859 1338 
L 4525 723 
Q 4205 333 3734 128 
Q 3264 -77 2675 -77 
z
" transform="scale(0.015625)"/>
      <path id="Montserrat-Bold-383" d="M 1914 -51 
Q 1485 -51 1149 115 
Q 813 282 627 624 
Q 442 966 442 1498 
L 442 3443 
L 1440 3443 
L 1440 1645 
Q 1440 1216 1622 1014 
Q 1805 813 2138 813 
Q 2368 813 2547 912 
Q 2726 1011 2828 1219 
Q 2931 1427 2931 1741 
L 2931 3443 
L 3930 3443 
L 3930 0 
L 2982 0 
L 2982 947 
L 3155 672 
Q 2982 314 2646 131 
Q 2310 -51 1914 -51 
z
" transform="scale(0.015625)"/>
      <path id="Montserrat-Bold-312" d="M 461 0 
L 461 3443 
L 1414 3443 
L 1414 2502 
L 1235 2778 
Q 1414 3130 1744 3312 
Q 2074 3494 2496 3494 
Q 2970 3494 3325 3254 
Q 3680 3014 3795 2522 
L 3443 2618 
Q 3616 3021 3997 3257 
Q 4378 3494 4870 3494 
Q 5280 3494 5597 3331 
Q 5914 3168 6096 2832 
Q 6278 2496 6278 1971 
L 6278 0 
L 5280 0 
L 5280 1818 
Q 5280 2234 5107 2432 
Q 4934 2630 4621 2630 
Q 4403 2630 4230 2531 
Q 4058 2432 3962 2233 
Q 3866 2035 3866 1728 
L 3866 0 
L 2867 0 
L 2867 1818 
Q 2867 2234 2697 2432 
Q 2528 2630 2214 2630 
Q 1997 2630 1824 2531 
Q 1651 2432 1555 2233 
Q 1459 2035 1459 1728 
L 1459 0 
L 461 0 
z
" transform="scale(0.015625)"/>
      <path id="Montserrat-Bold-301" d="M 461 0 
L 461 4749 
L 1459 4749 
L 1459 0 
L 461 0 
z
" transform="scale(0.015625)"/>
      <path id="Montserrat-Bold-24c" d="M 2573 0 
L 2573 672 
L 2509 819 
L 2509 2022 
Q 2509 2342 2313 2521 
Q 2118 2701 1715 2701 
Q 1440 2701 1174 2614 
Q 909 2528 723 2381 
L 365 3078 
Q 646 3277 1043 3385 
Q 1440 3494 1850 3494 
Q 2637 3494 3072 3123 
Q 3507 2752 3507 1965 
L 3507 0 
L 2573 0 
z
M 1523 -51 
Q 1120 -51 832 86 
Q 544 224 390 461 
Q 237 698 237 992 
Q 237 1299 387 1529 
Q 538 1760 864 1891 
Q 1190 2022 1715 2022 
L 2630 2022 
L 2630 1440 
L 1824 1440 
Q 1472 1440 1341 1325 
Q 1210 1210 1210 1037 
Q 1210 845 1360 733 
Q 1510 621 1773 621 
Q 2022 621 2220 739 
Q 2419 858 2509 1088 
L 2662 627 
Q 2554 294 2266 121 
Q 1978 -51 1523 -51 
z
" transform="scale(0.015625)"/>
      <path id="Montserrat-Bold-375" d="M 1869 -51 
Q 1261 -51 921 259 
Q 582 570 582 1184 
L 582 4205 
L 1581 4205 
L 1581 1197 
Q 1581 979 1696 860 
Q 1811 742 2010 742 
Q 2246 742 2413 870 
L 2682 166 
Q 2528 58 2313 3 
Q 2099 -51 1869 -51 
z
M 51 2675 
L 51 3443 
L 2438 3443 
L 2438 2675 
L 51 2675 
z
" transform="scale(0.015625)"/>
      <path id="Montserrat-Bold-2d7" d="M 461 0 
L 461 3443 
L 1459 3443 
L 1459 0 
L 461 0 
z
M 960 3923 
Q 685 3923 512 4083 
Q 339 4243 339 4480 
Q 339 4717 512 4877 
Q 685 5037 960 5037 
Q 1235 5037 1408 4886 
Q 1581 4736 1581 4499 
Q 1581 4250 1411 4086 
Q 1242 3923 960 3923 
z
" transform="scale(0.015625)"/>
      <path id="Montserrat-Bold-3a4" d="M 1395 0 
L -51 3443 
L 979 3443 
L 2182 480 
L 1670 480 
L 2918 3443 
L 3878 3443 
L 2426 0 
L 1395 0 
z
" transform="scale(0.015625)"/>
      <path id="Montserrat-Bold-295" d="M 2170 -51 
Q 1581 -51 1136 179 
Q 691 410 448 810 
Q 205 1210 205 1722 
Q 205 2240 445 2640 
Q 685 3040 1101 3267 
Q 1517 3494 2042 3494 
Q 2547 3494 2953 3280 
Q 3360 3066 3597 2666 
Q 3834 2266 3834 1709 
Q 3834 1651 3827 1577 
Q 3821 1504 3814 1440 
L 1018 1440 
L 1018 2022 
L 3290 2022 
L 2906 1850 
Q 2906 2118 2797 2316 
Q 2688 2515 2496 2627 
Q 2304 2739 2048 2739 
Q 1792 2739 1597 2627 
Q 1402 2515 1293 2313 
Q 1184 2112 1184 1837 
L 1184 1683 
Q 1184 1402 1309 1187 
Q 1434 973 1661 861 
Q 1888 749 2195 749 
Q 2470 749 2678 832 
Q 2886 915 3059 1082 
L 3590 506 
Q 3354 237 2995 93 
Q 2637 -51 2170 -51 
z
" transform="scale(0.015625)"/>
      <path id="Montserrat-Bold-8bd" transform="scale(0.015625)"/>
      <path id="Montserrat-Bold-27a" d="M 2125 -51 
Q 1568 -51 1133 176 
Q 698 403 451 806 
Q 205 1210 205 1722 
Q 205 2240 451 2640 
Q 698 3040 1133 3267 
Q 1568 3494 2125 3494 
Q 2669 3494 3072 3267 
Q 3475 3040 3667 2618 
L 2893 2202 
Q 2758 2445 2556 2560 
Q 2355 2675 2118 2675 
Q 1862 2675 1657 2560 
Q 1453 2445 1334 2233 
Q 1216 2022 1216 1722 
Q 1216 1421 1334 1209 
Q 1453 998 1657 883 
Q 1862 768 2118 768 
Q 2355 768 2556 880 
Q 2758 992 2893 1242 
L 3667 819 
Q 3475 403 3072 176 
Q 2669 -51 2125 -51 
z
" transform="scale(0.015625)"/>
      <path id="Montserrat-Bold-327" d="M 2099 -51 
Q 1549 -51 1123 179 
Q 698 410 451 810 
Q 205 1210 205 1722 
Q 205 2240 451 2640 
Q 698 3040 1123 3267 
Q 1549 3494 2099 3494 
Q 2643 3494 3072 3267 
Q 3501 3040 3744 2643 
Q 3987 2246 3987 1722 
Q 3987 1210 3744 810 
Q 3501 410 3072 179 
Q 2643 -51 2099 -51 
z
M 2099 768 
Q 2349 768 2547 883 
Q 2746 998 2861 1212 
Q 2976 1427 2976 1722 
Q 2976 2022 2861 2233 
Q 2746 2445 2547 2560 
Q 2349 2675 2099 2675 
Q 1850 2675 1651 2560 
Q 1453 2445 1334 2233 
Q 1216 2022 1216 1722 
Q 1216 1427 1334 1212 
Q 1453 998 1651 883 
Q 1850 768 2099 768 
z
" transform="scale(0.015625)"/>
      <path id="Montserrat-Bold-367" d="M 1619 -51 
Q 1178 -51 771 54 
Q 365 160 128 320 
L 461 1037 
Q 698 890 1021 797 
Q 1344 704 1658 704 
Q 2003 704 2147 787 
Q 2291 870 2291 1018 
Q 2291 1139 2179 1200 
Q 2067 1261 1881 1293 
Q 1696 1325 1475 1357 
Q 1254 1389 1030 1443 
Q 806 1498 620 1606 
Q 435 1715 323 1900 
Q 211 2086 211 2381 
Q 211 2707 400 2956 
Q 589 3206 947 3350 
Q 1306 3494 1805 3494 
Q 2157 3494 2521 3417 
Q 2886 3341 3130 3194 
L 2797 2483 
Q 2547 2630 2294 2684 
Q 2042 2739 1805 2739 
Q 1472 2739 1318 2649 
Q 1165 2560 1165 2419 
Q 1165 2291 1277 2227 
Q 1389 2163 1574 2124 
Q 1760 2086 1981 2057 
Q 2202 2029 2426 1971 
Q 2650 1914 2832 1808 
Q 3014 1702 3129 1520 
Q 3245 1338 3245 1043 
Q 3245 723 3053 476 
Q 2861 230 2499 89 
Q 2138 -51 1619 -51 
z
" transform="scale(0.015625)"/>
      <path id="Montserrat-Bold-359" d="M 461 0 
L 461 3443 
L 1414 3443 
L 1414 2470 
L 1280 2752 
Q 1434 3117 1773 3305 
Q 2112 3494 2598 3494 
L 2598 2573 
Q 2534 2579 2483 2582 
Q 2432 2586 2374 2586 
Q 1965 2586 1712 2352 
Q 1459 2118 1459 1626 
L 1459 0 
L 461 0 
z
" transform="scale(0.015625)"/>
     </defs>
     <use xlink:href="#Montserrat-Bold-2d"/>
     <use xlink:href="#Montserrat-Bold-383" transform="translate(71 0)"/>
     <use xlink:href="#Montserrat-Bold-312" transform="translate(139.703125 0)"/>
     <use xlink:href="#Montserrat-Bold-383" transform="translate(244.609375 0)"/>
     <use xlink:href="#Montserrat-Bold-301" transform="translate(313.3125 0)"/>
     <use xlink:href="#Montserrat-Bold-24c" transform="translate(343.40625 0)"/>
     <use xlink:href="#Montserrat-Bold-375" transform="translate(405.109375 0)"/>
     <use xlink:href="#Montserrat-Bold-2d7" transform="translate(448.609375 0)"/>
     <use xlink:href="#Montserrat-Bold-3a4" transform="translate(478.703125 0)"/>
     <use xlink:href="#Montserrat-Bold-295" transform="translate(537 0)"/>
     <use xlink:href="#Montserrat-Bold-8bd" transform="translate(600.09375 0)"/>
     <use xlink:href="#Montserrat-Bold-27a" transform="translate(628.390625 0)"/>
     <use xlink:href="#Montserrat-Bold-327" transform="translate(686.78125 0)"/>
     <use xlink:href="#Montserrat-Bold-312" transform="translate(752.28125 0)"/>
     <use xlink:href="#Montserrat-Bold-312" transform="translate(857.1875 0)"/>
     <use xlink:href="#Montserrat-Bold-2d7" transform="translate(962.09375 0)"/>
     <use xlink:href="#Montserrat-Bold-375" transform="translate(992.1875 0)"/>
     <use xlink:href="#Montserrat-Bold-367" transform="translate(1035.6875 0)"/>
     <use xlink:href="#Montserrat-Bold-8bd" transform="translate(1088.78125 0)"/>
     <use xlink:href="#Montserrat-Bold-327" transform="translate(1117.078125 0)"/>
     <use xlink:href="#Montserrat-Bold-3a4" transform="translate(1181.078125 0)"/>
     <use xlink:href="#Montserrat-Bold-295" transform="translate(1239.375 0)"/>
     <use xlink:href="#Montserrat-Bold-359" transform="translate(1302.46875 0)"/>
     <use xlink:href="#Montserrat-Bold-8bd" transform="translate(1345.5625 0)"/>
     <use xlink:href="#Montserrat-Bold-375" transform="translate(1373.859375 0)"/>
     <use xlink:href="#Montserrat-Bold-2d7" transform="translate(1417.359375 0)"/>
     <use xlink:href="#Montserrat-Bold-312" transform="translate(1447.453125 0)"/>
     <use xlink:href="#Montserrat-Bold-295" transform="translate(1552.765625 0)"/>
    </g>
   </g>
  </g>
 </g>
 <defs>
  <clipPath id="paae8e586ee">
   <rect x="61.584" y="36.464" width="430.536" height="269.328"/>
  </clipPath>
 </defs>
</svg>
