<?xml version="1.0" encoding="utf-8" standalone="no"?>
<!DOCTYPE svg PUBLIC "-//W3C//DTD SVG 1.1//EN"
  "http://www.w3.org/Graphics/SVG/1.1/DTD/svg11.dtd">
<svg xmlns:xlink="http://www.w3.org/1999/xlink" width="602.64pt" height="181.872pt" viewBox="0 0 602.64 181.872" xmlns="http://www.w3.org/2000/svg" version="1.1">
 <metadata>
  <rdf:RDF xmlns:dc="http://purl.org/dc/elements/1.1/" xmlns:cc="http://creativecommons.org/ns#" xmlns:rdf="http://www.w3.org/1999/02/22-rdf-syntax-ns#">
   <cc:Work>
    <dc:type rdf:resource="http://purl.org/dc/dcmitype/StillImage"/>
    <dc:date>2026-07-13T20:53:19.459894</dc:date>
    <dc:format>image/svg+xml</dc:format>
    <dc:creator>
     <cc:Agent>
      <dc:title>Matplotlib v3.11.0, https://matplotlib.org/</dc:title>
     </cc:Agent>
    </dc:creator>
   </cc:Work>
  </rdf:RDF>
 </metadata>
 <defs>
  <style type="text/css">*{stroke-linejoin: round; stroke-linecap: butt}</style>
 </defs>
 <g id="figure_1">
  <g id="patch_1">
   <path d="M 0 181.872 
L 602.64 181.872 
L 602.64 0 
L 0 0 
L 0 181.872 
z
" style="fill: none"/>
  </g>
  <g id="axes_1">
   <g id="patch_2">
    <path d="M 35.54 142.148873 
L 571.41 142.148873 
L 571.41 52.512436 
L 35.54 52.512436 
L 35.54 142.148873 
z
" style="fill: none"/>
   </g>
   <g id="matplotlib.axis_1">
    <g id="xtick_1">
     <g id="line2d_1"/>
     <g id="text_1">
      <!-- Jul -->
      <g style="fill: #1c2531" transform="translate(38.253403 44.612436) scale(0.11 -0.11)">
       <defs>
        <path id="SourceSans3-Regular-b" d="M 1325 -77 
Q 947 -77 665 92 
Q 384 262 211 602 
L 570 838 
Q 698 608 880 502 
Q 1062 397 1293 397 
Q 1638 397 1808 605 
Q 1978 813 1978 1299 
L 1978 4198 
L 2509 4198 
L 2509 1248 
Q 2509 883 2390 582 
Q 2272 282 2009 102 
Q 1747 -77 1325 -77 
z
" transform="scale(0.015625)"/>
        <path id="SourceSans3-Regular-30" d="M 1434 -77 
Q 941 -77 713 233 
Q 486 544 486 1139 
L 486 3110 
L 1011 3110 
L 1011 1210 
Q 1011 774 1148 579 
Q 1286 384 1594 384 
Q 1830 384 2019 509 
Q 2208 634 2432 902 
L 2432 3110 
L 2957 3110 
L 2957 0 
L 2522 0 
L 2477 486 
L 2458 486 
Q 2246 230 2000 76 
Q 1754 -77 1434 -77 
z
" transform="scale(0.015625)"/>
        <path id="SourceSans3-Regular-27" d="M 1082 -58 
Q 883 -58 761 22 
Q 640 102 582 259 
Q 525 416 525 640 
L 525 4557 
L 1050 4557 
L 1050 602 
Q 1050 474 1094 426 
Q 1139 378 1203 378 
Q 1229 378 1251 381 
Q 1274 384 1312 390 
L 1389 -6 
Q 1331 -26 1257 -42 
Q 1184 -58 1082 -58 
z
" transform="scale(0.015625)"/>
       </defs>
       <use xlink:href="#SourceSans3-Regular-b"/>
       <use xlink:href="#SourceSans3-Regular-30" transform="translate(47.90625 0)"/>
       <use xlink:href="#SourceSans3-Regular-27" transform="translate(102.3125 0)"/>
      </g>
     </g>
    </g>
    <g id="xtick_2">
     <g id="line2d_2"/>
     <g id="text_2">
      <!-- Aug -->
      <g style="fill: #1c2531" transform="translate(75.537095 44.612436) scale(0.11 -0.11)">
       <defs>
        <path id="SourceSans3-Regular-2" d="M 19 0 
L 1440 4198 
L 2042 4198 
L 3462 0 
L 2899 0 
L 2163 2349 
Q 2048 2701 1945 3049 
Q 1843 3398 1741 3763 
L 1715 3763 
Q 1619 3398 1516 3049 
Q 1414 2701 1299 2349 
L 557 0 
L 19 0 
z
M 762 1280 
L 762 1702 
L 2701 1702 
L 2701 1280 
L 762 1280 
z
" transform="scale(0.015625)"/>
        <path id="SourceSans3-Regular-22" d="M 1574 -1434 
Q 1197 -1434 905 -1334 
Q 614 -1235 451 -1049 
Q 288 -864 288 -595 
Q 288 -397 409 -214 
Q 531 -32 742 109 
L 742 134 
Q 627 211 547 336 
Q 467 461 467 640 
Q 467 838 579 985 
Q 691 1133 806 1216 
L 806 1242 
Q 659 1370 531 1587 
Q 403 1805 403 2080 
Q 403 2419 566 2668 
Q 730 2918 995 3052 
Q 1261 3187 1574 3187 
Q 1702 3187 1817 3164 
Q 1933 3142 2016 3110 
L 3098 3110 
L 3098 2707 
L 2451 2707 
L 2451 2682 
Q 2566 2579 2640 2425 
Q 2714 2272 2714 2061 
Q 2714 1728 2560 1488 
Q 2406 1248 2150 1117 
Q 1894 986 1574 986 
Q 1459 986 1337 1014 
Q 1216 1043 1107 1094 
Q 1030 1024 969 941 
Q 909 858 909 723 
Q 909 576 1027 480 
Q 1146 384 1459 384 
L 2061 384 
Q 2605 384 2877 208 
Q 3149 32 3149 -358 
Q 3149 -646 2957 -889 
Q 2765 -1133 2409 -1283 
Q 2054 -1434 1574 -1434 
z
M 1574 1338 
Q 1754 1338 1904 1430 
Q 2054 1523 2144 1689 
Q 2234 1856 2234 2080 
Q 2234 2426 2042 2614 
Q 1850 2803 1574 2803 
Q 1299 2803 1107 2614 
Q 915 2426 915 2080 
Q 915 1856 1004 1689 
Q 1094 1523 1244 1430 
Q 1395 1338 1574 1338 
z
M 1651 -1069 
Q 1946 -1069 2166 -979 
Q 2387 -890 2512 -742 
Q 2637 -595 2637 -435 
Q 2637 -218 2473 -134 
Q 2310 -51 2010 -51 
L 1472 -51 
Q 1382 -51 1276 -38 
Q 1171 -26 1069 0 
Q 896 -122 822 -256 
Q 749 -390 749 -525 
Q 749 -774 989 -921 
Q 1229 -1069 1651 -1069 
z
" transform="scale(0.015625)"/>
       </defs>
       <use xlink:href="#SourceSans3-Regular-2"/>
       <use xlink:href="#SourceSans3-Regular-30" transform="translate(53.703125 0)"/>
       <use xlink:href="#SourceSans3-Regular-22" transform="translate(108.109375 0)"/>
      </g>
     </g>
    </g>
    <g id="xtick_3">
     <g id="line2d_3"/>
     <g id="text_3">
      <!-- Sep -->
      <g style="fill: #1c2531" transform="translate(124.253409 44.612436) scale(0.11 -0.11)">
       <defs>
        <path id="SourceSans3-Regular-14" d="M 1741 -77 
Q 1293 -77 921 92 
Q 550 262 269 550 
L 570 896 
Q 794 659 1104 524 
Q 1414 390 1747 390 
Q 2163 390 2393 579 
Q 2624 768 2624 1075 
Q 2624 1293 2531 1421 
Q 2438 1549 2281 1638 
Q 2125 1728 1926 1818 
L 1325 2080 
Q 1120 2170 925 2304 
Q 730 2438 602 2646 
Q 474 2854 474 3162 
Q 474 3482 643 3734 
Q 813 3987 1110 4131 
Q 1408 4275 1792 4275 
Q 2176 4275 2496 4134 
Q 2816 3994 3034 3770 
L 2746 3424 
Q 2547 3597 2310 3702 
Q 2074 3808 1792 3808 
Q 1440 3808 1225 3641 
Q 1011 3475 1011 3194 
Q 1011 2995 1113 2867 
Q 1216 2739 1379 2656 
Q 1542 2573 1709 2496 
L 2304 2240 
Q 2554 2131 2749 1990 
Q 2944 1850 3056 1638 
Q 3168 1427 3168 1120 
Q 3168 787 2998 515 
Q 2829 243 2505 83 
Q 2182 -77 1741 -77 
z
" transform="scale(0.015625)"/>
        <path id="SourceSans3-Regular-20" d="M 1786 -77 
Q 1370 -77 1027 118 
Q 685 314 486 675 
Q 288 1037 288 1555 
Q 288 2061 493 2425 
Q 698 2790 1018 2988 
Q 1338 3187 1696 3187 
Q 2093 3187 2371 3004 
Q 2650 2822 2790 2496 
Q 2931 2170 2931 1728 
Q 2931 1645 2928 1568 
Q 2925 1491 2906 1414 
L 666 1414 
L 666 1830 
L 2458 1830 
Q 2458 2278 2262 2518 
Q 2067 2758 1702 2758 
Q 1491 2758 1286 2640 
Q 1082 2522 950 2259 
Q 819 1997 819 1562 
Q 819 1165 956 896 
Q 1094 627 1331 489 
Q 1568 352 1850 352 
Q 2074 352 2269 416 
Q 2464 480 2624 589 
L 2816 243 
Q 2611 102 2358 12 
Q 2106 -77 1786 -77 
z
" transform="scale(0.015625)"/>
        <path id="SourceSans3-Regular-2b" d="M 525 -1312 
L 525 3110 
L 960 3110 
L 1005 2752 
L 1024 2752 
Q 1235 2931 1491 3059 
Q 1747 3187 2016 3187 
Q 2413 3187 2688 2992 
Q 2963 2797 3104 2441 
Q 3245 2086 3245 1600 
Q 3245 1075 3056 697 
Q 2867 320 2560 121 
Q 2253 -77 1901 -77 
Q 1690 -77 1472 19 
Q 1254 115 1037 282 
L 1050 -262 
L 1050 -1312 
L 525 -1312 
z
M 1811 365 
Q 2067 365 2268 512 
Q 2470 659 2585 937 
Q 2701 1216 2701 1600 
Q 2701 1939 2617 2198 
Q 2534 2458 2355 2602 
Q 2176 2746 1882 2746 
Q 1690 2746 1485 2640 
Q 1280 2534 1050 2323 
L 1050 691 
Q 1267 512 1462 438 
Q 1658 365 1811 365 
z
" transform="scale(0.015625)"/>
       </defs>
       <use xlink:href="#SourceSans3-Regular-14"/>
       <use xlink:href="#SourceSans3-Regular-20" transform="translate(53.40625 0)"/>
       <use xlink:href="#SourceSans3-Regular-2b" transform="translate(103 0)"/>
      </g>
     </g>
    </g>
    <g id="xtick_4">
     <g id="line2d_4"/>
     <g id="text_4">
      <!-- Oct -->
      <g style="fill: #1c2531" transform="translate(163.979445 44.612436) scale(0.11 -0.11)">
       <defs>
        <path id="SourceSans3-Regular-10" d="M 2125 -77 
Q 1600 -77 1193 192 
Q 787 461 560 953 
Q 333 1446 333 2118 
Q 333 2790 560 3273 
Q 787 3757 1193 4016 
Q 1600 4275 2125 4275 
Q 2656 4275 3059 4016 
Q 3462 3757 3692 3273 
Q 3923 2790 3923 2118 
Q 3923 1446 3692 953 
Q 3462 461 3059 192 
Q 2656 -77 2125 -77 
z
M 2125 397 
Q 2502 397 2780 608 
Q 3059 819 3212 1206 
Q 3366 1594 3366 2118 
Q 3366 2637 3212 3014 
Q 3059 3392 2780 3600 
Q 2502 3808 2125 3808 
Q 1754 3808 1472 3600 
Q 1190 3392 1036 3014 
Q 883 2637 883 2118 
Q 883 1594 1036 1206 
Q 1190 819 1472 608 
Q 1754 397 2125 397 
z
" transform="scale(0.015625)"/>
        <path id="SourceSans3-Regular-1e" d="M 1760 -77 
Q 1344 -77 1011 115 
Q 678 307 486 672 
Q 294 1037 294 1549 
Q 294 2074 502 2438 
Q 710 2803 1052 2995 
Q 1395 3187 1792 3187 
Q 2099 3187 2320 3084 
Q 2541 2982 2701 2822 
L 2438 2496 
Q 2323 2611 2166 2678 
Q 2010 2746 1811 2746 
Q 1536 2746 1315 2595 
Q 1094 2445 966 2176 
Q 838 1907 838 1549 
Q 838 1197 960 928 
Q 1082 659 1299 508 
Q 1517 358 1805 358 
Q 2022 358 2208 441 
Q 2394 525 2528 653 
L 2758 333 
Q 2560 147 2310 35 
Q 2061 -77 1760 -77 
z
" transform="scale(0.015625)"/>
        <path id="SourceSans3-Regular-2f" d="M 1504 -58 
Q 1011 -58 812 230 
Q 614 518 614 979 
L 614 2682 
L 154 2682 
L 154 3078 
L 640 3110 
L 704 4109 
L 1146 4109 
L 1146 3110 
L 1990 3110 
L 1990 2682 
L 1146 2682 
L 1146 973 
Q 1146 691 1251 531 
Q 1357 371 1626 371 
Q 1709 371 1798 387 
Q 1888 403 1978 448 
L 2093 77 
Q 1971 19 1817 -19 
Q 1664 -58 1504 -58 
z
" transform="scale(0.015625)"/>
       </defs>
       <use xlink:href="#SourceSans3-Regular-10"/>
       <use xlink:href="#SourceSans3-Regular-1e" transform="translate(66.40625 0)"/>
       <use xlink:href="#SourceSans3-Regular-2f" transform="translate(111 0)"/>
      </g>
     </g>
    </g>
    <g id="xtick_5">
     <g id="line2d_5"/>
     <g id="text_5">
      <!-- Nov -->
      <g style="fill: #1c2531" transform="translate(201.829464 44.612436) scale(0.11 -0.11)">
       <defs>
        <path id="SourceSans3-Regular-f" d="M 576 0 
L 576 4198 
L 1158 4198 
L 2650 1587 
Q 2771 1376 2880 1149 
Q 2989 922 3098 685 
L 3123 685 
Q 3104 1011 3078 1353 
Q 3053 1696 3053 2016 
L 3053 4198 
L 3565 4198 
L 3565 0 
L 2982 0 
L 1491 2611 
Q 1376 2822 1257 3052 
Q 1139 3283 1037 3514 
L 1011 3514 
Q 1037 3200 1059 2867 
Q 1082 2534 1082 2195 
L 1082 0 
L 576 0 
z
" transform="scale(0.015625)"/>
        <path id="SourceSans3-Regular-2a" d="M 1734 -77 
Q 1357 -77 1027 115 
Q 698 307 496 672 
Q 294 1037 294 1549 
Q 294 2074 496 2438 
Q 698 2803 1027 2995 
Q 1357 3187 1734 3187 
Q 2118 3187 2444 2995 
Q 2771 2803 2972 2438 
Q 3174 2074 3174 1549 
Q 3174 1037 2972 672 
Q 2771 307 2444 115 
Q 2118 -77 1734 -77 
z
M 1734 358 
Q 2003 358 2208 508 
Q 2413 659 2521 928 
Q 2630 1197 2630 1549 
Q 2630 1907 2521 2179 
Q 2413 2451 2208 2601 
Q 2003 2752 1734 2752 
Q 1466 2752 1264 2601 
Q 1062 2451 950 2179 
Q 838 1907 838 1549 
Q 838 1197 950 928 
Q 1062 659 1264 508 
Q 1466 358 1734 358 
z
" transform="scale(0.015625)"/>
        <path id="SourceSans3-Regular-31" d="M 1197 0 
L 77 3110 
L 621 3110 
L 1210 1344 
Q 1280 1120 1353 886 
Q 1427 653 1498 429 
L 1523 429 
Q 1587 653 1664 886 
Q 1741 1120 1805 1344 
L 2394 3110 
L 2912 3110 
L 1811 0 
L 1197 0 
z
" transform="scale(0.015625)"/>
       </defs>
       <use xlink:href="#SourceSans3-Regular-f"/>
       <use xlink:href="#SourceSans3-Regular-2a" transform="translate(64.703125 0)"/>
       <use xlink:href="#SourceSans3-Regular-31" transform="translate(118.5 0)"/>
      </g>
     </g>
    </g>
    <g id="xtick_6">
     <g id="line2d_6"/>
     <g id="text_6">
      <!-- Dec -->
      <g style="fill: #1c2531" transform="translate(251.013278 44.612436) scale(0.11 -0.11)">
       <defs>
        <path id="SourceSans3-Regular-5" d="M 576 0 
L 576 4198 
L 1626 4198 
Q 2272 4198 2713 3955 
Q 3155 3712 3382 3248 
Q 3610 2784 3610 2118 
Q 3610 1453 3382 976 
Q 3155 499 2720 249 
Q 2285 0 1651 0 
L 576 0 
z
M 1107 435 
L 1587 435 
Q 2080 435 2406 636 
Q 2733 838 2893 1209 
Q 3053 1581 3053 2118 
Q 3053 2643 2893 3014 
Q 2733 3386 2406 3574 
Q 2080 3763 1587 3763 
L 1107 3763 
L 1107 435 
z
" transform="scale(0.015625)"/>
       </defs>
       <use xlink:href="#SourceSans3-Regular-5"/>
       <use xlink:href="#SourceSans3-Regular-20" transform="translate(61.5 0)"/>
       <use xlink:href="#SourceSans3-Regular-1e" transform="translate(111.09375 0)"/>
      </g>
     </g>
    </g>
    <g id="xtick_7">
     <g id="line2d_7"/>
     <g id="text_7">
      <!-- Jan -->
      <g style="fill: #1c2531" transform="translate(290.187595 44.612436) scale(0.11 -0.11)">
       <defs>
        <path id="SourceSans3-Regular-1c" d="M 1242 -77 
Q 986 -77 778 28 
Q 570 134 448 329 
Q 326 525 326 806 
Q 326 1331 787 1600 
Q 1248 1869 2246 1978 
Q 2240 2170 2185 2349 
Q 2131 2528 1990 2637 
Q 1850 2746 1600 2746 
Q 1331 2746 1094 2646 
Q 858 2547 672 2426 
L 467 2784 
Q 608 2880 800 2973 
Q 992 3066 1216 3126 
Q 1440 3187 1690 3187 
Q 2067 3187 2307 3030 
Q 2547 2874 2659 2586 
Q 2771 2298 2771 1907 
L 2771 0 
L 2336 0 
L 2291 371 
L 2272 371 
Q 2048 186 1792 54 
Q 1536 -77 1242 -77 
z
M 1389 358 
Q 1619 358 1820 460 
Q 2022 563 2246 762 
L 2246 1600 
Q 1722 1536 1418 1437 
Q 1114 1338 979 1190 
Q 845 1043 845 838 
Q 845 582 1005 470 
Q 1165 358 1389 358 
z
" transform="scale(0.015625)"/>
        <path id="SourceSans3-Regular-29" d="M 525 0 
L 525 3110 
L 960 3110 
L 1005 2662 
L 1024 2662 
Q 1248 2886 1497 3036 
Q 1747 3187 2067 3187 
Q 2560 3187 2787 2876 
Q 3014 2566 3014 1971 
L 3014 0 
L 2490 0 
L 2490 1901 
Q 2490 2342 2352 2537 
Q 2214 2733 1901 2733 
Q 1664 2733 1475 2611 
Q 1286 2490 1050 2253 
L 1050 0 
L 525 0 
z
" transform="scale(0.015625)"/>
       </defs>
       <use xlink:href="#SourceSans3-Regular-b"/>
       <use xlink:href="#SourceSans3-Regular-1c" transform="translate(47.90625 0)"/>
       <use xlink:href="#SourceSans3-Regular-29" transform="translate(98.3125 0)"/>
      </g>
     </g>
    </g>
    <g id="xtick_8">
     <g id="line2d_8"/>
     <g id="text_8">
      <!-- Feb -->
      <g style="fill: #1c2531" transform="translate(329.166834 44.612436) scale(0.11 -0.11)">
       <defs>
        <path id="SourceSans3-Regular-7" d="M 576 0 
L 576 4198 
L 2995 4198 
L 2995 3750 
L 1107 3750 
L 1107 2330 
L 2707 2330 
L 2707 1882 
L 1107 1882 
L 1107 0 
L 576 0 
z
" transform="scale(0.015625)"/>
        <path id="SourceSans3-Regular-1d" d="M 1901 -77 
Q 1683 -77 1452 28 
Q 1222 134 1011 320 
L 992 320 
L 947 0 
L 525 0 
L 525 4557 
L 1050 4557 
L 1050 3315 
L 1037 2752 
Q 1248 2938 1501 3062 
Q 1754 3187 2010 3187 
Q 2413 3187 2688 2992 
Q 2963 2797 3104 2441 
Q 3245 2086 3245 1606 
Q 3245 1075 3056 697 
Q 2867 320 2560 121 
Q 2253 -77 1901 -77 
z
M 1811 365 
Q 2067 365 2268 512 
Q 2470 659 2585 937 
Q 2701 1216 2701 1600 
Q 2701 1939 2617 2198 
Q 2534 2458 2355 2602 
Q 2176 2746 1882 2746 
Q 1690 2746 1482 2640 
Q 1274 2534 1050 2323 
L 1050 691 
Q 1254 512 1456 438 
Q 1658 365 1811 365 
z
" transform="scale(0.015625)"/>
       </defs>
       <use xlink:href="#SourceSans3-Regular-7"/>
       <use xlink:href="#SourceSans3-Regular-20" transform="translate(48 0)"/>
       <use xlink:href="#SourceSans3-Regular-1d" transform="translate(97.59375 0)"/>
      </g>
     </g>
    </g>
    <g id="xtick_9">
     <g id="line2d_9"/>
     <g id="text_9">
      <!-- Mar -->
      <g style="fill: #1c2531" transform="translate(367.868494 44.612436) scale(0.11 -0.11)">
       <defs>
        <path id="SourceSans3-Regular-e" d="M 576 0 
L 576 4198 
L 1248 4198 
L 2042 1952 
Q 2118 1741 2185 1529 
Q 2253 1318 2323 1082 
L 2349 1082 
Q 2419 1318 2483 1529 
Q 2547 1741 2618 1952 
L 3411 4198 
L 4077 4198 
L 4077 0 
L 3578 0 
L 3578 2310 
Q 3578 2496 3590 2726 
Q 3603 2957 3619 3184 
Q 3635 3411 3654 3597 
L 3629 3597 
L 3302 2586 
L 2515 416 
L 2125 416 
L 1338 2586 
L 1011 3597 
L 986 3597 
Q 1005 3411 1021 3184 
Q 1037 2957 1049 2726 
Q 1062 2496 1062 2310 
L 1062 0 
L 576 0 
z
" transform="scale(0.015625)"/>
        <path id="SourceSans3-Regular-2d" d="M 525 0 
L 525 3110 
L 960 3110 
L 1005 2547 
L 1024 2547 
Q 1178 2842 1408 3014 
Q 1638 3187 1907 3187 
Q 2010 3187 2086 3174 
Q 2163 3162 2240 3123 
L 2125 2675 
Q 2054 2694 1993 2704 
Q 1933 2714 1837 2714 
Q 1638 2714 1424 2554 
Q 1210 2394 1050 1997 
L 1050 0 
L 525 0 
z
" transform="scale(0.015625)"/>
       </defs>
       <use xlink:href="#SourceSans3-Regular-e"/>
       <use xlink:href="#SourceSans3-Regular-1c" transform="translate(72.703125 0)"/>
       <use xlink:href="#SourceSans3-Regular-2d" transform="translate(123.109375 0)"/>
      </g>
     </g>
    </g>
    <g id="xtick_10">
     <g id="line2d_10"/>
     <g id="text_10">
      <!-- Apr -->
      <g style="fill: #1c2531" transform="translate(417.316136 44.612436) scale(0.11 -0.11)">
       <use xlink:href="#SourceSans3-Regular-2"/>
       <use xlink:href="#SourceSans3-Regular-2b" transform="translate(54.296875 0)"/>
       <use xlink:href="#SourceSans3-Regular-2d" transform="translate(109.796875 0)"/>
      </g>
     </g>
    </g>
    <g id="xtick_11">
     <g id="line2d_11"/>
     <g id="text_11">
      <!-- May -->
      <g style="fill: #1c2531" transform="translate(454.896312 44.612436) scale(0.11 -0.11)">
       <defs>
        <path id="SourceSans3-Regular-34" d="M 576 -1338 
Q 474 -1338 381 -1318 
Q 288 -1299 211 -1274 
L 326 -864 
Q 384 -883 441 -892 
Q 499 -902 550 -902 
Q 819 -902 988 -713 
Q 1158 -525 1254 -237 
L 1325 -6 
L 77 3110 
L 621 3110 
L 1254 1389 
Q 1331 1190 1408 960 
Q 1485 730 1555 512 
L 1581 512 
Q 1651 730 1718 957 
Q 1786 1184 1843 1389 
L 2400 3110 
L 2912 3110 
L 1741 -256 
Q 1632 -563 1478 -809 
Q 1325 -1056 1107 -1197 
Q 890 -1338 576 -1338 
z
" transform="scale(0.015625)"/>
       </defs>
       <use xlink:href="#SourceSans3-Regular-e"/>
       <use xlink:href="#SourceSans3-Regular-1c" transform="translate(72.703125 0)"/>
       <use xlink:href="#SourceSans3-Regular-34" transform="translate(123.109375 0)"/>
      </g>
     </g>
    </g>
    <g id="xtick_12">
     <g id="line2d_12"/>
     <g id="text_12">
      <!-- Jun -->
      <g style="fill: #1c2531" transform="translate(504.315595 44.612436) scale(0.11 -0.11)">
       <use xlink:href="#SourceSans3-Regular-b"/>
       <use xlink:href="#SourceSans3-Regular-30" transform="translate(47.90625 0)"/>
       <use xlink:href="#SourceSans3-Regular-29" transform="translate(102.3125 0)"/>
      </g>
     </g>
    </g>
    <g id="xtick_13">
     <g id="line2d_13"/>
     <g id="text_13">
      <!-- Jul -->
      <g style="fill: #1c2531" transform="translate(544.894131 44.612436) scale(0.11 -0.11)">
       <use xlink:href="#SourceSans3-Regular-b"/>
       <use xlink:href="#SourceSans3-Regular-30" transform="translate(47.90625 0)"/>
       <use xlink:href="#SourceSans3-Regular-27" transform="translate(102.3125 0)"/>
      </g>
     </g>
    </g>
   </g>
   <g id="matplotlib.axis_2">
    <g id="ytick_1">
     <g id="line2d_14"/>
     <g id="text_14">
      <!-- Mon -->
      <g style="fill: #1c2531" transform="translate(12.062969 77.630618) scale(0.11 -0.11)">
       <use xlink:href="#SourceSans3-Regular-e"/>
       <use xlink:href="#SourceSans3-Regular-2a" transform="translate(72.703125 0)"/>
       <use xlink:href="#SourceSans3-Regular-29" transform="translate(126.90625 0)"/>
      </g>
     </g>
    </g>
    <g id="ytick_2">
     <g id="line2d_15"/>
     <g id="text_15">
      <!-- Wed -->
      <g style="fill: #1c2531" transform="translate(11.834375 97.1168) scale(0.11 -0.11)">
       <defs>
        <path id="SourceSans3-Regular-18" d="M 1018 0 
L 147 4198 
L 717 4198 
L 1146 1914 
Q 1210 1574 1267 1235 
Q 1325 896 1376 538 
L 1402 538 
Q 1466 896 1539 1235 
Q 1613 1574 1690 1914 
L 2259 4198 
L 2797 4198 
L 3347 1914 
Q 3424 1581 3501 1238 
Q 3578 896 3648 538 
L 3674 538 
Q 3725 896 3782 1235 
Q 3840 1574 3898 1914 
L 4339 4198 
L 4883 4198 
L 4006 0 
L 3322 0 
L 2720 2522 
Q 2669 2758 2621 2998 
Q 2573 3238 2528 3507 
L 2502 3507 
Q 2464 3238 2416 2998 
Q 2368 2758 2317 2522 
L 1702 0 
L 1018 0 
z
" transform="scale(0.015625)"/>
        <path id="SourceSans3-Regular-1f" d="M 1587 -77 
Q 998 -77 649 348 
Q 301 774 301 1549 
Q 301 2054 489 2422 
Q 678 2790 985 2988 
Q 1293 3187 1651 3187 
Q 1926 3187 2121 3094 
Q 2317 3002 2522 2829 
L 2496 3360 
L 2496 4557 
L 3027 4557 
L 3027 0 
L 2592 0 
L 2547 365 
L 2528 365 
Q 2349 186 2105 54 
Q 1862 -77 1587 -77 
z
M 1702 365 
Q 1920 365 2112 473 
Q 2304 582 2496 794 
L 2496 2419 
Q 2304 2598 2118 2672 
Q 1933 2746 1741 2746 
Q 1491 2746 1289 2595 
Q 1088 2445 966 2179 
Q 845 1914 845 1555 
Q 845 998 1069 681 
Q 1293 365 1702 365 
z
" transform="scale(0.015625)"/>
       </defs>
       <use xlink:href="#SourceSans3-Regular-18"/>
       <use xlink:href="#SourceSans3-Regular-20" transform="translate(78.59375 0)"/>
       <use xlink:href="#SourceSans3-Regular-1f" transform="translate(128.1875 0)"/>
      </g>
     </g>
    </g>
    <g id="ytick_3">
     <g id="line2d_16"/>
     <g id="text_16">
      <!-- Fri -->
      <g style="fill: #1c2531" transform="translate(20.302656 116.602982) scale(0.11 -0.11)">
       <defs>
        <path id="SourceSans3-Regular-24" d="M 525 0 
L 525 3110 
L 1050 3110 
L 1050 0 
L 525 0 
z
M 787 3750 
Q 633 3750 534 3846 
Q 435 3942 435 4096 
Q 435 4250 534 4346 
Q 633 4442 787 4442 
Q 941 4442 1040 4346 
Q 1139 4250 1139 4096 
Q 1139 3942 1040 3846 
Q 941 3750 787 3750 
z
" transform="scale(0.015625)"/>
       </defs>
       <use xlink:href="#SourceSans3-Regular-7"/>
       <use xlink:href="#SourceSans3-Regular-2d" transform="translate(47.40625 0)"/>
       <use xlink:href="#SourceSans3-Regular-24" transform="translate(82.109375 0)"/>
      </g>
     </g>
    </g>
   </g>
   <g id="PathCollection_1">
    <defs>
     <path id="me67627a0ab" d="M -4.242641 4.242641 
L 4.242641 4.242641 
L 4.242641 -4.242641 
L -4.242641 -4.242641 
z
"/>
    </defs>
    <g clip-path="url(#p0d048bd1a0)">
     <use xlink:href="#me67627a0ab" x="45.283091" y="62.255527" style="fill: #ebedf0"/>
     <use xlink:href="#me67627a0ab" x="45.283091" y="71.998618" style="fill: #ebedf0"/>
     <use xlink:href="#me67627a0ab" x="45.283091" y="120.714073" style="fill: #ebedf0"/>
     <use xlink:href="#me67627a0ab" x="64.769273" y="62.255527" style="fill: #ebedf0"/>
     <use xlink:href="#me67627a0ab" x="64.769273" y="81.741709" style="fill: #ebedf0"/>
     <use xlink:href="#me67627a0ab" x="64.769273" y="110.970982" style="fill: #ebedf0"/>
     <use xlink:href="#me67627a0ab" x="74.512364" y="81.741709" style="fill: #ebedf0"/>
     <use xlink:href="#me67627a0ab" x="74.512364" y="120.714073" style="fill: #ebedf0"/>
     <use xlink:href="#me67627a0ab" x="84.255455" y="71.998618" style="fill: #ebedf0"/>
     <use xlink:href="#me67627a0ab" x="84.255455" y="81.741709" style="fill: #ebedf0"/>
     <use xlink:href="#me67627a0ab" x="84.255455" y="101.227891" style="fill: #ebedf0"/>
     <use xlink:href="#me67627a0ab" x="93.998545" y="62.255527" style="fill: #ebedf0"/>
     <use xlink:href="#me67627a0ab" x="93.998545" y="71.998618" style="fill: #ebedf0"/>
     <use xlink:href="#me67627a0ab" x="93.998545" y="81.741709" style="fill: #ebedf0"/>
     <use xlink:href="#me67627a0ab" x="93.998545" y="91.4848" style="fill: #ebedf0"/>
     <use xlink:href="#me67627a0ab" x="103.741636" y="62.255527" style="fill: #ebedf0"/>
     <use xlink:href="#me67627a0ab" x="103.741636" y="71.998618" style="fill: #ebedf0"/>
     <use xlink:href="#me67627a0ab" x="103.741636" y="81.741709" style="fill: #ebedf0"/>
     <use xlink:href="#me67627a0ab" x="103.741636" y="91.4848" style="fill: #ebedf0"/>
     <use xlink:href="#me67627a0ab" x="103.741636" y="110.970982" style="fill: #ebedf0"/>
     <use xlink:href="#me67627a0ab" x="103.741636" y="120.714073" style="fill: #ebedf0"/>
     <use xlink:href="#me67627a0ab" x="113.484727" y="62.255527" style="fill: #ebedf0"/>
     <use xlink:href="#me67627a0ab" x="113.484727" y="71.998618" style="fill: #ebedf0"/>
     <use xlink:href="#me67627a0ab" x="113.484727" y="91.4848" style="fill: #ebedf0"/>
     <use xlink:href="#me67627a0ab" x="113.484727" y="101.227891" style="fill: #ebedf0"/>
     <use xlink:href="#me67627a0ab" x="113.484727" y="110.970982" style="fill: #ebedf0"/>
     <use xlink:href="#me67627a0ab" x="113.484727" y="120.714073" style="fill: #ebedf0"/>
     <use xlink:href="#me67627a0ab" x="123.227818" y="62.255527" style="fill: #ebedf0"/>
     <use xlink:href="#me67627a0ab" x="123.227818" y="71.998618" style="fill: #ebedf0"/>
     <use xlink:href="#me67627a0ab" x="123.227818" y="91.4848" style="fill: #ebedf0"/>
     <use xlink:href="#me67627a0ab" x="123.227818" y="101.227891" style="fill: #ebedf0"/>
     <use xlink:href="#me67627a0ab" x="123.227818" y="120.714073" style="fill: #ebedf0"/>
     <use xlink:href="#me67627a0ab" x="132.970909" y="62.255527" style="fill: #ebedf0"/>
     <use xlink:href="#me67627a0ab" x="132.970909" y="71.998618" style="fill: #ebedf0"/>
     <use xlink:href="#me67627a0ab" x="132.970909" y="91.4848" style="fill: #ebedf0"/>
     <use xlink:href="#me67627a0ab" x="132.970909" y="110.970982" style="fill: #ebedf0"/>
     <use xlink:href="#me67627a0ab" x="132.970909" y="120.714073" style="fill: #ebedf0"/>
     <use xlink:href="#me67627a0ab" x="142.714" y="62.255527" style="fill: #ebedf0"/>
     <use xlink:href="#me67627a0ab" x="142.714" y="71.998618" style="fill: #ebedf0"/>
     <use xlink:href="#me67627a0ab" x="142.714" y="81.741709" style="fill: #ebedf0"/>
     <use xlink:href="#me67627a0ab" x="142.714" y="91.4848" style="fill: #ebedf0"/>
     <use xlink:href="#me67627a0ab" x="142.714" y="101.227891" style="fill: #ebedf0"/>
     <use xlink:href="#me67627a0ab" x="142.714" y="110.970982" style="fill: #ebedf0"/>
     <use xlink:href="#me67627a0ab" x="142.714" y="120.714073" style="fill: #ebedf0"/>
     <use xlink:href="#me67627a0ab" x="152.457091" y="62.255527" style="fill: #ebedf0"/>
     <use xlink:href="#me67627a0ab" x="152.457091" y="81.741709" style="fill: #ebedf0"/>
     <use xlink:href="#me67627a0ab" x="152.457091" y="91.4848" style="fill: #ebedf0"/>
     <use xlink:href="#me67627a0ab" x="152.457091" y="110.970982" style="fill: #ebedf0"/>
     <use xlink:href="#me67627a0ab" x="152.457091" y="120.714073" style="fill: #ebedf0"/>
     <use xlink:href="#me67627a0ab" x="162.200182" y="62.255527" style="fill: #ebedf0"/>
     <use xlink:href="#me67627a0ab" x="162.200182" y="81.741709" style="fill: #ebedf0"/>
     <use xlink:href="#me67627a0ab" x="162.200182" y="91.4848" style="fill: #ebedf0"/>
     <use xlink:href="#me67627a0ab" x="162.200182" y="110.970982" style="fill: #ebedf0"/>
     <use xlink:href="#me67627a0ab" x="162.200182" y="120.714073" style="fill: #ebedf0"/>
     <use xlink:href="#me67627a0ab" x="171.943273" y="62.255527" style="fill: #ebedf0"/>
     <use xlink:href="#me67627a0ab" x="171.943273" y="71.998618" style="fill: #ebedf0"/>
     <use xlink:href="#me67627a0ab" x="171.943273" y="120.714073" style="fill: #ebedf0"/>
     <use xlink:href="#me67627a0ab" x="181.686364" y="62.255527" style="fill: #ebedf0"/>
     <use xlink:href="#me67627a0ab" x="181.686364" y="71.998618" style="fill: #ebedf0"/>
     <use xlink:href="#me67627a0ab" x="181.686364" y="81.741709" style="fill: #ebedf0"/>
     <use xlink:href="#me67627a0ab" x="181.686364" y="91.4848" style="fill: #ebedf0"/>
     <use xlink:href="#me67627a0ab" x="181.686364" y="101.227891" style="fill: #ebedf0"/>
     <use xlink:href="#me67627a0ab" x="181.686364" y="110.970982" style="fill: #ebedf0"/>
     <use xlink:href="#me67627a0ab" x="191.429455" y="62.255527" style="fill: #ebedf0"/>
     <use xlink:href="#me67627a0ab" x="191.429455" y="81.741709" style="fill: #ebedf0"/>
     <use xlink:href="#me67627a0ab" x="191.429455" y="91.4848" style="fill: #ebedf0"/>
     <use xlink:href="#me67627a0ab" x="191.429455" y="101.227891" style="fill: #ebedf0"/>
     <use xlink:href="#me67627a0ab" x="191.429455" y="110.970982" style="fill: #ebedf0"/>
     <use xlink:href="#me67627a0ab" x="201.172545" y="91.4848" style="fill: #ebedf0"/>
     <use xlink:href="#me67627a0ab" x="210.915636" y="62.255527" style="fill: #ebedf0"/>
     <use xlink:href="#me67627a0ab" x="210.915636" y="71.998618" style="fill: #ebedf0"/>
     <use xlink:href="#me67627a0ab" x="210.915636" y="110.970982" style="fill: #ebedf0"/>
     <use xlink:href="#me67627a0ab" x="210.915636" y="120.714073" style="fill: #ebedf0"/>
     <use xlink:href="#me67627a0ab" x="220.658727" y="62.255527" style="fill: #ebedf0"/>
     <use xlink:href="#me67627a0ab" x="220.658727" y="71.998618" style="fill: #ebedf0"/>
     <use xlink:href="#me67627a0ab" x="220.658727" y="81.741709" style="fill: #ebedf0"/>
     <use xlink:href="#me67627a0ab" x="220.658727" y="91.4848" style="fill: #ebedf0"/>
     <use xlink:href="#me67627a0ab" x="220.658727" y="101.227891" style="fill: #ebedf0"/>
     <use xlink:href="#me67627a0ab" x="220.658727" y="110.970982" style="fill: #ebedf0"/>
     <use xlink:href="#me67627a0ab" x="230.401818" y="62.255527" style="fill: #ebedf0"/>
     <use xlink:href="#me67627a0ab" x="230.401818" y="81.741709" style="fill: #ebedf0"/>
     <use xlink:href="#me67627a0ab" x="230.401818" y="91.4848" style="fill: #ebedf0"/>
     <use xlink:href="#me67627a0ab" x="230.401818" y="101.227891" style="fill: #ebedf0"/>
     <use xlink:href="#me67627a0ab" x="230.401818" y="110.970982" style="fill: #ebedf0"/>
     <use xlink:href="#me67627a0ab" x="230.401818" y="120.714073" style="fill: #ebedf0"/>
     <use xlink:href="#me67627a0ab" x="240.144909" y="62.255527" style="fill: #ebedf0"/>
     <use xlink:href="#me67627a0ab" x="240.144909" y="71.998618" style="fill: #ebedf0"/>
     <use xlink:href="#me67627a0ab" x="240.144909" y="81.741709" style="fill: #ebedf0"/>
     <use xlink:href="#me67627a0ab" x="240.144909" y="91.4848" style="fill: #ebedf0"/>
     <use xlink:href="#me67627a0ab" x="240.144909" y="110.970982" style="fill: #ebedf0"/>
     <use xlink:href="#me67627a0ab" x="240.144909" y="120.714073" style="fill: #ebedf0"/>
     <use xlink:href="#me67627a0ab" x="249.888" y="62.255527" style="fill: #ebedf0"/>
     <use xlink:href="#me67627a0ab" x="249.888" y="91.4848" style="fill: #ebedf0"/>
     <use xlink:href="#me67627a0ab" x="259.631091" y="91.4848" style="fill: #ebedf0"/>
     <use xlink:href="#me67627a0ab" x="259.631091" y="101.227891" style="fill: #ebedf0"/>
     <use xlink:href="#me67627a0ab" x="259.631091" y="110.970982" style="fill: #ebedf0"/>
     <use xlink:href="#me67627a0ab" x="259.631091" y="120.714073" style="fill: #ebedf0"/>
     <use xlink:href="#me67627a0ab" x="269.374182" y="62.255527" style="fill: #ebedf0"/>
     <use xlink:href="#me67627a0ab" x="269.374182" y="101.227891" style="fill: #ebedf0"/>
     <use xlink:href="#me67627a0ab" x="269.374182" y="110.970982" style="fill: #ebedf0"/>
     <use xlink:href="#me67627a0ab" x="269.374182" y="120.714073" style="fill: #ebedf0"/>
     <use xlink:href="#me67627a0ab" x="279.117273" y="81.741709" style="fill: #ebedf0"/>
     <use xlink:href="#me67627a0ab" x="279.117273" y="91.4848" style="fill: #ebedf0"/>
     <use xlink:href="#me67627a0ab" x="279.117273" y="101.227891" style="fill: #ebedf0"/>
     <use xlink:href="#me67627a0ab" x="279.117273" y="110.970982" style="fill: #ebedf0"/>
     <use xlink:href="#me67627a0ab" x="279.117273" y="120.714073" style="fill: #ebedf0"/>
     <use xlink:href="#me67627a0ab" x="288.860364" y="62.255527" style="fill: #ebedf0"/>
     <use xlink:href="#me67627a0ab" x="288.860364" y="71.998618" style="fill: #ebedf0"/>
     <use xlink:href="#me67627a0ab" x="288.860364" y="101.227891" style="fill: #ebedf0"/>
     <use xlink:href="#me67627a0ab" x="288.860364" y="110.970982" style="fill: #ebedf0"/>
     <use xlink:href="#me67627a0ab" x="298.603455" y="62.255527" style="fill: #ebedf0"/>
     <use xlink:href="#me67627a0ab" x="298.603455" y="120.714073" style="fill: #ebedf0"/>
     <use xlink:href="#me67627a0ab" x="308.346545" y="62.255527" style="fill: #ebedf0"/>
     <use xlink:href="#me67627a0ab" x="308.346545" y="71.998618" style="fill: #ebedf0"/>
     <use xlink:href="#me67627a0ab" x="308.346545" y="101.227891" style="fill: #ebedf0"/>
     <use xlink:href="#me67627a0ab" x="308.346545" y="120.714073" style="fill: #ebedf0"/>
     <use xlink:href="#me67627a0ab" x="318.089636" y="71.998618" style="fill: #ebedf0"/>
     <use xlink:href="#me67627a0ab" x="337.575818" y="62.255527" style="fill: #ebedf0"/>
     <use xlink:href="#me67627a0ab" x="337.575818" y="71.998618" style="fill: #ebedf0"/>
     <use xlink:href="#me67627a0ab" x="337.575818" y="81.741709" style="fill: #ebedf0"/>
     <use xlink:href="#me67627a0ab" x="337.575818" y="101.227891" style="fill: #ebedf0"/>
     <use xlink:href="#me67627a0ab" x="337.575818" y="110.970982" style="fill: #ebedf0"/>
     <use xlink:href="#me67627a0ab" x="337.575818" y="120.714073" style="fill: #ebedf0"/>
     <use xlink:href="#me67627a0ab" x="347.318909" y="62.255527" style="fill: #ebedf0"/>
     <use xlink:href="#me67627a0ab" x="347.318909" y="81.741709" style="fill: #ebedf0"/>
     <use xlink:href="#me67627a0ab" x="347.318909" y="91.4848" style="fill: #ebedf0"/>
     <use xlink:href="#me67627a0ab" x="347.318909" y="101.227891" style="fill: #ebedf0"/>
     <use xlink:href="#me67627a0ab" x="347.318909" y="110.970982" style="fill: #ebedf0"/>
     <use xlink:href="#me67627a0ab" x="357.062" y="62.255527" style="fill: #ebedf0"/>
     <use xlink:href="#me67627a0ab" x="357.062" y="71.998618" style="fill: #ebedf0"/>
     <use xlink:href="#me67627a0ab" x="357.062" y="81.741709" style="fill: #ebedf0"/>
     <use xlink:href="#me67627a0ab" x="357.062" y="91.4848" style="fill: #ebedf0"/>
     <use xlink:href="#me67627a0ab" x="357.062" y="101.227891" style="fill: #ebedf0"/>
     <use xlink:href="#me67627a0ab" x="357.062" y="110.970982" style="fill: #ebedf0"/>
     <use xlink:href="#me67627a0ab" x="357.062" y="120.714073" style="fill: #ebedf0"/>
     <use xlink:href="#me67627a0ab" x="366.805091" y="62.255527" style="fill: #ebedf0"/>
     <use xlink:href="#me67627a0ab" x="366.805091" y="71.998618" style="fill: #ebedf0"/>
     <use xlink:href="#me67627a0ab" x="376.548182" y="62.255527" style="fill: #ebedf0"/>
     <use xlink:href="#me67627a0ab" x="376.548182" y="71.998618" style="fill: #ebedf0"/>
     <use xlink:href="#me67627a0ab" x="376.548182" y="81.741709" style="fill: #ebedf0"/>
     <use xlink:href="#me67627a0ab" x="376.548182" y="91.4848" style="fill: #ebedf0"/>
     <use xlink:href="#me67627a0ab" x="376.548182" y="101.227891" style="fill: #ebedf0"/>
     <use xlink:href="#me67627a0ab" x="376.548182" y="110.970982" style="fill: #ebedf0"/>
     <use xlink:href="#me67627a0ab" x="376.548182" y="120.714073" style="fill: #ebedf0"/>
     <use xlink:href="#me67627a0ab" x="386.291273" y="62.255527" style="fill: #ebedf0"/>
     <use xlink:href="#me67627a0ab" x="386.291273" y="71.998618" style="fill: #ebedf0"/>
     <use xlink:href="#me67627a0ab" x="386.291273" y="91.4848" style="fill: #ebedf0"/>
     <use xlink:href="#me67627a0ab" x="386.291273" y="110.970982" style="fill: #ebedf0"/>
     <use xlink:href="#me67627a0ab" x="386.291273" y="120.714073" style="fill: #ebedf0"/>
     <use xlink:href="#me67627a0ab" x="396.034364" y="62.255527" style="fill: #ebedf0"/>
     <use xlink:href="#me67627a0ab" x="396.034364" y="71.998618" style="fill: #ebedf0"/>
     <use xlink:href="#me67627a0ab" x="396.034364" y="81.741709" style="fill: #ebedf0"/>
     <use xlink:href="#me67627a0ab" x="396.034364" y="91.4848" style="fill: #ebedf0"/>
     <use xlink:href="#me67627a0ab" x="396.034364" y="101.227891" style="fill: #ebedf0"/>
     <use xlink:href="#me67627a0ab" x="396.034364" y="120.714073" style="fill: #ebedf0"/>
     <use xlink:href="#me67627a0ab" x="405.777455" y="62.255527" style="fill: #ebedf0"/>
     <use xlink:href="#me67627a0ab" x="405.777455" y="71.998618" style="fill: #ebedf0"/>
     <use xlink:href="#me67627a0ab" x="405.777455" y="81.741709" style="fill: #ebedf0"/>
     <use xlink:href="#me67627a0ab" x="405.777455" y="91.4848" style="fill: #ebedf0"/>
     <use xlink:href="#me67627a0ab" x="405.777455" y="120.714073" style="fill: #ebedf0"/>
     <use xlink:href="#me67627a0ab" x="415.520545" y="62.255527" style="fill: #ebedf0"/>
     <use xlink:href="#me67627a0ab" x="415.520545" y="91.4848" style="fill: #ebedf0"/>
     <use xlink:href="#me67627a0ab" x="415.520545" y="110.970982" style="fill: #ebedf0"/>
     <use xlink:href="#me67627a0ab" x="415.520545" y="120.714073" style="fill: #ebedf0"/>
     <use xlink:href="#me67627a0ab" x="425.263636" y="62.255527" style="fill: #ebedf0"/>
     <use xlink:href="#me67627a0ab" x="425.263636" y="71.998618" style="fill: #ebedf0"/>
     <use xlink:href="#me67627a0ab" x="425.263636" y="81.741709" style="fill: #ebedf0"/>
     <use xlink:href="#me67627a0ab" x="425.263636" y="91.4848" style="fill: #ebedf0"/>
     <use xlink:href="#me67627a0ab" x="425.263636" y="101.227891" style="fill: #ebedf0"/>
     <use xlink:href="#me67627a0ab" x="425.263636" y="110.970982" style="fill: #ebedf0"/>
     <use xlink:href="#me67627a0ab" x="425.263636" y="120.714073" style="fill: #ebedf0"/>
     <use xlink:href="#me67627a0ab" x="435.006727" y="62.255527" style="fill: #ebedf0"/>
     <use xlink:href="#me67627a0ab" x="444.749818" y="62.255527" style="fill: #ebedf0"/>
     <use xlink:href="#me67627a0ab" x="454.492909" y="71.998618" style="fill: #ebedf0"/>
     <use xlink:href="#me67627a0ab" x="464.236" y="71.998618" style="fill: #ebedf0"/>
     <use xlink:href="#me67627a0ab" x="483.722182" y="62.255527" style="fill: #ebedf0"/>
     <use xlink:href="#me67627a0ab" x="493.465273" y="62.255527" style="fill: #ebedf0"/>
     <use xlink:href="#me67627a0ab" x="503.208364" y="120.714073" style="fill: #ebedf0"/>
     <use xlink:href="#me67627a0ab" x="542.180727" y="110.970982" style="fill: #ebedf0"/>
     <use xlink:href="#me67627a0ab" x="542.180727" y="120.714073" style="fill: #ebedf0"/>
     <use xlink:href="#me67627a0ab" x="551.923818" y="62.255527" style="fill: #ebedf0"/>
     <use xlink:href="#me67627a0ab" x="551.923818" y="81.741709" style="fill: #ebedf0"/>
     <use xlink:href="#me67627a0ab" x="551.923818" y="91.4848" style="fill: #ebedf0"/>
     <use xlink:href="#me67627a0ab" x="561.666909" y="62.255527" style="fill: #ebedf0"/>
    </g>
   </g>
   <g id="PathCollection_2">
    <defs>
     <path id="C0_0_4dc41a5c3c" d="M -4.242641 4.242641 
L 4.242641 4.242641 
L 4.242641 -4.242641 
L -4.242641 -4.242641 
z
"/>
    </defs>
    <g clip-path="url(#p0d048bd1a0)">
     <use xlink:href="#C0_0_4dc41a5c3c" x="45.283091" y="81.741709" style="fill: #5bb6d5"/>
    </g>
    <g clip-path="url(#p0d048bd1a0)">
     <use xlink:href="#C0_0_4dc41a5c3c" x="45.283091" y="91.4848" style="fill: #8ad7ea"/>
    </g>
    <g clip-path="url(#p0d048bd1a0)">
     <use xlink:href="#C0_0_4dc41a5c3c" x="45.283091" y="101.227891" style="fill: #1c6ea8"/>
    </g>
    <g clip-path="url(#p0d048bd1a0)">
     <use xlink:href="#C0_0_4dc41a5c3c" x="45.283091" y="110.970982" style="fill: #9fdcec"/>
    </g>
    <g clip-path="url(#p0d048bd1a0)">
     <use xlink:href="#C0_0_4dc41a5c3c" x="55.026182" y="62.255527" style="fill: #9fdcec"/>
    </g>
    <g clip-path="url(#p0d048bd1a0)">
     <use xlink:href="#C0_0_4dc41a5c3c" x="55.026182" y="71.998618" style="fill: #9fdcec"/>
    </g>
    <g clip-path="url(#p0d048bd1a0)">
     <use xlink:href="#C0_0_4dc41a5c3c" x="55.026182" y="81.741709" style="fill: #9fdcec"/>
    </g>
    <g clip-path="url(#p0d048bd1a0)">
     <use xlink:href="#C0_0_4dc41a5c3c" x="55.026182" y="91.4848" style="fill: #9fdcec"/>
    </g>
    <g clip-path="url(#p0d048bd1a0)">
     <use xlink:href="#C0_0_4dc41a5c3c" x="55.026182" y="101.227891" style="fill: #74d2e7"/>
    </g>
    <g clip-path="url(#p0d048bd1a0)">
     <use xlink:href="#C0_0_4dc41a5c3c" x="55.026182" y="110.970982" style="fill: #b4e1ef"/>
    </g>
    <g clip-path="url(#p0d048bd1a0)">
     <use xlink:href="#C0_0_4dc41a5c3c" x="55.026182" y="120.714073" style="fill: #b4e1ef"/>
    </g>
    <g clip-path="url(#p0d048bd1a0)">
     <use xlink:href="#C0_0_4dc41a5c3c" x="64.769273" y="71.998618" style="fill: #b4e1ef"/>
    </g>
    <g clip-path="url(#p0d048bd1a0)">
     <use xlink:href="#C0_0_4dc41a5c3c" x="64.769273" y="91.4848" style="fill: #b4e1ef"/>
    </g>
    <g clip-path="url(#p0d048bd1a0)">
     <use xlink:href="#C0_0_4dc41a5c3c" x="64.769273" y="101.227891" style="fill: #b4e1ef"/>
    </g>
    <g clip-path="url(#p0d048bd1a0)">
     <use xlink:href="#C0_0_4dc41a5c3c" x="64.769273" y="120.714073" style="fill: #145b98"/>
    </g>
    <g clip-path="url(#p0d048bd1a0)">
     <use xlink:href="#C0_0_4dc41a5c3c" x="74.512364" y="62.255527" style="fill: #95d9eb"/>
    </g>
    <g clip-path="url(#p0d048bd1a0)">
     <use xlink:href="#C0_0_4dc41a5c3c" x="74.512364" y="71.998618" style="fill: #aadeed"/>
    </g>
    <g clip-path="url(#p0d048bd1a0)">
     <use xlink:href="#C0_0_4dc41a5c3c" x="74.512364" y="91.4848" style="fill: #9fdcec"/>
    </g>
    <g clip-path="url(#p0d048bd1a0)">
     <use xlink:href="#C0_0_4dc41a5c3c" x="74.512364" y="101.227891" style="fill: #4fa8cc"/>
    </g>
    <g clip-path="url(#p0d048bd1a0)">
     <use xlink:href="#C0_0_4dc41a5c3c" x="74.512364" y="110.970982" style="fill: #9fdcec"/>
    </g>
    <g clip-path="url(#p0d048bd1a0)">
     <use xlink:href="#C0_0_4dc41a5c3c" x="84.255455" y="62.255527" style="fill: #7fd4e8"/>
    </g>
    <g clip-path="url(#p0d048bd1a0)">
     <use xlink:href="#C0_0_4dc41a5c3c" x="84.255455" y="91.4848" style="fill: #5bb6d5"/>
    </g>
    <g clip-path="url(#p0d048bd1a0)">
     <use xlink:href="#C0_0_4dc41a5c3c" x="84.255455" y="110.970982" style="fill: #95d9eb"/>
    </g>
    <g clip-path="url(#p0d048bd1a0)">
     <use xlink:href="#C0_0_4dc41a5c3c" x="84.255455" y="120.714073" style="fill: #aadeed"/>
    </g>
    <g clip-path="url(#p0d048bd1a0)">
     <use xlink:href="#C0_0_4dc41a5c3c" x="93.998545" y="101.227891" style="fill: #b4e1ef"/>
    </g>
    <g clip-path="url(#p0d048bd1a0)">
     <use xlink:href="#C0_0_4dc41a5c3c" x="93.998545" y="110.970982" style="fill: #4fa8cc"/>
    </g>
    <g clip-path="url(#p0d048bd1a0)">
     <use xlink:href="#C0_0_4dc41a5c3c" x="93.998545" y="120.714073" style="fill: #aadeed"/>
    </g>
    <g clip-path="url(#p0d048bd1a0)">
     <use xlink:href="#C0_0_4dc41a5c3c" x="103.741636" y="101.227891" style="fill: #68c4de"/>
    </g>
    <g clip-path="url(#p0d048bd1a0)">
     <use xlink:href="#C0_0_4dc41a5c3c" x="113.484727" y="81.741709" style="fill: #b4e1ef"/>
    </g>
    <g clip-path="url(#p0d048bd1a0)">
     <use xlink:href="#C0_0_4dc41a5c3c" x="123.227818" y="81.741709" style="fill: #aadeed"/>
    </g>
    <g clip-path="url(#p0d048bd1a0)">
     <use xlink:href="#C0_0_4dc41a5c3c" x="123.227818" y="110.970982" style="fill: #b4e1ef"/>
    </g>
    <g clip-path="url(#p0d048bd1a0)">
     <use xlink:href="#C0_0_4dc41a5c3c" x="132.970909" y="81.741709" style="fill: #b4e1ef"/>
    </g>
    <g clip-path="url(#p0d048bd1a0)">
     <use xlink:href="#C0_0_4dc41a5c3c" x="132.970909" y="101.227891" style="fill: #b4e1ef"/>
    </g>
    <g clip-path="url(#p0d048bd1a0)">
     <use xlink:href="#C0_0_4dc41a5c3c" x="152.457091" y="71.998618" style="fill: #b4e1ef"/>
    </g>
    <g clip-path="url(#p0d048bd1a0)">
     <use xlink:href="#C0_0_4dc41a5c3c" x="152.457091" y="101.227891" style="fill: #8ad7ea"/>
    </g>
    <g clip-path="url(#p0d048bd1a0)">
     <use xlink:href="#C0_0_4dc41a5c3c" x="162.200182" y="71.998618" style="fill: #b4e1ef"/>
    </g>
    <g clip-path="url(#p0d048bd1a0)">
     <use xlink:href="#C0_0_4dc41a5c3c" x="162.200182" y="101.227891" style="fill: #b4e1ef"/>
    </g>
    <g clip-path="url(#p0d048bd1a0)">
     <use xlink:href="#C0_0_4dc41a5c3c" x="171.943273" y="81.741709" style="fill: #9fdcec"/>
    </g>
    <g clip-path="url(#p0d048bd1a0)">
     <use xlink:href="#C0_0_4dc41a5c3c" x="171.943273" y="91.4848" style="fill: #7fd4e8"/>
    </g>
    <g clip-path="url(#p0d048bd1a0)">
     <use xlink:href="#C0_0_4dc41a5c3c" x="171.943273" y="101.227891" style="fill: #b4e1ef"/>
    </g>
    <g clip-path="url(#p0d048bd1a0)">
     <use xlink:href="#C0_0_4dc41a5c3c" x="171.943273" y="110.970982" style="fill: #b4e1ef"/>
    </g>
    <g clip-path="url(#p0d048bd1a0)">
     <use xlink:href="#C0_0_4dc41a5c3c" x="181.686364" y="120.714073" style="fill: #74d2e7"/>
    </g>
    <g clip-path="url(#p0d048bd1a0)">
     <use xlink:href="#C0_0_4dc41a5c3c" x="191.429455" y="71.998618" style="fill: #b4e1ef"/>
    </g>
    <g clip-path="url(#p0d048bd1a0)">
     <use xlink:href="#C0_0_4dc41a5c3c" x="191.429455" y="120.714073" style="fill: #95d9eb"/>
    </g>
    <g clip-path="url(#p0d048bd1a0)">
     <use xlink:href="#C0_0_4dc41a5c3c" x="201.172545" y="62.255527" style="fill: #95d9eb"/>
    </g>
    <g clip-path="url(#p0d048bd1a0)">
     <use xlink:href="#C0_0_4dc41a5c3c" x="201.172545" y="71.998618" style="fill: #74d2e7"/>
    </g>
    <g clip-path="url(#p0d048bd1a0)">
     <use xlink:href="#C0_0_4dc41a5c3c" x="201.172545" y="81.741709" style="fill: #aadeed"/>
    </g>
    <g clip-path="url(#p0d048bd1a0)">
     <use xlink:href="#C0_0_4dc41a5c3c" x="201.172545" y="101.227891" style="fill: #aadeed"/>
    </g>
    <g clip-path="url(#p0d048bd1a0)">
     <use xlink:href="#C0_0_4dc41a5c3c" x="201.172545" y="110.970982" style="fill: #b4e1ef"/>
    </g>
    <g clip-path="url(#p0d048bd1a0)">
     <use xlink:href="#C0_0_4dc41a5c3c" x="201.172545" y="120.714073" style="fill: #68c4de"/>
    </g>
    <g clip-path="url(#p0d048bd1a0)">
     <use xlink:href="#C0_0_4dc41a5c3c" x="210.915636" y="81.741709" style="fill: #aadeed"/>
    </g>
    <g clip-path="url(#p0d048bd1a0)">
     <use xlink:href="#C0_0_4dc41a5c3c" x="210.915636" y="91.4848" style="fill: #aadeed"/>
    </g>
    <g clip-path="url(#p0d048bd1a0)">
     <use xlink:href="#C0_0_4dc41a5c3c" x="210.915636" y="101.227891" style="fill: #b4e1ef"/>
    </g>
    <g clip-path="url(#p0d048bd1a0)">
     <use xlink:href="#C0_0_4dc41a5c3c" x="220.658727" y="120.714073" style="fill: #9fdcec"/>
    </g>
    <g clip-path="url(#p0d048bd1a0)">
     <use xlink:href="#C0_0_4dc41a5c3c" x="230.401818" y="71.998618" style="fill: #b4e1ef"/>
    </g>
    <g clip-path="url(#p0d048bd1a0)">
     <use xlink:href="#C0_0_4dc41a5c3c" x="240.144909" y="101.227891" style="fill: #b4e1ef"/>
    </g>
    <g clip-path="url(#p0d048bd1a0)">
     <use xlink:href="#C0_0_4dc41a5c3c" x="249.888" y="71.998618" style="fill: #b4e1ef"/>
    </g>
    <g clip-path="url(#p0d048bd1a0)">
     <use xlink:href="#C0_0_4dc41a5c3c" x="249.888" y="81.741709" style="fill: #aadeed"/>
    </g>
    <g clip-path="url(#p0d048bd1a0)">
     <use xlink:href="#C0_0_4dc41a5c3c" x="249.888" y="101.227891" style="fill: #9fdcec"/>
    </g>
    <g clip-path="url(#p0d048bd1a0)">
     <use xlink:href="#C0_0_4dc41a5c3c" x="249.888" y="110.970982" style="fill: #b4e1ef"/>
    </g>
    <g clip-path="url(#p0d048bd1a0)">
     <use xlink:href="#C0_0_4dc41a5c3c" x="249.888" y="120.714073" style="fill: #aadeed"/>
    </g>
    <g clip-path="url(#p0d048bd1a0)">
     <use xlink:href="#C0_0_4dc41a5c3c" x="259.631091" y="62.255527" style="fill: #b4e1ef"/>
    </g>
    <g clip-path="url(#p0d048bd1a0)">
     <use xlink:href="#C0_0_4dc41a5c3c" x="259.631091" y="71.998618" style="fill: #9fdcec"/>
    </g>
    <g clip-path="url(#p0d048bd1a0)">
     <use xlink:href="#C0_0_4dc41a5c3c" x="259.631091" y="81.741709" style="fill: #b4e1ef"/>
    </g>
    <g clip-path="url(#p0d048bd1a0)">
     <use xlink:href="#C0_0_4dc41a5c3c" x="269.374182" y="71.998618" style="fill: #b4e1ef"/>
    </g>
    <g clip-path="url(#p0d048bd1a0)">
     <use xlink:href="#C0_0_4dc41a5c3c" x="269.374182" y="81.741709" style="fill: #9fdcec"/>
    </g>
    <g clip-path="url(#p0d048bd1a0)">
     <use xlink:href="#C0_0_4dc41a5c3c" x="269.374182" y="91.4848" style="fill: #aadeed"/>
    </g>
    <g clip-path="url(#p0d048bd1a0)">
     <use xlink:href="#C0_0_4dc41a5c3c" x="279.117273" y="62.255527" style="fill: #b4e1ef"/>
    </g>
    <g clip-path="url(#p0d048bd1a0)">
     <use xlink:href="#C0_0_4dc41a5c3c" x="279.117273" y="71.998618" style="fill: #b4e1ef"/>
    </g>
    <g clip-path="url(#p0d048bd1a0)">
     <use xlink:href="#C0_0_4dc41a5c3c" x="288.860364" y="81.741709" style="fill: #9fdcec"/>
    </g>
    <g clip-path="url(#p0d048bd1a0)">
     <use xlink:href="#C0_0_4dc41a5c3c" x="288.860364" y="91.4848" style="fill: #5bb6d5"/>
    </g>
    <g clip-path="url(#p0d048bd1a0)">
     <use xlink:href="#C0_0_4dc41a5c3c" x="288.860364" y="120.714073" style="fill: #aadeed"/>
    </g>
    <g clip-path="url(#p0d048bd1a0)">
     <use xlink:href="#C0_0_4dc41a5c3c" x="298.603455" y="71.998618" style="fill: #7fd4e8"/>
    </g>
    <g clip-path="url(#p0d048bd1a0)">
     <use xlink:href="#C0_0_4dc41a5c3c" x="298.603455" y="81.741709" style="fill: #9fdcec"/>
    </g>
    <g clip-path="url(#p0d048bd1a0)">
     <use xlink:href="#C0_0_4dc41a5c3c" x="298.603455" y="91.4848" style="fill: #aadeed"/>
    </g>
    <g clip-path="url(#p0d048bd1a0)">
     <use xlink:href="#C0_0_4dc41a5c3c" x="298.603455" y="101.227891" style="fill: #b4e1ef"/>
    </g>
    <g clip-path="url(#p0d048bd1a0)">
     <use xlink:href="#C0_0_4dc41a5c3c" x="298.603455" y="110.970982" style="fill: #7fd4e8"/>
    </g>
    <g clip-path="url(#p0d048bd1a0)">
     <use xlink:href="#C0_0_4dc41a5c3c" x="308.346545" y="81.741709" style="fill: #aadeed"/>
    </g>
    <g clip-path="url(#p0d048bd1a0)">
     <use xlink:href="#C0_0_4dc41a5c3c" x="308.346545" y="91.4848" style="fill: #b4e1ef"/>
    </g>
    <g clip-path="url(#p0d048bd1a0)">
     <use xlink:href="#C0_0_4dc41a5c3c" x="308.346545" y="110.970982" style="fill: #b4e1ef"/>
    </g>
    <g clip-path="url(#p0d048bd1a0)">
     <use xlink:href="#C0_0_4dc41a5c3c" x="318.089636" y="62.255527" style="fill: #aadeed"/>
    </g>
    <g clip-path="url(#p0d048bd1a0)">
     <use xlink:href="#C0_0_4dc41a5c3c" x="318.089636" y="81.741709" style="fill: #8ad7ea"/>
    </g>
    <g clip-path="url(#p0d048bd1a0)">
     <use xlink:href="#C0_0_4dc41a5c3c" x="318.089636" y="91.4848" style="fill: #7fd4e8"/>
    </g>
    <g clip-path="url(#p0d048bd1a0)">
     <use xlink:href="#C0_0_4dc41a5c3c" x="318.089636" y="101.227891" style="fill: #5bb6d5"/>
    </g>
    <g clip-path="url(#p0d048bd1a0)">
     <use xlink:href="#C0_0_4dc41a5c3c" x="318.089636" y="110.970982" style="fill: #b4e1ef"/>
    </g>
    <g clip-path="url(#p0d048bd1a0)">
     <use xlink:href="#C0_0_4dc41a5c3c" x="318.089636" y="120.714073" style="fill: #7fd4e8"/>
    </g>
    <g clip-path="url(#p0d048bd1a0)">
     <use xlink:href="#C0_0_4dc41a5c3c" x="327.832727" y="62.255527" style="fill: #4fa8cc"/>
    </g>
    <g clip-path="url(#p0d048bd1a0)">
     <use xlink:href="#C0_0_4dc41a5c3c" x="327.832727" y="71.998618" style="fill: #9fdcec"/>
    </g>
    <g clip-path="url(#p0d048bd1a0)">
     <use xlink:href="#C0_0_4dc41a5c3c" x="327.832727" y="81.741709" style="fill: #b4e1ef"/>
    </g>
    <g clip-path="url(#p0d048bd1a0)">
     <use xlink:href="#C0_0_4dc41a5c3c" x="327.832727" y="91.4848" style="fill: #95d9eb"/>
    </g>
    <g clip-path="url(#p0d048bd1a0)">
     <use xlink:href="#C0_0_4dc41a5c3c" x="327.832727" y="101.227891" style="fill: #aadeed"/>
    </g>
    <g clip-path="url(#p0d048bd1a0)">
     <use xlink:href="#C0_0_4dc41a5c3c" x="327.832727" y="110.970982" style="fill: #7fd4e8"/>
    </g>
    <g clip-path="url(#p0d048bd1a0)">
     <use xlink:href="#C0_0_4dc41a5c3c" x="327.832727" y="120.714073" style="fill: #9fdcec"/>
    </g>
    <g clip-path="url(#p0d048bd1a0)">
     <use xlink:href="#C0_0_4dc41a5c3c" x="337.575818" y="91.4848" style="fill: #b4e1ef"/>
    </g>
    <g clip-path="url(#p0d048bd1a0)">
     <use xlink:href="#C0_0_4dc41a5c3c" x="347.318909" y="71.998618" style="fill: #b4e1ef"/>
    </g>
    <g clip-path="url(#p0d048bd1a0)">
     <use xlink:href="#C0_0_4dc41a5c3c" x="347.318909" y="120.714073" style="fill: #b4e1ef"/>
    </g>
    <g clip-path="url(#p0d048bd1a0)">
     <use xlink:href="#C0_0_4dc41a5c3c" x="366.805091" y="81.741709" style="fill: #aadeed"/>
    </g>
    <g clip-path="url(#p0d048bd1a0)">
     <use xlink:href="#C0_0_4dc41a5c3c" x="366.805091" y="91.4848" style="fill: #9fdcec"/>
    </g>
    <g clip-path="url(#p0d048bd1a0)">
     <use xlink:href="#C0_0_4dc41a5c3c" x="366.805091" y="101.227891" style="fill: #aadeed"/>
    </g>
    <g clip-path="url(#p0d048bd1a0)">
     <use xlink:href="#C0_0_4dc41a5c3c" x="366.805091" y="110.970982" style="fill: #b4e1ef"/>
    </g>
    <g clip-path="url(#p0d048bd1a0)">
     <use xlink:href="#C0_0_4dc41a5c3c" x="366.805091" y="120.714073" style="fill: #9fdcec"/>
    </g>
    <g clip-path="url(#p0d048bd1a0)">
     <use xlink:href="#C0_0_4dc41a5c3c" x="386.291273" y="81.741709" style="fill: #aadeed"/>
    </g>
    <g clip-path="url(#p0d048bd1a0)">
     <use xlink:href="#C0_0_4dc41a5c3c" x="386.291273" y="101.227891" style="fill: #aadeed"/>
    </g>
    <g clip-path="url(#p0d048bd1a0)">
     <use xlink:href="#C0_0_4dc41a5c3c" x="396.034364" y="110.970982" style="fill: #b4e1ef"/>
    </g>
    <g clip-path="url(#p0d048bd1a0)">
     <use xlink:href="#C0_0_4dc41a5c3c" x="405.777455" y="101.227891" style="fill: #aadeed"/>
    </g>
    <g clip-path="url(#p0d048bd1a0)">
     <use xlink:href="#C0_0_4dc41a5c3c" x="405.777455" y="110.970982" style="fill: #b4e1ef"/>
    </g>
    <g clip-path="url(#p0d048bd1a0)">
     <use xlink:href="#C0_0_4dc41a5c3c" x="415.520545" y="71.998618" style="fill: #aadeed"/>
    </g>
    <g clip-path="url(#p0d048bd1a0)">
     <use xlink:href="#C0_0_4dc41a5c3c" x="415.520545" y="81.741709" style="fill: #b4e1ef"/>
    </g>
    <g clip-path="url(#p0d048bd1a0)">
     <use xlink:href="#C0_0_4dc41a5c3c" x="415.520545" y="101.227891" style="fill: #9fdcec"/>
    </g>
    <g clip-path="url(#p0d048bd1a0)">
     <use xlink:href="#C0_0_4dc41a5c3c" x="435.006727" y="71.998618" style="fill: #b4e1ef"/>
    </g>
    <g clip-path="url(#p0d048bd1a0)">
     <use xlink:href="#C0_0_4dc41a5c3c" x="435.006727" y="81.741709" style="fill: #b4e1ef"/>
    </g>
    <g clip-path="url(#p0d048bd1a0)">
     <use xlink:href="#C0_0_4dc41a5c3c" x="435.006727" y="91.4848" style="fill: #aadeed"/>
    </g>
    <g clip-path="url(#p0d048bd1a0)">
     <use xlink:href="#C0_0_4dc41a5c3c" x="435.006727" y="101.227891" style="fill: #9fdcec"/>
    </g>
    <g clip-path="url(#p0d048bd1a0)">
     <use xlink:href="#C0_0_4dc41a5c3c" x="435.006727" y="110.970982" style="fill: #b4e1ef"/>
    </g>
    <g clip-path="url(#p0d048bd1a0)">
     <use xlink:href="#C0_0_4dc41a5c3c" x="435.006727" y="120.714073" style="fill: #9fdcec"/>
    </g>
    <g clip-path="url(#p0d048bd1a0)">
     <use xlink:href="#C0_0_4dc41a5c3c" x="444.749818" y="71.998618" style="fill: #aadeed"/>
    </g>
    <g clip-path="url(#p0d048bd1a0)">
     <use xlink:href="#C0_0_4dc41a5c3c" x="444.749818" y="81.741709" style="fill: #95d9eb"/>
    </g>
    <g clip-path="url(#p0d048bd1a0)">
     <use xlink:href="#C0_0_4dc41a5c3c" x="444.749818" y="91.4848" style="fill: #95d9eb"/>
    </g>
    <g clip-path="url(#p0d048bd1a0)">
     <use xlink:href="#C0_0_4dc41a5c3c" x="444.749818" y="101.227891" style="fill: #5bb6d5"/>
    </g>
    <g clip-path="url(#p0d048bd1a0)">
     <use xlink:href="#C0_0_4dc41a5c3c" x="444.749818" y="110.970982" style="fill: #74d2e7"/>
    </g>
    <g clip-path="url(#p0d048bd1a0)">
     <use xlink:href="#C0_0_4dc41a5c3c" x="444.749818" y="120.714073" style="fill: #aadeed"/>
    </g>
    <g clip-path="url(#p0d048bd1a0)">
     <use xlink:href="#C0_0_4dc41a5c3c" x="454.492909" y="62.255527" style="fill: #9fdcec"/>
    </g>
    <g clip-path="url(#p0d048bd1a0)">
     <use xlink:href="#C0_0_4dc41a5c3c" x="454.492909" y="81.741709" style="fill: #aadeed"/>
    </g>
    <g clip-path="url(#p0d048bd1a0)">
     <use xlink:href="#C0_0_4dc41a5c3c" x="454.492909" y="91.4848" style="fill: #74d2e7"/>
    </g>
    <g clip-path="url(#p0d048bd1a0)">
     <use xlink:href="#C0_0_4dc41a5c3c" x="454.492909" y="101.227891" style="fill: #002d72"/>
    </g>
    <g clip-path="url(#p0d048bd1a0)">
     <use xlink:href="#C0_0_4dc41a5c3c" x="454.492909" y="110.970982" style="fill: #b4e1ef"/>
    </g>
    <g clip-path="url(#p0d048bd1a0)">
     <use xlink:href="#C0_0_4dc41a5c3c" x="454.492909" y="120.714073" style="fill: #b4e1ef"/>
    </g>
    <g clip-path="url(#p0d048bd1a0)">
     <use xlink:href="#C0_0_4dc41a5c3c" x="464.236" y="62.255527" style="fill: #7fd4e8"/>
    </g>
    <g clip-path="url(#p0d048bd1a0)">
     <use xlink:href="#C0_0_4dc41a5c3c" x="464.236" y="81.741709" style="fill: #aadeed"/>
    </g>
    <g clip-path="url(#p0d048bd1a0)">
     <use xlink:href="#C0_0_4dc41a5c3c" x="464.236" y="91.4848" style="fill: #95d9eb"/>
    </g>
    <g clip-path="url(#p0d048bd1a0)">
     <use xlink:href="#C0_0_4dc41a5c3c" x="464.236" y="101.227891" style="fill: #002d72"/>
    </g>
    <g clip-path="url(#p0d048bd1a0)">
     <use xlink:href="#C0_0_4dc41a5c3c" x="464.236" y="110.970982" style="fill: #002d72"/>
    </g>
    <g clip-path="url(#p0d048bd1a0)">
     <use xlink:href="#C0_0_4dc41a5c3c" x="464.236" y="120.714073" style="fill: #7fd4e8"/>
    </g>
    <g clip-path="url(#p0d048bd1a0)">
     <use xlink:href="#C0_0_4dc41a5c3c" x="473.979091" y="62.255527" style="fill: #1c6ea8"/>
    </g>
    <g clip-path="url(#p0d048bd1a0)">
     <use xlink:href="#C0_0_4dc41a5c3c" x="473.979091" y="71.998618" style="fill: #002d72"/>
    </g>
    <g clip-path="url(#p0d048bd1a0)">
     <use xlink:href="#C0_0_4dc41a5c3c" x="473.979091" y="81.741709" style="fill: #b4e1ef"/>
    </g>
    <g clip-path="url(#p0d048bd1a0)">
     <use xlink:href="#C0_0_4dc41a5c3c" x="473.979091" y="91.4848" style="fill: #9fdcec"/>
    </g>
    <g clip-path="url(#p0d048bd1a0)">
     <use xlink:href="#C0_0_4dc41a5c3c" x="473.979091" y="101.227891" style="fill: #358aba"/>
    </g>
    <g clip-path="url(#p0d048bd1a0)">
     <use xlink:href="#C0_0_4dc41a5c3c" x="473.979091" y="110.970982" style="fill: #5bb6d5"/>
    </g>
    <g clip-path="url(#p0d048bd1a0)">
     <use xlink:href="#C0_0_4dc41a5c3c" x="473.979091" y="120.714073" style="fill: #002d72"/>
    </g>
    <g clip-path="url(#p0d048bd1a0)">
     <use xlink:href="#C0_0_4dc41a5c3c" x="483.722182" y="71.998618" style="fill: #002d72"/>
    </g>
    <g clip-path="url(#p0d048bd1a0)">
     <use xlink:href="#C0_0_4dc41a5c3c" x="483.722182" y="81.741709" style="fill: #002d72"/>
    </g>
    <g clip-path="url(#p0d048bd1a0)">
     <use xlink:href="#C0_0_4dc41a5c3c" x="483.722182" y="91.4848" style="fill: #002d72"/>
    </g>
    <g clip-path="url(#p0d048bd1a0)">
     <use xlink:href="#C0_0_4dc41a5c3c" x="483.722182" y="101.227891" style="fill: #5bb6d5"/>
    </g>
    <g clip-path="url(#p0d048bd1a0)">
     <use xlink:href="#C0_0_4dc41a5c3c" x="483.722182" y="110.970982" style="fill: #9fdcec"/>
    </g>
    <g clip-path="url(#p0d048bd1a0)">
     <use xlink:href="#C0_0_4dc41a5c3c" x="483.722182" y="120.714073" style="fill: #9fdcec"/>
    </g>
    <g clip-path="url(#p0d048bd1a0)">
     <use xlink:href="#C0_0_4dc41a5c3c" x="493.465273" y="71.998618" style="fill: #7fd4e8"/>
    </g>
    <g clip-path="url(#p0d048bd1a0)">
     <use xlink:href="#C0_0_4dc41a5c3c" x="493.465273" y="81.741709" style="fill: #145b98"/>
    </g>
    <g clip-path="url(#p0d048bd1a0)">
     <use xlink:href="#C0_0_4dc41a5c3c" x="493.465273" y="91.4848" style="fill: #74d2e7"/>
    </g>
    <g clip-path="url(#p0d048bd1a0)">
     <use xlink:href="#C0_0_4dc41a5c3c" x="493.465273" y="101.227891" style="fill: #1c6ea8"/>
    </g>
    <g clip-path="url(#p0d048bd1a0)">
     <use xlink:href="#C0_0_4dc41a5c3c" x="493.465273" y="110.970982" style="fill: #aadeed"/>
    </g>
    <g clip-path="url(#p0d048bd1a0)">
     <use xlink:href="#C0_0_4dc41a5c3c" x="493.465273" y="120.714073" style="fill: #9fdcec"/>
    </g>
    <g clip-path="url(#p0d048bd1a0)">
     <use xlink:href="#C0_0_4dc41a5c3c" x="503.208364" y="62.255527" style="fill: #8ad7ea"/>
    </g>
    <g clip-path="url(#p0d048bd1a0)">
     <use xlink:href="#C0_0_4dc41a5c3c" x="503.208364" y="71.998618" style="fill: #1c6ea8"/>
    </g>
    <g clip-path="url(#p0d048bd1a0)">
     <use xlink:href="#C0_0_4dc41a5c3c" x="503.208364" y="81.741709" style="fill: #105290"/>
    </g>
    <g clip-path="url(#p0d048bd1a0)">
     <use xlink:href="#C0_0_4dc41a5c3c" x="503.208364" y="91.4848" style="fill: #287cb1"/>
    </g>
    <g clip-path="url(#p0d048bd1a0)">
     <use xlink:href="#C0_0_4dc41a5c3c" x="503.208364" y="101.227891" style="fill: #358aba"/>
    </g>
    <g clip-path="url(#p0d048bd1a0)">
     <use xlink:href="#C0_0_4dc41a5c3c" x="503.208364" y="110.970982" style="fill: #287cb1"/>
    </g>
    <g clip-path="url(#p0d048bd1a0)">
     <use xlink:href="#C0_0_4dc41a5c3c" x="512.951455" y="62.255527" style="fill: #083f81"/>
    </g>
    <g clip-path="url(#p0d048bd1a0)">
     <use xlink:href="#C0_0_4dc41a5c3c" x="512.951455" y="71.998618" style="fill: #1c6ea8"/>
    </g>
    <g clip-path="url(#p0d048bd1a0)">
     <use xlink:href="#C0_0_4dc41a5c3c" x="512.951455" y="81.741709" style="fill: #8ad7ea"/>
    </g>
    <g clip-path="url(#p0d048bd1a0)">
     <use xlink:href="#C0_0_4dc41a5c3c" x="512.951455" y="91.4848" style="fill: #7fd4e8"/>
    </g>
    <g clip-path="url(#p0d048bd1a0)">
     <use xlink:href="#C0_0_4dc41a5c3c" x="512.951455" y="101.227891" style="fill: #002d72"/>
    </g>
    <g clip-path="url(#p0d048bd1a0)">
     <use xlink:href="#C0_0_4dc41a5c3c" x="512.951455" y="110.970982" style="fill: #002d72"/>
    </g>
    <g clip-path="url(#p0d048bd1a0)">
     <use xlink:href="#C0_0_4dc41a5c3c" x="512.951455" y="120.714073" style="fill: #4fa8cc"/>
    </g>
    <g clip-path="url(#p0d048bd1a0)">
     <use xlink:href="#C0_0_4dc41a5c3c" x="522.694545" y="62.255527" style="fill: #68c4de"/>
    </g>
    <g clip-path="url(#p0d048bd1a0)">
     <use xlink:href="#C0_0_4dc41a5c3c" x="522.694545" y="71.998618" style="fill: #0c4989"/>
    </g>
    <g clip-path="url(#p0d048bd1a0)">
     <use xlink:href="#C0_0_4dc41a5c3c" x="522.694545" y="81.741709" style="fill: #083f81"/>
    </g>
    <g clip-path="url(#p0d048bd1a0)">
     <use xlink:href="#C0_0_4dc41a5c3c" x="522.694545" y="91.4848" style="fill: #358aba"/>
    </g>
    <g clip-path="url(#p0d048bd1a0)">
     <use xlink:href="#C0_0_4dc41a5c3c" x="522.694545" y="101.227891" style="fill: #287cb1"/>
    </g>
    <g clip-path="url(#p0d048bd1a0)">
     <use xlink:href="#C0_0_4dc41a5c3c" x="522.694545" y="110.970982" style="fill: #9fdcec"/>
    </g>
    <g clip-path="url(#p0d048bd1a0)">
     <use xlink:href="#C0_0_4dc41a5c3c" x="522.694545" y="120.714073" style="fill: #aadeed"/>
    </g>
    <g clip-path="url(#p0d048bd1a0)">
     <use xlink:href="#C0_0_4dc41a5c3c" x="532.437636" y="62.255527" style="fill: #7fd4e8"/>
    </g>
    <g clip-path="url(#p0d048bd1a0)">
     <use xlink:href="#C0_0_4dc41a5c3c" x="532.437636" y="71.998618" style="fill: #68c4de"/>
    </g>
    <g clip-path="url(#p0d048bd1a0)">
     <use xlink:href="#C0_0_4dc41a5c3c" x="532.437636" y="81.741709" style="fill: #aadeed"/>
    </g>
    <g clip-path="url(#p0d048bd1a0)">
     <use xlink:href="#C0_0_4dc41a5c3c" x="532.437636" y="91.4848" style="fill: #aadeed"/>
    </g>
    <g clip-path="url(#p0d048bd1a0)">
     <use xlink:href="#C0_0_4dc41a5c3c" x="532.437636" y="101.227891" style="fill: #aadeed"/>
    </g>
    <g clip-path="url(#p0d048bd1a0)">
     <use xlink:href="#C0_0_4dc41a5c3c" x="532.437636" y="110.970982" style="fill: #aadeed"/>
    </g>
    <g clip-path="url(#p0d048bd1a0)">
     <use xlink:href="#C0_0_4dc41a5c3c" x="532.437636" y="120.714073" style="fill: #aadeed"/>
    </g>
    <g clip-path="url(#p0d048bd1a0)">
     <use xlink:href="#C0_0_4dc41a5c3c" x="542.180727" y="62.255527" style="fill: #7fd4e8"/>
    </g>
    <g clip-path="url(#p0d048bd1a0)">
     <use xlink:href="#C0_0_4dc41a5c3c" x="542.180727" y="71.998618" style="fill: #7fd4e8"/>
    </g>
    <g clip-path="url(#p0d048bd1a0)">
     <use xlink:href="#C0_0_4dc41a5c3c" x="542.180727" y="81.741709" style="fill: #8ad7ea"/>
    </g>
    <g clip-path="url(#p0d048bd1a0)">
     <use xlink:href="#C0_0_4dc41a5c3c" x="542.180727" y="91.4848" style="fill: #68c4de"/>
    </g>
    <g clip-path="url(#p0d048bd1a0)">
     <use xlink:href="#C0_0_4dc41a5c3c" x="542.180727" y="101.227891" style="fill: #b4e1ef"/>
    </g>
    <g clip-path="url(#p0d048bd1a0)">
     <use xlink:href="#C0_0_4dc41a5c3c" x="551.923818" y="71.998618" style="fill: #b4e1ef"/>
    </g>
    <g clip-path="url(#p0d048bd1a0)">
     <use xlink:href="#C0_0_4dc41a5c3c" x="551.923818" y="101.227891" style="fill: #9fdcec"/>
    </g>
    <g clip-path="url(#p0d048bd1a0)">
     <use xlink:href="#C0_0_4dc41a5c3c" x="551.923818" y="110.970982" style="fill: #74d2e7"/>
    </g>
    <g clip-path="url(#p0d048bd1a0)">
     <use xlink:href="#C0_0_4dc41a5c3c" x="551.923818" y="120.714073" style="fill: #358aba"/>
    </g>
    <g clip-path="url(#p0d048bd1a0)">
     <use xlink:href="#C0_0_4dc41a5c3c" x="561.666909" y="71.998618" style="fill: #002d72"/>
    </g>
   </g>
   <g id="PathCollection_3">
    <g clip-path="url(#p0d048bd1a0)">
     <use xlink:href="#me67627a0ab" x="522.694545" y="134.3544" style="fill: #ebedf0"/>
    </g>
   </g>
   <g id="PathCollection_4">
    <path d="M 528.194996 138.597041 
L 536.680277 138.597041 
L 536.680277 130.111759 
L 528.194996 130.111759 
z
" clip-path="url(#p0d048bd1a0)" style="fill: #87d6e9"/>
    <path d="M 537.938087 138.597041 
L 546.423368 138.597041 
L 546.423368 130.111759 
L 537.938087 130.111759 
z
" clip-path="url(#p0d048bd1a0)" style="fill: #479fc7"/>
    <path d="M 547.681177 138.597041 
L 556.166459 138.597041 
L 556.166459 130.111759 
L 547.681177 130.111759 
z
" clip-path="url(#p0d048bd1a0)" style="fill: #155d9a"/>
    <path d="M 557.424268 138.597041 
L 565.90955 138.597041 
L 565.90955 130.111759 
L 557.424268 130.111759 
z
" clip-path="url(#p0d048bd1a0)" style="fill: #002d72"/>
   </g>
   <g id="text_17">
    <!-- Less -->
    <g style="fill: #1c2531" transform="translate(496.679736 137.1624) scale(0.09 -0.09)">
     <defs>
      <path id="SourceSans3-Regular-d" d="M 576 0 
L 576 4198 
L 1107 4198 
L 1107 454 
L 2944 454 
L 2944 0 
L 576 0 
z
" transform="scale(0.015625)"/>
      <path id="SourceSans3-Regular-2e" d="M 1338 -77 
Q 998 -77 694 41 
Q 390 160 179 371 
L 422 678 
Q 627 512 848 422 
Q 1069 333 1357 333 
Q 1664 333 1817 477 
Q 1971 621 1971 819 
Q 1971 979 1865 1084 
Q 1760 1190 1603 1264 
Q 1446 1338 1267 1402 
Q 1037 1485 825 1597 
Q 614 1709 483 1878 
Q 352 2048 352 2304 
Q 352 2682 637 2934 
Q 922 3187 1427 3187 
Q 1715 3187 1964 3088 
Q 2214 2989 2394 2835 
L 2150 2534 
Q 1984 2650 1811 2714 
Q 1638 2778 1427 2778 
Q 1133 2778 995 2643 
Q 858 2509 858 2330 
Q 858 2189 941 2096 
Q 1024 2003 1174 1932 
Q 1325 1862 1517 1798 
Q 1760 1709 1981 1597 
Q 2202 1485 2339 1309 
Q 2477 1133 2477 851 
Q 2477 595 2345 387 
Q 2214 179 1961 51 
Q 1709 -77 1338 -77 
z
" transform="scale(0.015625)"/>
     </defs>
     <use xlink:href="#SourceSans3-Regular-d"/>
     <use xlink:href="#SourceSans3-Regular-20" transform="translate(47.390625 0)"/>
     <use xlink:href="#SourceSans3-Regular-2e" transform="translate(96.984375 0)"/>
     <use xlink:href="#SourceSans3-Regular-2e" transform="translate(138.890625 0)"/>
    </g>
   </g>
   <g id="text_18">
    <!-- More -->
    <g style="fill: #1c2531" transform="translate(571.41 137.1624) scale(0.09 -0.09)">
     <use xlink:href="#SourceSans3-Regular-e"/>
     <use xlink:href="#SourceSans3-Regular-2a" transform="translate(72.703125 0)"/>
     <use xlink:href="#SourceSans3-Regular-2d" transform="translate(126.90625 0)"/>
     <use xlink:href="#SourceSans3-Regular-20" transform="translate(160.609375 0)"/>
    </g>
   </g>
   <g id="text_19">
    <!-- 1,086 contributions in the last year -->
    <g style="fill: #002d72" transform="translate(186.487188 21.348436) scale(0.13 -0.13)">
     <defs>
      <path id="Montserrat-Bold-846" d="M 941 0 
L 941 4096 
L 1389 3648 
L 45 3648 
L 45 4480 
L 1978 4480 
L 1978 0 
L 941 0 
z
" transform="scale(0.015625)"/>
      <path id="Montserrat-Bold-8c9" d="M 288 -986 
L 710 550 
L 851 -26 
Q 576 -26 400 134 
Q 224 294 224 576 
Q 224 858 403 1024 
Q 582 1190 845 1190 
Q 1114 1190 1286 1020 
Q 1459 851 1459 576 
Q 1459 493 1446 413 
Q 1434 333 1398 221 
Q 1363 109 1286 -64 
L 922 -986 
L 288 -986 
z
" transform="scale(0.015625)"/>
      <path id="Montserrat-Bold-845" d="M 2170 -77 
Q 1619 -77 1184 195 
Q 749 467 499 985 
Q 250 1504 250 2240 
Q 250 2976 499 3494 
Q 749 4013 1184 4285 
Q 1619 4557 2170 4557 
Q 2726 4557 3158 4285 
Q 3590 4013 3840 3494 
Q 4090 2976 4090 2240 
Q 4090 1504 3840 985 
Q 3590 467 3158 195 
Q 2726 -77 2170 -77 
z
M 2170 800 
Q 2432 800 2627 947 
Q 2822 1094 2934 1414 
Q 3046 1734 3046 2240 
Q 3046 2746 2934 3066 
Q 2822 3386 2627 3533 
Q 2432 3680 2170 3680 
Q 1914 3680 1718 3533 
Q 1523 3386 1411 3066 
Q 1299 2746 1299 2240 
Q 1299 1734 1411 1414 
Q 1523 1094 1718 947 
Q 1914 800 2170 800 
z
" transform="scale(0.015625)"/>
      <path id="Montserrat-Bold-84d" d="M 2106 -77 
Q 1542 -77 1120 92 
Q 698 262 461 572 
Q 224 883 224 1299 
Q 224 1715 457 2006 
Q 691 2298 1113 2448 
Q 1536 2598 2106 2598 
Q 2682 2598 3107 2448 
Q 3533 2298 3766 2006 
Q 4000 1715 4000 1299 
Q 4000 883 3763 572 
Q 3526 262 3100 92 
Q 2675 -77 2106 -77 
z
M 2106 685 
Q 2496 685 2723 857 
Q 2950 1030 2950 1331 
Q 2950 1632 2723 1801 
Q 2496 1971 2106 1971 
Q 1722 1971 1498 1801 
Q 1274 1632 1274 1331 
Q 1274 1030 1498 857 
Q 1722 685 2106 685 
z
M 2106 2682 
Q 2432 2682 2621 2829 
Q 2810 2976 2810 3232 
Q 2810 3501 2614 3648 
Q 2419 3795 2106 3795 
Q 1798 3795 1606 3648 
Q 1414 3501 1414 3232 
Q 1414 2976 1600 2829 
Q 1786 2682 2106 2682 
z
M 2106 2074 
Q 1587 2074 1200 2214 
Q 813 2355 598 2627 
Q 384 2899 384 3277 
Q 384 3674 601 3958 
Q 819 4243 1209 4400 
Q 1600 4557 2106 4557 
Q 2624 4557 3011 4400 
Q 3398 4243 3619 3958 
Q 3840 3674 3840 3277 
Q 3840 2899 3625 2627 
Q 3411 2355 3020 2214 
Q 2630 2074 2106 2074 
z
" transform="scale(0.015625)"/>
      <path id="Montserrat-Bold-84b" d="M 2253 -77 
Q 1638 -77 1187 179 
Q 736 435 493 928 
Q 250 1421 250 2144 
Q 250 2918 541 3456 
Q 832 3994 1347 4275 
Q 1862 4557 2534 4557 
Q 2893 4557 3219 4480 
Q 3546 4403 3782 4250 
L 3398 3488 
Q 3213 3616 3001 3664 
Q 2790 3712 2560 3712 
Q 1978 3712 1638 3360 
Q 1299 3008 1299 2317 
Q 1299 2202 1302 2061 
Q 1306 1920 1338 1779 
L 1050 2048 
Q 1171 2298 1363 2467 
Q 1555 2637 1820 2723 
Q 2086 2810 2406 2810 
Q 2842 2810 3187 2637 
Q 3533 2464 3741 2150 
Q 3949 1837 3949 1414 
Q 3949 960 3721 624 
Q 3494 288 3113 105 
Q 2733 -77 2253 -77 
z
M 2195 698 
Q 2413 698 2582 778 
Q 2752 858 2848 1011 
Q 2944 1165 2944 1363 
Q 2944 1670 2736 1852 
Q 2528 2035 2182 2035 
Q 1952 2035 1779 1948 
Q 1606 1862 1507 1712 
Q 1408 1562 1408 1363 
Q 1408 1171 1504 1020 
Q 1600 870 1773 784 
Q 1946 698 2195 698 
z
" transform="scale(0.015625)"/>
      <path id="Montserrat-Bold-8bd" transform="scale(0.015625)"/>
      <path id="Montserrat-Bold-27a" d="M 2125 -51 
Q 1568 -51 1133 176 
Q 698 403 451 806 
Q 205 1210 205 1722 
Q 205 2240 451 2640 
Q 698 3040 1133 3267 
Q 1568 3494 2125 3494 
Q 2669 3494 3072 3267 
Q 3475 3040 3667 2618 
L 2893 2202 
Q 2758 2445 2556 2560 
Q 2355 2675 2118 2675 
Q 1862 2675 1657 2560 
Q 1453 2445 1334 2233 
Q 1216 2022 1216 1722 
Q 1216 1421 1334 1209 
Q 1453 998 1657 883 
Q 1862 768 2118 768 
Q 2355 768 2556 880 
Q 2758 992 2893 1242 
L 3667 819 
Q 3475 403 3072 176 
Q 2669 -51 2125 -51 
z
" transform="scale(0.015625)"/>
      <path id="Montserrat-Bold-327" d="M 2099 -51 
Q 1549 -51 1123 179 
Q 698 410 451 810 
Q 205 1210 205 1722 
Q 205 2240 451 2640 
Q 698 3040 1123 3267 
Q 1549 3494 2099 3494 
Q 2643 3494 3072 3267 
Q 3501 3040 3744 2643 
Q 3987 2246 3987 1722 
Q 3987 1210 3744 810 
Q 3501 410 3072 179 
Q 2643 -51 2099 -51 
z
M 2099 768 
Q 2349 768 2547 883 
Q 2746 998 2861 1212 
Q 2976 1427 2976 1722 
Q 2976 2022 2861 2233 
Q 2746 2445 2547 2560 
Q 2349 2675 2099 2675 
Q 1850 2675 1651 2560 
Q 1453 2445 1334 2233 
Q 1216 2022 1216 1722 
Q 1216 1427 1334 1212 
Q 1453 998 1651 883 
Q 1850 768 2099 768 
z
" transform="scale(0.015625)"/>
      <path id="Montserrat-Bold-318" d="M 461 0 
L 461 3443 
L 1414 3443 
L 1414 2490 
L 1235 2778 
Q 1421 3123 1766 3308 
Q 2112 3494 2554 3494 
Q 2963 3494 3286 3331 
Q 3610 3168 3795 2832 
Q 3981 2496 3981 1971 
L 3981 0 
L 2982 0 
L 2982 1818 
Q 2982 2234 2800 2432 
Q 2618 2630 2285 2630 
Q 2048 2630 1859 2531 
Q 1670 2432 1564 2227 
Q 1459 2022 1459 1702 
L 1459 0 
L 461 0 
z
" transform="scale(0.015625)"/>
      <path id="Montserrat-Bold-375" d="M 1869 -51 
Q 1261 -51 921 259 
Q 582 570 582 1184 
L 582 4205 
L 1581 4205 
L 1581 1197 
Q 1581 979 1696 860 
Q 1811 742 2010 742 
Q 2246 742 2413 870 
L 2682 166 
Q 2528 58 2313 3 
Q 2099 -51 1869 -51 
z
M 51 2675 
L 51 3443 
L 2438 3443 
L 2438 2675 
L 51 2675 
z
" transform="scale(0.015625)"/>
      <path id="Montserrat-Bold-359" d="M 461 0 
L 461 3443 
L 1414 3443 
L 1414 2470 
L 1280 2752 
Q 1434 3117 1773 3305 
Q 2112 3494 2598 3494 
L 2598 2573 
Q 2534 2579 2483 2582 
Q 2432 2586 2374 2586 
Q 1965 2586 1712 2352 
Q 1459 2118 1459 1626 
L 1459 0 
L 461 0 
z
" transform="scale(0.015625)"/>
      <path id="Montserrat-Bold-2d7" d="M 461 0 
L 461 3443 
L 1459 3443 
L 1459 0 
L 461 0 
z
M 960 3923 
Q 685 3923 512 4083 
Q 339 4243 339 4480 
Q 339 4717 512 4877 
Q 685 5037 960 5037 
Q 1235 5037 1408 4886 
Q 1581 4736 1581 4499 
Q 1581 4250 1411 4086 
Q 1242 3923 960 3923 
z
" transform="scale(0.015625)"/>
      <path id="Montserrat-Bold-271" d="M 2496 -51 
Q 2042 -51 1715 141 
Q 1389 333 1216 726 
Q 1043 1120 1043 1722 
Q 1043 2330 1225 2720 
Q 1408 3110 1734 3302 
Q 2061 3494 2496 3494 
Q 2982 3494 3369 3276 
Q 3757 3059 3984 2662 
Q 4211 2266 4211 1722 
Q 4211 1184 3984 787 
Q 3757 390 3369 169 
Q 2982 -51 2496 -51 
z
M 461 0 
L 461 4749 
L 1459 4749 
L 1459 2746 
L 1395 1728 
L 1414 704 
L 1414 0 
L 461 0 
z
M 2323 768 
Q 2573 768 2768 883 
Q 2963 998 3081 1212 
Q 3200 1427 3200 1722 
Q 3200 2022 3081 2233 
Q 2963 2445 2768 2560 
Q 2573 2675 2323 2675 
Q 2074 2675 1875 2560 
Q 1677 2445 1561 2233 
Q 1446 2022 1446 1722 
Q 1446 1427 1561 1212 
Q 1677 998 1875 883 
Q 2074 768 2323 768 
z
" transform="scale(0.015625)"/>
      <path id="Montserrat-Bold-383" d="M 1914 -51 
Q 1485 -51 1149 115 
Q 813 282 627 624 
Q 442 966 442 1498 
L 442 3443 
L 1440 3443 
L 1440 1645 
Q 1440 1216 1622 1014 
Q 1805 813 2138 813 
Q 2368 813 2547 912 
Q 2726 1011 2828 1219 
Q 2931 1427 2931 1741 
L 2931 3443 
L 3930 3443 
L 3930 0 
L 2982 0 
L 2982 947 
L 3155 672 
Q 2982 314 2646 131 
Q 2310 -51 1914 -51 
z
" transform="scale(0.015625)"/>
      <path id="Montserrat-Bold-367" d="M 1619 -51 
Q 1178 -51 771 54 
Q 365 160 128 320 
L 461 1037 
Q 698 890 1021 797 
Q 1344 704 1658 704 
Q 2003 704 2147 787 
Q 2291 870 2291 1018 
Q 2291 1139 2179 1200 
Q 2067 1261 1881 1293 
Q 1696 1325 1475 1357 
Q 1254 1389 1030 1443 
Q 806 1498 620 1606 
Q 435 1715 323 1900 
Q 211 2086 211 2381 
Q 211 2707 400 2956 
Q 589 3206 947 3350 
Q 1306 3494 1805 3494 
Q 2157 3494 2521 3417 
Q 2886 3341 3130 3194 
L 2797 2483 
Q 2547 2630 2294 2684 
Q 2042 2739 1805 2739 
Q 1472 2739 1318 2649 
Q 1165 2560 1165 2419 
Q 1165 2291 1277 2227 
Q 1389 2163 1574 2124 
Q 1760 2086 1981 2057 
Q 2202 2029 2426 1971 
Q 2650 1914 2832 1808 
Q 3014 1702 3129 1520 
Q 3245 1338 3245 1043 
Q 3245 723 3053 476 
Q 2861 230 2499 89 
Q 2138 -51 1619 -51 
z
" transform="scale(0.015625)"/>
      <path id="Montserrat-Bold-2ca" d="M 461 0 
L 461 4749 
L 1459 4749 
L 1459 2490 
L 1235 2778 
Q 1421 3123 1766 3308 
Q 2112 3494 2554 3494 
Q 2963 3494 3286 3331 
Q 3610 3168 3795 2832 
Q 3981 2496 3981 1971 
L 3981 0 
L 2982 0 
L 2982 1818 
Q 2982 2234 2800 2432 
Q 2618 2630 2285 2630 
Q 2048 2630 1859 2531 
Q 1670 2432 1564 2227 
Q 1459 2022 1459 1702 
L 1459 0 
L 461 0 
z
" transform="scale(0.015625)"/>
      <path id="Montserrat-Bold-295" d="M 2170 -51 
Q 1581 -51 1136 179 
Q 691 410 448 810 
Q 205 1210 205 1722 
Q 205 2240 445 2640 
Q 685 3040 1101 3267 
Q 1517 3494 2042 3494 
Q 2547 3494 2953 3280 
Q 3360 3066 3597 2666 
Q 3834 2266 3834 1709 
Q 3834 1651 3827 1577 
Q 3821 1504 3814 1440 
L 1018 1440 
L 1018 2022 
L 3290 2022 
L 2906 1850 
Q 2906 2118 2797 2316 
Q 2688 2515 2496 2627 
Q 2304 2739 2048 2739 
Q 1792 2739 1597 2627 
Q 1402 2515 1293 2313 
Q 1184 2112 1184 1837 
L 1184 1683 
Q 1184 1402 1309 1187 
Q 1434 973 1661 861 
Q 1888 749 2195 749 
Q 2470 749 2678 832 
Q 2886 915 3059 1082 
L 3590 506 
Q 3354 237 2995 93 
Q 2637 -51 2170 -51 
z
" transform="scale(0.015625)"/>
      <path id="Montserrat-Bold-301" d="M 461 0 
L 461 4749 
L 1459 4749 
L 1459 0 
L 461 0 
z
" transform="scale(0.015625)"/>
      <path id="Montserrat-Bold-24c" d="M 2573 0 
L 2573 672 
L 2509 819 
L 2509 2022 
Q 2509 2342 2313 2521 
Q 2118 2701 1715 2701 
Q 1440 2701 1174 2614 
Q 909 2528 723 2381 
L 365 3078 
Q 646 3277 1043 3385 
Q 1440 3494 1850 3494 
Q 2637 3494 3072 3123 
Q 3507 2752 3507 1965 
L 3507 0 
L 2573 0 
z
M 1523 -51 
Q 1120 -51 832 86 
Q 544 224 390 461 
Q 237 698 237 992 
Q 237 1299 387 1529 
Q 538 1760 864 1891 
Q 1190 2022 1715 2022 
L 2630 2022 
L 2630 1440 
L 1824 1440 
Q 1472 1440 1341 1325 
Q 1210 1210 1210 1037 
Q 1210 845 1360 733 
Q 1510 621 1773 621 
Q 2022 621 2220 739 
Q 2419 858 2509 1088 
L 2662 627 
Q 2554 294 2266 121 
Q 1978 -51 1523 -51 
z
" transform="scale(0.015625)"/>
      <path id="Montserrat-Bold-3b5" d="M 896 -1293 
Q 627 -1293 364 -1209 
Q 102 -1126 -64 -979 
L 301 -269 
Q 416 -371 566 -428 
Q 717 -486 864 -486 
Q 1075 -486 1200 -387 
Q 1325 -288 1427 -58 
L 1606 365 
L 1683 474 
L 2918 3443 
L 3878 3443 
L 2323 -211 
Q 2157 -627 1942 -864 
Q 1728 -1101 1469 -1197 
Q 1210 -1293 896 -1293 
z
M 1485 -134 
L -51 3443 
L 979 3443 
L 2170 563 
L 1485 -134 
z
" transform="scale(0.015625)"/>
     </defs>
     <use xlink:href="#Montserrat-Bold-846"/>
     <use xlink:href="#Montserrat-Bold-8c9" transform="translate(39.203125 0)"/>
     <use xlink:href="#Montserrat-Bold-845" transform="translate(64.109375 0)"/>
     <use xlink:href="#Montserrat-Bold-84d" transform="translate(132.015625 0)"/>
     <use xlink:href="#Montserrat-Bold-84b" transform="translate(198.015625 0)"/>
     <use xlink:href="#Montserrat-Bold-8bd" transform="translate(261.71875 0)"/>
     <use xlink:href="#Montserrat-Bold-27a" transform="translate(290.015625 0)"/>
     <use xlink:href="#Montserrat-Bold-327" transform="translate(348.40625 0)"/>
     <use xlink:href="#Montserrat-Bold-318" transform="translate(413.90625 0)"/>
     <use xlink:href="#Montserrat-Bold-375" transform="translate(483 0)"/>
     <use xlink:href="#Montserrat-Bold-359" transform="translate(526.5 0)"/>
     <use xlink:href="#Montserrat-Bold-2d7" transform="translate(569.1875 0)"/>
     <use xlink:href="#Montserrat-Bold-271" transform="translate(599.28125 0)"/>
     <use xlink:href="#Montserrat-Bold-383" transform="translate(668.28125 0)"/>
     <use xlink:href="#Montserrat-Bold-375" transform="translate(736.984375 0)"/>
     <use xlink:href="#Montserrat-Bold-2d7" transform="translate(780.484375 0)"/>
     <use xlink:href="#Montserrat-Bold-327" transform="translate(810.578125 0)"/>
     <use xlink:href="#Montserrat-Bold-318" transform="translate(876.078125 0)"/>
     <use xlink:href="#Montserrat-Bold-367" transform="translate(945.171875 0)"/>
     <use xlink:href="#Montserrat-Bold-8bd" transform="translate(998.265625 0)"/>
     <use xlink:href="#Montserrat-Bold-2d7" transform="translate(1026.5625 0)"/>
     <use xlink:href="#Montserrat-Bold-318" transform="translate(1056.65625 0)"/>
     <use xlink:href="#Montserrat-Bold-8bd" transform="translate(1125.75 0)"/>
     <use xlink:href="#Montserrat-Bold-375" transform="translate(1154.046875 0)"/>
     <use xlink:href="#Montserrat-Bold-2ca" transform="translate(1197.546875 0)"/>
     <use xlink:href="#Montserrat-Bold-295" transform="translate(1267.046875 0)"/>
     <use xlink:href="#Montserrat-Bold-8bd" transform="translate(1330.140625 0)"/>
     <use xlink:href="#Montserrat-Bold-301" transform="translate(1358.4375 0)"/>
     <use xlink:href="#Montserrat-Bold-24c" transform="translate(1388.53125 0)"/>
     <use xlink:href="#Montserrat-Bold-367" transform="translate(1450.234375 0)"/>
     <use xlink:href="#Montserrat-Bold-375" transform="translate(1503.328125 0)"/>
     <use xlink:href="#Montserrat-Bold-8bd" transform="translate(1546.828125 0)"/>
     <use xlink:href="#Montserrat-Bold-3b5" transform="translate(1575.125 0)"/>
     <use xlink:href="#Montserrat-Bold-295" transform="translate(1633.421875 0)"/>
     <use xlink:href="#Montserrat-Bold-24c" transform="translate(1695.015625 0)"/>
     <use xlink:href="#Montserrat-Bold-359" transform="translate(1756.71875 0)"/>
    </g>
   </g>
  </g>
 </g>
 <defs>
  <clipPath id="p0d048bd1a0">
   <rect x="35.54" y="52.512436" width="535.87" height="89.636436"/>
  </clipPath>
 </defs>
</svg>
